<svg id="Icons_modified" data-name="Icons modified" xmlns="http://www.w3.org/2000/svg" width="30" height="30" viewBox="0 0 30 30"><path id="Actions" d="M23.829,11.5l-.749-.493a4.088,4.088,0,0,0-.1-.8l.615-.656a.424.424,0,0,0,.048-.517l-.8-1.258a.422.422,0,0,0-.489-.174l-.864.283a3.948,3.948,0,0,0-.674-.418l-.132-.9a.423.423,0,0,0-.374-.359l-1.484-.156a.423.423,0,0,0-.441.274l-.315.849a4.068,4.068,0,0,0-.719.253l-.778-.461a.423.423,0,0,0-.515.065L15.005,8.089a.424.424,0,0,0-.065.515l.461.778a4.038,4.038,0,0,0-.263.754l-.845.322a.422.422,0,0,0-.27.443l.169,1.482a.424.424,0,0,0,.362.372l.9.124a4.041,4.041,0,0,0,.423.669l-.276.867a.425.425,0,0,0,.179.488l1.265.79a.423.423,0,0,0,.517-.053l.648-.618a4.063,4.063,0,0,0,.806.091l.5.741a.422.422,0,0,0,.493.163l1.405-.5a.424.424,0,0,0,.281-.437l-.082-.908c.1-.081.2-.149.294-.24s.174-.214.262-.321l.908.074a.423.423,0,0,0,.435-.284L24,11.994A.425.425,0,0,0,23.829,11.5Zm-2.984,1.372a2.539,2.539,0,1,1,0-3.59A2.537,2.537,0,0,1,20.845,12.874Zm-5.854,5.691a3.892,3.892,0,0,0-.181-.772l.542-.729a.423.423,0,0,0-.01-.519L14.4,15.386a.423.423,0,0,0-.505-.118l-.824.378a4.032,4.032,0,0,0-.688-.33l-.224-.876a.425.425,0,0,0-.41-.319H10.261a.423.423,0,0,0-.41.319l-.225.876a4.006,4.006,0,0,0-.719.347l-.825-.37a.425.425,0,0,0-.505.123l-.928,1.167a.422.422,0,0,0-.006.519l.549.725a3.952,3.952,0,0,0-.174.772l-.809.418a.426.426,0,0,0-.218.472l.336,1.453a.424.424,0,0,0,.4.328l.9.021a4.023,4.023,0,0,0,.506.634l-.172.876a.422.422,0,0,0,.233.464l1.346.642a.421.421,0,0,0,.507-.111l.584-.7c.126.011.248.038.377.038a3.991,3.991,0,0,0,.412-.042l.591.7a.423.423,0,0,0,.508.106l1.34-.653a.424.424,0,0,0,.229-.466l-.181-.879a3.988,3.988,0,0,0,.5-.635l.9-.029a.423.423,0,0,0,.4-.331l.323-1.456a.424.424,0,0,0-.223-.469ZM8.468,19.1a2.539,2.539,0,1,1,2.538,2.539A2.538,2.538,0,0,1,8.468,19.1Z"/></svg>