
<svg xmlns="http://www.w3.org/2000/svg" viewBox="0 0 18.3 18.5"> <path d="M9.3,0C8.1,0,6.9,0.3,5.8,0.7l0.6,1.4c0.9-0.4,1.9-0.6,2.9-0.6V0L9.3,0z M3.2,2.3C2.3,3,1.6,4,1,5l1.3,0.7 C2.8,4.8,3.5,4,4.2,3.4L3.2,2.3L3.2,2.3z M0.1,7.9C-0.1,9,0,10.3,0.2,11.4l1.5-0.3c-0.1-0.6-0.2-1.2-0.2-1.8l0,0l0,0 c0-0.4,0-0.8,0.1-1.2L0.1,7.9L0.1,7.9z M2.7,13.4l-1.3,0.8c0.6,1,1.4,1.9,2.4,2.6l0.9-1.2C3.9,15,3.2,14.2,2.7,13.4L2.7,13.4z M6.9,16.7l-0.5,1.4c1.1,0.4,2.3,0.5,3.5,0.4L9.9,17c-0.2,0-0.4,0-0.6,0l0,0c-0.3,0-0.6,0-0.9,0C7.9,17,7.4,16.8,6.9,16.7L6.9,16.7z M16.7,3.8l-1.2,0.9c0.6,0.8,1,1.7,1.3,2.7L18.3,7C18,5.9,17.5,4.8,16.7,3.8L16.7,3.8z M11.4,0.3L11,1.7C12,2,12.9,2.4,13.8,3	l0.9-1.2C13.6,1,12.6,0.5,11.4,0.3L11.4,0.3z M18.2,14c-0.1-0.3-0.9-2.7-1.4-3.4l-1.4-2c-0.3-0.5-1-0.6-1.5-0.2
	c-0.1,0.1-0.2,0.2-0.3,0.3c-0.4-0.2-0.8-0.2-1.2,0c-0.1,0.1-0.2,0.2-0.3,0.4c-0.3-0.2-0.8-0.2-1.1,0.1c-0.1,0.1-0.2,0.2-0.2,0.3
	l-0.7-1c-0.3-0.5-1-0.6-1.5-0.2c-0.5,0.4-0.6,1-0.2,1.5l2.5,3.5L9.8,13c0,0,0,0,0,0c-0.3,0-0.6,0-0.8,0.2l0,0
	c-0.2,0.2-0.4,0.4-0.4,0.7c-0.1,0.5,0.2,0.9,0.8,1.2c0.7,0.3,1.5,0.6,2.2,0.9c0.5,0.2,0.9,0.4,1.3,0.5c0.3,0.1,1.2,0.7,1.3,0.7
	c0.1,0.1,0.3,0.1,0.4,0l3.6-2.8C18.2,14.3,18.3,14.1,18.2,14z M14.3,16.4c-0.3-0.2-0.9-0.5-1.1-0.6c-0.4-0.2-0.8-0.4-1.3-0.5
	c-0.7-0.3-1.4-0.5-2.1-0.9c-0.2-0.1-0.4-0.2-0.4-0.4c0-0.1,0.1-0.2,0.1-0.2c0.1-0.1,0.2-0.1,0.2-0.1l2,0.5c0.1,0,0.3,0,0.4-0.2
	c0.1-0.1,0.1-0.3,0-0.4L9,9.3C8.9,9.1,9,8.9,9.1,8.8c0.2-0.1,0.4-0.1,0.5,0.1l2,2.8c0.1,0.2,0.3,0.2,0.5,0.1
	c0.2-0.1,0.2-0.4,0.1-0.5l-0.7-1c-0.1-0.2-0.1-0.4,0.1-0.5c0.2-0.1,0.4-0.1,0.5,0.1l1,1.4c0.1,0.2,0.3,0.2,0.5,0.1
	c0.2-0.1,0.2-0.4,0.1-0.5l-0.7-1c-0.1-0.2-0.1-0.4,0.1-0.5c0.2-0.1,0.4-0.1,0.5,0.1l1,1.4c0.1,0.2,0.3,0.2,0.5,0.1
	c0.2-0.1,0.2-0.4,0.1-0.5l-0.6-0.9l0,0c-0.1-0.2-0.1-0.4,0.1-0.5c0.2-0.1,0.4-0.1,0.5,0.1l1.4,2c0.4,0.5,0.9,2.1,1.2,3L14.3,16.4z"/></svg>
