<svg xmlns="http://www.w3.org/2000/svg" viewBox="0 0 18.57 14.72"><path d="M8.66,3.72A3.7,3.7,0,1,1,5,0,3.7,3.7,0,0,1,8.66,3.72ZM9.91,14.49c0-3.3-2.22-6-4.95-6s-5,2.68-5,6c0,.06,0,.11,0,.17H9.9A1,1,0,0,0,9.91,14.49Zm4.84-7.56a.23.23,0,0,0,.06-.34.25.25,0,0,0-.29-.07,1.39,1.39,0,0,1-.53.07.22.22,0,0,1-.21-.28A.65.65,0,0,1,13.86,6c.16-.34.33-.68.5-1a2.18,2.18,0,0,0,.25-1,1.19,1.19,0,0,0-.89-1.16,2.27,2.27,0,0,0-2,.41.24.24,0,0,0-.1.31c0,.11.16.14.3.11a3.07,3.07,0,0,1,.42-.07c.25,0,.39.1.33.35a1.14,1.14,0,0,1-.09.26c-.18.36-.36.71-.53,1.07a1.81,1.81,0,0,0-.2,1,1.14,1.14,0,0,0,.57.92,1.83,1.83,0,0,0,1,.21A2.26,2.26,0,0,0,14.75,6.93Zm-.59-4.62A1.14,1.14,0,0,1,13,1.14a1.16,1.16,0,0,1,2.31,0A1.14,1.14,0,0,1,14.16,2.31Zm4.41,11.86a.56.56,0,0,0-.56-.56H12.7v1.11H18A.56.56,0,0,0,18.57,14.17ZM16.93,12.5H12.7V11.38h4.23a.56.56,0,0,1,.56.56h0A.56.56,0,0,1,16.93,12.5ZM18,10.27H12.7V9.16H18a.56.56,0,0,1,.56.56h0A.56.56,0,0,1,18,10.27Zm-5.85-.55a.54.54,0,0,1-.54.54.54.54,0,0,1,0-1.08A.54.54,0,0,1,12.16,9.72Zm0,4.43a.54.54,0,0,1-.54.54.54.54,0,0,1,0-1.08A.54.54,0,0,1,12.16,14.15ZM12,11.55a.54.54,0,0,1,0,.76.55.55,0,0,1-.77,0,.54.54,0,0,1,0-.76A.53.53,0,0,1,12,11.55Z"/></svg>