<svg xmlns="http://www.w3.org/2000/svg" viewBox="0 0 13.66 21.27"><path d="M5.51,3.26h-2a.8.8,0,0,0,0,1.6h2a.8.8,0,0,0,0-1.6Zm0,3.33h-2a.8.8,0,0,0,0,1.6h2a.8.8,0,1,0,0-1.6Zm4.63,3.33h-2a.81.81,0,0,0,0,1.61h2a.81.81,0,0,0,0-1.61Zm-4.63,0h-2a.81.81,0,0,0,0,1.61h2a.81.81,0,0,0,0-1.61Zm4.63,3.26h-2a.81.81,0,0,0,0,1.61h2a.81.81,0,0,0,0-1.61Zm-4.63,0h-2a.81.81,0,0,0,0,1.61h2a.81.81,0,0,0,0-1.61ZM0,10.34V17H0a0,0,0,0,0,0,0,.67.67,0,0,0,.68.68.67.67,0,0,0,.68-.68v0h0V1.43a.07.07,0,0,1,.07-.07h10.8a.07.07,0,0,1,.07.07V17h0a.68.68,0,0,0,1.36,0h0V1.43A1.43,1.43,0,0,0,12.23,0H1.43A1.43,1.43,0,0,0,0,1.43V9M10.14,6.59h-2a.8.8,0,1,0,0,1.6h2a.8.8,0,0,0,0-1.6Zm0-3.33h-2a.8.8,0,0,0,0,1.6h2a.8.8,0,1,0,0-1.6Z"/></svg>