<svg id="Icons_modified" data-name="Icons modified" xmlns="http://www.w3.org/2000/svg" width="30" height="30" viewBox="0 0 30 30"><path id="Data" d="M21.505,7.16H8.495a.651.651,0,0,0-.652.651v3.12a.652.652,0,0,0,.652.652h13.01a.652.652,0,0,0,.652-.652V7.811A.651.651,0,0,0,21.505,7.16ZM9.694,10.017a.646.646,0,1,1,.646-.646A.646.646,0,0,1,9.694,10.017Zm2.088,0a.646.646,0,1,1,.646-.646A.646.646,0,0,1,11.782,10.017Zm2.088,0a.646.646,0,1,1,.645-.646A.646.646,0,0,1,13.87,10.017Zm6.026,0h-1.86a.646.646,0,0,1,0-1.291H19.9a.646.646,0,0,1,0,1.291Zm1.609,2.56H8.495a.651.651,0,0,0-.652.651v3.121A.652.652,0,0,0,8.495,17h13.01a.652.652,0,0,0,.652-.651V13.228A.651.651,0,0,0,21.505,12.577ZM9.694,15.434a.646.646,0,1,1,.646-.646A.646.646,0,0,1,9.694,15.434Zm2.088,0a.646.646,0,1,1,.646-.646A.646.646,0,0,1,11.782,15.434Zm2.088,0a.646.646,0,1,1,.645-.646A.646.646,0,0,1,13.87,15.434Zm6.026,0h-1.86a.646.646,0,0,1,0-1.291H19.9a.646.646,0,0,1,0,1.291Zm1.609,2.56H8.495a.652.652,0,0,0-.652.651v3.121a.651.651,0,0,0,.652.651h13.01a.651.651,0,0,0,.652-.651V18.645A.652.652,0,0,0,21.505,17.994ZM9.694,20.851a.646.646,0,1,1,.646-.645A.645.645,0,0,1,9.694,20.851Zm2.088,0a.646.646,0,1,1,.646-.645A.645.645,0,0,1,11.782,20.851Zm2.088,0a.646.646,0,1,1,.645-.645A.645.645,0,0,1,13.87,20.851Zm6.026,0h-1.86a.646.646,0,0,1,0-1.291H19.9a.646.646,0,0,1,0,1.291Z"/></svg>