<svg xmlns="http://www.w3.org/2000/svg" viewBox="0 0 23.02 21.27"><path d="M3.78,15.77A.76.76,0,1,1,3,15,.76.76,0,0,1,3.78,15.77ZM10.19,3.26h-2a.8.8,0,0,0,0,1.6h2a.8.8,0,0,0,0-1.6Zm0,3.33h-2a.8.8,0,0,0,0,1.6h2a.8.8,0,1,0,0-1.6ZM3,11.66a.76.76,0,1,0,.76.76A.76.76,0,0,0,3,11.66Zm11.8-1.74h-2a.81.81,0,0,0,0,1.61h2a.81.81,0,0,0,0-1.61Zm-4.63,0h-2a.81.81,0,0,0,0,1.61h2a.81.81,0,0,0,0-1.61Zm4.63,3.26h-2a.81.81,0,0,0,0,1.61h2a.81.81,0,0,0,0-1.61Zm-4.63,0h-2a.81.81,0,0,0,0,1.61h2a.81.81,0,0,0,0-1.61Zm9.72-1.52a.76.76,0,1,0,.76.76A.76.76,0,0,0,19.91,11.66ZM21.82,9H18.34V1.43A1.43,1.43,0,0,0,16.91,0H6.11A1.43,1.43,0,0,0,4.68,1.43V9H1.2A1.19,1.19,0,0,0,0,10.17V20.59a.68.68,0,0,0,1.36,0V10.78a.44.44,0,0,1,.44-.44H4.68V20.53h0v0a.68.68,0,1,0,1.36,0v0H6V1.43a.07.07,0,0,1,.07-.07h10.8a.07.07,0,0,1,.07.07v19.1h0a.68.68,0,0,0,1.36,0h0V10.34h2.87a.44.44,0,0,1,.45.44v9.81a.68.68,0,0,0,1.36,0V10.17A1.19,1.19,0,0,0,21.82,9Zm-7-2.39h-2a.8.8,0,0,0,0,1.6h2a.8.8,0,0,0,0-1.6Zm0-3.33h-2a.8.8,0,0,0,0,1.6h2a.8.8,0,0,0,0-1.6ZM19.91,15a.76.76,0,1,0,.76.76A.76.76,0,0,0,19.91,15Z"/></svg>