<svg xmlns="http://www.w3.org/2000/svg" viewBox="0 0 18.53 20.56"><path d="M18.47,10.46a7.72,7.72,0,0,1,.06.83A9.27,9.27,0,1,1,9.22,2h5.47V0l2,1.77,1.08,1-1.08,1-2,1.77v-2H9.22A7.77,7.77,0,1,0,17,11.29a7.72,7.72,0,0,0-.06-.83Zm-6.68,5.36c.48.41,1-.1,1.32.27a.49.49,0,0,1,0,.74,1.47,1.47,0,0,1-2-.17,1.4,1.4,0,0,1-.25-.32A5,5,0,0,1,9,16.7a4.47,4.47,0,0,1-4.62-4.56c-.17-3.3,2-6.34,5.25-6.34a4.49,4.49,0,0,1,4.62,4.58A6.19,6.19,0,0,1,11.79,15.82Zm.68-5.21a3.06,3.06,0,0,0-3-3.2c-2.15,0-3.53,2.27-3.41,4.5a3.08,3.08,0,0,0,3,3.21,2.88,2.88,0,0,0,1.3-.33,1.19,1.19,0,0,0-.22-.33c-.5-.5-1,.06-1.37-.32a.49.49,0,0,1,0-.74,1.48,1.48,0,0,1,2,.17,1.7,1.7,0,0,1,.4.6A4.8,4.8,0,0,0,12.47,10.61Z"/></svg>