<svg id="Icons_modified" data-name="Icons modified" xmlns="http://www.w3.org/2000/svg" width="30" height="30" viewBox="0 0 30 30"><path id="Formula" d="M5.757,16.642a11.7,11.7,0,0,1,3.3-.6v-.206a1.724,1.724,0,0,0-.326-1.169,1.433,1.433,0,0,0-1.152-.448,3.618,3.618,0,0,0-1.462.327,2.226,2.226,0,0,1-.841.275.625.625,0,0,1-.638-.636c0-.447.414-.687.912-.894a6.013,6.013,0,0,1,2.218-.43,3.133,3.133,0,0,1,2.39.877,2.97,2.97,0,0,1,.653,2.1v4.315a.892.892,0,0,1-1.684.379,4.376,4.376,0,0,1-2.184.482,2.456,2.456,0,0,1-2.7-2.356A2.1,2.1,0,0,1,5.757,16.642Zm3.3,2.631V17.261c-1.856.1-3.129.447-3.129,1.358,0,.757.757,1.1,1.565,1.1A3.141,3.141,0,0,0,9.058,19.273Zm7.381.246a.824.824,0,0,1-.654-.39l-1.272-1.548L13.207,19.2a.755.755,0,0,1-.608.322.6.6,0,0,1-.63-.585c0-.253.159-.39.32-.562l1.445-1.628-1.422-1.616a.635.635,0,0,1-.228-.458.588.588,0,0,1,.618-.585.747.747,0,0,1,.6.333l1.215,1.49,1.215-1.479a.748.748,0,0,1,.6-.344.581.581,0,0,1,.608.561.6.6,0,0,1-.207.414l-1.455,1.6,1.582,1.789a.68.68,0,0,1,.217.469A.6.6,0,0,1,16.439,19.519Zm3.677-6.282a4.923,4.923,0,0,1,1.908-.378,3.631,3.631,0,0,1,2.718,1.118,4.214,4.214,0,0,1,1.013,2.957,3.887,3.887,0,0,1-.928,2.683,4.851,4.851,0,0,1-3.748,1.393,10.851,10.851,0,0,1-1.908-.138.957.957,0,0,1-.809-1.014V9.851a.857.857,0,0,1,.877-.861.866.866,0,0,1,.877.861Zm0,6.259a10.9,10.9,0,0,0,1.117.052,2.777,2.777,0,0,0,2.2-.911,2.642,2.642,0,0,0,.533-1.7,2.714,2.714,0,0,0-.67-1.908,2.262,2.262,0,0,0-1.634-.671,3.36,3.36,0,0,0-1.547.361Z"/></svg>