<svg xmlns="http://www.w3.org/2000/svg" viewBox="0 0 17.79 17.83"><path d="M10.77,1.54C10.68,1.45,9.5.3,9.39.23A1.12,1.12,0,0,0,7.82.41,1.24,1.24,0,0,0,8.07,2c.12.13,1.35,1.32,1.4,1.46s.08.44,0,.52S9.09,4,8.9,4s-.21-.15-.3-.25c-.48-.47-2-2-2.5-2.49a1.13,1.13,0,0,0-1.86.17,1.32,1.32,0,0,0,.38,1.49c.46.47,2,2,2.46,2.47a1.06,1.06,0,0,1,.27.54.39.39,0,0,1-.27.34.82.82,0,0,1-.54-.2c-.79-.75-2.61-2.61-3.4-3.37s-1.81-.5-2,.37a1.48,1.48,0,0,0,.51,1.31L4.89,7.61c.31.31.36.59.16.78s-.47.13-.79-.18S2.41,6.34,2,6c-.75-.7-1.78-.49-2,.39A1.43,1.43,0,0,0,.54,7.65l6,6S3.5,12,3,11.82A1,1,0,0,0,1.45,13a1.53,1.53,0,0,0,1,1.1l5.28,2.63h0c2,1.44,4.66,1.56,6.28.18a18.37,18.37,0,0,0,1.42-1.37c.47-.44.92-.9,1.34-1.38,1.65-1.86,1.3-5.18-.76-7.33C14.28,5,12.51,3.28,10.77,1.54Z"/></svg>