<svg xmlns="http://www.w3.org/2000/svg" viewBox="0 0 18.53 18.53"><path d="M9.27,0a9.27,9.27,0,1,0,9.26,9.27A9.28,9.28,0,0,0,9.27,0Zm0,17A7.77,7.77,0,1,1,17,9.27,7.77,7.77,0,0,1,9.27,17ZM6.83,4.89a4.63,4.63,0,0,1,2.56-.75A3,3,0,0,1,12.58,7a2.66,2.66,0,0,1-1.5,2.38,2.34,2.34,0,0,0-1,1.2.91.91,0,0,1-1,.78.92.92,0,0,1-.89-1,2.12,2.12,0,0,1,.51-1.23,8.73,8.73,0,0,1,1.39-1.26A1.15,1.15,0,0,0,10.6,7c0-.64-.52-1.1-1.36-1.1a2.29,2.29,0,0,0-1.36.41c-.43.28-.61.63-1.09.63A.85.85,0,0,1,6,6C6,5.53,6.3,5.22,6.83,4.89Zm2.29,9.5A1.16,1.16,0,0,1,8,13.22a1.16,1.16,0,1,1,1.15,1.17Z"/></svg>