<svg id="Icons_modified" data-name="Icons modified" xmlns="http://www.w3.org/2000/svg" width="30" height="30" viewBox="0 0 30 30"><path id="KPI_V2" data-name="KPI V2" d="M21.3,9.429V19.873H19.5V9.429a.806.806,0,0,1,.806-.806h.188A.806.806,0,0,1,21.3,9.429ZM8.743,22.664a.9.9,0,0,1-.9-.9h0a.9.9,0,0,1,.9-.9H21.3a.9.9,0,0,1,.9.9h0a.9.9,0,0,1-.9.9ZM15.9,11.27v8.6h1.8v-8.6a.9.9,0,0,0-.9-.9h0A.9.9,0,0,0,15.9,11.27Zm-3.6,1.747v6.856h1.8V13.017a.9.9,0,0,0-.9-.9h0A.9.9,0,0,0,12.3,13.017ZM8.7,11.27v8.6h1.8v-8.6a.9.9,0,0,0-.9-.9h0A.9.9,0,0,0,8.7,11.27Z"/></svg>