<svg xmlns="http://www.w3.org/2000/svg" viewBox="0 0 19.4 15.13"><path d="M19.4,9.05V14.7a.43.43,0,0,1-.43.43H13.32a.43.43,0,0,1-.43-.43V9.05a.43.43,0,0,1,.43-.43H19A.43.43,0,0,1,19.4,9.05Zm-9.16-.43H.43A.43.43,0,0,0,0,9.05v1.29a.44.44,0,0,0,.43.44h9.81a.44.44,0,0,0,.43-.44V9.05A.43.43,0,0,0,10.24,8.62ZM6.7,15.13h3.58a.44.44,0,0,0,.44-.43V13.41a.44.44,0,0,0-.44-.44H6.7a.44.44,0,0,0-.44.44V14.7A.44.44,0,0,0,6.7,15.13Zm-6.27,0H3.64a.43.43,0,0,0,.43-.43V13.41A.44.44,0,0,0,3.64,13H.43a.44.44,0,0,0-.43.44V14.7A.43.43,0,0,0,.43,15.13ZM19,4.32H.43A.43.43,0,0,0,0,4.75v1.3a.43.43,0,0,0,.43.43H19a.43.43,0,0,0,.43-.43V4.75A.43.43,0,0,0,19,4.32ZM.43,2.16H11.36a.43.43,0,0,0,.43-.43V.43A.43.43,0,0,0,11.36,0H.43A.43.43,0,0,0,0,.43v1.3A.43.43,0,0,0,.43,2.16ZM19,0H14.36a.43.43,0,0,0-.43.43v1.3a.43.43,0,0,0,.43.43H19a.43.43,0,0,0,.43-.43V.43A.43.43,0,0,0,19,0Z"/></svg>