
<svg version="1.1" xmlns="http://www.w3.org/2000/svg" viewBox="0 0 18.1 16.4"><path id="List_view_1_" d="M4.6,0h13.5v2.3H4.6C3.1,2.4,3.1,0,4.6,0z M6.9,7h11.2V4.7H6.9C5.3,4.7,5.3,7.1,6.9,7z M10.7,11.7h7.3 V9.4h-7.3C9.2,9.4,9.2,11.7,10.7,11.7z M6.9,16.4h11.2v-2.3H6.9C5.3,14,5.3,16.4,6.9,16.4z M7.3,9.4c-1.5,0-1.5,2.3,0,2.3 C8.8,11.7,8.8,9.4,7.3,9.4z M3.4,14c-1.5,0-1.5,2.3,0,2.3C4.9,16.3,4.9,14,3.4,14z M4.2,5C3.2,4,1.5,5.6,2.6,6.6
	C3.6,7.7,5.3,6.1,4.2,5z M1.1,0c-1.5,0-1.5,2.3,0,2.3C2.6,2.3,2.6,0,1.1,0z"/> </svg>
