<svg id="Icons_modified" data-name="Icons modified" xmlns="http://www.w3.org/2000/svg" width="335.021" height="158.508" viewBox="0 0 335.021 158.508"><defs><style>.cls-1{fill-rule:evenodd;}.cls-2{fill:#1a1a1a;}</style></defs><path id="Layout" class="cls-1" d="M92.5,14.985v3.977a.2.2,0,0,1-.2.2H88.326a.2.2,0,0,1-.2-.2V14.985a.2.2,0,0,1,.2-.2H92.3A.2.2,0,0,1,92.5,14.985Zm-5.481-.2h-9.2a.318.318,0,0,0-.318.318V16.14a.318.318,0,0,0,.318.318h9.2a.318.318,0,0,0,.318-.318V15.106A.318.318,0,0,0,87.019,14.788Zm-3.861,4.419h3.861a.318.318,0,0,0,.318-.318V17.855a.318.318,0,0,0-.318-.318H83.158a.318.318,0,0,0-.317.318v1.034A.317.317,0,0,0,83.158,19.207Zm-5.34,0h3.86A.318.318,0,0,0,82,18.889V17.855a.318.318,0,0,0-.318-.318h-3.86a.318.318,0,0,0-.318.318v1.034A.318.318,0,0,0,77.818,19.207Zm14.364-7.119H77.818a.317.317,0,0,0-.318.317v1.034a.318.318,0,0,0,.318.318H92.182a.318.318,0,0,0,.318-.318V12.405A.317.317,0,0,0,92.182,12.088ZM77.818,11.15H88.212a.318.318,0,0,0,.318-.318V9.8a.318.318,0,0,0-.318-.318H77.818A.318.318,0,0,0,77.5,9.8v1.034A.318.318,0,0,0,77.818,11.15ZM92.182,9.48H89.717A.318.318,0,0,0,89.4,9.8v1.034a.319.319,0,0,0,.318.318h2.465a.318.318,0,0,0,.318-.318V9.8A.318.318,0,0,0,92.182,9.48Z" transform="translate(-4.245 -6.419)"/><path id="Store" class="cls-2" d="M50,7.5A7.5,7.5,0,1,0,57.5,15,7.5,7.5,0,0,0,50,7.5Zm0,11.277A3.777,3.777,0,1,1,53.777,15,3.777,3.777,0,0,1,50,18.777ZM52.308,15l0,.021h0v.287h-.031a2.3,2.3,0,0,1-4.554,0h-.01v-.1A2.094,2.094,0,0,1,47.691,15a2.309,2.309,0,1,1,4.617,0Z" transform="translate(-4.245 -6.419)"/><path id="stages" d="M18,11.917H11.618a.851.851,0,0,0-.851.851V16.85H6.857A.857.857,0,0,1,6,15.993V10.307a.857.857,0,0,1,.857-.857H17.143a.857.857,0,0,1,.857.857Zm5.143,1.233H12.857a.857.857,0,0,0-.857.857v5.686a.857.857,0,0,0,.857.857H23.143A.857.857,0,0,0,24,19.693V14.007A.857.857,0,0,0,23.143,13.15Z" transform="translate(-4.245 -6.419)"/><path id="favorits" d="M124.181,7.711c.245,0,.443.32.443.715V22.379a.442.442,0,0,1-.446.443.435.435,0,0,1-.31-.13l-3.856-3.857a.443.443,0,0,0-.625,0l-3.857,3.857a.433.433,0,0,1-.31.13.441.441,0,0,1-.445-.443V8.426c0-.395.2-.715.442-.715h8.964M117.147,17.1l2.274-1.7a.454.454,0,0,1,.271-.09.449.449,0,0,1,.27.09l2.274,1.7-.833-2.779a.452.452,0,0,1,.164-.493l2.077-1.54h-2.615a.452.452,0,0,1-.424-.294l-.913-2.437-.914,2.437a.451.451,0,0,1-.423.294H115.77l2.052,1.522a.452.452,0,0,1,.164.493l-.839,2.8m7.034-10.677h-8.964a1.865,1.865,0,0,0-1.733,2.007V22.379a1.738,1.738,0,0,0,1.736,1.735,1.719,1.719,0,0,0,1.223-.509l3.256-3.256,3.256,3.256a1.721,1.721,0,0,0,1.223.509,1.738,1.738,0,0,0,1.737-1.735V8.426a1.866,1.866,0,0,0-1.734-2.007Z" transform="translate(-4.245 -6.419)"/><g id="Text"><path class="cls-1" d="M151.158,9.8a1.312,1.312,0,0,0-1.3-.965,1.281,1.281,0,0,0-1.3.965l-3.611,9.4a1.576,1.576,0,0,0-.1.449.83.83,0,0,0,.882.849.882.882,0,0,0,.932-.649l.782-2.063h4.744l.8,2.063a.87.87,0,0,0,.9.649.849.849,0,0,0,.932-.865,1.994,1.994,0,0,0-.083-.433Zm-3.229,6.49,1.914-5.076,1.9,5.076Zm14.03,3.379V15.488a2.872,2.872,0,0,0-.632-2.031,3.033,3.033,0,0,0-2.313-.849,5.794,5.794,0,0,0-2.147.417c-.483.2-.882.432-.882.865a.6.6,0,0,0,.616.616,2.148,2.148,0,0,0,.815-.267,3.491,3.491,0,0,1,1.415-.315,1.389,1.389,0,0,1,1.115.432,1.675,1.675,0,0,1,.316,1.132v.2a11.336,11.336,0,0,0-3.2.582,2.037,2.037,0,0,0-1.464,1.947,2.377,2.377,0,0,0,2.613,2.28,4.232,4.232,0,0,0,2.114-.465.864.864,0,0,0,1.63-.367Zm-1.7-.849a3.039,3.039,0,0,1-1.515.433c-.782,0-1.514-.333-1.514-1.065,0-.882,1.232-1.215,3.029-1.315Zm3.945-10.281v12.93h2.386v.566h-5.334v-.566h2.386V8.535h-2.386V7.969h5.334v.566Z" transform="translate(-4.245 -6.419)"/></g><path id="Parts" d="M193.734,8.532l3.52,6.1a.74.74,0,0,1,0,.742L193.948,21.1a.742.742,0,0,1-.642.371h-6.612a.742.742,0,0,1-.642-.371l-3.306-5.726a.74.74,0,0,1,0-.742L186.052,8.9a.742.742,0,0,1,.642-.371h7.04m-12.72,6.839,4.172,7.226a.742.742,0,0,0,.642.371h8.344a.742.742,0,0,0,.642-.371l4.172-7.226a.74.74,0,0,0,0-.742l-4.386-7.6h-8.772a.742.742,0,0,0-.642.371l-4.172,7.226A.74.74,0,0,0,181.014,15.371ZM192.829,15A2.829,2.829,0,1,0,190,17.829,2.83,2.83,0,0,0,192.829,15Z" transform="translate(-4.245 -6.419)"/><path id="Style" class="cls-1" d="M227.809,17.387a.963.963,0,1,1,1.345-.209A.967.967,0,0,1,227.809,17.387Zm1.292-2.979a.96.96,0,1,1,1.343-.2A.961.961,0,0,1,229.1,14.408Zm-1.368-2.932a.962.962,0,1,1,1.342-.2A.963.963,0,0,1,227.733,11.476Zm-3.041-1a.96.96,0,1,1,1.342-.2A.96.96,0,0,1,224.692,10.479Zm-2.885.849a.96.96,0,1,1,1.342-.2A.96.96,0,0,1,221.807,11.328Zm9.944,4.322A7.973,7.973,0,0,1,231.026,17a6.388,6.388,0,0,1-2.963,2.388c-1.675.556-2.234-.372-2.259-.911a2.031,2.031,0,0,0-1.574-2.121,1.864,1.864,0,0,0-1.52.589c-.453.548-.575,1.042-.087,2.133.555.967.712,1.387.485,1.661a.836.836,0,0,1-.8.332c-1.843-.034-3.7-1.943-4.459-4.182-.864-2.554.479-6.613,4.422-8.715a6.569,6.569,0,0,1,9.45,3.162A5.794,5.794,0,0,1,231.751,15.65Z" transform="translate(-4.245 -6.419)"/><path id="Addons" d="M90.6,49.234H89.479V46.8a1.386,1.386,0,0,0-1.386-1.386H85.4V44.6a1.978,1.978,0,0,0-1.6-1.984,1.92,1.92,0,0,0-2.229,1.9v.9h-2.7A1.386,1.386,0,0,0,77.479,46.8V49.55h1.163a1.921,1.921,0,0,1,1.9,2.229,1.977,1.977,0,0,1-1.984,1.6H77.479v2.64a1.387,1.387,0,0,0,1.387,1.387h2.858v-.982a1.921,1.921,0,0,1,2.25-1.893,1.992,1.992,0,0,1,1.59,2v.879h2.529a1.387,1.387,0,0,0,1.386-1.387V53.066h1.034a1.977,1.977,0,0,0,1.984-1.6A1.92,1.92,0,0,0,90.6,49.234Z" transform="translate(-4.245 -6.419)"/><path id="List_view" data-name="List view" d="M257.15,8.7H267.5v1.8H257.15a.9.9,0,0,1-.9-.9h0A.9.9,0,0,1,257.15,8.7Zm1.747,5.4h8.6V12.3h-8.6a.9.9,0,0,0-.9.9h0A.9.9,0,0,0,258.9,14.1Zm1.747,3.6H267.5V15.9h-6.856a.9.9,0,0,0-.9.9h0A.9.9,0,0,0,260.644,17.7ZM258.9,21.3h8.6V19.5h-8.6a.9.9,0,0,0-.9.9h0A.9.9,0,0,0,258.9,21.3Zm-.9-5.4a.874.874,0,1,0,.873.874A.874.874,0,0,0,258,15.905Zm-1.747,3.574a.874.874,0,1,0,.873.873A.873.873,0,0,0,256.25,19.479Zm.618-6.918a.874.874,0,1,0,0,1.235A.875.875,0,0,0,256.868,12.561ZM254.5,8.732a.874.874,0,1,0,.874.873A.873.873,0,0,0,254.5,8.732Z" transform="translate(-4.245 -6.419)"/><path id="KPI_V2" data-name="KPI V2" d="M161.3,44.429V54.873h-1.8V44.429a.806.806,0,0,1,.806-.806h.188A.806.806,0,0,1,161.3,44.429ZM148.743,57.664a.9.9,0,0,1-.9-.9h0a.9.9,0,0,1,.9-.9H161.3a.9.9,0,0,1,.9.9h0a.9.9,0,0,1-.9.9ZM155.9,46.27v8.6h1.8v-8.6a.9.9,0,0,0-.9-.9h0A.9.9,0,0,0,155.9,46.27Zm-3.6,1.747v6.856h1.8V48.017a.9.9,0,0,0-.9-.9h0A.9.9,0,0,0,152.3,48.017Zm-3.6-1.747v8.6h1.8v-8.6a.9.9,0,0,0-.9-.9h0A.9.9,0,0,0,148.7,46.27Z" transform="translate(-4.245 -6.419)"/><path id="Data" d="M336.505,7.16H323.5a.651.651,0,0,0-.652.651v3.12a.652.652,0,0,0,.652.652h13.01a.652.652,0,0,0,.652-.652V7.811A.651.651,0,0,0,336.505,7.16Zm-11.811,2.857a.646.646,0,1,1,.646-.646A.646.646,0,0,1,324.694,10.017Zm2.088,0a.646.646,0,1,1,.646-.646A.646.646,0,0,1,326.782,10.017Zm2.088,0a.646.646,0,1,1,.645-.646A.646.646,0,0,1,328.87,10.017Zm6.026,0h-1.86a.646.646,0,0,1,0-1.291h1.86a.646.646,0,0,1,0,1.291Zm1.609,2.56H323.5a.651.651,0,0,0-.652.651v3.121A.652.652,0,0,0,323.5,17h13.01a.652.652,0,0,0,.652-.651V13.228A.651.651,0,0,0,336.505,12.577Zm-11.811,2.857a.646.646,0,1,1,.646-.646A.646.646,0,0,1,324.694,15.434Zm2.088,0a.646.646,0,1,1,.646-.646A.646.646,0,0,1,326.782,15.434Zm2.088,0a.646.646,0,1,1,.645-.646A.646.646,0,0,1,328.87,15.434Zm6.026,0h-1.86a.646.646,0,0,1,0-1.291h1.86a.646.646,0,0,1,0,1.291Zm1.609,2.56H323.5a.652.652,0,0,0-.652.651v3.121a.651.651,0,0,0,.652.651h13.01a.651.651,0,0,0,.652-.651V18.645A.652.652,0,0,0,336.505,17.994Zm-11.811,2.857a.646.646,0,1,1,.646-.645A.645.645,0,0,1,324.694,20.851Zm2.088,0a.646.646,0,1,1,.646-.645A.645.645,0,0,1,326.782,20.851Zm2.088,0a.646.646,0,1,1,.645-.645A.645.645,0,0,1,328.87,20.851Zm6.026,0h-1.86a.646.646,0,0,1,0-1.291h1.86a.646.646,0,0,1,0,1.291Z" transform="translate(-4.245 -6.419)"/><path id="Formula" d="M5.757,51.642a11.7,11.7,0,0,1,3.3-.6v-.206a1.724,1.724,0,0,0-.326-1.169,1.433,1.433,0,0,0-1.152-.448,3.618,3.618,0,0,0-1.462.327,2.226,2.226,0,0,1-.841.275.625.625,0,0,1-.638-.636c0-.447.414-.687.912-.894a6.013,6.013,0,0,1,2.218-.43,3.133,3.133,0,0,1,2.39.877,2.97,2.97,0,0,1,.653,2.1v4.315a.892.892,0,0,1-1.684.379,4.376,4.376,0,0,1-2.184.482,2.456,2.456,0,0,1-2.7-2.356A2.1,2.1,0,0,1,5.757,51.642Zm3.3,2.631V52.261c-1.856.1-3.129.447-3.129,1.358,0,.757.757,1.1,1.565,1.1A3.141,3.141,0,0,0,9.058,54.273Zm7.381.246a.824.824,0,0,1-.654-.39l-1.272-1.548L13.207,54.2a.755.755,0,0,1-.608.322.6.6,0,0,1-.63-.585c0-.253.159-.39.32-.562l1.445-1.628-1.422-1.616a.635.635,0,0,1-.228-.458.588.588,0,0,1,.618-.585.747.747,0,0,1,.6.333l1.215,1.49,1.215-1.479a.748.748,0,0,1,.6-.344.581.581,0,0,1,.608.561.6.6,0,0,1-.207.414l-1.455,1.6,1.582,1.789a.68.68,0,0,1,.217.469A.6.6,0,0,1,16.439,54.519Zm3.677-6.282a4.923,4.923,0,0,1,1.908-.378,3.631,3.631,0,0,1,2.718,1.118,4.214,4.214,0,0,1,1.013,2.957,3.887,3.887,0,0,1-.928,2.683,4.851,4.851,0,0,1-3.748,1.393,10.851,10.851,0,0,1-1.908-.138.957.957,0,0,1-.809-1.014V44.851a.857.857,0,0,1,.877-.861.866.866,0,0,1,.877.861Zm0,6.259a10.9,10.9,0,0,0,1.117.052,2.777,2.777,0,0,0,2.2-.911,2.642,2.642,0,0,0,.533-1.7,2.714,2.714,0,0,0-.67-1.908,2.262,2.262,0,0,0-1.634-.671,3.36,3.36,0,0,0-1.547.361Z" transform="translate(-4.245 -6.419)"/><path id="Notes" d="M124.33,42.5h-9.2a1.387,1.387,0,0,0-1.387,1.387v14.16a1.386,1.386,0,0,0,1.387,1.386h9.2a1.386,1.386,0,0,0,1.387-1.386V43.887A1.387,1.387,0,0,0,124.33,42.5Zm-7.267,4.573h5.317a.556.556,0,0,1,.557.556h0a.557.557,0,0,1-.557.557h-5.317Zm0,2.225H121.3a.556.556,0,0,1,.556.556h0a.556.556,0,0,1-.556.556h-4.238Zm0,2.225h5.317a.556.556,0,1,1,0,1.112h-5.317Zm-1.079,3.292a.54.54,0,1,1,.539-.54A.54.54,0,0,1,115.984,54.815Zm0-2.209a.54.54,0,1,1,.539-.54A.54.54,0,0,1,115.984,52.606Zm.381-2.383a.54.54,0,1,1,0-.764A.539.539,0,0,1,116.365,50.223Zm-.381-2.051a.54.54,0,1,1,.539-.54A.539.539,0,0,1,115.984,48.172Zm8.032,6.19a.5.5,0,0,1-.5.5h-6.455V53.748h6.455a.5.5,0,0,1,.5.5Z" transform="translate(-4.245 -6.419)"/><path id="Actions" d="M58.829,46.5l-.749-.493a4.088,4.088,0,0,0-.1-.8l.615-.656a.424.424,0,0,0,.048-.517l-.8-1.258a.422.422,0,0,0-.489-.174l-.864.283a3.948,3.948,0,0,0-.674-.418l-.132-.9a.423.423,0,0,0-.374-.359l-1.484-.156a.423.423,0,0,0-.441.274l-.315.849a4.068,4.068,0,0,0-.719.253l-.778-.461a.423.423,0,0,0-.515.065l-1.055,1.055a.424.424,0,0,0-.065.515l.461.778a4.038,4.038,0,0,0-.263.754l-.845.322a.422.422,0,0,0-.27.443l.169,1.482a.424.424,0,0,0,.362.372l.9.124a4.041,4.041,0,0,0,.423.669l-.276.867a.425.425,0,0,0,.179.488l1.265.79a.423.423,0,0,0,.517-.053l.648-.618a4.063,4.063,0,0,0,.806.091l.5.741a.422.422,0,0,0,.493.163l1.4-.5a.424.424,0,0,0,.281-.437l-.082-.908c.1-.081.2-.149.294-.24s.174-.214.262-.321l.908.074a.423.423,0,0,0,.435-.284L59,46.994A.425.425,0,0,0,58.829,46.5Zm-2.984,1.372a2.539,2.539,0,1,1,0-3.59A2.537,2.537,0,0,1,55.845,47.874Zm-5.854,5.691a3.892,3.892,0,0,0-.181-.772l.542-.729a.423.423,0,0,0-.01-.519L49.4,50.386a.423.423,0,0,0-.5-.118l-.824.378a4.032,4.032,0,0,0-.688-.33l-.224-.876a.425.425,0,0,0-.41-.319H45.261a.423.423,0,0,0-.41.319l-.225.876a4.006,4.006,0,0,0-.719.347l-.825-.37a.425.425,0,0,0-.505.123l-.928,1.167a.422.422,0,0,0-.006.519l.549.725a3.952,3.952,0,0,0-.174.772l-.809.418a.426.426,0,0,0-.218.472l.336,1.453a.424.424,0,0,0,.4.328l.9.021a4.023,4.023,0,0,0,.506.634l-.172.876a.422.422,0,0,0,.233.464l1.346.642a.421.421,0,0,0,.507-.111l.584-.7c.126.011.248.038.377.038a3.991,3.991,0,0,0,.412-.042l.591.695a.423.423,0,0,0,.508.106l1.34-.653a.424.424,0,0,0,.229-.466l-.181-.879a3.988,3.988,0,0,0,.5-.635l.9-.029a.423.423,0,0,0,.4-.331l.323-1.456a.424.424,0,0,0-.223-.469Zm-6.523.531a2.539,2.539,0,1,1,2.538,2.539A2.538,2.538,0,0,1,43.468,54.1Z" transform="translate(-4.245 -6.419)"/><path id="Stage_Settings" data-name="Stage Settings" d="M196.446,49.239a6.49,6.49,0,0,0-.293-1.249l.877-1.179a.685.685,0,0,0-.017-.84L195.494,44.1a.686.686,0,0,0-.818-.192l-1.333.612a6.425,6.425,0,0,0-1.112-.533l-.363-1.418a.685.685,0,0,0-.663-.515h-2.413a.686.686,0,0,0-.664.515l-.363,1.418a6.5,6.5,0,0,0-1.164.561l-1.335-.6a.686.686,0,0,0-.816.2l-1.5,1.888a.685.685,0,0,0-.01.84l.888,1.173a6.481,6.481,0,0,0-.281,1.25l-1.308.677a.683.683,0,0,0-.353.762l.543,2.351a.685.685,0,0,0,.651.531l1.449.034a6.55,6.55,0,0,0,.819,1.026l-.279,1.418a.684.684,0,0,0,.377.751l2.178,1.038a.685.685,0,0,0,.821-.179l.945-1.132c.2.019.4.061.61.061a6.41,6.41,0,0,0,.667-.067l.955,1.124a.684.684,0,0,0,.822.172l2.169-1.057a.687.687,0,0,0,.371-.754l-.293-1.421A6.58,6.58,0,0,0,195.5,53.6l1.454-.047a.684.684,0,0,0,.646-.536l.522-2.356a.684.684,0,0,0-.359-.759Zm-10.555.86A4.107,4.107,0,1,1,190,54.206,4.107,4.107,0,0,1,185.891,50.1Z" transform="translate(-4.245 -6.419)"/><path id="KPI" d="M231.484,46.891a.206.206,0,1,0-.292-.292l-6.824,5.88a.874.874,0,0,0,1.235,1.236Zm-6.734,6.442a.334.334,0,1,1,.472,0A.334.334,0,0,1,224.75,53.333Zm-5.215.638h-2.476a7.925,7.925,0,0,1,11.973-6.83L227,48.89a5.456,5.456,0,0,0-7.469,5.081Zm11.552-5.092a7.9,7.9,0,0,1,1.854,5.092h-2.476a5.433,5.433,0,0,0-1.025-3.179Z" transform="translate(-4.245 -6.419)"/><path id="Rules" d="M297.322,16.669h-5.317V15.556h5.317a.557.557,0,0,1,0,1.113Zm-6.4,1.1a.54.54,0,1,0,.54.54A.54.54,0,0,0,290.925,17.768Zm5.873-3.88h0a.556.556,0,0,0-.556-.556h-4.237v1.113h4.237A.556.556,0,0,0,296.8,13.888Zm1.08-2.225h0a.556.556,0,0,0-.556-.556h-5.317v1.113h5.317A.556.556,0,0,0,297.878,11.663Zm.582,6.118h-6.455v1.113h6.455a.5.5,0,0,0,.5-.5v-.117A.5.5,0,0,0,298.46,17.781Zm-7.535-6.655a.54.54,0,1,0,.54.54A.54.54,0,0,0,290.925,11.126Zm0,4.433a.54.54,0,1,0,.54.54A.54.54,0,0,0,290.925,15.559Zm-.382-2.066a.54.54,0,1,0,.764,0A.539.539,0,0,0,290.543,13.493Zm12.829-2.579h-2.61V22.163a1.906,1.906,0,0,1-.035.358,1.823,1.823,0,0,1-.493.917,1.8,1.8,0,0,1-1.277.529H287.7a1.806,1.806,0,0,1-1.8-1.8V20.1H288.5V8.848a1.827,1.827,0,0,1,.037-.364,1.8,1.8,0,0,1,1.767-1.441h11.261a1.807,1.807,0,0,1,1.8,1.805Zm-6.289,12.053a1.8,1.8,0,0,1-.189-.8V21.1h-10v1.066a.8.8,0,0,0,.8.8Zm2.679-14.119a1.777,1.777,0,0,1,.2-.805h-9.653a.8.8,0,0,0-.787.642.727.727,0,0,0-.017.163V20.1h8.391v2.066a.8.8,0,0,0,.8.8h.26a.807.807,0,0,0,.789-.643.887.887,0,0,0,.016-.161Zm2.61,0a.8.8,0,0,0-.8-.805h0a.8.8,0,0,0-.8.805V9.914h1.61Z" transform="translate(-4.245 -6.419)"/><path id="Show_Layout" data-name="Show Layout" d="M296.91,78h2.7A2.389,2.389,0,0,1,302,80.387v2.7h-2v-2.7a.387.387,0,0,0-.387-.387h-2.7ZM290,83.09v-2.7a.387.387,0,0,1,.387-.387h2.7V78h-2.7A2.389,2.389,0,0,0,288,80.387v2.7ZM293.091,90h-2.7a.387.387,0,0,1-.387-.387v-2.7h-2v2.7A2.389,2.389,0,0,0,290.387,92h2.7ZM300,86.91v2.7a.387.387,0,0,1-.387.387h-2.7v2h2.7A2.389,2.389,0,0,0,302,89.613v-2.7Z" transform="translate(-4.245 -6.419)"/><path id="Editor" d="M58.129,122.722,55.59,124l-2.242,1.121-2.538,1.264a2.784,2.784,0,0,1-2.2,0l-2.538-1.255-2.242-1.105-2.538-1.246c-.608-.3-.608-.783,0-1.085l.514-.256,2.024.993,2.242,1.1,2.538,1.256a2.784,2.784,0,0,0,2.2,0l2.538-1.264L55.59,122.4l2.043-1.025.5.245C58.736,121.924,58.736,122.416,58.129,122.722Zm0,1.8-.5-.245L55.59,125.3l-2.242,1.122-2.538,1.264a2.784,2.784,0,0,1-2.2,0l-2.538-1.256-2.242-1.105-2.024-.993-.514.256c-.608.3-.608.787,0,1.085l2.538,1.246,2.242,1.105,2.538,1.255a2.784,2.784,0,0,0,2.2,0l2.538-1.264L55.59,126.9l2.539-1.274C58.736,125.316,58.736,124.824,58.129,124.522Zm0-5.8-2.539-1.256-.572-.282-2.075,2.075-2.953,1.013a.476.476,0,0,1-.605-.605l1.013-2.953,1.208-1.208-.784-.385a2.814,2.814,0,0,0-2.212.01l-2.538,1.274-2.242,1.121-2.541,1.265c-.6.3-.6.787,0,1.084l2.538,1.246,2.242,1.105,2.543,1.258a2.789,2.789,0,0,0,2.2,0l2.538-1.264L55.59,121.1l2.542-1.276C58.737,119.517,58.735,119.022,58.129,118.722Zm.742-7.937a1,1,0,0,0-1.414,0l-6.363,6.363-.738,2.153h0l2.152-.738,6.363-6.363A1,1,0,0,0,58.871,110.785Z" transform="translate(-4.245 -6.419)"/><path id="Form_components" data-name="Form components" d="M261.632,54.5H251.307a.9.9,0,0,0-.9.9h0a.9.9,0,0,0,.9.9h10.325a.9.9,0,0,0,.9-.9h0A.9.9,0,0,0,261.632,54.5Zm1.747-9H251.307a.9.9,0,0,1-.9-.9h0a.9.9,0,0,1,.9-.9h12.072a.9.9,0,0,1,.9.9h0A.9.9,0,0,1,263.379,45.5ZM260.2,50.963l-.6,1.737h-8.294a.9.9,0,0,1,0-1.8h8.578A.881.881,0,0,1,260.2,50.963Zm2.255-3.127L261.188,49.1h-9.881a.9.9,0,1,1,0-1.8h10.325A.9.9,0,0,1,262.452,47.836Zm6.848-4.02a1,1,0,0,0-1.414,0l-6.363,6.363-.738,2.153h0l2.152-.739L269.3,45.23A1,1,0,0,0,269.3,43.816Z" transform="translate(-4.245 -6.419)"/><path id="Quick_EDit" data-name="Quick EDit" d="M338.127,86.622l-2.538-1.255-.572-.283-2.075,2.075-2.953,1.013a.476.476,0,0,1-.6-.605l1.013-2.953,1.208-1.208-.785-.385a2.811,2.811,0,0,0-2.211.01l-2.538,1.274-2.242,1.121-2.542,1.265c-.6.3-.6.787,0,1.084l2.539,1.246,2.242,1.105,2.543,1.258a2.789,2.789,0,0,0,2.2,0l2.538-1.264L335.589,89l2.542-1.276C338.736,87.417,338.734,86.923,338.127,86.622Zm.743-7.937a1,1,0,0,0-1.414,0l-6.363,6.363-.738,2.153h0l2.152-.738L338.87,80.1A1,1,0,0,0,338.87,78.685Z" transform="translate(-4.245 -6.419)"/><path id="View_page" data-name="View page" d="M85,113.82c-5.523,0-10,6.18-10,6.18s4.477,6.18,10,6.18S95,120,95,120,90.523,113.82,85,113.82Zm0,10A3.819,3.819,0,1,1,88.819,120,3.819,3.819,0,0,1,85,123.819Z" transform="translate(-4.245 -6.419)"/><path id="Analytics" d="M130.714,125.22H113.765l5.082-5.081,2.164,2.165,6.875-6.876,1.046,1.046v-3.152H125.78l1.045,1.045-5.814,5.816-2.164-2.165-7.2,7.2h-2.358a.9.9,0,1,0,0,1.8h21.428a.9.9,0,0,0,0-1.8Z" transform="translate(-4.245 -6.419)"/><path id="Audience" d="M154.845,116.789a3.7,3.7,0,1,1-3.7-3.7A3.7,3.7,0,0,1,154.845,116.789Zm1.255,10.772c0-3.307-2.218-5.987-4.955-5.987s-4.956,2.68-4.956,5.987c0,.055.006.108.007.162h9.9C156.1,127.669,156.1,127.616,156.1,127.561ZM160.94,120a.229.229,0,0,0,.056-.342.25.25,0,0,0-.292-.065,1.249,1.249,0,0,1-.525.064.223.223,0,0,1-.214-.277,1.041,1.041,0,0,1,.08-.281c.163-.339.336-.673.5-1.011a2.1,2.1,0,0,0,.253-1,1.18,1.18,0,0,0-.893-1.157,2.262,2.262,0,0,0-1.977.405.235.235,0,0,0,.2.426,3.579,3.579,0,0,1,.419-.076c.252-.024.393.1.332.351a1.308,1.308,0,0,1-.092.259c-.174.36-.357.716-.53,1.076a1.83,1.83,0,0,0-.2.991,1.16,1.16,0,0,0,.565.917,1.842,1.842,0,0,0,.989.212A2.289,2.289,0,0,0,160.94,120Zm-.592-4.614a1.158,1.158,0,1,1,1.165-1.144A1.156,1.156,0,0,1,160.348,115.381Zm4.409,11.85a.556.556,0,0,0-.556-.556h-5.317v1.112H164.2A.556.556,0,0,0,164.757,127.231Zm-1.636-1.669h-4.237V124.45h4.237a.556.556,0,0,1,.557.556h0A.556.556,0,0,1,163.121,125.562Zm1.08-2.225h-5.317v-1.112H164.2a.556.556,0,0,1,.556.556h0A.556.556,0,0,1,164.2,123.337Zm-5.857-.553a.54.54,0,1,1-.54-.539A.539.539,0,0,1,158.344,122.784Zm0,4.434a.54.54,0,1,1-.54-.54A.54.54,0,0,1,158.344,127.218Zm-.158-2.607a.54.54,0,1,1-.763,0A.54.54,0,0,1,158.186,124.611Z" transform="translate(-4.245 -6.419)"/><path id="Save" d="M191.464,114.1h1.693v2.738h-1.693Zm6.536,1.91v9.625a1.617,1.617,0,0,1-1.618,1.618H185.618A1.617,1.617,0,0,1,184,125.631V114.866a1.618,1.618,0,0,1,1.618-1.618h1.225v4.431h7.169v-4.431h1.211Zm-1.838,5.349a.55.55,0,0,0-.55-.55h-9.224a.55.55,0,0,0-.55.55v3.837a.55.55,0,0,0,.55.55h9.224a.55.55,0,0,0,.55-.55Z" transform="translate(-4.245 -6.419)"/><path id="Dark_light" d="M264.912,113h-9.824A2.093,2.093,0,0,0,253,115.088v9.824A2.091,2.091,0,0,0,255.088,127h9.824A2.093,2.093,0,0,0,267,124.912v-9.824A2.091,2.091,0,0,0,264.912,113Zm0,12.25h-9.824a.339.339,0,0,1-.338-.338v-9.824a.333.333,0,0,1,.11-.246l10.3,10.3A.333.333,0,0,1,264.912,125.25Z" transform="translate(-4.245 -6.419)"/><path id="Lock_opened" data-name="Lock opened" d="M56.116,152.927h-9.44v-4.509a3.324,3.324,0,0,1,6.648,0v2.892h2v-2.892a5.324,5.324,0,0,0-10.648,0v4.509h-.792a1.438,1.438,0,0,0-1.484,1.387v9.227a1.438,1.438,0,0,0,1.484,1.386H56.116a1.438,1.438,0,0,0,1.484-1.386v-9.227A1.439,1.439,0,0,0,56.116,152.927ZM50,161.214a2.287,2.287,0,1,1,2.287-2.287A2.287,2.287,0,0,1,50,161.214Z" transform="translate(-4.245 -6.419)"/><path id="Lock" d="M301.116,117.927h-.792v-2.891a5.324,5.324,0,1,0-10.648,0v2.891h-.792a1.438,1.438,0,0,0-1.484,1.387v9.227a1.438,1.438,0,0,0,1.484,1.386h12.232a1.438,1.438,0,0,0,1.484-1.386v-9.227A1.439,1.439,0,0,0,301.116,117.927Zm-9.44-2.891a3.324,3.324,0,1,1,6.648,0v2.891h-6.648ZM295,126.214a2.287,2.287,0,1,1,2.287-2.287A2.287,2.287,0,0,1,295,126.214Z" transform="translate(-4.245 -6.419)"/><path id="publish_button" data-name="publish button" d="M22.2,154.1H17.918v4.686a.466.466,0,0,1-.466.466H12.545a.466.466,0,0,1-.466-.466V154.1H7.8l4.646-5.113L15,146.17l2.558,2.815Zm-4.292,6.494h0a.642.642,0,0,0-.643-.642H12.684a.641.641,0,0,0-.642.642h0a.642.642,0,0,0,.642.643h4.585A.643.643,0,0,0,17.912,160.592Zm0,1.985h0a.643.643,0,0,0-.643-.642H12.684a.642.642,0,0,0-.642.642h0a.642.642,0,0,0,.642.643h4.585A.643.643,0,0,0,17.912,162.577Z" transform="translate(-4.245 -6.419)"/><g id="Text_edit" data-name="Text edit"><path class="cls-1" d="M11.158,114.8a1.312,1.312,0,0,0-1.3-.965,1.281,1.281,0,0,0-1.3.965L4.95,124.2a1.576,1.576,0,0,0-.1.449.83.83,0,0,0,.882.849.882.882,0,0,0,.932-.649l.782-2.063H12.19l.8,2.063a.87.87,0,0,0,.9.649.849.849,0,0,0,.932-.865,1.994,1.994,0,0,0-.083-.433Zm-3.229,6.49,1.914-5.076,1.9,5.076Zm14.03,3.379v-4.177a2.872,2.872,0,0,0-.632-2.031,3.033,3.033,0,0,0-2.313-.849,5.794,5.794,0,0,0-2.147.417c-.483.2-.882.432-.882.865a.6.6,0,0,0,.616.616,2.148,2.148,0,0,0,.815-.267,3.491,3.491,0,0,1,1.415-.315,1.389,1.389,0,0,1,1.115.432,1.675,1.675,0,0,1,.316,1.132v.2a11.336,11.336,0,0,0-3.2.582,2.037,2.037,0,0,0-1.464,1.947,2.377,2.377,0,0,0,2.613,2.28,4.232,4.232,0,0,0,2.114-.465.864.864,0,0,0,1.63-.367Zm-1.7-.849a3.039,3.039,0,0,1-1.515.433c-.782,0-1.514-.333-1.514-1.065,0-.882,1.232-1.215,3.029-1.315Zm3.945-10.281v12.93h2.386v.566H21.259v-.566h2.386v-12.93H21.259v-.566h5.334v.566Z" transform="translate(-4.245 -6.419)"/></g><path id="Answers" class="cls-1" d="M51.323,79.432a1.31,1.31,0,0,0-1.3-.965,1.28,1.28,0,0,0-1.3.965l-3.612,9.4a1.619,1.619,0,0,0-.1.449.83.83,0,0,0,.882.849.884.884,0,0,0,.933-.649l.782-2.063h4.743l.8,2.063a.868.868,0,0,0,.9.649.849.849,0,0,0,.933-.865,1.949,1.949,0,0,0-.084-.433ZM48.1,85.923l1.913-5.077,1.9,5.077ZM50,94.266A9.266,9.266,0,1,1,59.266,85,9.277,9.277,0,0,1,50,94.266Zm0-17.032A7.766,7.766,0,1,0,57.766,85,7.775,7.775,0,0,0,50,77.234Z" transform="translate(-4.245 -6.419)"/><path id="Personalities" d="M91.758,81.383a3.7,3.7,0,1,1-3.7-3.7A3.7,3.7,0,0,1,91.758,81.383Zm1.256,10.771c0-3.306-2.219-5.986-4.956-5.986S83.1,88.848,83.1,92.154c0,.055.006.109.007.163h9.9C93.008,92.263,93.014,92.209,93.014,92.154ZM83.02,82.479a2.579,2.579,0,1,1-2.579-2.58A2.579,2.579,0,0,1,83.02,82.479Zm-2.579,3.335c-1.908,0-3.455,1.868-3.455,4.173,0,.038,0,.075,0,.114h5.375a7.412,7.412,0,0,1,1.021-2.266A3.378,3.378,0,0,0,80.441,85.814Z" transform="translate(-4.245 -6.419)"/><path id="Solutions" d="M153.558,76.364a6.675,6.675,0,0,0-2.678,11.775,3.909,3.909,0,0,1,1.57,3.053v2.5a.954.954,0,0,0,.954.953H156.6a.954.954,0,0,0,.954-.953v-2.5a3.82,3.82,0,0,1,1.528-3.014,6.678,6.678,0,0,0-5.52-11.808Zm4.84,10.928a4.926,4.926,0,0,0-1.94,3.543H155.6c0-.006,0-.011,0-.017V87.083l1.421-3.518a.6.6,0,1,0-1.116-.451L155,85.359l-.908-2.245a.6.6,0,1,0-1.116.451l1.422,3.518v3.735c0,.006,0,.011,0,.017h-.862a5.053,5.053,0,0,0-1.973-3.571,5.59,5.59,0,0,1-2-5.6,5.526,5.526,0,0,1,4.219-4.21A5.912,5.912,0,0,1,155,77.326a5.562,5.562,0,0,1,3.4,9.966Z" transform="translate(-4.245 -6.419)"/><path id="Test_finished" data-name="Test finished" class="cls-1" d="M294.554,48.231h0Zm0,0Zm9.525.375c-4.507-.327-7.464,4.159-11.971,3.833l-.01,0,1.95,7.577a.711.711,0,0,1-.522.864.68.68,0,0,1-.179.022.714.714,0,0,1-.7-.533l-4.708-18.29a.711.711,0,0,1,.522-.865.719.719,0,0,1,.875.511l.175.681c4.436.233,7.382-4.157,11.846-3.834a.8.8,0,0,1,.81.7q1.2,4.444,2.4,8.879C304.661,48.465,304.433,48.651,304.079,48.607Zm-6.513.933c-.234-.866-.474-1.738-.707-2.6a29.049,29.049,0,0,1-2.718,1.442c-.268-.975-.531-1.944-.793-2.918a27.874,27.874,0,0,0,2.736-1.454c-.234-.854-.462-1.71-.695-2.564a28.081,28.081,0,0,1-2.736,1.453c.234.855.462,1.71.695,2.565a8.463,8.463,0,0,1-2.884.631l.753,2.923a8.386,8.386,0,0,0,2.923-.636c.234.866.473,1.738.707,2.6A28.481,28.481,0,0,0,297.566,49.54Zm2.057-4.057c-.267-.973-.529-1.94-.791-2.913a8.586,8.586,0,0,1,2.8-.581c-.234-.855-.462-1.71-.7-2.565a8.4,8.4,0,0,0-2.8.581c.233.854.46,1.707.694,2.56A25.859,25.859,0,0,0,296.09,44c.267.974.53,1.943.792,2.918A27.036,27.036,0,0,1,299.623,45.483Zm3.5,2.029c-.234-.867-.473-1.739-.707-2.605a8.611,8.611,0,0,0-2.781.576c.233.866.473,1.738.707,2.6A8.544,8.544,0,0,1,303.123,47.512Zm-2.255,2.713a6.327,6.327,0,0,1-6.314,7.122c-.055,0-.108-.007-.162-.008l.385,1.5a7.8,7.8,0,0,0,7.533-9.094A8.4,8.4,0,0,0,300.868,50.225Zm-10.415,5.616a6.324,6.324,0,0,1-1.836-7.132l-.555-2.157a7.846,7.846,0,0,0,2.945,11.44Z" transform="translate(-4.245 -6.419)"/><path id="Solutions-2" data-name="Solutions" class="cls-1" d="M190,75.734A9.266,9.266,0,1,0,199.266,85,9.277,9.277,0,0,0,190,75.734Zm0,17.032A7.766,7.766,0,1,1,197.766,85,7.775,7.775,0,0,1,190,92.766Zm-1-4.083-3.771-3.772a.75.75,0,0,1,1.06-1.06L189,86.562l4.713-4.714a.75.75,0,0,1,1.06,1.06Z" transform="translate(-4.245 -6.419)"/><path id="Navigation" d="M121.216,79.259,116.782,84l-.1-2.971a5.53,5.53,0,0,0-2.083,1.413,5.974,5.974,0,0,0-1.53,3.441,6.323,6.323,0,0,0,.909,3.9l-.006,0a.374.374,0,0,1,.064.2.386.386,0,0,1-.387.386.379.379,0,0,1-.287-.134l0,0a7.485,7.485,0,0,1-1.83-4.362,7.9,7.9,0,0,1,1.219-4.82,8.258,8.258,0,0,1,3.83-3.173l-.1-3.062Zm7.021,4.323a7.483,7.483,0,0,0-2.179-4.172l-.011-.012,0,0h0a.38.38,0,0,0-.262-.106.386.386,0,0,0-.387.386.38.38,0,0,0,.079.223l-.005,0a6.327,6.327,0,0,1,1.237,3.809,5.966,5.966,0,0,1-1.231,3.56,5.54,5.54,0,0,1-1.955,1.585l-.351-2.953L119.151,91l5.1,4.015-.362-3.042a8.262,8.262,0,0,0,3.545-3.487A7.91,7.91,0,0,0,128.237,83.582Z" transform="translate(-4.245 -6.419)"/><path id="Question_answered" data-name="Question answered" d="M15,75.734A9.266,9.266,0,1,0,24.266,85,9.277,9.277,0,0,0,15,75.734Zm0,17.032A7.766,7.766,0,1,1,22.766,85,7.775,7.775,0,0,1,15,92.766Zm4.937-8.675a4.49,4.49,0,0,0-4.625-4.578c-3.271,0-5.421,3.037-5.249,6.338a4.477,4.477,0,0,0,4.625,4.563,4.971,4.971,0,0,0,1.875-.363,1.637,1.637,0,0,0,.247.316,1.476,1.476,0,0,0,1.994.176.492.492,0,0,0,.038-.741c-.369-.369-.837.135-1.316-.274A6.2,6.2,0,0,0,19.937,84.091Zm-3,3.786a1.852,1.852,0,0,0-.4-.6,1.489,1.489,0,0,0-2-.168.5.5,0,0,0-.038.741c.382.382.87-.184,1.367.313a1.065,1.065,0,0,1,.218.337,2.865,2.865,0,0,1-1.3.323,3.062,3.062,0,0,1-2.975-3.208c-.124-2.228,1.262-4.5,3.411-4.5a3.065,3.065,0,0,1,2.99,3.208A4.823,4.823,0,0,1,16.937,87.877Z" transform="translate(-4.245 -6.419)"/><path id="every_question_answered" data-name="every question answered" d="M339.206,49.172c.025.275.06.547.06.828a9.266,9.266,0,1,1-9.315-9.266h5.473V38.711l1.953,1.775,1.075.977-1.075.977-1.953,1.774v-1.98h-5.47a7.956,7.956,0,1,0,7.749,6.938Zm-6.68,5.356c.479.409.947-.095,1.316.274a.492.492,0,0,1-.038.741,1.476,1.476,0,0,1-1.994-.176,1.637,1.637,0,0,1-.247-.316,4.971,4.971,0,0,1-1.875.363,4.477,4.477,0,0,1-4.625-4.563c-.172-3.3,1.978-6.338,5.249-6.338a4.49,4.49,0,0,1,4.625,4.578A6.2,6.2,0,0,1,332.526,54.528Zm.682-5.2a3.065,3.065,0,0,0-2.99-3.208c-2.149,0-3.535,2.274-3.411,4.5a3.062,3.062,0,0,0,2.975,3.208,2.865,2.865,0,0,0,1.3-.323,1.065,1.065,0,0,0-.218-.337c-.5-.5-.985.069-1.367-.313a.5.5,0,0,1,.038-.741,1.489,1.489,0,0,1,2,.168,1.852,1.852,0,0,1,.4.6A4.823,4.823,0,0,0,333.208,49.324Z" transform="translate(-4.245 -6.419)"/><path d="M233.444,79.534H223.158a.857.857,0,0,0-.857.857v1.99a5.614,5.614,0,0,0-.875-.074,5.735,5.735,0,1,0,5.618,4.627h6.4a.857.857,0,0,0,.857-.857V80.391A.857.857,0,0,0,233.444,79.534Zm-12.018,13.3a4.8,4.8,0,1,1,4.66-5.9,4.746,4.746,0,0,1,.139,1.1A4.8,4.8,0,0,1,221.426,92.833Z" transform="translate(-4.245 -6.419)"/><path d="M222.823,89.226a.487.487,0,0,1-.189-.038L220.7,88.4V85.23a.5.5,0,0,1,1,0v2.5l1.311.535a.5.5,0,0,1-.19.963Z" transform="translate(-4.245 -6.419)"/><path id="Action_point" data-name="Action point" d="M260,76.276a9.188,9.188,0,0,0-3.493.684l.567,1.389A7.752,7.752,0,0,1,260,77.776v-1.5Zm-6.026,2.233a9.262,9.262,0,0,0-2.208,2.785l1.333.69a7.821,7.821,0,0,1,1.851-2.337l-.976-1.138Zm-3.131,5.612a9.325,9.325,0,0,0,.139,3.554l1.46-.345a7.828,7.828,0,0,1-.208-1.787h0a7.751,7.751,0,0,1,.092-1.193l-1.483-.229Zm2.555,5.507-1.275.791a9.28,9.28,0,0,0,2.416,2.606l.886-1.211a7.811,7.811,0,0,1-2.027-2.186Zm4.245,3.315-.456,1.429a9.267,9.267,0,0,0,3.534.409l-.116-1.5c-.2.016-.4.024-.605.024h0a7.807,7.807,0,0,1-2.357-.366Zm9.829-12.875-1.209.888a7.737,7.737,0,0,1,1.27,2.7l1.455-.365a9.186,9.186,0,0,0-1.516-3.22Zm-5.357-3.548-.342,1.461a7.727,7.727,0,0,1,2.716,1.228l.869-1.223a9.188,9.188,0,0,0-3.243-1.466Zm2.56,8.043a1.067,1.067,0,0,0-.281.327,136.006,136.006,0,0,1-2.809.766l-.691-.977c-.857-1.171-2.5.165-1.686,1.294l2.485,3.515c-.017,0-1.124-.263-1.144-.264a1.062,1.062,0,0,0-1.2.914c-.127,1.37,2.091,1.64,2.967,2.119a16.159,16.159,0,0,1,2.555,1.2.341.341,0,0,0,.378-.028l3.606-2.767a.376.376,0,0,0,.125-.415,19.556,19.556,0,0,0-1.4-3.409L266.146,84.8a1.026,1.026,0,0,0-1.471-.241Zm.355,1.1c-.27-.363.273-.8.545-.419l1.439,2.034a17.324,17.324,0,0,1,1.211,2.951l-3.216,2.468c-1.47-.875-2.976-1.26-4.574-2.012-.473-.154-.536-.714,0-.729l2.03.471a.369.369,0,0,0,.361-.58l-3.047-4.308c-.269-.362.272-.806.545-.419l1.968,2.782c.279.395.848-.066.571-.437l-.684-.967c-.27-.362.274-.8.546-.418l.958,1.355c.278.395.848-.067.57-.438l-.683-.966c-.271-.362.274-.805.546-.419l.958,1.356c.277.395.849-.067.57-.438l-.613-.867Zm0,0" transform="translate(-4.245 -6.419)"/><path id="Put_on_website" data-name="Put on website" d="M336.494,112.611a.749.749,0,1,1-.749-.749A.748.748,0,0,1,336.494,112.611Zm-3-.749a.749.749,0,1,0,.749.749A.748.748,0,0,0,333.5,111.862Zm-2.246,0a.749.749,0,1,0,.749.749A.748.748,0,0,0,331.253,111.862Zm7.747-.609v14.286a1.842,1.842,0,0,1-1.839,1.839h-4.024v-1.291h4.024a.548.548,0,0,0,.548-.548v-9.707H322.291v9.707a.548.548,0,0,0,.548.548h4.022v1.291h-4.022A1.842,1.842,0,0,1,321,125.539V111.253a1.841,1.841,0,0,1,1.839-1.838h14.322A1.841,1.841,0,0,1,339,111.253Zm-1.291,0a.548.548,0,0,0-.548-.548H322.839a.548.548,0,0,0-.548.548v3.289h15.418Zm-6.128,9.21L330,118.723l-1.581,1.74-2.871,3.16H328.2v6.8a.288.288,0,0,0,.288.287h3.032a.288.288,0,0,0,.288-.288v-6.8h2.649Z" transform="translate(-4.245 -6.419)"/><path id="Help" class="cls-1" d="M225,110.734A9.266,9.266,0,1,0,234.266,120,9.277,9.277,0,0,0,225,110.734Zm0,17.032A7.766,7.766,0,1,1,232.766,120,7.775,7.775,0,0,1,225,127.766Zm-2.433-12.143a4.58,4.58,0,0,1,2.556-.747,2.952,2.952,0,0,1,3.189,2.837,2.67,2.67,0,0,1-1.493,2.382,2.349,2.349,0,0,0-1.025,1.2.9.9,0,0,1-.964.775.922.922,0,0,1-.889-.966,2.106,2.106,0,0,1,.511-1.226,8.371,8.371,0,0,1,1.389-1.259,1.175,1.175,0,0,0,.5-.905c0-.643-.525-1.1-1.36-1.1a2.249,2.249,0,0,0-1.361.409c-.435.278-.61.628-1.1.628a.851.851,0,0,1-.832-.876C221.688,116.265,222.038,115.958,222.567,115.623Zm2.292,9.5a1.16,1.16,0,0,1-1.153-1.17,1.155,1.155,0,1,1,1.153,1.17Z" transform="translate(-4.245 -6.419)"/></svg>