<svg id="Icons_modified" data-name="Icons modified" xmlns="http://www.w3.org/2000/svg" width="30" height="30" viewBox="0 0 30 30"><path id="Notes" d="M19.33,7.5h-9.2A1.387,1.387,0,0,0,8.743,8.887v14.16a1.386,1.386,0,0,0,1.387,1.386h9.2a1.386,1.386,0,0,0,1.387-1.386V8.887A1.387,1.387,0,0,0,19.33,7.5Zm-7.267,4.573H17.38a.556.556,0,0,1,.557.556h0a.557.557,0,0,1-.557.557H12.063Zm0,2.225H16.3a.556.556,0,0,1,.556.556h0a.556.556,0,0,1-.556.556H12.063Zm0,2.225H17.38a.556.556,0,1,1,0,1.112H12.063Zm-1.079,3.292a.54.54,0,1,1,.539-.54A.54.54,0,0,1,10.984,19.815Zm0-2.209a.54.54,0,1,1,.539-.54A.54.54,0,0,1,10.984,17.606Zm.381-2.383a.54.54,0,1,1,0-.764A.539.539,0,0,1,11.365,15.223Zm-.381-2.051a.54.54,0,1,1,.539-.54A.539.539,0,0,1,10.984,13.172Zm8.032,6.19a.5.5,0,0,1-.5.5H12.063V18.748h6.455a.5.5,0,0,1,.5.5Z"/></svg>