<svg id="Icons_modified" data-name="Icons modified" xmlns="http://www.w3.org/2000/svg" viewBox="0 0 30 30"><path id="Pinning" d="M18.63,16.8a.68.68,0,0,1,0-.88c.57-.78,1.08-1.61,1.67-2.38A20.14,20.14,0,0,1,22,11.62l.22.23.63.62a.83.83,0,0,0,.26.17,1.71,1.71,0,0,0,2.36-2.33.71.71,0,0,0-.18-.27L25.2,10,20,4.8h0L20,4.72a.68.68,0,0,0-.26-.18A1.71,1.71,0,0,0,17.36,6.9a.79.79,0,0,0,.14.23c.21.23.44.44.68.69l.19.19a25.5,25.5,0,0,1-4.26,3.32.74.74,0,0,1-.93,0,3.84,3.84,0,0,0-4.52.35c-.52.45-.53.63,0,1.13l2.93,2.93c-.11.17-.19.31-.29.44C10,18.06,8.75,19.89,7.5,21.74c-.19.27-.44.57-.11.89s.62,0,.89-.14l1.06-.72,4.88-3.34,3,3c.43.43.61.42,1,0A3.85,3.85,0,0,0,18.63,16.8Z"/></svg>