<svg xmlns="http://www.w3.org/2000/svg" viewBox="0 0 18 21.3"><path d="M15.49,3.2a.75.75,0,1,1-.74-.75A.74.74,0,0,1,15.49,3.2Zm-3-.75a.75.75,0,1,0,.75.75A.75.75,0,0,0,12.5,2.45Zm-2.25,0a.75.75,0,1,0,0,1.49.75.75,0,1,0,0-1.49ZM18,1.84V16.12A1.84,1.84,0,0,1,16.16,18h-4V16.67h4a.55.55,0,0,0,.55-.55V6.42H1.29v9.7a.55.55,0,0,0,.55.55h4V18h-4A1.84,1.84,0,0,1,0,16.12V1.84A1.85,1.85,0,0,1,1.84,0H16.16A1.85,1.85,0,0,1,18,1.84Zm-1.29,0a.55.55,0,0,0-.55-.55H1.84a.55.55,0,0,0-.55.55V5.13H16.71Zm-6.13,9.21L9,9.31,7.42,11.05,4.55,14.21H7.19V21a.29.29,0,0,0,.29.29h3A.29.29,0,0,0,10.8,21v-6.8h2.65Z"/></svg>