<svg xmlns="http://www.w3.org/2000/svg" viewBox="0 0 13.35 18.43"><path d="M5.23.15A6.67,6.67,0,0,0,2.56,11.93,3.9,3.9,0,0,1,4.13,15v2.5a1,1,0,0,0,1,.95H8.27a1,1,0,0,0,1-.95V15a3.82,3.82,0,0,1,1.52-3A6.68,6.68,0,0,0,5.23.15Zm4.84,10.93a5,5,0,0,0-1.94,3.54H7.28V10.87L8.7,7.35a.59.59,0,0,0-.33-.78.6.6,0,0,0-.79.33l-.9,2.25L5.77,6.9A.59.59,0,0,0,5,6.57a.6.6,0,0,0-.34.78l1.43,3.52v3.75H5.22a5.06,5.06,0,0,0-2-3.57,5.6,5.6,0,0,1-2-5.6A5.54,5.54,0,0,1,5.46,1.24a6.32,6.32,0,0,1,1.22-.13,5.58,5.58,0,0,1,5.56,5.57A5.52,5.52,0,0,1,10.07,11.08Z"/></svg>