<svg xmlns="http://www.w3.org/2000/svg" viewBox="0 0 18.53 18.53"><path d="M9.27,0a9.27,9.27,0,1,0,9.26,9.27A9.28,9.28,0,0,0,9.27,0Zm0,17A7.77,7.77,0,1,1,17,9.27,7.77,7.77,0,0,1,9.27,17ZM14.2,8.36A4.49,4.49,0,0,0,9.58,3.78c-3.27,0-5.42,3-5.25,6.34A4.47,4.47,0,0,0,9,14.68a5,5,0,0,0,1.88-.36,1.36,1.36,0,0,0,.25.31,1.48,1.48,0,0,0,2,.18.49.49,0,0,0,0-.74c-.37-.37-.84.13-1.32-.28A6.18,6.18,0,0,0,14.2,8.36Zm-3,3.78a1.76,1.76,0,0,0-.4-.59,1.48,1.48,0,0,0-2-.17.49.49,0,0,0,0,.74c.38.38.87-.18,1.37.31a1.24,1.24,0,0,1,.22.34,2.87,2.87,0,0,1-1.3.32,3.07,3.07,0,0,1-3-3.21C6,7.66,7.33,5.38,9.48,5.38a3.07,3.07,0,0,1,3,3.21A4.77,4.77,0,0,1,11.2,12.14Z"/></svg>