<svg xmlns="http://www.w3.org/2000/svg" viewBox="0 0 16.27 15.9"><path d="M14.58,7.19a7.33,7.33,0,0,0-.29-1.25l.87-1.18a.69.69,0,0,0,0-.84L13.63,2.05a.68.68,0,0,0-.82-.2l-1.33.62a6.09,6.09,0,0,0-1.12-.54L10,.52A.68.68,0,0,0,9.34,0H6.93a.69.69,0,0,0-.67.52L5.9,1.93a6.54,6.54,0,0,0-1.16.56L3.4,1.9a.69.69,0,0,0-.82.19L1.08,4a.69.69,0,0,0,0,.84L2,6a6.38,6.38,0,0,0-.28,1.24L.37,7.92A.68.68,0,0,0,0,8.68L.56,11a.69.69,0,0,0,.65.53l1.45,0a6.74,6.74,0,0,0,.82,1L3.2,14a.68.68,0,0,0,.38.75l2.18,1a.68.68,0,0,0,.82-.18l.94-1.13c.21,0,.4.06.61.06s.45,0,.67-.06l.95,1.12a.69.69,0,0,0,.83.17l2.16-1.06a.67.67,0,0,0,.38-.75l-.3-1.42a6.23,6.23,0,0,0,.81-1l1.45,0a.69.69,0,0,0,.65-.54l.52-2.36a.69.69,0,0,0-.36-.76ZM4,8.05a4.11,4.11,0,1,1,4.11,4.11A4.11,4.11,0,0,1,4,8.05Z"/></svg>