<svg id="Icons_modified" data-name="Icons modified" xmlns="http://www.w3.org/2000/svg" width="30" height="30" viewBox="0 0 30 30"><defs><style>.cls-1{fill-rule:evenodd;}</style></defs><path id="Style" class="cls-1" d="M17.809,17.387a.963.963,0,1,1,1.345-.209A.967.967,0,0,1,17.809,17.387ZM19.1,14.408a.96.96,0,1,1,1.343-.2A.961.961,0,0,1,19.1,14.408Zm-1.368-2.932a.962.962,0,1,1,1.342-.2A.963.963,0,0,1,17.733,11.476Zm-3.041-1a.96.96,0,1,1,1.342-.2A.96.96,0,0,1,14.692,10.479Zm-2.885.849a.96.96,0,1,1,1.342-.2A.96.96,0,0,1,11.807,11.328Zm9.944,4.322A7.973,7.973,0,0,1,21.026,17a6.388,6.388,0,0,1-2.963,2.388c-1.675.556-2.234-.372-2.259-.911a2.031,2.031,0,0,0-1.574-2.121,1.864,1.864,0,0,0-1.52.589c-.453.548-.575,1.042-.087,2.133.555.967.712,1.387.485,1.661a.836.836,0,0,1-.8.332c-1.843-.034-3.7-1.943-4.459-4.182-.864-2.554.479-6.613,4.422-8.715a6.569,6.569,0,0,1,9.45,3.162A5.794,5.794,0,0,1,21.751,15.65Z"/></svg>