<svg id="Icons_modified" data-name="Icons modified" xmlns="http://www.w3.org/2000/svg" width="30" height="30" viewBox="0 0 30 30"><defs><style>.cls-1{fill-rule:evenodd;}</style></defs><g id="Text"><path class="cls-1" d="M11.158,9.8a1.312,1.312,0,0,0-1.3-.965,1.281,1.281,0,0,0-1.3.965L4.95,19.2a1.576,1.576,0,0,0-.1.449.83.83,0,0,0,.882.849.882.882,0,0,0,.932-.649l.782-2.063H12.19l.8,2.063a.87.87,0,0,0,.9.649.849.849,0,0,0,.932-.865,1.994,1.994,0,0,0-.083-.433Zm-3.229,6.49L9.843,11.21l1.9,5.076Zm14.03,3.379V15.488a2.872,2.872,0,0,0-.632-2.031,3.033,3.033,0,0,0-2.313-.849,5.794,5.794,0,0,0-2.147.417c-.483.2-.882.432-.882.865a.6.6,0,0,0,.616.616,2.148,2.148,0,0,0,.815-.267,3.491,3.491,0,0,1,1.415-.315,1.389,1.389,0,0,1,1.115.432,1.675,1.675,0,0,1,.316,1.132v.2a11.336,11.336,0,0,0-3.2.582A2.037,2.037,0,0,0,15.6,18.217a2.377,2.377,0,0,0,2.613,2.28,4.232,4.232,0,0,0,2.114-.465.864.864,0,0,0,1.63-.367Zm-1.7-.849a3.039,3.039,0,0,1-1.515.433c-.782,0-1.514-.333-1.514-1.065,0-.882,1.232-1.215,3.029-1.315ZM24.207,8.535v12.93h2.386v.566H21.259v-.566h2.386V8.535H21.259V7.969h5.334v.566Z"/></g></svg>