<svg id="Icons_modified" data-name="Icons modified" xmlns="http://www.w3.org/2000/svg" viewBox="0 0 30 30"><path id="Pinning" d="M20.16,18.1a.68.68,0,0,1,0-.88c.57-.78,1.08-1.6,1.67-2.37a18,18,0,0,1,1.67-1.92l.22.22.63.63a.66.66,0,0,0,.26.16,1.69,1.69,0,0,0,2.1-.25A1.71,1.71,0,0,0,27,11.61a.71.71,0,0,0-.18-.27l-.08-.08L21.57,6.1h0L21.49,6a1,1,0,0,0-.27-.18A1.71,1.71,0,0,0,18.89,8.2a.79.79,0,0,0,.15.24c.2.23.43.44.67.68l.19.19a25.55,25.55,0,0,1-4.26,3.33.74.74,0,0,1-.93,0,3.84,3.84,0,0,0-4.52.36c-.52.45-.53.62,0,1.12l2.93,2.93c-.11.17-.19.31-.29.45L9,23c-.19.27-.44.57-.11.89s.62,0,.89-.14.71-.48,1.06-.72l4.88-3.34,3,3c.43.43.61.42,1,0A3.85,3.85,0,0,0,20.16,18.1Z"/><path d="M9.14,7.21l2.29-2.29a.75.75,0,0,0-1.06-1.06L8.08,6.15,5.79,3.86A.75.75,0,1,0,4.73,4.92L7,7.21,4.73,9.5a.75.75,0,0,0,0,1.06.73.73,0,0,0,.53.22.74.74,0,0,0,.53-.22L8.08,8.27l2.29,2.29a.75.75,0,0,0,1.06,0,.75.75,0,0,0,0-1.06Z"/></svg>