<svg id="Layer_1" data-name="Layer 1" xmlns="http://www.w3.org/2000/svg" viewBox="0 0 272.4 272.4"><path d="M2.52,152.25a13.14,13.14,0,0,1,2.91-4c6.37-6.34,12.76-12.66,19.05-19.08a9.22,9.22,0,0,1,10-2.65c16.28,4.59,32.6,9,48.88,13.61a4.72,4.72,0,0,0,5.32-1.41c10.8-10.92,21.69-21.75,32.55-32.61,2.3-2.31,2.3-2.33-.64-3.86L35.86,58.09c-6.82-3.56-7.72-9.32-2.29-14.77C40.78,36.09,48.1,29,55.18,21.62c3.25-3.36,6.72-4.16,11.13-2.9,34.37,9.81,68.82,19.37,103.11,29.45,5.82,1.71,9.33.89,13.48-3.51,8.43-8.94,16.8-18,26.39-25.77A74.21,74.21,0,0,1,246.08,3C261.14.88,273,13.48,270.44,28.54A78.53,78.53,0,0,1,247.6,72.33c-7.44,7.36-14.78,14.83-22.24,22.17a4.06,4.06,0,0,0-1.22,4.6c10.23,35.89,20.34,71.81,30.61,107.69,1.38,4.83.57,8.5-3.11,12C244.37,225.72,237.41,233,230.3,240c-5.45,5.43-11.22,4.53-14.78-2.29q-21.92-42-43.82-84a9.83,9.83,0,0,1-.6-1.16c-.8-2-1.66-2.2-3.28-.55-7.77,7.9-15.64,15.7-23.48,23.53-3.2,3.21-6.36,6.48-9.64,9.6a4.32,4.32,0,0,0-1.3,4.88c4.59,16.29,9,32.62,13.62,48.89a9.71,9.71,0,0,1-2.7,10.46q-9.3,9.21-18.51,18.51a19.12,19.12,0,0,1-4.45,3.18h-5.23a12.87,12.87,0,0,1-5.32-5.56q-17.62-32.1-35.34-64.15a7.84,7.84,0,0,0-3.24-3.24Q40.15,180.5,8.09,162.8a12.82,12.82,0,0,1-5.57-5.31Zm252.07-128a5.26,5.26,0,0,0-6.27-5.09,61,61,0,0,0-35,17.9Q155,95.5,96.63,153.91c-3.89,3.91-7.71,4.84-12.93,3.3-13.79-4.07-27.84-7.31-41.5-11.79-6.73-2.22-11.19-1.25-15.43,4.29-2.85,3.73-3.39,2.9.82,5.23Q55.28,170.27,83,185.52a12.34,12.34,0,0,1,5.08,5.09c5.23,9.57,10.53,19.1,15.79,28.64s10.41,18.76,15.52,28.2c1.09,2,1.91,2.06,3.36.41a42,42,0,0,1,5-5c2.24-1.81,2.42-3.76,1.66-6.42-4.44-15.6-8.59-31.27-13.11-46.84-1.46-5-.53-8.74,3.22-12.47q58.61-58.35,117-116.89a63.33,63.33,0,0,0,13.14-18.75A61.44,61.44,0,0,0,254.59,24.26ZM209.9,110.43c-.85.21-1.3.9-1.84,1.44-8,8-16,16.08-24.1,24-1.69,1.66-1.77,3-.7,5,6.81,12.87,13.5,25.8,20.24,38.71q10.35,19.83,20.73,39.64c1.35,2.58,1.37,2.57,3.5.45,2.9-2.9,5.71-5.9,8.73-8.66,1.62-1.47,1.73-2.84,1.16-4.84Q227.74,171.61,218,137c-2.31-8.13-4.6-16.27-6.94-24.39C210.84,111.84,210.94,110.79,209.9,110.43ZM65.52,35.49c-1.06-.25-1.61.47-2.23,1.09-3.15,3.14-6.23,6.36-9.48,9.38-1.7,1.58-1.68,2.3.47,3.42q39.35,20.43,78.61,41c1.94,1,3.19.91,4.77-.69,7.94-8.09,16-16.07,24-24.09,2.17-2.17,2.13-2.32-.8-3.15L75.34,38.24Z"/></svg>