<svg id="Layer_1" data-name="Layer 1" xmlns="http://www.w3.org/2000/svg" viewBox="0 0 272.4 272.4"><path d="M253.05,6.43C259,8.21,264,11.25,267.32,16.7a22.15,22.15,0,1,1-26.06-9.35l2.63-.92Z"/><path d="M128,6.43c7.62,2.11,13.36,6.45,16.27,14A22.14,22.14,0,1,1,116.68,7.29l2.66-.86Z"/><path d="M2.41,133c1.54-6,4.58-10.88,9.81-14.29a21.88,21.88,0,0,1,24.4.2c7.23,4.86,11.17,14,9.42,22.32-2,9.43-7.7,15.51-17.08,17.74A22,22,0,0,1,3.34,144.55c-.32-1-.62-1.93-.93-2.89Z"/><path d="M96.09,82.7a22.33,22.33,0,0,1-22.2,22.43,22.57,22.57,0,0,1-22.2-22.26,22.2,22.2,0,0,1,44.4-.17Z"/><path d="M74,214a22.26,22.26,0,0,1-22.29-22.3,22.2,22.2,0,1,1,44.4.13A22.17,22.17,0,0,1,74,214Z"/><path d="M198.8,60.67A22.27,22.27,0,0,1,221.05,83a22.2,22.2,0,1,1-44.4-.23A22.18,22.18,0,0,1,198.8,60.67Z"/><path d="M198.69,214a22.23,22.23,0,0,1,.12-44.46,22.59,22.59,0,0,1,22.24,22.22A22.26,22.26,0,0,1,198.69,214Z"/><path d="M149.16,115.1a22.24,22.24,0,1,1-22.25,22.16A22.35,22.35,0,0,1,149.16,115.1Z"/><path d="M123.58,268.42a22,22,0,0,1-22.16-22.05c0-12.2,10.26-22.49,22.31-22.34a22.61,22.61,0,0,1,22.1,22.36A22.2,22.2,0,0,1,123.58,268.42Z"/><path d="M270.51,246.42a21.74,21.74,0,0,1-22.06,22c-12.48,0-22-9.7-22-22.31a22.13,22.13,0,0,1,21.95-22.06C260.55,223.9,270.52,234,270.51,246.42Z"/></svg>