<svg id="Layer_1" data-name="Layer 1" xmlns="http://www.w3.org/2000/svg" viewBox="0 0 272.4 272.4"><path d="M20,267.19C14,265.42,9,262.38,5.67,256.93a22.18,22.18,0,0,1,23.74-33.3,22.21,22.21,0,0,1,2.32,42.65l-2.63.91Z"/><path d="M145,267.19c-7.62-2.11-13.35-6.44-16.27-14a22.14,22.14,0,1,1,27.57,13.14l-2.66.85Z"/><path d="M270.58,140.61c-1.54,5.95-4.58,10.88-9.81,14.29a21.88,21.88,0,0,1-24.4-.2c-7.23-4.87-11.17-14-9.42-22.33,2-9.42,7.71-15.51,17.08-17.74a22,22,0,0,1,25.62,14.45c.33.95.62,1.92.93,2.89Z"/><path d="M176.91,190.92a22.34,22.34,0,0,1,22.2-22.43,22.58,22.58,0,0,1,22.19,22.27,22.2,22.2,0,0,1-44.39.16Z"/><path d="M199,59.62A22.26,22.26,0,0,1,221.3,81.93,22.57,22.57,0,0,1,199,104.08a22.23,22.23,0,0,1,0-44.46Z"/><path d="M74.19,213A22.26,22.26,0,0,1,51.94,190.6,22.59,22.59,0,0,1,74,168.49,22.23,22.23,0,0,1,74.19,213Z"/><path d="M74.3,59.62a22.23,22.23,0,0,1-.12,44.46A22.57,22.57,0,0,1,51.94,81.87,22.27,22.27,0,0,1,74.3,59.62Z"/><path d="M123.84,158.52a22.24,22.24,0,1,1,22.24-22.16A22.35,22.35,0,0,1,123.84,158.52Z"/><path d="M149.41,5.21a22,22,0,0,1,22.16,22c0,12.21-10.26,22.49-22.31,22.35a22.62,22.62,0,0,1-22.1-22.36A22.19,22.19,0,0,1,149.41,5.21Z"/><path d="M2.48,27.21a21.75,21.75,0,0,1,22.07-22c12.47,0,22,9.7,22,22.31A22.12,22.12,0,0,1,24.62,49.58C12.45,49.73,2.47,39.64,2.48,27.21Z"/></svg>