<svg id="Layer_1" data-name="Layer 1" xmlns="http://www.w3.org/2000/svg" viewBox="0 0 272.4 272.35"><path d="M136.13,272.2c-31.44,0-62.88-.44-94.31.15A41.29,41.29,0,0,1,0,230.46C.24,167.59.06,104.71.09,41.84.1,17.57,17.62.07,41.88,0Q80.61,0,119.35,0c11.45,0,20.21,6.12,23.91,16.9,1.06,3.09,1.88,2.86,3.75.81,7.89-8.63,17.32-14.66,29-16.46,15.32-2.35,29.22,1.13,40.49,11.92Q238.68,34.42,260,56.58c16.76,17.43,16.49,46-.11,63.57-1.88,2-3.75,4-5.66,6-1.36,1.4-1.18,2.15.76,2.84,12.3,4.36,17.53,13.23,17.4,26.15-.27,25.32,0,50.65-.09,76,0,23.83-17.24,41.06-41.06,41.09Q183.67,272.24,136.13,272.2ZM255.43,87.05c0-7.47-2.92-14.34-9.46-20.9Q226.44,46.54,206.84,27c-12.78-12.71-30.87-13.54-44-1.16-14.48,13.7-28.53,27.89-42.23,42.37-11.08,11.72-10.64,29.43.59,41q20.47,21,41.5,41.53a30.46,30.46,0,0,0,42.88-.05c13.89-13.61,27.57-27.43,41.26-41.24C252.66,103.59,255.56,96.46,255.43,87.05ZM72.68,144.76c-17.09,0-34.17.07-51.25-.06-3.31,0-4.58.84-4.56,4.41.13,27.43,0,54.86.09,82.29,0,13.88,9.89,23.9,23.74,23.95,27.68.1,55.36,0,83,.1,3.19,0,4.35-.87,4.34-4.23q-.17-51.06,0-102.11c0-3.58-1.23-4.43-4.54-4.41C106.59,144.83,89.63,144.76,72.68,144.76ZM115,128l.68-1.21c-2.31-2.07-4.78-4-6.92-6.23a46.8,46.8,0,0,1-2.49-61.59,115.26,115.26,0,0,1,14.92-15.2c5.62-4.75,7.57-10.14,6.89-17.29-.64-6.61-3.11-9.53-9.77-9.54q-38.53,0-77.08,0C27,16.93,17,27,17,41.15c-.05,27.44.05,54.88-.1,82.31,0,3.71,1.22,4.58,4.73,4.56,30.05-.12,60.11-.07,90.17-.07Zm31.19,29.1-1.16.83a8.58,8.58,0,0,0-.23,1.42c0,30.8,0,61.61-.07,92.42,0,3.52,1.88,3.7,4.53,3.69,27.44,0,54.88,0,82.32,0,14.06-.05,23.69-9.73,23.8-23.79.1-11.72,0-23.44,0-35.17,0-14.22,0-28.44,0-42.66,0-6.65-2.36-8.91-9.07-9-2.61,0-5.24.09-7.85,0a6.87,6.87,0,0,0-5.61,2.35c-4.87,5-9.84,9.92-14.8,14.84-19.66,19.53-48.23,19.56-67.88.05A58,58,0,0,1,146.23,157.05Z"/></svg>