<svg version="1.1" id="dotvu-logo-svg" xmlns="http://www.w3.org/2000/svg" x="0" y="0" viewBox="0 0 418.7 120" xml:space="preserve"><path d="M409.97 55.08c0-4.92-3.98-8.9-8.9-8.9s-8.9 3.98-8.9 8.9v27.01c-.1 9.74-8.03 17.61-17.79 17.61-9.71 0-17.59-7.77-17.79-17.43l-.01-27.19c0-4.92-3.98-8.9-8.9-8.9s-8.9 3.98-8.9 8.9l.01 27.27c.24 19.45 16.08 35.15 35.59 35.15s35.35-15.7 35.59-35.15h.01l-.01-27.27z"/><circle transform="rotate(-87.146 254.299 108.665)" cx="254.31" cy="108.67" r="8.83"/><path d="M44.32 46.3c6.48 0 12.56 1.73 17.8 4.76V11.4c0-4.92 3.98-8.9 8.9-8.9s8.9 3.98 8.9 8.9v70.5c0 19.66-15.94 35.6-35.6 35.6s-35.6-15.94-35.6-35.6 15.94-35.6 35.6-35.6zm0 17.8c-9.83 0-17.8 7.97-17.8 17.8 0 9.83 7.97 17.8 17.8 17.8 9.83 0 17.8-7.97 17.8-17.8 0-9.83-7.97-17.8-17.8-17.8zM208.58 117.5c-19.64-.02-35.56-15.95-35.56-35.6V11.4c0-4.92 3.98-8.9 8.9-8.9s8.9 3.98 8.9 8.9v34.9h34.8c4.92 0 8.9 3.98 8.9 8.9s-3.98 8.9-8.9 8.9h-34.8v17.8c0 9.83 7.97 17.8 17.8 17.8h17c4.92 0 8.9 3.98 8.9 8.9s-3.98 8.9-8.9 8.9h-17.04zM126.47 46.3c19.66 0 35.6 15.94 35.6 35.6s-15.94 35.6-35.6 35.6-35.6-15.94-35.6-35.6 15.94-35.6 35.6-35.6zm0 17.8c-9.83 0-17.8 7.97-17.8 17.8 0 9.83 7.97 17.8 17.8 17.8s17.8-7.97 17.8-17.8c0-9.83-7.96-17.8-17.8-17.8z"/><circle transform="rotate(-87.146 126.468 81.897)" cx="126.47" cy="81.9" r="10.95"/><path d="M323.38 47.9c-4.26-2.46-9.7-1-12.16 3.26l-22.96 39.77-22.96-39.77a8.898 8.898 0 0 0-12.16-3.26 8.898 8.898 0 0 0-3.26 12.16l30.6 52.99c1.6 2.78 4.48 4.35 7.46 4.44.1 0 .21.01.31.01.11 0 .21 0 .32-.01 2.99-.09 5.86-1.66 7.46-4.44l30.6-52.99c2.46-4.26 1-9.7-3.25-12.16z"/></svg>