<?xml version="1.0" encoding="utf-8"?>
<svg version="1.1" id="Layer_1" xmlns="http://www.w3.org/2000/svg" xmlns:xlink="http://www.w3.org/1999/xlink" x="0px" y="0px"
	 viewBox="0 0 300 300" style="enable-background:new 0 0 300 300;" xml:space="preserve">
<style type="text/css">
	.st0{fill:#231F20;}
</style>
<g>
	<g>
		<g>
			<path class="st0" d="M185.47,251.35h-40.54c-2.8,0-5.07-2.27-5.07-5.07s2.27-5.07,5.07-5.07h35.47v-76.01
				c0-2.8,2.27-5.07,5.07-5.07s5.07,2.27,5.07,5.07v81.07C190.54,249.08,188.27,251.35,185.47,251.35z"/>
		</g>
		<g>
			<path class="st0" d="M33.44,251.35c-2.8,0-5.07-2.27-5.07-5.07V13.17c0-2.8,2.27-5.07,5.07-5.07h152.03
				c2.8,0,5.07,2.27,5.07,5.07v91.22c0,2.8-2.27,5.07-5.07,5.07s-5.07-2.27-5.07-5.07V18.24H38.51v228.05
				C38.51,249.08,36.24,251.35,33.44,251.35z"/>
		</g>
		<g>
			<path class="st0" d="M144.93,291.9c-0.58,0-1.17-0.1-1.73-0.3L31.71,251.05c-2.63-0.96-3.99-3.86-3.03-6.49
				c0.96-2.63,3.87-3.99,6.49-3.03l104.69,38.07V57.27L31.71,17.95c-2.63-0.96-3.99-3.86-3.03-6.49c0.96-2.63,3.87-3.99,6.49-3.03
				l111.49,40.54c2,0.73,3.34,2.63,3.34,4.76v233.1c0,1.65-0.81,3.2-2.16,4.15C146.98,291.58,145.96,291.9,144.93,291.9z"/>
		</g>
		<g>
			<path class="st0" d="M114.53,180.42c-2.8,0-5.07-2.27-5.07-5.07v-30.41c0-2.8,2.27-5.07,5.07-5.07s5.07,2.27,5.07,5.07v30.41
				C119.59,178.15,117.33,180.42,114.53,180.42z"/>
		</g>
	</g>
	<g>
		<path class="st0" d="M266.56,139.86H165.2c-2.8,0-5.07-2.27-5.07-5.07s2.27-5.07,5.07-5.07h101.35c2.8,0,5.07,2.27,5.07,5.07
			S269.36,139.86,266.56,139.86z"/>
	</g>
	<g>
		<path class="st0" d="M226.02,180.41c-1.3,0-2.59-0.49-3.58-1.48c-1.98-1.98-1.98-5.19,0-7.17l36.96-36.96l-36.96-36.96
			c-1.98-1.98-1.98-5.19,0-7.17c1.98-1.98,5.19-1.98,7.17,0l40.54,40.54c1.98,1.98,1.98,5.19,0,7.17l-40.54,40.54
			C228.61,179.91,227.31,180.41,226.02,180.41z"/>
	</g>
</g>
</svg>