<svg id="Layer_1" data-name="Layer 1" xmlns="http://www.w3.org/2000/svg" viewBox="0 0 272.4 272.35"><path d="M1.53,125.86c1.09-7.73,2.19-15.45,4.45-23Q22,49.72,71.75,25C91.23,15.4,112,11.66,133.59,13.11a120.6,120.6,0,0,1,57.89,19c3.4,2.18,5.08,5.77,4.4,9.14a8.84,8.84,0,0,1-7.28,7.08c-2.71.52-5-.59-7.17-2a103.75,103.75,0,0,0-39.94-14.83c-25.44-3.76-49.36.69-71.3,14.1-25.48,15.57-42.26,38-48.64,67.22C13.26,151,23,184.36,50.34,212.25A100.38,100.38,0,0,0,109,241.92c32.58,4.7,61.65-3.74,86.5-25.44,19.31-16.85,30.8-38.25,34.87-63.53a88.87,88.87,0,0,0,.86-24.38c-.29-2.54-.32-5.09,1.09-7.42a8.67,8.67,0,0,1,8.68-4.27,8.38,8.38,0,0,1,7.23,6.73,78.54,78.54,0,0,1,.91,15.47c-.49,14.94-3,29.55-8.87,43.33-17.95,42.06-49.24,68.32-94.37,76.25C104.43,266,68.14,253.79,38,224.6,16.79,204,5,178.49,1.87,149c-.06-.52-.23-1-.34-1.54Z"/><path d="M139.33,165a7.88,7.88,0,0,1-6.23-2.44q-25.34-25.32-50.63-50.67a8.4,8.4,0,0,1,.12-12.26c3.5-3.4,8.8-3.32,12.51.37q20.82,20.72,41.55,41.51c3,3,2.28,2.88,5.15,0Q198.7,84.67,255.56,27.74c2.73-2.72,5.66-4.43,9.63-3.27a8.67,8.67,0,0,1,4.4,13.78,26.29,26.29,0,0,1-2,2.1L146.75,161.22C144.65,163.32,142.5,165.19,139.33,165Z"/></svg>