<svg id="Layer_1" data-name="Layer 1" xmlns="http://www.w3.org/2000/svg" viewBox="0 0 272.4 272.35"><path d="M143.19,2.05c5.06,1,10.22,1.67,15,3.7,24.1,10.17,38.84,27.79,42,54.07a65.08,65.08,0,0,1-111.4,52.73C67.74,90.77,63.88,58.51,80,32.79,90.47,16,105.71,5.54,125.6,2.47c.6-.1,1.19-.28,1.78-.42Zm41,65c1-24.26-19.82-48.89-48.74-48.92A49,49,0,0,0,86.55,67c0,28.2,23.89,48.9,48.92,48.94C161.59,116,185.15,93.3,184.2,67Z"/><path d="M137.15,271.94c-22.74,0-45.47.14-68.21-.07a45,45,0,0,1-28.69-10.26c-10-8.16-15-19-15.64-31.59a154.54,154.54,0,0,1,5.77-51.54C34,166.3,39.22,155,48.45,145.92c9.86-9.65,22-13.79,35.61-13.84,3.2,0,5.89,1.62,8.51,3.22,3.6,2.19,7.09,4.55,10.66,6.8,11.18,7,23.26,11.1,36.6,10.45A62.78,62.78,0,0,0,170,142.76c3.14-1.93,6.34-3.8,9.27-6,6.22-4.73,13-5.31,20.46-4,16.68,3,28.48,12.47,36.55,27,7.36,13.28,10.52,27.79,12.41,42.68a184.14,184.14,0,0,1,1.06,26.25,43.58,43.58,0,0,1-38.94,42.73,94.86,94.86,0,0,1-10.24.49H137.15Zm.13-16.15c21.07,0,42.13.05,63.2,0,5.35,0,10.69-.46,15.76-2.47,10.95-4.34,17.39-13.92,17.31-26.71a176.84,176.84,0,0,0-1.49-25.18c-1.74-11.5-4.18-22.78-9.81-33.13-5.73-10.53-13.87-17.73-26.16-19.44a10.09,10.09,0,0,0-7.73,1.57c-3,2.14-6.13,4.1-9.27,6-22.29,13.61-45.59,16.65-70.24,7-8.27-3.24-15.47-8.23-22.86-13a9.18,9.18,0,0,0-6.14-1.8c-6.42.7-12.38,2.65-17.42,6.75-6.43,5.23-10.62,12.14-13.57,19.74-6.89,17.72-8.62,36.24-7.72,55.05.52,11,7.57,19.84,17.9,23.45,5,1.74,10.14,2.1,15.31,2.12C95.33,255.84,116.3,255.79,137.28,255.79Z"/></svg>