<svg id="Layer_1" data-name="Layer 1" xmlns="http://www.w3.org/2000/svg" viewBox="0 0 272.4 272.4"><path d="M159.42,270.61a12.87,12.87,0,0,1-5.6-6.31Q131,217,108.06,169.72a8.21,8.21,0,0,0-4.09-4.1Q56.54,142.71,9.16,119.73c-3.11-1.51-5.77-3.35-6.23-7.11-.5-4.13,1.49-7.22,6-9,9.28-3.77,18.59-7.47,27.89-11.19L257.84,4c6.31-2.52,9.48-1.52,13,4.1V13.3c-.46,1-.95,2-1.37,3.1q-49.41,123.51-98.78,247c-1.24,3.11-2.84,5.77-6,7.19Zm69-236.53-.4-.67L31.1,112.2c1.7.86,2.61,1.34,3.54,1.79q36.81,17.87,73.59,35.78c2.16,1.06,3.38.91,5.11-.83q56-56.2,112.2-112.27C226.46,35.75,227.49,34.94,228.46,34.08Zm-67.4,207.78.73-.13L240.27,45.55a3.08,3.08,0,0,0-1.69,1q-57.14,57.13-114.3,114.23c-1.49,1.49-1.38,2.58-.55,4.28q16.33,33.48,32.54,67C157.85,235.34,159.46,238.59,161.06,241.86Z"/></svg>