<svg id="Layer_1" data-name="Layer 1" xmlns="http://www.w3.org/2000/svg" viewBox="0 0 272.4 272.4"><path d="M66.22,130c19.06,0,38.11-.13,57.16.08,4.38.05,5.66-1.3,5.65-5.65-.15-37.75-.1-75.51-.08-113.26,0-6.57,2-9.16,7-9.31,4.47-.14,7.2,2.2,7.49,6.75.21,3.3.08,6.62.08,9.93q0,52.41,0,104.82c0,6.61,0,6.63,6.47,6.63H263.3c6,0,8.26,1.91,8.45,6.59s-2.63,6.56-6.44,7.48a27.81,27.81,0,0,1-6.4.46q-54.44,0-108.85,0c-6.54,0-6.55,0-6.55,6.56q0,55.89,0,111.77c0,6.07-2.14,8.66-7,8.81-4.47.14-7.21-2.2-7.49-6.75-.21-3.63-.08-7.28-.08-10.92V151.18c0-6.62,0-6.64-6.47-6.64H13.12a21.1,21.1,0,0,1-7.34-.87c-4.14-1.49-5.7-4.4-5-8.49.7-3.9,3.45-5.23,7.25-5.21C27.45,130,46.84,130,66.22,130Z"/></svg>