<svg xmlns="http://www.w3.org/2000/svg" xml:space="preserve" width="30" height="26" version="1.1" shape-rendering="geometricPrecision" text-rendering="geometricPrecision" image-rendering="optimizeQuality" fill-rule="evenodd" clip-rule="evenodd" viewBox="0 0 3000 2556"><path d="M492 622l2016 0c271 0 492 221 492 492l0 371c0 271-221 492-492 492l-53 0c-83 0-150-67-150-150l0-199c0-132-107-239-239-239l-1130 0c-132 0-239 107-239 239l0 199c0 83-68 150-150 150l-55 0c-271 0-492-221-492-492l0-371c0-271 221-492 492-492zm1882 550c53 0 96 43 96 95 0 53-43 95-96 95-52 0-95-42-95-95 0-52 43-95 95-95zM843 0l1314 0c27 0 50 22 50 50l0 359c0 28-23 50-50 50l-7 0c-27 0-50-22-50-50l0-258c0-27-22-50-50-50l-1100 0c-28 0-50 23-50 50l0 258c0 28-23 50-50 50l-7 0c-27 0-50-22-50-50l0-359c0-28 23-50 50-50z"/><rect x="994" y="1712" width="553.8" height="94.4" rx="47" ry="47"/><rect x="994" y="2088" width="977.3" height="94.4" rx="83" ry="47"/><path d="M2186 1666l0 840c0 28-22 50-50 50l-1313 0c-28 0-50-22-50-50l0-842c1-29 24-51 53-51 29 0 53 24 53 53l0 738c0 28 23 51 50 51l1101 0c27 0 50-23 50-51l0-740c1-29 24-51 53-51 29 0 53 24 53 53z"/></svg>
