<svg xmlns="http://www.w3.org/2000/svg" xmlns:xlink="http://www.w3.org/1999/xlink" baseProfile="tiny" viewBox="0 0 500 500" overflow="visible"><path d="M68.64 96.85v1.07l-.01-.98v-.09h.01zm378.51 67.63h0c0 3.87 3.13 7 7 7h.49v218.45H135.66v-5.02c0-3.87-3.13-7-7-7h0c-3.87 0-7 3.13-7 7v12.51a6.51 6.51 0 0 0 6.51 6.51H461.3c4.05 0 7.34-3.29 7.34-7.34V163.16c0-3.14-2.54-5.68-5.68-5.68h-8.81c-3.87 0-7 3.13-7 7z"/><path d="M414.03 130.6v.55c0 3.71 3.01 6.73 6.73 6.73h.47v218.45h-306.5v-5.29c0-3.71-3.01-6.73-6.73-6.73h0c-3.71 0-6.73 3.01-6.73 6.73v12c0 4.03 3.26 7.29 7.29 7.29H428.5c3.4 0 6.16-2.76 6.16-6.16v-234.5c0-3.2-2.6-5.8-5.8-5.8h-8.12c-3.7 0-6.71 3.01-6.71 6.73zM68.64 97.92v168.17c.06-.06.13-.11.19-.17V103.85l-.19-5.93z"/><path d="M136.3 89.85c-3.37-19.31-20.27-34.04-40.53-34.04S58.61 70.54 55.24 89.85a42.7 42.7 0 0 0-.41 3.01c-.13 1.34-.2 2.7-.2 4.08l.01 1.03v196.32c0 23.21 18.81 42.02 42.02 42.02h299.13a5.83 5.83 0 0 0 5.83-5.83V95.68a5.83 5.83 0 0 0-5.83-5.83H136.3zm-67.67 7.09v-.09c.01-2.42.34-4.77.95-7 3.12-11.53 13.68-20.04 26.19-20.04s23.07 8.51 26.19 20.04a26.78 26.78 0 0 1 .95 7.09c0 2.39-.11 6.91-.11 6.91V266a40.88 40.88 0 0 0-27.03-10.16 40.89 40.89 0 0 0-26.94 10.08c-.06.06-.13.11-.19.17V97.92c-.01-.35-.01-.68-.01-.98zm318.99 225.37H96.66c-15.04 0-27.35-11.91-27.99-26.8a26.86 26.86 0 0 1 2.14-9.18c4.14-9.69 13.78-16.49 24.96-16.49s20.82 6.8 24.96 16.49a26.95 26.95 0 0 1 2.18 10.64 28.96 28.96 0 0 1-.06 1.87c-.06.81.59 1.49 1.4 1.49h11.17c.75 0 1.36-.6 1.36-1.36l.03-195.12h250.82v218.46z"/><path d="M68.64 97.92v29.91c.06.06.13.11.19.17v-24.15l-.19-5.93z"/><g fill="none" stroke="#000" stroke-width="14" stroke-miterlimit="10"><use xlink:href="#B"/><use xlink:href="#B" x="-66.34" y="96"/><use xlink:href="#B" x="66.34" y="96"/><path d="M257.58 183.96v24.85"/></g><path d="M330.92 210.08v29.49h-14v-19.26c0-2.49-2.01-4.5-4.5-4.5H202.74a4.5 4.5 0 0 0-4.5 4.5v16.54h-14l.09-26.8c.02-4.55 3.71-8.24 8.27-8.24h130.06c4.56 0 8.26 3.7 8.26 8.27z"/><g fill="none" stroke="#000" stroke-width="14" stroke-miterlimit="10"><use xlink:href="#B"/><path d="M257.58 183.96v24.85"/></g><defs ><path id="B" d="M257.58 183.96h0c-11.57 0-20.95-9.38-20.95-20.95h0c0-11.57 9.38-20.95 20.95-20.95h0c11.57 0 20.95 9.38 20.95 20.95h0c0 11.57-9.38 20.95-20.95 20.95z"/></defs></svg>