<svg id="Layer_1" data-name="Layer 1" xmlns="http://www.w3.org/2000/svg" viewBox="0 0 272.4 272.4"><path d="M139.21,1.53c4.63,1.94,6.5,5.51,6.46,10.43-.08,11.16.07,22.33-.09,33.49,0,2.62.85,3.53,3.3,3.85a84,84,0,0,1,41.73,17.64q27.52,21.63,33.13,56.3c.67,4.23.59,4.25,4.77,4.25,11.17,0,22.33,0,33.5,0,6.46,0,10.69,4.81,9.67,10.71-.77,4.49-4.52,7.39-9.82,7.41-11.34,0-22.69.11-34,0-2.69,0-3.68.83-4,3.41a85.24,85.24,0,0,1-24.25,49.27,86.2,86.2,0,0,1-49.51,25.47c-5.46.85-4.36.64-4.38,5.16-.07,11,0,22,0,33,0,5.74-3.44,9.66-8.46,9.91-5.65.28-9.62-3.64-9.66-9.76-.06-11.25,0-22.51,0-33.76,0-3.92,0-3.82-4-4.49q-45.25-7.66-66.15-48.55a77.45,77.45,0,0,1-8.05-26.32c-.29-2.46-1.23-3.35-3.85-3.31-11.16.16-22.33,0-33.49.09-4.92,0-8.49-1.82-10.43-6.46v-5.28c1.93-4.64,5.51-6.5,10.43-6.46,10.81.07,21.62,0,32.43,0,4.42,0,4.33,0,5-4.28q5.52-34.47,32.92-56.12A84,84,0,0,1,124.26,49.3c2.47-.32,3.33-1.25,3.3-3.86-.16-11.16,0-22.32-.09-33.48,0-4.92,1.82-8.49,6.46-10.43ZM127.49,83.22c0-4.48,0-9,0-13.45,0-2-.37-2.83-2.71-2.43a70.41,70.41,0,0,0-57.46,57.52c-.36,2.09.24,2.72,2.23,2.65,2.64-.09,5.28,0,7.91,0,6.33,0,12.66-.08,19,0,5,.11,8.66,3.4,9.12,7.85a8.7,8.7,0,0,1-7,9.93,16.56,16.56,0,0,1-3.66.32c-8.44,0-16.88.05-25.31,0-2,0-2.65.56-2.26,2.65a62.15,62.15,0,0,0,1.74,7.43c8.72,27.35,27.06,44.1,55.23,49.92,3.15.65,3.19.52,3.2-2.78,0-8.53,0-17.05,0-25.58,0-6,3.83-9.89,9.38-9.75,5.2.12,8.7,4,8.74,9.88q.08,12.92,0,25.84c0,2.12.38,3.07,2.85,2.55a72.08,72.08,0,0,0,7.42-1.76c27.23-8.74,43.89-27.06,49.72-55.11.67-3.21.52-3.26-2.7-3.26-8.62,0-17.23.06-25.85,0-5.86-.06-9.66-3.87-9.56-9.31.1-5.21,4-8.76,9.82-8.8q13.05-.09,26.11,0c2.1,0,2.8-.56,2.36-2.79a65.46,65.46,0,0,0-1.6-6.92q-13-41.41-55.46-50.39c-2.73-.57-3.15.38-3.12,2.74.09,8.27,0,16.53,0,24.79,0,6.66-3.39,10.65-9,10.68s-9.12-3.95-9.15-10.54C127.48,91.13,127.49,87.18,127.49,83.22Z"/></svg>