<svg id="Layer_1" data-name="Layer 1" xmlns="http://www.w3.org/2000/svg" viewBox="0 0 272.4 272.4"><path d="M142.72,222.14q0-10.6,0-21.2c0-3,0-3-2.76-1.53l-32,17.24c-.92.5-1.85,1-2.81,1.4-3.92,1.72-7.52,1.22-10.58-1.83Q74,195.72,53.48,175.14c-3.42-3.44-3.85-7-1.45-11.72q8.74-17.13,18.18-33.88c1.48-2.65,1.45-2.68-1.67-2.68-14,0-27.91,0-41.87,0-4.05,0-7.26-1.28-8.87-5.12s-.63-7.34,2.34-10.26c10-9.82,19.49-20.24,30-29.55A55.11,55.11,0,0,1,87,67.89q9.81-.14,19.62,0A4.81,4.81,0,0,0,111,65.75,193.11,193.11,0,0,1,130.6,43c14.47-14,32-22.18,51.26-26.9a240.59,240.59,0,0,1,38.71-5.86c10.35-.82,20.71-1.09,31.09-1,4.89,0,8.57,3.32,8.63,8,.3,24-1.41,47.87-7,71.35-6.35,26.62-20.62,48-42.29,64.49a44.8,44.8,0,0,1-5,3.85c-3.7,2-4.53,5-4.44,9.05.17,7.66.59,15.35-.35,23a57.3,57.3,0,0,1-16.45,33.7c-8.77,9-17.75,17.77-26.61,26.68-2.93,2.94-6.32,4.08-10.22,2.51s-5.35-4.87-5.28-9C142.79,235.92,142.72,229,142.72,222.14ZM242.82,34.5c0-1.43,0-2.74,0-4.05,0-3.75.05-3.74-3.78-3.7a255.1,255.1,0,0,0-41.84,3.82c-14.33,2.56-28.15,6.6-40.72,14.26-12,7.31-21.2,17.52-29.57,28.52-21.78,28.62-39.3,59.88-56.17,91.52-.91,1.71-.37,2.63.8,3.8q14.67,14.57,29.21,29.25c1.51,1.53,2.65,1.67,4.49.65,10.66-5.95,21.48-11.6,32.06-17.68,22.69-13,44.92-26.78,65.33-43.3,16.86-13.63,28.06-30.71,33.42-51.76C240.36,68.92,242,51.72,242.82,34.5ZM47.15,109.09l.27.65c8.43,0,16.9-.5,25.28.16,6.67.52,10.76-1.4,13.71-7.54C89,96.9,92.81,92,96.1,86.87c.65-1,1.22-1.87-.76-1.9-7.43-.1-14.77.24-21.87,2.84C62.21,91.93,55.41,101.38,47.15,109.09Zm112.68,113,.62.33c5.36-5.69,11.46-10.65,16.18-17,7-9.38,8.4-20.23,7.93-31.5-.1-2.38-1.4-.77-2-.38-5.39,3.37-10.52,7.26-16.18,10.07-5.39,2.68-7,6.23-6.66,12.09C160.24,204.54,159.83,213.35,159.83,222.13Z"/><path d="M19.67,260.86c-3.05.21-6,0-8.32-2.28a7.25,7.25,0,0,1-2.57-5.27C9,236.07,12.19,219.67,23,205.62A33.84,33.84,0,0,1,38.9,194.13,9,9,0,0,1,49,196.35l24.22,24.23a9,9,0,0,1,2.22,10.09c-4,11-12.14,17.87-22.35,22.61C42.51,258.2,31.23,260.23,19.67,260.86Zm8.77-18.25a75.89,75.89,0,0,0,10.44-2.39c6-1.83,11.55-4.43,16.13-8.84,1.6-1.55,1.92-2.72,0-4.46-4.08-3.8-7.93-7.86-11.88-11.8-2.75-2.75-3-2.79-5.68.21C31,222.68,28.62,231.77,27,241.12,26.75,242.24,27.3,242.77,28.44,242.61Z"/><path d="M210.08,93.23a33.68,33.68,0,1,1-33.62-33.74A33.42,33.42,0,0,1,210.08,93.23Zm-17.16-.06a16.78,16.78,0,0,0-16.58-16.52c-9,.08-16.61,7.79-16.46,16.65a16.52,16.52,0,0,0,33-.13Z"/></svg>