<svg id="Layer_1" data-name="Layer 1" xmlns="http://www.w3.org/2000/svg" viewBox="0 0 272.4 272.4"><path d="M262.79,270c-1.92-1.77-3.9-3.48-5.74-5.32q-37.59-37.55-75.1-75.17c-1.9-1.91-3.06-2-5.09-.25-16.19,13.75-34.86,22.17-56,24.3-39.8,4-72.13-10.21-96.85-41.44-12.3-15.55-19.14-33.5-21.17-53.25a8.32,8.32,0,0,0-.32-1.26V98.25c1-6.54,1.92-13.1,3.83-19.46A106.68,106.68,0,0,1,38.09,28.6,104,104,0,0,1,95.51,2.45C119.29-.48,141.75,4,162.38,16.35c26.76,16,43.69,39.41,50.36,69.87,4.93,22.49,2.24,44.36-7.19,65.38a97.24,97.24,0,0,1-15.65,24.64c-1.78,2-1.63,3.2.26,5.08q38,37.85,75.93,75.84l1.48,1.48c4.49,4.52,4.47,7.13-.07,11.37Zm-154-256.52a94.56,94.56,0,1,0,94.47,94.65A94.45,94.45,0,0,0,108.77,13.49Z"/></svg>