<svg id="Layer_1" data-name="Layer 1" xmlns="http://www.w3.org/2000/svg" viewBox="0 0 272.4 272.4"><path d="M147.6,270.82H125.68c-5.59-.73-11.2-1.38-16.72-2.57C39.79,253.38-8.23,186.31,4.91,113.46,17.8,42,85.53-6.18,157.24,4.93a134.63,134.63,0,0,1,108,95,164.86,164.86,0,0,1,5,26.32v21.92c-.61,4.21-1,8.46-1.86,12.61-11.31,53.28-43,88.23-94.74,105.07C165.18,268.61,156.39,269.76,147.6,270.82Zm-6.67-16.17c62.69-1.5,118.68-56.34,112.87-127.57A117.59,117.59,0,1,0,19.5,147.36C24.75,210.45,79.35,257.27,140.93,254.65Z"/><path d="M167.9,114a30.51,30.51,0,0,1-20.14-7.4c-1.62-1.37-2.81-1.42-4.59-.37q-18.07,10.68-36.27,21.16c-1.71,1-2.3,2-1.89,4A27.89,27.89,0,0,1,105,143c-.4,1.91.15,3,1.87,4q18.09,10.41,36.05,21c2,1.16,3.22,1.08,5-.38,16-13.08,39.87-7.84,48.49,10.87,5.62,12.18,4.07,23.93-4.7,34.09s-20.09,13.35-32.81,9.55-20.22-13-22.32-26.26a24.43,24.43,0,0,1,.36-9.85c.46-1.82-.17-2.86-1.77-3.79q-18.42-10.62-36.73-21.42c-1.67-1-2.74-.64-4.14.48C75,176.92,47.52,166.82,42.85,142.42,39.36,124.13,54.3,106,72.91,105.68a31.32,31.32,0,0,1,21.61,7.58,2.93,2.93,0,0,0,3.94.33q18.32-10.78,36.73-21.42c1.78-1,2.06-2.19,1.75-4-3.05-18,8.51-34.1,26.51-37,18.24-3,35.87,11.91,36,30.39.12,16.42-10.46,29.22-26.63,32.14A47.26,47.26,0,0,1,167.9,114Zm15.45-31.68A15.7,15.7,0,0,0,168,67c-8.35,0-15.63,7.38-15.4,15.61s7.38,15.36,15.54,15.2A15.7,15.7,0,0,0,183.35,82.35ZM74,121.82a15.41,15.41,0,1,0,15.43,15.31A15.71,15.71,0,0,0,74,121.82ZM168,176.61c-8.2-.1-15.31,6.9-15.49,15.25-.18,8.16,6.8,15.31,15.18,15.56,8.2.25,15.6-7,15.62-15.38A15.71,15.71,0,0,0,168,176.61Z"/></svg>