<svg id="Layer_1" data-name="Layer 1" xmlns="http://www.w3.org/2000/svg" viewBox="0 0 272.4 272.4"><path d="M267.76,136.55c-2.38-2.6-59.48-63.3-131.52-63.3S7.12,134,4.72,136.55a6.94,6.94,0,0,0,0,9.47c2.4,2.59,59.48,63.29,131.52,63.29S265.38,148.61,267.76,146A6.94,6.94,0,0,0,267.76,136.55ZM19.69,141.28c9.69-9.19,33.3-29.65,63.9-42.62a67.64,67.64,0,0,0-.06,85.2C53,170.9,29.38,150.45,19.69,141.28Zm116.55,53.87a53.85,53.85,0,1,1,53.85-53.85A53.91,53.91,0,0,1,136.24,195.15ZM189,183.88a67.71,67.71,0,0,0,0-85.2c30.55,13,54.19,33.43,63.87,42.6C243.1,150.47,219.53,170.9,189,183.88Z"/><circle cx="136.24" cy="141.31" r="22.5"/></svg>