<svg id="Layer_1" data-name="Layer 1" xmlns="http://www.w3.org/2000/svg" viewBox="0 0 272.4 272.4"><path d="M235.33,243.66c-3.91.24-5.9-2.71-8.2-5-28.08-27.95-56.27-55.79-84-84-4.95-5-7.33-4.43-11.91.2-27.28,27.65-54.9,55-82.41,82.41-1.81,1.8-3.49,3.89-5.64,5.15-3.81,2.24-8,2.41-11.18-1.09-2.93-3.18-2.76-7.1-.63-10.61,1.29-2.13,3.36-3.82,5.16-5.62C63.81,197.78,91,170.39,118.58,143.4c5.09-5,5.84-7.57.28-13-27.46-26.74-54.43-54-81.58-81.07-1.8-1.8-3.68-3.56-5.32-5.5-2.63-3.12-2.77-6.5-.32-9.78,2.71-3.63,6.45-4.2,10.19-2.2,2.41,1.29,4.37,3.49,6.35,5.46C75.53,64.56,103,91.71,130.07,119.18c4.79,4.85,7.47,5.43,12.61.2,27-27.53,54.51-54.65,81.87-81.87a45.08,45.08,0,0,1,6.92-6c3.9-2.56,8.05-2.31,11,1.42,2.72,3.48,3.08,7.55-.19,11.19-1.53,1.71-3.19,3.3-4.82,4.93-27.69,27.62-55.27,55.33-83.17,82.74-4.54,4.47-4.64,7,0,11.46C182,170.05,209.47,197.12,237,224.12c2.35,2.31,4.92,4.43,6.27,7.64C246,238.13,242.18,243.91,235.33,243.66Z"/></svg>