<svg id="Interactive_Experiences_Icons" data-name="Interactive Experiences Icons" xmlns="http://www.w3.org/2000/svg" viewBox="0 0 200 200"><g id="Assessment"><path d="M27.82,93.66a2.2,2.2,0,0,0-2.15,2.76c1.94,6.49,10.59,11.38,21,11.38s19-4.89,21-11.38a2.2,2.2,0,0,0-2.15-2.76Z"/><path d="M156.5,19.47a3.3,3.3,0,0,0-4.17-2.07l-43.6,14.7A10.79,10.79,0,0,0,100,27.58,10.92,10.92,0,0,0,89,38.5v.13L43.33,53.94a3.28,3.28,0,0,0-2.1,4.17,3.34,3.34,0,0,0,3.16,2.23,2.88,2.88,0,0,0,1-.17L91.1,44.86a10.7,10.7,0,0,0,3.64,3.25,7.15,7.15,0,0,0-2.28,4.73L83.29,169.17a6.66,6.66,0,0,0,.18,2.32H74.21a3.29,3.29,0,0,0,0,6.58H126.1a3.29,3.29,0,0,0,0-6.58h-10a6.66,6.66,0,0,0,.18-2.32L107.2,52.84A7,7,0,0,0,105,48.2a10.94,10.94,0,0,0,5.88-9.7v-.22l43.6-14.65A3.3,3.3,0,0,0,156.5,19.47ZM100,34.16a4.32,4.32,0,0,1,4,2.67.89.89,0,0,0,.08.31s0,0,.05.09a4.08,4.08,0,0,1,.22,1.27,4.32,4.32,0,1,1-4.3-4.34Zm-.13,18.47a.81.81,0,0,1,.79.74l.61,8H98.38l.61-8A.82.82,0,0,1,99.83,52.63Zm10,117.06a1.11,1.11,0,0,1-.22.62.79.79,0,0,1-.61.26H90.66a.79.79,0,0,1-.61-.26,1.11,1.11,0,0,1-.22-.62L97.85,68h3.91Z"/><path d="M61.8,90.91a3.28,3.28,0,0,1-2.68-1.38L49.66,76.26a3.83,3.83,0,0,0-3.1-1.61,3.57,3.57,0,0,0-3.12,1.56L33.56,89.58a3.29,3.29,0,0,1-5.3-3.91L38.14,72.3a10.32,10.32,0,0,1,8.38-4.23h.09A10.3,10.3,0,0,1,55,72.44l9.46,13.27a3.28,3.28,0,0,1-2.67,5.2Z"/><path d="M134.56,58.51a2.2,2.2,0,0,0-2.15,2.75c1.94,6.5,10.59,11.39,21,11.39s19-4.89,21-11.39a2.2,2.2,0,0,0-2.15-2.75Z"/><path d="M168.54,55.76a3.28,3.28,0,0,1-2.68-1.38L156.4,41.11a3.83,3.83,0,0,0-3.1-1.61h0a3.8,3.8,0,0,0-3.09,1.56L140.3,54.43a3.29,3.29,0,0,1-5.3-3.91l9.88-13.37a10.32,10.32,0,0,1,8.38-4.23h.09a10.32,10.32,0,0,1,8.4,4.37l9.46,13.27a3.28,3.28,0,0,1-2.67,5.2Z"/><path d="M94.8,194.74a1.62,1.62,0,0,0,1.63,1.62h1.88v1.89a1.66,1.66,0,0,0,1.67,1.66,1.65,1.65,0,0,0,1.62-1.66v-1.89h1.89a1.62,1.62,0,0,0,1.62-1.62,1.66,1.66,0,0,0-1.62-1.67H101.6v-1.84a1.65,1.65,0,1,0-3.29,0v1.84H96.43A1.67,1.67,0,0,0,94.8,194.74Z"/><circle cx="99.96" cy="4.09" r="4"/></g></svg>