<svg id="Interactive_Experiences_Icons" data-name="Interactive Experiences Icons" xmlns="http://www.w3.org/2000/svg" viewBox="0 0 200 200"><g id="Branching_Video" data-name="Branching Video"><path d="M77.28,119.88A11.87,11.87,0,0,1,65.42,108V79.2a11.86,11.86,0,0,1,18.32-10L106,83.66h0a11.87,11.87,0,0,1,0,19.9L83.74,118A11.81,11.81,0,0,1,77.28,119.88Zm0-45.09a4.42,4.42,0,0,0-4.41,4.41V108a4.4,4.4,0,0,0,6.8,3.69l22.21-14.4a4.42,4.42,0,0,0,0-7.4L79.68,75.5A4.41,4.41,0,0,0,77.29,74.79Z"/><path d="M20.76,99.47a1.83,1.83,0,0,0,1.83,1.84h2.14v2.14a1.87,1.87,0,1,0,3.73,0v-2.14h2.13a1.83,1.83,0,0,0,1.84-1.84,1.87,1.87,0,0,0-1.84-1.88H28.46V95.5a1.87,1.87,0,1,0-3.73,0v2.09H22.59A1.87,1.87,0,0,0,20.76,99.47Z"/><circle cx="139.13" cy="16.58" r="4.54"/><circle cx="115.51" cy="183.44" r="4.54"/><path d="M190,94.71a93.35,93.35,0,0,0-31.9-70.31c-1.05-.95-2.09-1.89-3.18-2.74a17.07,17.07,0,0,0,.79-5.06,16.57,16.57,0,1,0-33.14,0,16.38,16.38,0,0,0,4.52,11.33l-7.3,11.67A64.07,64.07,0,0,0,87.53,31,64.78,64.78,0,0,0,24.07,83.13,16.51,16.51,0,0,0,26.16,116,64.68,64.68,0,0,0,87.53,160.3a62.16,62.16,0,0,0,16.74-2.24l2.79,11.18a15.46,15.46,0,0,0-3.38,2.63,16.57,16.57,0,1,0,28.27,9.5A93.91,93.91,0,0,0,190,94.71ZM139.16,7.45A9.12,9.12,0,1,1,130,16.6,9.15,9.15,0,0,1,139.16,7.45ZM26.61,108.57a9.12,9.12,0,1,1,9.09-9.09A9.13,9.13,0,0,1,26.61,108.57Zm60.92,44.27a57.24,57.24,0,0,1-54-38.31,16.6,16.6,0,0,0-1.94-30.9,57.23,57.23,0,1,1,56,69.21Zm34.48,37a9.1,9.1,0,1,1-.15-12.92A9.1,9.1,0,0,1,122,189.81Zm7.36-15.4a12.37,12.37,0,0,0-2.29-2.83,16.53,16.53,0,0,0-13-4.62l-2.73-11.23A64.6,64.6,0,0,0,126,43.73l7.25-11.68a16.41,16.41,0,0,0,17.74-4c.94.8,1.89,1.64,2.83,2.49a86.24,86.24,0,0,1-24.49,143.85Z"/></g></svg>