<svg id="Interactive_Experiences_Icons" data-name="Interactive Experiences Icons" xmlns="http://www.w3.org/2000/svg" viewBox="0 0 200 200"><g id="Calculator"><path d="M163.84,200H36.16a10.35,10.35,0,0,1-10.33-10.34V10.34A10.35,10.35,0,0,1,36.16,0H163.84a10.35,10.35,0,0,1,10.33,10.34V189.66A10.35,10.35,0,0,1,163.84,200ZM36.16,6.52a3.82,3.82,0,0,0-3.81,3.82V189.66a3.82,3.82,0,0,0,3.81,3.82H163.84a3.82,3.82,0,0,0,3.81-3.82V10.34a3.82,3.82,0,0,0-3.81-3.82Z"/><path d="M149.05,47.39H51A10.35,10.35,0,0,1,40.7,37.05V21.5A10.35,10.35,0,0,1,51,11.16h98A10.35,10.35,0,0,1,159.39,21.5V37.05A10.35,10.35,0,0,1,149.05,47.39ZM51,17.68a3.82,3.82,0,0,0-3.81,3.82V37.05A3.82,3.82,0,0,0,51,40.86h98a3.82,3.82,0,0,0,3.82-3.81V21.5a3.83,3.83,0,0,0-3.82-3.82Z"/><path d="M66.59,100.44H51A10.34,10.34,0,0,1,40.7,90.11V74.55A10.34,10.34,0,0,1,51,64.22H66.59A10.35,10.35,0,0,1,76.93,74.55V90.11A10.35,10.35,0,0,1,66.59,100.44ZM51,70.74a3.82,3.82,0,0,0-3.81,3.81V90.11A3.82,3.82,0,0,0,51,93.92H66.59a3.82,3.82,0,0,0,3.81-3.81V74.55a3.82,3.82,0,0,0-3.81-3.81Z"/><path d="M107.82,100.44H92.27A10.35,10.35,0,0,1,81.93,90.11V74.55A10.35,10.35,0,0,1,92.27,64.22h15.55a10.35,10.35,0,0,1,10.34,10.33V90.11A10.35,10.35,0,0,1,107.82,100.44ZM92.27,70.74a3.82,3.82,0,0,0-3.81,3.81V90.11a3.82,3.82,0,0,0,3.81,3.81h15.55a3.82,3.82,0,0,0,3.81-3.81V74.55a3.82,3.82,0,0,0-3.81-3.81Z"/><path d="M66.59,142.84H51A10.35,10.35,0,0,1,40.7,132.5V117A10.35,10.35,0,0,1,51,106.61H66.59A10.35,10.35,0,0,1,76.93,117V132.5A10.35,10.35,0,0,1,66.59,142.84ZM51,113.14A3.81,3.81,0,0,0,47.22,117V132.5A3.82,3.82,0,0,0,51,136.32H66.59a3.82,3.82,0,0,0,3.81-3.82V117a3.81,3.81,0,0,0-3.81-3.81Z"/><path d="M107.82,142.84H92.27A10.35,10.35,0,0,1,81.93,132.5V117a10.35,10.35,0,0,1,10.34-10.34h15.55A10.35,10.35,0,0,1,118.16,117V132.5A10.35,10.35,0,0,1,107.82,142.84Zm-15.55-29.7A3.81,3.81,0,0,0,88.46,117V132.5a3.82,3.82,0,0,0,3.81,3.82h15.55a3.82,3.82,0,0,0,3.81-3.82V117a3.81,3.81,0,0,0-3.81-3.81Z"/><path d="M66.59,185.23H51A10.34,10.34,0,0,1,40.7,174.9V159.34A10.35,10.35,0,0,1,51,149H66.59a10.35,10.35,0,0,1,10.34,10.34V174.9A10.35,10.35,0,0,1,66.59,185.23ZM51,155.53a3.82,3.82,0,0,0-3.81,3.81V174.9A3.82,3.82,0,0,0,51,178.71H66.59a3.82,3.82,0,0,0,3.81-3.81V159.34a3.82,3.82,0,0,0-3.81-3.81Z"/><path d="M107.82,185.23H92.27A10.35,10.35,0,0,1,81.93,174.9V159.34A10.35,10.35,0,0,1,92.27,149h15.55a10.35,10.35,0,0,1,10.34,10.34V174.9A10.35,10.35,0,0,1,107.82,185.23Zm-15.55-29.7a3.82,3.82,0,0,0-3.81,3.81V174.9a3.82,3.82,0,0,0,3.81,3.81h15.55a3.82,3.82,0,0,0,3.81-3.81V159.34a3.82,3.82,0,0,0-3.81-3.81Z"/><path d="M149.05,185.23H133.5a10.35,10.35,0,0,1-10.34-10.33V117a10.35,10.35,0,0,1,10.34-10.34h15.55A10.35,10.35,0,0,1,159.39,117v58A10.35,10.35,0,0,1,149.05,185.23ZM133.5,113.14a3.81,3.81,0,0,0-3.81,3.81v58a3.82,3.82,0,0,0,3.81,3.81h15.55a3.82,3.82,0,0,0,3.82-3.81V117a3.82,3.82,0,0,0-3.82-3.81Z"/><path d="M149.05,100.44H133.5a10.35,10.35,0,0,1-10.34-10.33V74.55A10.35,10.35,0,0,1,133.5,64.22h15.55a10.35,10.35,0,0,1,10.34,10.33V90.11A10.35,10.35,0,0,1,149.05,100.44ZM133.5,70.74a3.82,3.82,0,0,0-3.81,3.81V90.11a3.82,3.82,0,0,0,3.81,3.81h15.55a3.82,3.82,0,0,0,3.82-3.81V74.55a3.82,3.82,0,0,0-3.82-3.81Z"/><circle cx="58.81" cy="55.8" r="3.97"/><circle cx="141.28" cy="55.81" r="3.97"/><path d="M94.93,55.8a1.6,1.6,0,0,0,1.61,1.61h1.87v1.87a1.64,1.64,0,1,0,3.27,0V57.41h1.87a1.6,1.6,0,0,0,1.6-1.61,1.64,1.64,0,0,0-1.6-1.65h-1.87V52.32a1.64,1.64,0,1,0-3.27,0v1.83H96.54A1.64,1.64,0,0,0,94.93,55.8Z"/></g></svg>