<svg id="Interactive_Experiences_Icons" data-name="Interactive Experiences Icons" xmlns="http://www.w3.org/2000/svg" viewBox="0 0 200 200"><g id="Event_Marketing" data-name="Event Marketing"><path d="M185.11,72.44l-23.3-20.82V30.16a12.63,12.63,0,0,0-12.63-12.58H123.65L107.54,3.21a12.61,12.61,0,0,0-16.81,0L74.62,17.58H64.31L53.85,25.51H54L39,36.61c-.16.1-.21.26-.37.42l-1.22.9V50.77L13.11,72.44a3.86,3.86,0,0,0-1.22,2.32,2,2,0,0,0-.11.79V187.37A12.63,12.63,0,0,0,24.41,200H173.8a11.42,11.42,0,0,0,1.48-.11,7,7,0,0,0,1.54-.31c.52-.16,1-.32,1.53-.53a12.41,12.41,0,0,0,8.08-11.68V75.55A3.87,3.87,0,0,0,185.11,72.44Zm-23.3-10.15,10.73,9.56a12.54,12.54,0,0,0-7.77,3.49l-3,2.86ZM96,9.13a4.66,4.66,0,0,1,6.23,0l9.51,8.45H86.51ZM61.56,29.74v6.08H53.37Zm-16.22,14H65.53a4,4,0,0,0,4-4l0-14.27h79.74a4.7,4.7,0,0,1,4.7,4.65V85.8L112.08,126l-4.91-3.65a12.77,12.77,0,0,0-15.12,0l-5.44,4.07L45.34,86.7ZM37.41,61.39v17.7L33.5,75.34a12.35,12.35,0,0,0-7.82-3.49ZM20.08,84.48a4.67,4.67,0,0,1,4.76-4.7A4.37,4.37,0,0,1,28,81.1l52.15,50.1L20.08,175.9ZM177.66,189.33h0a4.44,4.44,0,0,1-4.18,2.74H25.79A4.55,4.55,0,0,1,21.4,189a4.64,4.64,0,0,1,.9-4.81,3.75,3.75,0,0,0,.74-.58l66.11-49.25c.1-.11.26-.16.37-.27l7.29-5.44a4.77,4.77,0,0,1,5.6,0l73.82,55A4.54,4.54,0,0,1,177.66,189.33Zm.53-14.11-59.66-44.45L170.26,81.1a4.37,4.37,0,0,1,3.17-1.32,4.67,4.67,0,0,1,4.76,4.7Z"/><path d="M136,58.22l-8.14-3V43.27c0-6.13-2.8-8.35-4.44-9.15s-5.18-1.53-9.88,2.38c-5.49,4.49-9.88,7.66-12.58,9.09a37.51,37.51,0,0,1-11.89,3.49,8,8,0,0,0-4.22,1.85H74.62a14.13,14.13,0,0,0-3.17,27.9c-.06,0-.06.16-.11.21a7.92,7.92,0,0,0,.11,6l8.34,19.39a7.59,7.59,0,0,0,4.28,4.17,8.2,8.2,0,0,0,2.91.58,7.51,7.51,0,0,0,3.17-.68,7.76,7.76,0,0,0,4.12-10.31L86.66,80.47a7.38,7.38,0,0,0,2.49.79,48.71,48.71,0,0,1,11.68,2.91c3.06,1.16,7.29,4.33,12.26,9,3.06,3,5.7,3.81,7.61,3.81a6.43,6.43,0,0,0,2.53-.48c1.75-.74,4.65-3,4.65-9.62V72.65l8.14-3a2.67,2.67,0,0,0,1.74-2.53V60.81A2.75,2.75,0,0,0,136,58.22ZM66,65.09a8.64,8.64,0,0,1,8.67-8.67H81.7a5.48,5.48,0,0,0-.16,1.32v14.8a9.08,9.08,0,0,0,.1,1.16h-7A8.62,8.62,0,0,1,66,65.09Zm23.3,35.3a2.34,2.34,0,0,1,.06,1.8,2.46,2.46,0,0,1-1.38,1.32,2.36,2.36,0,0,1-1.79,0,2.58,2.58,0,0,1-1.33-1.27L76.47,82.9a2.3,2.3,0,0,1,0-1.8,2.39,2.39,0,0,1,1.26-1.32l-.26-.58h0l.27.58A2.33,2.33,0,0,1,80.9,81Zm33.14-13.48c0,3.12-.85,4.34-1.32,4.55s-2,0-4.18-2.17C111.34,84,106.59,80.52,102.78,79a56.34,56.34,0,0,0-13-3.22A3.5,3.5,0,0,1,87,72.54V57.74a3.39,3.39,0,0,1,2.8-3.22,42.88,42.88,0,0,0,13.74-4.07c3.07-1.64,7.61-4.91,13.48-9.72A5.91,5.91,0,0,1,120.54,39a1.42,1.42,0,0,1,.53.1c.63.32,1.32,1.53,1.32,4.18Zm9.93-21.71-4.44,1.63V61.07l4.44,1.64Z"/><path d="M175.8,13.25a2,2,0,0,0,1.95,2H180v2.27a2,2,0,1,0,4,0V15.21h2.27a2,2,0,0,0,2-2,2,2,0,0,0-2-2H184V9a2,2,0,1,0-4,0v2.22h-2.27A2,2,0,0,0,175.8,13.25Z"/><circle cx="16.62" cy="13.25" r="4.82"/></g></svg>