<svg id="Interactive_Experiences_Icons" data-name="Interactive Experiences Icons" xmlns="http://www.w3.org/2000/svg" viewBox="0 0 200 200"><g id="Guided_Selling" data-name="Guided Selling"><path d="M132.74,177.34h0l.55-5Z"/><path d="M139.25,176.25l.63-5.77h0l-6.51,1.85-.55,5h0L28.67,165.77,42.44,50.2l26.25,2.86h0l-1.17,8.29a3.14,3.14,0,0,0,2.64,3.58,3.19,3.19,0,0,0,3.57-2.69L75,53.74l36,3.91h0l-.84,10.22a3.14,3.14,0,0,0,2.89,3.37c.09,0,.17,0,.26,0a3.17,3.17,0,0,0,3.15-2.94l.79-10,28.44,3.12-3,26.92,5.92,3.7,1.1-9.67,1.8,11.48,7.06,4.42-6.22-39.71,0-.43a5.38,5.38,0,0,0-.13-.54,3.2,3.2,0,0,0-1.89-1.9.81.81,0,0,0-.42-.12.3.3,0,0,0-.16,0,.24.24,0,0,0-.17,0l-31.75-3.45,1-12.53c0-14.14-9.4-23.65-23.39-23.65-13.31,0-23,9.22-24.65,23.4L69.62,46.8h-.05L40,43.6a3.18,3.18,0,0,0-3.49,2.78L22,168.17a3.19,3.19,0,0,0,.63,2.35,3.5,3.5,0,0,0,2.14,1.18l110,12.2a4.31,4.31,0,0,0,.71.09,4.36,4.36,0,0,0,1-.17l.13,0,16.71-5.73L151,172.21ZM76.92,40.06c1.31-11,8.36-17.88,18.44-17.88,10.54,0,17.09,6.65,17.14,17.09l-1,12.11h0L75.87,47.51Z"/><path d="M189.48,179.82l-17.22-18.17A9,9,0,0,0,161,160.09l-4.15-4.37a39.78,39.78,0,0,0-28.48-66.39A40,40,0,0,0,100,100.27a39.77,39.77,0,0,0,26.29,68.61h1.09a40.33,40.33,0,0,0,14.7-2.77,39.08,39.08,0,0,0,10.21-6.06l4.11,4.29a9.21,9.21,0,0,0,.89,11.57l17.22,18.17a9.11,9.11,0,0,0,6.63,2.82,9.22,9.22,0,0,0,6.34-2.48l1.68-1.6a9.4,9.4,0,0,0,2.86-6.44A9.2,9.2,0,0,0,189.48,179.82Zm-63-17.25a32.93,32.93,0,0,1-23.35-10.43,33.57,33.57,0,0,1,1.22-47.33,33.22,33.22,0,0,1,23-9.17h.92a33.48,33.48,0,0,1-1.76,66.93Zm58.34,25.67-1.69,1.59a2.69,2.69,0,0,1-1.93.8,2.79,2.79,0,0,1-2.1-.92l-17.22-18.18a2.8,2.8,0,0,1-.79-2,2.88,2.88,0,0,1,.88-2l1.72-1.59a2.77,2.77,0,0,1,2-.8h0a2.86,2.86,0,0,1,2,.88l17.22,18.17a2.9,2.9,0,0,1,.8,2.07A3,3,0,0,1,184.78,188.24Z"/><path d="M137.73,159.35l-.39,0a3.15,3.15,0,0,1-2.74-3.52l6.3-51a3.15,3.15,0,1,1,6.26.77l-6.31,51A3.16,3.16,0,0,1,137.73,159.35Z"/><path d="M91,191.71a1.56,1.56,0,0,0,1.56,1.56h1.8v1.81a1.6,1.6,0,0,0,1.6,1.6,1.59,1.59,0,0,0,1.55-1.6v-1.81h1.81a1.55,1.55,0,0,0,1.55-1.56,1.59,1.59,0,0,0-1.55-1.6H97.47v-1.76a1.58,1.58,0,0,0-1.55-1.6,1.6,1.6,0,0,0-1.6,1.6v1.76h-1.8A1.6,1.6,0,0,0,91,191.71Z"/><ellipse cx="95.9" cy="6.94" rx="3.83" ry="3.84"/></g></svg>