<svg id="Interactive_Experiences_Icons" data-name="Interactive Experiences Icons" xmlns="http://www.w3.org/2000/svg" viewBox="0 0 200 200"><g id="Hourly_Surprises" data-name="Hourly Surprises"><path d="M185.13,136.93c3.71-5.21,4.62-11.17,1.83-15.79-2.12-3.54-6-5.62-11-5.83a24.69,24.69,0,0,0-13.83,3.83,25.48,25.48,0,0,0-8.79,8.54,10.18,10.18,0,0,0-3.41-.58,9.16,9.16,0,0,0-3.42.62,25.13,25.13,0,0,0-8.79-8.58,24.68,24.68,0,0,0-13.82-3.83c-5,.21-8.87,2.29-11,5.83-2.79,4.62-1.87,10.58,1.83,15.79a10,10,0,0,0-9.83,9.95v3.66a9.93,9.93,0,0,0,8,9.79,10.07,10.07,0,0,0-.79,3.88v20.65a10,10,0,0,0,9.91,10h55.81a9.94,9.94,0,0,0,9.91-10V164.21a10.27,10.27,0,0,0-.79-3.92,9.93,9.93,0,0,0,8-9.75v-3.66A10,10,0,0,0,185.13,136.93Zm-19.74-12.46a19.32,19.32,0,0,1,9.66-3,3.33,3.33,0,0,1,.63,0c1.62,0,4.53.54,5.95,2.83,2,3.33-.25,8.66-5,12.54H160.06a9.93,9.93,0,0,0-1.71-5.34A19.12,19.12,0,0,1,165.39,124.47Zm-15.45,8.87a3.84,3.84,0,0,1,3.83,3.59h-7.62A3.8,3.8,0,0,1,149.94,133.34Zm-3.84,9.83h7.71v11.08H146.1Zm-27.86-18.78c1.42-2.29,4.33-2.79,6-2.83a3.23,3.23,0,0,1,.62,0,19.32,19.32,0,0,1,9.66,3,18.84,18.84,0,0,1,7,7.17,10,10,0,0,0-1.66,5.29H123.28C118.49,133.05,116.2,127.72,118.24,124.39Zm-3.41,29.86a3.68,3.68,0,0,1-3.67-3.71v-3.66a3.69,3.69,0,0,1,3.67-3.71h25v11.08Zm66.72,30.61a3.71,3.71,0,0,1-3.67,3.71H122.07a3.68,3.68,0,0,1-3.66-3.71V164.21a3.67,3.67,0,0,1,3.66-3.71h55.81a3.71,3.71,0,0,1,3.67,3.71Zm7.2-34.32a3.71,3.71,0,0,1-3.7,3.71h-25V143.17h25a3.71,3.71,0,0,1,3.7,3.71Z"/><path d="M99.92,188.64c2.75,0,5.45-.12,8.12-.37v6.25c-2.67.25-5.37.37-8.12.37A95,95,0,0,1,5,100,97.37,97.37,0,0,1,6.54,83l6.12,1.13A92.81,92.81,0,0,0,11.25,100,88.72,88.72,0,0,0,99.92,188.64Z"/><path d="M194.79,100A89.24,89.24,0,0,1,194,112.1h-6.33a83.18,83.18,0,0,0,.87-12.08A88.65,88.65,0,0,0,27,49.51a6.65,6.65,0,0,0,4.33-.67l1.25-.67a3.08,3.08,0,0,1,4.21,1.29,3.13,3.13,0,0,1-1.29,4.21L17.41,63.25a3,3,0,0,1-1.46.37A3.13,3.13,0,0,1,14.16,63a3.17,3.17,0,0,1-1.33-3l2.79-21.69a3.13,3.13,0,0,1,6.21.79L21.49,42a6.27,6.27,0,0,0,.63,3.75A94.86,94.86,0,0,1,194.79,100Z"/><rect x="95.73" y="14.63" width="8.52" height="8.52" rx="0.69"/><rect x="176.29" y="95.77" width="8.52" height="8.52" rx="0.69"/><rect x="13.62" y="95.77" width="8.52" height="8.52" rx="0.69"/><rect x="95.67" y="177.81" width="8.52" height="8.52" rx="0.69"/><path d="M86.81,69.06h0a4,4,0,0,1,4-4h10a4,4,0,0,1,4,4v61.19a4,4,0,0,1-4,4H100a4,4,0,0,1-4-4V77a4,4,0,0,0-4-4H90.78A4,4,0,0,1,86.81,69.06Z"/></g></svg>