<svg id="Interactive_Experiences_Icons" data-name="Interactive Experiences Icons" xmlns="http://www.w3.org/2000/svg" viewBox="0 0 200 200"><g id="Interactive_Video" data-name="Interactive Video"><path d="M89.94,123.43a11.49,11.49,0,0,1-11.5-11.5V84a11.47,11.47,0,0,1,6-10.1,11.35,11.35,0,0,1,11.76.45l21.54,14h0a11.52,11.52,0,0,1,0,19.3l-21.54,14A11.55,11.55,0,0,1,89.94,123.43Zm0-43.74a4.14,4.14,0,0,0-2,.53A4.21,4.21,0,0,0,85.67,84v28a4.27,4.27,0,0,0,6.6,3.58l21.54-14a4.29,4.29,0,0,0,0-7.18l-21.54-14A4.18,4.18,0,0,0,90,79.69Z"/><path d="M99.9,37.2A62.83,62.83,0,0,0,38.35,87.76a16,16,0,0,0,2,31.91A62.75,62.75,0,1,0,99.9,37.2ZM40.76,112.48a8.85,8.85,0,1,1,8.87-8.82A8.83,8.83,0,0,1,40.76,112.48Zm59.14,43a55.58,55.58,0,0,1-52.44-37.21,16,16,0,0,0-1.83-29.88A55.51,55.51,0,1,1,99.9,155.43Z"/><path d="M35.11,103.64a1.78,1.78,0,0,0,1.78,1.78H39v2.07a1.81,1.81,0,1,0,3.61,0v-2.07h2.07a1.78,1.78,0,0,0,1.79-1.78,1.82,1.82,0,0,0-1.79-1.83H42.58v-2a1.81,1.81,0,1,0-3.61,0v2H36.89A1.82,1.82,0,0,0,35.11,103.64Z"/><path d="M164.39,30.26a15.75,15.75,0,0,0,1.64-7,16.07,16.07,0,0,0-28.34-10.36A92.72,92.72,0,0,0,100,5a95.2,95.2,0,1,0,64.39,25.26ZM149.93,14.4a8.85,8.85,0,1,1-8.82,8.82A8.86,8.86,0,0,1,149.93,14.4ZM100,187.77a87.77,87.77,0,1,1,34.41-168.5,15.62,15.62,0,0,0-.53,3.95,16.09,16.09,0,0,0,16.05,16.1,15.82,15.82,0,0,0,9.93-3.47A87.74,87.74,0,0,1,100,187.77Z"/><circle cx="149.94" cy="23.23" r="4.4"/></g></svg>