<svg id="Interactive_Experiences_Icons" data-name="Interactive Experiences Icons" xmlns="http://www.w3.org/2000/svg" viewBox="0 0 200 200"><g id="Interactive_Contests" data-name="Interactive Contests"><path d="M182.3,18.72H153.38v6.54H182.3a3.85,3.85,0,0,1,3.84,3.84v99.6a3.84,3.84,0,0,1-3.84,3.84H17.7a3.87,3.87,0,0,1-3.84-3.84V29.1a3.87,3.87,0,0,1,3.84-3.84H47.19V18.72H17.7A10.41,10.41,0,0,0,7.31,29.1v99.6A10.41,10.41,0,0,0,17.7,139.09H79.6a11.07,11.07,0,0,0-.52,1.66l-5.71,26.78a10.06,10.06,0,0,0,.48,5.94H67a3.31,3.31,0,0,0-3.32,3.31A3.35,3.35,0,0,0,67,180.14h66a3.36,3.36,0,0,0,3.36-3.36,3.32,3.32,0,0,0-3.36-3.31h-6.85a10.06,10.06,0,0,0,.48-5.94L121,140.75a10,10,0,0,0-.52-1.66H182.3a10.39,10.39,0,0,0,10.39-10.39V29.1A10.39,10.39,0,0,0,182.3,18.72ZM110.8,139.09a3.86,3.86,0,0,1,3.75,3l.44,2H85l.44-2a3.86,3.86,0,0,1,3.75-3Zm8.68,33a3.66,3.66,0,0,1-2.53,1.36,1.64,1.64,0,0,1-.44,0h-33a1.39,1.39,0,0,1-.4,0,3.75,3.75,0,0,1-2.57-1.36,3.89,3.89,0,0,1-.74-3.23l3.88-18.23h32.72l3.88,18.23A3.91,3.91,0,0,1,119.48,172.11Z"/><path d="M117,173.47a1.64,1.64,0,0,1-.44,0h-33a1.39,1.39,0,0,1-.4,0Z"/><path d="M108.55,73.22a31.35,31.35,0,0,0,21.69-23.69v0L148.66,21a8.43,8.43,0,0,0-7.08-13h-9.1a8.23,8.23,0,0,0-2.31-5.34A8.36,8.36,0,0,0,124.09,0L100.76,0,76,0A8.32,8.32,0,0,0,67.58,8h-9.1a8.29,8.29,0,0,0-7.43,4.4A8.4,8.4,0,0,0,51.37,21L69.79,49.46v0a31.33,31.33,0,0,0,22,23.79,7,7,0,0,1-.07,2.31C90.88,82,85.58,86.83,84.08,88a2.69,2.69,0,0,1-.32.22,3,3,0,0,0-.71.42,8.36,8.36,0,0,0-3.52,6.83v1.92a8.16,8.16,0,0,0,.61,3.13h-6A8.46,8.46,0,0,0,65.66,109v1.92a8.48,8.48,0,0,0,8.47,8.46H125.9a8.48,8.48,0,0,0,8.46-8.46V109a8.45,8.45,0,0,0-8.46-8.43h-5.69a8.35,8.35,0,0,0,.61-3.13V95.51A8.39,8.39,0,0,0,118,89.22a2.48,2.48,0,0,0-1.28-1.07c-1.14-.68-7.18-5.55-8.11-12.69a6.82,6.82,0,0,1,0-2.21ZM132.3,13.3h9.28a3.05,3.05,0,0,1,2.74,1.63,3,3,0,0,1-.14,3.17l-13,20.16ZM55.85,18.1a3.12,3.12,0,0,1,2.63-4.8h9.28l1.1,24.93Zm70.05,87.79A3.11,3.11,0,0,1,129,109v1.92A3.14,3.14,0,0,1,125.9,114H74.13A3.16,3.16,0,0,1,71,110.91V109a3.13,3.13,0,0,1,3.13-3.1ZM112.35,92.38a3.15,3.15,0,0,1,3.13,3.13v1.92a3.15,3.15,0,0,1-3.13,3.13H88a3.13,3.13,0,0,1-3.12-3.13V95.51A3.09,3.09,0,0,1,86.18,93l.32-.22A3,3,0,0,1,88,92.38Zm-20-5.33a23.2,23.2,0,0,0,4.7-11c.07-.54.14-1.11.17-1.75a24.74,24.74,0,0,0,2.85.15c1,0,2.06-.08,3.09-.18a10.69,10.69,0,0,0,.18,2,22.45,22.45,0,0,0,4.62,10.78ZM100,69.16a25.91,25.91,0,0,1-25.1-21.08v0a1.28,1.28,0,0,0-.07-.36,1.42,1.42,0,0,0,.07.22,18.71,18.71,0,0,1-.39-2.49,25.06,25.06,0,0,1-.14-2.85v-.42L72.85,8.61a3,3,0,0,1,.89-2.28,2.93,2.93,0,0,1,2.24-1l23.32,0,24.79,0a3,3,0,0,1,2.24,1,3,3,0,0,1,.85,2.28l-1.53,33.53s0,.35,0,.39a26.27,26.27,0,0,1-.18,2.91C124.09,59,113.13,69.13,100,69.16Z"/><polygon points="97.38 48.76 99.93 43.38 102.65 48.67 108.56 49.43 104.36 53.66 105.47 59.51 100.15 56.83 94.92 59.69 95.83 53.8 91.5 49.71 97.38 48.76"/><path d="M94.9,194.85a1.62,1.62,0,0,0,1.62,1.62h1.87v1.87a1.64,1.64,0,1,0,3.28,0v-1.87h1.87a1.62,1.62,0,0,0,1.62-1.62,1.66,1.66,0,0,0-1.62-1.66h-1.87v-1.83a1.64,1.64,0,1,0-3.28,0v1.83H96.52A1.66,1.66,0,0,0,94.9,194.85Z"/><circle cx="100.03" cy="164.98" r="3.98"/></g></svg>