<svg id="Interactive_Experiences_Icons" data-name="Interactive Experiences Icons" xmlns="http://www.w3.org/2000/svg" viewBox="0 0 200 200"><g id="Interactive_Virtual_Tour" data-name="Interactive Virtual Tour"><path d="M100,145.58a4.11,4.11,0,0,0,.7,0c.41,0,.83,0,1.24-.08C101.28,145.58,100.66,145.58,100,145.58Z"/><path d="M100,151.77a4.11,4.11,0,0,0,.7,0,12.72,12.72,0,0,0,1.74-.12C101.65,151.77,100.83,151.77,100,151.77Z"/><path d="M102.15,48.27a3.08,3.08,0,0,0-.58,0,6.33,6.33,0,0,0-.87,0H100a51.77,51.77,0,0,0-.74,103.54,4.53,4.53,0,0,0,.74,0c.83,0,1.65,0,2.44-.08h.2a51.76,51.76,0,0,0-.49-103.42ZM126.67,83C137.74,86.91,145,93.15,145,100s-7.3,13.09-18.37,17a100,100,0,0,0,0-33.94Zm16.39,1.9a50,50,0,0,0-18-8.92,52.64,52.64,0,0,0-8.55-18.53A46,46,0,0,1,143.06,84.93ZM121.92,100a88.38,88.38,0,0,1-2,19,85.81,85.81,0,0,1-19.9,2.27,85.14,85.14,0,0,1-18.54-2,90.88,90.88,0,0,1,0-38.48,88.09,88.09,0,0,1,38.44.29A88.38,88.38,0,0,1,121.92,100ZM100.7,54.38a9.84,9.84,0,0,1,1.08,0c6.64.78,12.63,8.55,16.34,19.86A96.65,96.65,0,0,0,100,72.59,93.26,93.26,0,0,0,83.36,74C87.2,62.35,93.52,54.54,100.5,54.38ZM85.38,56.81c-3.79,4.71-6.89,11.15-9,18.79-8,2.19-14.69,5.45-19.48,9.5A45.61,45.61,0,0,1,85.38,56.81ZM74.77,82.58a100.58,100.58,0,0,0,0,34.84C63,113.58,55.08,107.14,55.08,100S63,86.42,74.77,82.58ZM56.9,114.9c4.79,4,11.52,7.31,19.48,9.5,2.07,7.56,5.12,14,8.88,18.7A45.67,45.67,0,0,1,56.9,114.9Zm45,30.64c-.41,0-.83.08-1.24.08a4.11,4.11,0,0,1-.7,0h-.41C93,144.8,87,137.16,83.36,126A93.26,93.26,0,0,0,100,127.41a96.65,96.65,0,0,0,18.08-1.69C114.45,137,108.55,144.67,101.94,145.54Zm14.66-3.1A54.61,54.61,0,0,0,125.1,124a50.08,50.08,0,0,0,18-8.92A45.86,45.86,0,0,1,116.6,142.44Z"/><circle cx="99.98" cy="100" r="3.77"/><path d="M104.13,9.87l-8.26,4.75a2.08,2.08,0,0,1-3.1-1.82V11.56A88.75,88.75,0,0,0,88.44,188a3.1,3.1,0,0,1-.74,6.15A95,95,0,0,1,92.77,5.25V3.31a2.08,2.08,0,0,1,3.1-1.78l8.26,4.75A2.09,2.09,0,0,1,104.13,9.87Z"/><path d="M195,100a95.08,95.08,0,0,1-87.77,94.67v2a2.08,2.08,0,0,1-3.1,1.78l-8.26-4.75a2.09,2.09,0,0,1,0-3.59l8.26-4.75a2.08,2.08,0,0,1,3.1,1.82v1.19a88.75,88.75,0,0,0,4.08-176.5,3,3,0,0,1-2.72-3v0A3.13,3.13,0,0,1,112,5.74,95.15,95.15,0,0,1,195,100Z"/><path d="M161.93,42.9a1.52,1.52,0,0,1-1.53,1.52h-1.77V46.2a1.55,1.55,0,1,1-3.1,0V44.42h-1.78a1.52,1.52,0,0,1-1.52-1.52,1.56,1.56,0,0,1,1.52-1.57h1.78V39.59a1.55,1.55,0,1,1,3.1,0v1.74h1.77A1.56,1.56,0,0,1,161.93,42.9Z"/><path d="M48.15,156.62a1.53,1.53,0,0,1-1.52,1.53H44.85v1.77a1.55,1.55,0,1,1-3.1,0v-1.77H40a1.53,1.53,0,0,1-1.53-1.53A1.56,1.56,0,0,1,40,155.05h1.77v-1.74a1.55,1.55,0,1,1,3.1,0v1.74h1.78A1.56,1.56,0,0,1,48.15,156.62Z"/><circle cx="43.3" cy="42.9" r="3.77"/><circle cx="157.08" cy="157.76" r="3.77"/></g></svg>