<svg id="Interactive_Experiences_Icons" data-name="Interactive Experiences Icons" xmlns="http://www.w3.org/2000/svg" viewBox="0 0 200 200"><g id="Interactive_Infographics" data-name="Interactive Infographics"><path d="M184.4,19.64H15.64A10.51,10.51,0,0,0,5,30V128.9a10.47,10.47,0,0,0,10.64,10.27H79.1a9.37,9.37,0,0,0-.54,1.65L72.7,167.47a9.83,9.83,0,0,0,.49,5.9h-7a3.29,3.29,0,1,0,0,6.58h67.66a3.29,3.29,0,1,0,0-6.58h-7a9.83,9.83,0,0,0,.49-5.9l-5.81-26.61a14.35,14.35,0,0,0-.54-1.69H184.4A10.43,10.43,0,0,0,195,128.9V30A10.47,10.47,0,0,0,184.4,19.64ZM120,172a3.87,3.87,0,0,1-2.6,1.39,1.64,1.64,0,0,1-.44,0H83.07a1.39,1.39,0,0,1-.4,0A3.8,3.8,0,0,1,80,172a3.7,3.7,0,0,1-.76-3.16l4-18.16h33.54l4,18.16A3.69,3.69,0,0,1,120,172ZM84.64,144.16l.45-1.95a3.93,3.93,0,0,1,3.84-3h22.14a3.93,3.93,0,0,1,3.84,3l.45,1.95ZM188.29,128.9a3.83,3.83,0,0,1-3.89,3.77H15.64a3.87,3.87,0,0,1-3.93-3.77V30a3.92,3.92,0,0,1,3.93-3.82H184.4A3.87,3.87,0,0,1,188.29,30Z"/><path d="M117.37,173.37a1.64,1.64,0,0,1-.44,0H83.07a1.39,1.39,0,0,1-.4,0Z"/><path d="M94.78,194.59a1.63,1.63,0,0,0,1.65,1.61h1.93v1.86a1.68,1.68,0,0,0,3.35,0V196.2h1.92a1.63,1.63,0,0,0,1.66-1.61,1.66,1.66,0,0,0-1.66-1.64h-1.92v-1.82a1.68,1.68,0,0,0-3.35,0V193H96.43A1.66,1.66,0,0,0,94.78,194.59Z"/><ellipse cx="100.03" cy="4.25" rx="4.08" ry="3.96"/><path d="M153.32,40.62a14.48,14.48,0,0,0-14.66,14.22,13.49,13.49,0,0,0,2.86,8.36L126.45,77.8a15.14,15.14,0,0,0-8.36-2.51,14.64,14.64,0,0,0-10.15,4L96.85,72a14.29,14.29,0,0,0,.62-4.16,14.65,14.65,0,0,0-29.29,0,13.71,13.71,0,0,0,2,7.06L54.55,90a14.71,14.71,0,0,0-7-1.74,14.22,14.22,0,1,0,14.67,14.22,14,14,0,0,0-2.64-8.19L74.71,79.67a14.94,14.94,0,0,0,18.74-2.08l10.82,7.15a13.83,13.83,0,0,0-.85,4.77,14.67,14.67,0,0,0,29.33,0,13.83,13.83,0,0,0-1.83-6.85l15.7-15.21a14.34,14.34,0,1,0,6.7-26.83ZM47.57,110.22a7.72,7.72,0,1,1,8-7.71A7.85,7.85,0,0,1,47.57,110.22ZM82.85,75.55a7.72,7.72,0,1,1,7.92-7.71A7.83,7.83,0,0,1,82.85,75.55Zm35.24,21.67a7.72,7.72,0,1,1,8-7.71A7.86,7.86,0,0,1,118.09,97.22Zm35.23-34.67a7.72,7.72,0,1,1,8-7.71A7.86,7.86,0,0,1,153.32,62.55Z"/></g></svg>