<svg id="Interactive_Experiences_Icons" data-name="Interactive Experiences Icons" xmlns="http://www.w3.org/2000/svg" viewBox="0 0 200 200"><g id="Interactive_Flipbook" data-name="Interactive Flipbook"><path d="M117.69,173.36a1.41,1.41,0,0,1-.45,0H83.39a1.07,1.07,0,0,1-.4,0Z"/><path d="M95.09,194.6a1.62,1.62,0,0,0,1.65,1.6h1.93v1.86a1.68,1.68,0,0,0,3.35,0V196.2h1.92a1.62,1.62,0,0,0,1.66-1.6,1.66,1.66,0,0,0-1.66-1.65H102v-1.82a1.68,1.68,0,0,0-3.35,0V193H96.74A1.66,1.66,0,0,0,95.09,194.6Z"/><ellipse cx="100.34" cy="4.25" rx="4.08" ry="3.96"/><path d="M163.7,18.47h-4a3.79,3.79,0,0,0-1.16.17V12.32a3.29,3.29,0,0,0-2.82-3.21,75.6,75.6,0,0,0-39.79,4.46,68.76,68.76,0,0,0-15.21,8.54,71.4,71.4,0,0,0-15.25-8.54A75.63,75.63,0,0,0,45.65,9.11a3.29,3.29,0,0,0-2.82,3.21v6.15H37.06a3.29,3.29,0,0,0-3.35,3.25V99.26a3.3,3.3,0,0,0,3.35,3.25H88.8a.82.82,0,0,0,.22.17,35.26,35.26,0,0,0,6.58,3.47,15,15,0,0,0,4.42.69,2.15,2.15,0,0,0,.49,0h.36a1.71,1.71,0,0,0,.45,0,15.14,15.14,0,0,0,4.43-.69,35.56,35.56,0,0,0,6.57-3.47,3.23,3.23,0,0,0,.49-.3,2.91,2.91,0,0,0,.85.13h50a3.33,3.33,0,0,0,3.35-3.25V21.72A3.32,3.32,0,0,0,163.7,18.47ZM43.77,96a3.29,3.29,0,0,1-3.35-3.25V25h2.41V90.46a3.19,3.19,0,0,0,1,2.38,3.4,3.4,0,0,0,2.5.87c13.78-.78,23.48,1,28.53,2.29Zm53.57,3.86a52.86,52.86,0,0,1-4.79-2.73c-3.57-2.17-8-4.85-12.2-6.28C76.77,89.59,67.47,87,53,87c-1.12,0-2.28,0-3.49,0V15.13a68.43,68.43,0,0,1,33.31,4.42,63.66,63.66,0,0,1,14.49,8.24Zm11.45-2.73c-1.79,1.08-3.76,2.25-4.74,2.73V27.75a64.7,64.7,0,0,1,14.44-8.2,68.48,68.48,0,0,1,33.31-4.42v72c-16.45-.44-26.92,2.42-30.81,3.77C116.84,92.28,112.36,95,108.79,97.13Zm51.55-4.38A3.32,3.32,0,0,1,157,96H126.45c5-1.3,14.76-3.07,28.53-2.29a3.53,3.53,0,0,0,2.5-.87,3.19,3.19,0,0,0,1-2.38V25h1.83Z"/><path d="M184.4,18.77H170.23v6.51H184.4a3.84,3.84,0,0,1,3.89,3.81V128a3.83,3.83,0,0,1-3.89,3.77H15.64A3.87,3.87,0,0,1,11.71,128V29.09a3.88,3.88,0,0,1,3.93-3.81H30V18.77H15.64A10.51,10.51,0,0,0,5,29.09V128A10.47,10.47,0,0,0,15.64,138.3H79.86a7.14,7.14,0,0,0-1,2.52L73,167.47a9.88,9.88,0,0,0,.5,5.89h-7a3.3,3.3,0,1,0,0,6.59h67.66a3.3,3.3,0,1,0,0-6.59h-7a9.8,9.8,0,0,0,.49-5.89l-5.81-26.65a9.71,9.71,0,0,0-1-2.52H184.4A10.43,10.43,0,0,0,195,128V29.09A10.47,10.47,0,0,0,184.4,18.77ZM85.4,142.2a4,4,0,0,1,3.85-3h22.13a4,4,0,0,1,3.85,3l.44,2H85Zm35.68,26.61a3.67,3.67,0,0,1-.8,3.17,3.82,3.82,0,0,1-2.59,1.38,1.41,1.41,0,0,1-.45,0H83.39a1.07,1.07,0,0,1-.4,0A3.75,3.75,0,0,1,80.35,172a3.65,3.65,0,0,1-.76-3.17l4-18.15H117.1Z"/></g></svg>