<svg id="Interactive_Experiences_Icons" data-name="Interactive Experiences Icons" xmlns="http://www.w3.org/2000/svg" viewBox="0 0 200 200"><g id="Product_Recommender" data-name="Product Recommender"><path d="M129.9,175.69a2.29,2.29,0,0,1-1.3-.4,2.13,2.13,0,0,1-.83-2.37l4.55-14.79-12.74-9.28a2.11,2.11,0,0,1-.79-2.38,2.22,2.22,0,0,1,2.07-1.49l15.94-.39L142,130a2.21,2.21,0,0,1,2.09-1.45h0a2.21,2.21,0,0,1,2.1,1.43l5.3,14.57,15.95.24a2.2,2.2,0,0,1,2.07,1.48,2.12,2.12,0,0,1-.76,2.39L156.07,158l4.68,14.76a2.13,2.13,0,0,1-.81,2.37,2.27,2.27,0,0,1-2.58,0l-13.13-8.76-13,8.87A2.27,2.27,0,0,1,129.9,175.69Zm-2.53-26.56,8.86,6.45a2.11,2.11,0,0,1,.8,2.34l-3.17,10.29,9.08-6.17a2.3,2.3,0,0,1,2.54,0l9.13,6.09-3.25-10.26a2.09,2.09,0,0,1,.77-2.34l8.81-6.53-11.09-.17a2.21,2.21,0,0,1-2.06-1.44l-3.69-10.13-3.59,10.16a2.22,2.22,0,0,1-2,1.46Zm11-2.42h0Z"/><path d="M150.94,113.09l-8.86-54.67v0a3.23,3.23,0,0,0-2.16-2.53.89.89,0,0,0-.45-.13.39.39,0,0,0-.18,0,.26.26,0,0,0-.18,0L108.6,52.41l1-11.46c0-13.46-9.27-22.48-23.08-22.48-13.1,0-22.59,8.76-24.25,22.22l-1,6.75-28.39-3a3.36,3.36,0,0,0-3.74,2.83L15,161.57a3.05,3.05,0,0,0,.72,2.4A3.3,3.3,0,0,0,18,165.19l93,10a41.32,41.32,0,0,0,33.12,16.42c22.54,0,40.85-17.73,40.85-39.51C185,132.52,170.24,116.27,150.94,113.09ZM139.29,83.56l4.68,29a42.26,42.26,0,0,0-8.15.82Zm-70.37-42C70.18,31.32,76.88,25,86.47,25c10.08,0,16.33,6.1,16.33,15.68l-.9,11-34-3.53ZM22.13,159.09,35.4,51.32l24.88,2.61L59.2,61.38A3.26,3.26,0,0,0,62,65.08a3.38,3.38,0,0,0,3.82-2.78L67,54.63l34.37,3.62-.77,9.27A3.28,3.28,0,0,0,103.7,71c.09,0,.18,0,.27,0a3.33,3.33,0,0,0,3.33-3l.76-9.06L135,61.77l-6.16,53.72c-14.94,5.83-25.56,20-25.56,36.63a37.64,37.64,0,0,0,3.56,16Zm122,26c-18.81,0-34.11-14.77-34.11-33s15.3-33,34.11-33,34.1,14.81,34.1,33S163,185.1,144.15,185.1Z"/><path d="M81.72,194.4A1.64,1.64,0,0,0,83.39,196h1.93v1.87a1.69,1.69,0,0,0,3.38,0V196h1.93a1.63,1.63,0,0,0,1.66-1.61,1.67,1.67,0,0,0-1.66-1.66H88.7v-1.83a1.69,1.69,0,0,0-3.38,0v1.83H83.39A1.68,1.68,0,0,0,81.72,194.4Z"/><ellipse cx="87.01" cy="4.44" rx="4.11" ry="3.98"/></g></svg>