<svg id="Interactive_Experiences_Icons" data-name="Interactive Experiences Icons" xmlns="http://www.w3.org/2000/svg" viewBox="0 0 200 200"><g id="Quiz"><path d="M136.29,111.64a25.73,25.73,0,0,0,1.2,4.26A30.31,30.31,0,0,1,136.29,111.64Z"/><path d="M136.29,111.64a25.73,25.73,0,0,0,1.2,4.26A30.31,30.31,0,0,1,136.29,111.64Z"/><path d="M174.27,110.89a2.85,2.85,0,0,1,0,4.21,3,3,0,0,1-2.18.88,3.11,3.11,0,0,1-2.19-.88l-4.5-4.33-4.5,4.33a3,3,0,0,1-2.19.88,3.11,3.11,0,0,1-2.19-.88,2.91,2.91,0,0,1,0-4.21l4.5-4.34-4.5-4.34a2.91,2.91,0,0,1,0-4.21,3.19,3.19,0,0,1,4.38,0l4.5,4.33L169.9,98a3.18,3.18,0,0,1,4.37,0,2.85,2.85,0,0,1,0,4.21l-4.5,4.34Z"/><path d="M46.66,102.21,34.07,114.39l-.79.71a3.26,3.26,0,0,1-1.61.84.93.93,0,0,1-.33,0,3.23,3.23,0,0,1-.62,0,3,3,0,0,1-1.57-.84l-.74-.71-5.9-5.69a2.92,2.92,0,0,1,0-4.22,3.2,3.2,0,0,1,4.37,0l4.34,4.18L42.28,98a3.19,3.19,0,0,1,4.38,0A2.91,2.91,0,0,1,46.66,102.21Z"/><path d="M30.72,115.94a2.84,2.84,0,0,1-1.82-.84,1.68,1.68,0,0,1-.49-.71l.74.71A3,3,0,0,0,30.72,115.94Z"/><path d="M34.07,114.39a2.27,2.27,0,0,1-.54.71,2.94,2.94,0,0,1-1.86.84,3.26,3.26,0,0,0,1.61-.84Z"/><path d="M107.52,135.05H94.88a3,3,0,0,1-3.09-3V111.43a3,3,0,0,1,2-2.78l1.38-.52c6.14-2.31,12.34-7.07,12.34-12.49,0-3.17-1.22-7-7-7-7,0-8.37,5.78-8.57,9.23l-.14,2.44a2.94,2.94,0,0,1-1.21,2.2,3.26,3.26,0,0,1-2.53.55l-11.6-2.4A3,3,0,0,1,74,97.56l.15-1.81C75.28,81.21,86,71.44,100.79,71.44c15.15,0,25.73,9.83,25.73,23.89,0,9.55-5.77,18.23-15.9,24v12.7A3,3,0,0,1,107.52,135.05Zm-9.54-6h6.45V117.63a3,3,0,0,1,1.62-2.63c9.07-4.71,14.27-11.88,14.27-19.67,0-10.88-7.66-17.92-19.53-17.92-11.45,0-19.2,6.88-20.4,18l5.42,1.13c.88-8.56,6.43-13.83,14.67-13.83,8,0,13.19,5.07,13.19,12.92,0,8.57-8.32,14.89-15.69,17.82Z"/><ellipse cx="100.25" cy="172" rx="3.77" ry="3.63"/><path d="M95.4,29.06a1.49,1.49,0,0,0,1.53,1.47H98.7v1.71a1.55,1.55,0,0,0,1.57,1.52,1.53,1.53,0,0,0,1.53-1.52V30.53h1.78a1.49,1.49,0,0,0,1.52-1.47,1.53,1.53,0,0,0-1.52-1.51H101.8V25.88a1.53,1.53,0,0,0-1.53-1.51,1.54,1.54,0,0,0-1.57,1.51v1.67H96.93A1.53,1.53,0,0,0,95.4,29.06Z"/><path d="M165.4,78.07a30,30,0,0,0-16.31,4.77A52.59,52.59,0,0,0,141,71.4l4.72-4.55a2.91,2.91,0,0,0,0-4.22,3.19,3.19,0,0,0-4.38,0l-4.74,4.57A55.63,55.63,0,0,0,103.35,54c0-.08,0-.14,0-.22V43.9h4.15a3,3,0,1,0,0-6H93a3,3,0,1,0,0,6H97.2v9.91c0,.08,0,.14,0,.21a55.34,55.34,0,0,0-33.1,13.07l-4.62-4.46a3.19,3.19,0,0,0-4.38,0,2.91,2.91,0,0,0,0,4.22l4.56,4.4a51.2,51.2,0,0,0-8.42,11.83,30,30,0,0,0-16.72-5C18.25,78.07,5,90.84,5,106.55s13.25,28.53,29.56,28.53A29.5,29.5,0,0,0,51.28,130a54.46,54.46,0,0,0,43.6,28.89,6.5,6.5,0,0,0,.87.12A3.07,3.07,0,0,0,99,156a2.9,2.9,0,0,0-1.4-2.46,4.19,4.19,0,0,1-1.82-3.43,4.46,4.46,0,0,1,8.92,0,4.16,4.16,0,0,1-1.82,3.43s0,.08-.08.08a2.85,2.85,0,0,0-1.32,2.38,3,3,0,0,0,3,3h.29c.29,0,.58,0,.86-.08,0,0,0,0,0,0a54.38,54.38,0,0,0,43.43-28.65,29.4,29.4,0,0,0,16.31,4.86c16.31,0,29.6-12.81,29.6-28.53S181.71,78.07,165.4,78.07ZM56.32,114.79c0,.08-.08.19-.12.27a6.88,6.88,0,0,1-.5,1.12c-.17.36-.37.71-.58,1.07a7.56,7.56,0,0,1-.45.76c-.17.28-.33.52-.5.75a11.16,11.16,0,0,1-.78,1.12s0,0,0,.08c-.42.52-.83,1-1.28,1.47a18.21,18.21,0,0,1-1.53,1.51.81.81,0,0,0-.17.16,23.58,23.58,0,0,1-15.81,6c-12.88,0-23.37-10.15-23.37-22.56S21.68,84,34.56,84a23.76,23.76,0,0,1,15.86,6l.12.12A17.26,17.26,0,0,1,52,91.59a5.21,5.21,0,0,1,.45.52,21.29,21.29,0,0,1,2.44,3.3c.33.56.61,1.12.9,1.71l.38.92a6.15,6.15,0,0,1,.45,1.11c.08.2.16.4.21.56a18.66,18.66,0,0,1,.86,3.74,9.74,9.74,0,0,1,.17,1.19c0,.64.08,1.27.08,1.91s0,1.27-.08,1.91a9.47,9.47,0,0,1-.17,1.19,18.66,18.66,0,0,1-.86,3.74c0,.16-.09.28-.13.44A9.88,9.88,0,0,1,56.32,114.79Zm86.91,13.36a48.05,48.05,0,0,1-32.54,24,10.35,10.35,0,0,0,.21-2,10.66,10.66,0,0,0-21.3,0,11.18,11.18,0,0,0,.2,2,47.87,47.87,0,0,1-32.74-24.38,2.89,2.89,0,0,1,.46-3.27c.08-.12.16-.2.24-.31a19.21,19.21,0,0,0,1.24-1.6,28.85,28.85,0,0,0,2.48-4.21,6,6,0,0,0,.5-1.16,7.19,7.19,0,0,0,.57-1.47s0-.12,0-.16a2.33,2.33,0,0,0,.25-.71,9.88,9.88,0,0,0,.54-1.91c.08-.32.16-.64.21-1a10.39,10.39,0,0,0,.24-1.55,1.82,1.82,0,0,0,.13-.68,2.93,2.93,0,0,0,0-.59,2.28,2.28,0,0,0,0-.52,18.14,18.14,0,0,0,.12-2.11,18.66,18.66,0,0,0-.12-2.11,2.28,2.28,0,0,0,0-.52,4.42,4.42,0,0,0-.08-.75V103c0-.08-.05-.2-.05-.28a8.9,8.9,0,0,0-.24-1.43c0-.08,0-.2-.09-.28a3,3,0,0,0-.16-.83,12,12,0,0,0-.5-1.83,6,6,0,0,0-.29-.88A13,13,0,0,0,62,95.89s0,0,0-.08-.12-.36-.2-.52a1.55,1.55,0,0,0-.25-.52A23.11,23.11,0,0,0,59,90.56a10.07,10.07,0,0,0-.78-1,.71.71,0,0,0-.17-.24c-.16-.23-.37-.47-.53-.67a3,3,0,0,1-.46-3.3,48.54,48.54,0,0,1,43.19-25.47c18.2,0,34.68,9.71,43,25.07a2.94,2.94,0,0,1-.5,3.38,78.52,78.52,0,0,1-1.28,1.59,15.16,15.16,0,0,0-1.11,1.59,27.47,27.47,0,0,0-2.48,4.74,4.43,4.43,0,0,0-.37,1,13.22,13.22,0,0,0-.62,1.87v.08a20.15,20.15,0,0,0-.54,2.23c0,.24-.08.44-.12.64a15.48,15.48,0,0,0-.25,2c-.08.84-.12,1.68-.12,2.51s0,1.67.12,2.51.17,1.63.33,2.46v.12a30.31,30.31,0,0,0,1.2,4.26c.12.36.25.68.37,1a9.51,9.51,0,0,0,.62,1.4c.41.87.87,1.71,1.32,2.5,0,0,0,.08.08.12a28,28,0,0,0,1.74,2.51,12.07,12.07,0,0,0,1.11,1.39A3,3,0,0,1,143.23,128.15Zm22.17,1a23.51,23.51,0,0,1-15.48-5.77l-.13-.12a21.34,21.34,0,0,1-6.56-9.63,17.78,17.78,0,0,1-1-4.25,15.16,15.16,0,0,1-.21-2.79,21.92,21.92,0,0,1,3.22-11.38,17.85,17.85,0,0,1,1.36-2,21.09,21.09,0,0,1,3.18-3.38s.13-.08.17-.12A23.46,23.46,0,0,1,165.4,84c12.92,0,23.41,10.11,23.41,22.52S178.32,129.11,165.4,129.11Z"/></g></svg>