<svg id="Interactive_Experiences_Icons" data-name="Interactive Experiences Icons" xmlns="http://www.w3.org/2000/svg" viewBox="0 0 200 200"><g id="Seasonal_Marketing" data-name="Seasonal Marketing"><path d="M192.7,122.33l-10.44-3.9V103.06c0-7.8-3.57-10.67-5.73-11.7s-6.63-2-12.69,3c-7.05,5.83-12.64,9.87-16.16,11.75-4.89,2.63-11,3.86-15.23,4.42a10.62,10.62,0,0,0-5.45,2.4H113.79a18.15,18.15,0,0,0-4,35.85c0,.1-.1.19-.14.29a9.84,9.84,0,0,0,.09,7.75l10.72,24.86a10,10,0,0,0,5.54,5.4,9.2,9.2,0,0,0,3.71.76,9.57,9.57,0,0,0,4.09-.9,10.07,10.07,0,0,0,5.31-13.25L129.3,150.9a10.55,10.55,0,0,0,3.2,1,62.8,62.8,0,0,1,15,3.76c3.95,1.5,9.4,5.54,15.74,11.65,4,3.81,7.33,4.84,9.82,4.84a7.47,7.47,0,0,0,3.2-.66c2.26-.94,6-3.8,6-12.36V140.89L192.7,137a3.56,3.56,0,0,0,2.3-3.29v-8.08A3.55,3.55,0,0,0,192.7,122.33Zm-90,8.78A11.15,11.15,0,0,1,113.79,120h9.12a10.61,10.61,0,0,0-.14,1.69v19c0,.52,0,1,.09,1.5h-9.07A11.11,11.11,0,0,1,102.7,131.11Zm29.94,45.35a3.08,3.08,0,0,1-1.69,4,3.18,3.18,0,0,1-2.35,0,3,3,0,0,1-1.65-1.64l-10.71-24.86a3.13,3.13,0,0,1,0-2.35,3,3,0,0,1,1.64-1.69l0,0a3.78,3.78,0,0,1,1.22-.24,3.18,3.18,0,0,1,2.82,1.88Zm42.58-17.34c0,4.09-1.13,5.64-1.74,5.88s-2.45,0-5.36-2.78C161,155.36,154.91,151,150,149.07a74.12,74.12,0,0,0-16.64-4.19,4.45,4.45,0,0,1-3.57-4.18v-19a4.36,4.36,0,0,1,3.57-4.14c4.79-.66,11.8-2.11,17.62-5.21,4-2.12,9.78-6.35,17.3-12.5,2-1.65,3.57-2.21,4.51-2.21a1.46,1.46,0,0,1,.7.14c.8.37,1.7,2,1.7,5.31ZM188,131.26l-5.69,2.11v-7.43l5.69,2.12Z"/><path d="M163.75,26.83H16.23A11.23,11.23,0,0,0,5,38.06V145.59a11.22,11.22,0,0,0,11.23,11.18H92.74a3,3,0,0,0,3-3v-1.13a3,3,0,0,0-3-3H16.18a4.17,4.17,0,0,1-4.13-4.13V59.64H167.93V82.71A3.25,3.25,0,0,0,171.17,86h.57A3.21,3.21,0,0,0,175,82.71V38.06A11.23,11.23,0,0,0,163.75,26.83Zm4.18,25.76H12.05V38.06a4.19,4.19,0,0,1,4.18-4.18H163.75a4.19,4.19,0,0,1,4.18,4.18Z"/><rect x="22.53" y="66.85" width="12.59" height="12.59" rx="1.08"/><rect x="42.99" y="66.77" width="12.59" height="12.59" rx="1.08"/><rect x="63.46" y="66.68" width="12.59" height="12.59" rx="1.08"/><rect x="83.92" y="66.6" width="12.59" height="12.59" rx="1.08"/><rect x="22.53" y="87.78" width="12.59" height="12.59" rx="1.08"/><rect x="42.99" y="87.78" width="12.59" height="12.59" rx="1.08"/><rect x="63.46" y="87.78" width="12.59" height="12.59" rx="1.08"/><rect x="83.92" y="87.78" width="12.59" height="12.59" rx="1.08"/><rect x="104.38" y="87.78" width="12.59" height="12.59" rx="1.08"/><rect x="124.85" y="87.78" width="12.59" height="12.59" rx="1.08"/><rect x="22.35" y="108.96" width="12.59" height="12.59" rx="1.08"/><rect x="42.82" y="108.88" width="12.59" height="12.59" rx="1.08"/><rect x="63.28" y="108.79" width="12.59" height="12.59" rx="1.08"/><rect x="83.53" y="108.79" width="12.59" height="12.59" rx="1.08"/><rect x="22.53" y="129.81" width="12.59" height="12.59" rx="1.08"/><rect x="42.99" y="129.73" width="12.59" height="12.59" rx="1.08"/><rect x="63.46" y="129.64" width="12.59" height="12.59" rx="1.08"/><rect x="104.38" y="66.51" width="12.59" height="12.59" rx="1.08"/><rect x="124.85" y="66.43" width="12.59" height="12.59" rx="1.08"/><rect x="145.31" y="66.34" width="12.59" height="12.59" rx="1.08"/><path d="M84.31,17.71a1.73,1.73,0,0,0,1.74,1.74h2v2a1.76,1.76,0,1,0,3.52,0v-2h2a1.73,1.73,0,0,0,1.74-1.74,1.78,1.78,0,0,0-1.74-1.79h-2V14a1.76,1.76,0,1,0-3.52,0v2h-2A1.78,1.78,0,0,0,84.31,17.71Z"/><circle cx="89.83" cy="165.59" r="4.29"/></g></svg>