<svg id="Interactive_Experiences_Icons" data-name="Interactive Experiences Icons" xmlns="http://www.w3.org/2000/svg" viewBox="0 0 200 200"><g id="Shoppable_Video" data-name="Shoppable Video"><path d="M81.72,195.12a1.64,1.64,0,0,0,1.67,1.62h1.93v1.87a1.69,1.69,0,0,0,3.38,0v-1.87h1.93a1.63,1.63,0,0,0,1.66-1.62,1.67,1.67,0,0,0-1.66-1.65H88.7v-1.83a1.69,1.69,0,0,0-3.38,0v1.83H83.39A1.68,1.68,0,0,0,81.72,195.12Z"/><ellipse cx="87.01" cy="3.71" rx="4.11" ry="3.98"/><path d="M150.94,113.09,142.08,58.4v0a3.24,3.24,0,0,0-2.16-2.52.89.89,0,0,0-.45-.13.32.32,0,0,0-.18-.05.31.31,0,0,0-.18,0L108.6,52.38l1-11.46c0-13.46-9.27-22.49-23.08-22.49-13.1,0-22.59,8.76-24.25,22.23l-1,6.76-28.39-3a3.36,3.36,0,0,0-3.74,2.84L15,161.6a3.07,3.07,0,0,0,.72,2.4A3.34,3.34,0,0,0,18,165.22l93,10a41.3,41.3,0,0,0,33.12,16.43c22.54,0,40.85-17.74,40.85-39.53C185,132.53,170.24,116.28,150.94,113.09ZM139.29,83.55l4.68,29a42.27,42.27,0,0,0-8.15.83ZM68.92,41.49C70.18,31.29,76.88,25,86.47,25c10.08,0,16.33,6.1,16.33,15.69l-.9,11-34-3.53ZM22.13,159.12,35.4,51.29l24.88,2.62L59.2,61.36A3.27,3.27,0,0,0,62,65.07a3.39,3.39,0,0,0,3.82-2.79L67,54.61l34.37,3.61-.77,9.29A3.27,3.27,0,0,0,103.7,71c.09,0,.18.05.27.05A3.34,3.34,0,0,0,107.3,68l.76-9.07L135,61.75l-6.16,53.74c-14.94,5.84-25.56,20-25.56,36.65a37.68,37.68,0,0,0,3.56,16Zm122,26c-18.81,0-34.11-14.77-34.11-33s15.3-33,34.11-33,34.1,14.82,34.1,33S163,185.13,144.15,185.13Z"/><path d="M139.93,171.6a11,11,0,0,1-5.14-1.28,10.38,10.38,0,0,1-5.62-9.15v-18.1a10.35,10.35,0,0,1,5.62-9.14,11,11,0,0,1,11,.41l14.4,9.06h0a10.22,10.22,0,0,1,0,17.45l-14.4,9.05A10.94,10.94,0,0,1,139.93,171.6Zm0-32.4a4,4,0,0,0-1.9.47,3.8,3.8,0,0,0-2.09,3.4v18.1a3.81,3.81,0,0,0,2.09,3.4,4,4,0,0,0,4.07-.15l14.41-9.06a3.79,3.79,0,0,0,0-6.48l-14.41-9A4,4,0,0,0,139.91,139.2Z"/></g></svg>