<svg id="Interactive_Experiences_Icons" data-name="Interactive Experiences Icons" xmlns="http://www.w3.org/2000/svg" viewBox="0 0 200 200"><g id="Social_Interactive_Content" data-name="Social Interactive Content"><path d="M78.1,131.57H15a10,10,0,0,0-10,10v40.56a10,10,0,0,0,10,10H78.1a10,10,0,0,0,10-10V141.57A10,10,0,0,0,78.1,131.57ZM52,137.9a6.19,6.19,0,0,1-10.8,0Zm29.84,44.23a3.69,3.69,0,0,1-3.71,3.67h-4V152.21a3.17,3.17,0,1,0-6.33,0V185.8H26.23V152.21a3.17,3.17,0,1,0-6.33,0V185.8H15a3.71,3.71,0,0,1-3.71-3.67V141.57A3.71,3.71,0,0,1,15,137.9H34.33a12.64,12.64,0,0,0,24.48,0H78.1a3.68,3.68,0,0,1,3.71,3.67Z"/><path d="M185,131.57H121.9a10,10,0,0,0-10,10v40.56a10,10,0,0,0,10,10H185a10,10,0,0,0,10-10V141.57A10,10,0,0,0,185,131.57Zm-26.17,6.33a6.19,6.19,0,0,1-10.8,0Zm29.84,44.23A3.68,3.68,0,0,1,185,185.8h-4V152.21a3.17,3.17,0,1,0-6.33,0V185.8H133.13V152.21A3.16,3.16,0,0,0,130,149a3.13,3.13,0,0,0-3.16,3.17V185.8h-4.9a3.71,3.71,0,0,1-3.71-3.67V141.57a3.71,3.71,0,0,1,3.71-3.67h19.29a12.64,12.64,0,0,0,24.48,0H185a3.67,3.67,0,0,1,3.67,3.67Z"/><path d="M46.58,128.14a21.71,21.71,0,1,1,21.71-21.71A21.74,21.74,0,0,1,46.58,128.14Zm0-37.09A15.38,15.38,0,1,0,62,106.43,15.4,15.4,0,0,0,46.58,91.05Z"/><path d="M153.44,128.14a21.71,21.71,0,1,1,21.71-21.71A21.74,21.74,0,0,1,153.44,128.14Zm0-37.09a15.38,15.38,0,1,0,15.38,15.38A15.39,15.39,0,0,0,153.44,91.05Z"/><path d="M148.45,7.87H50.92a10,10,0,0,0-10,10V57a10,10,0,0,0,10,10h3.25L53.24,81.6a3.15,3.15,0,0,0,1.81,3.08,3.62,3.62,0,0,0,1.31.25,3.12,3.12,0,0,0,2.24-.88L75.9,67h49l17.3,17.1a3.17,3.17,0,0,0,5.4-2.45l-1-14.65h1.86a10,10,0,0,0,10-10v-39A10.07,10.07,0,0,0,148.45,7.87ZM152.16,57a3.7,3.7,0,0,1-3.71,3.67h-5.23A3.2,3.2,0,0,0,140.05,64l.63,9.67L128.4,61.55a3.16,3.16,0,0,0-2.23-.93H74.59a3.14,3.14,0,0,0-2.19.93L60.08,73.67,60.71,64a3,3,0,0,0-.85-2.36,3.16,3.16,0,0,0-2.32-1H50.92a3.62,3.62,0,0,1-3.63-3.33L80.63,40l27.09,17.76a3.21,3.21,0,0,0,3.21.17l23.13-11.86,18.1,10.81Zm0-7.43-16.37-9.79a3.18,3.18,0,0,0-3.08-.08L109.66,51.47,82.57,33.66a3.21,3.21,0,0,0-3.21-.17L47.25,50.2V17.91a3.71,3.71,0,0,1,3.67-3.71h97.53a3.74,3.74,0,0,1,3.71,3.71Z"/><path d="M119.16,40.19a11.73,11.73,0,1,1,11.72-11.72A11.74,11.74,0,0,1,119.16,40.19Zm0-17.12a5.4,5.4,0,1,0,5.39,5.4A5.4,5.4,0,0,0,119.16,23.07Z"/></g></svg>