<svg id="Interactive_Experiences_Icons" data-name="Interactive Experiences Icons" xmlns="http://www.w3.org/2000/svg" viewBox="0 0 200 200"><g id="Solution_Builder" data-name="Solution Builder"><path d="M33.68,103.36a11.18,11.18,0,0,1-10.63-7.82L5.51,39.78a11.2,11.2,0,0,1,7.3-14l54.25-17a11.18,11.18,0,0,1,14,7.3l4.73,15.06a14.45,14.45,0,0,1,2.93-1.28,14.88,14.88,0,0,1,14.67,3.37,15.69,15.69,0,0,1,4.12,15.49,10.47,10.47,0,0,1-2.09,4.09,16.94,16.94,0,0,1-6.79,5.06A4.25,4.25,0,0,0,95.83,63l2.76,8.78a11.18,11.18,0,0,1-7.3,14L71.78,91.92a3.52,3.52,0,0,1-4.39-4.49,7.71,7.71,0,0,0,.08-4.84,7.82,7.82,0,0,0-5.88-5.31c-3-.62-6,.55-8.3,3.21a3.37,3.37,0,0,0-.67,1.25,9.79,9.79,0,0,0-.13,5.35A11,11,0,0,1,45,100.35l-8,2.5A11.48,11.48,0,0,1,33.68,103.36ZM70.4,15.26a4.09,4.09,0,0,0-1.23.19L14.93,32.5a4.12,4.12,0,0,0-2.69,5.16h0L29.77,93.43a4.1,4.1,0,0,0,5.17,2.69l8-2.5A4,4,0,0,0,45.72,89a16.7,16.7,0,0,1,.11-9.16,10.1,10.1,0,0,1,2.13-4,15.65,15.65,0,0,1,15-5.5A14.9,14.9,0,0,1,74.2,80.48a15.18,15.18,0,0,1,.61,3.1l14.37-4.51a4.12,4.12,0,0,0,2.69-5.16l-2.76-8.79A11.26,11.26,0,0,1,96,51.27a9.93,9.93,0,0,0,4-3,3.61,3.61,0,0,0,.68-1.32,8.59,8.59,0,0,0-2.13-8.63,7.84,7.84,0,0,0-7.72-1.78,7.7,7.7,0,0,0-3.93,2.85,3.53,3.53,0,0,1-6.21-1L74.33,18.14A4.11,4.11,0,0,0,70.4,15.26Z"/><path d="M195,52.18A11.21,11.21,0,0,0,183.82,41H125.34a11.17,11.17,0,0,0-11.13,11.18v8.36a11,11,0,0,0,10.38,11.09,10,10,0,0,1,5.07,1.74,3,3,0,0,1,1,1,8.59,8.59,0,0,1,.56,8.88,8,8,0,0,1-11.41,2.49,3.49,3.49,0,0,0-5.59,2.82v20.48a11,11,0,0,0,1.08,4.83,11,11,0,0,0-5.22-1.31h-9.2a4,4,0,0,1-4.09-3.52A16.71,16.71,0,0,0,94,100.33a10.25,10.25,0,0,0-3.24-3.15c-5.17-3.19-11.13-3.47-16-.75a14.68,14.68,0,0,0-7.28,16.16H51.64a11.21,11.21,0,0,0-11.18,11.18V180.6a11.21,11.21,0,0,0,11.18,11.18h58.43a10.57,10.57,0,0,0,5-1.22,3.35,3.35,0,0,0,2.63,1.22h66.09A11.21,11.21,0,0,0,195,180.6V116.67a3.44,3.44,0,0,0-1.22-2.63,10.5,10.5,0,0,0,1.22-5ZM114.21,180.6a4.14,4.14,0,0,1-4.14,4.14H51.64a4.14,4.14,0,0,1-4.13-4.14V123.77a4.11,4.11,0,0,1,4.13-4.14H72.83A3.49,3.49,0,0,0,75.64,114a8.13,8.13,0,0,1-1.55-4.65,7.81,7.81,0,0,1,4-6.81c2.63-1.5,5.87-1.26,8.88.57a3.07,3.07,0,0,1,1,1,9.8,9.8,0,0,1,1.69,5,11,11,0,0,0,11.14,10.42h9.2a4.12,4.12,0,0,1,4.14,4.14v15a15.15,15.15,0,0,0-16.16,7.28,15.62,15.62,0,0,0,.75,16,10.47,10.47,0,0,0,3.15,3.24,16.76,16.76,0,0,0,8.73,2.86,4,4,0,0,1,3.53,4.09Zm73.74,0a4.17,4.17,0,0,1-4.13,4.14H120.41a10.25,10.25,0,0,0,.84-4.14v-8.31a11,11,0,0,0-10.42-11.13,9.53,9.53,0,0,1-5-1.74,3.47,3.47,0,0,1-1-1,8.76,8.76,0,0,1-.57-8.92A8,8,0,0,1,115.66,147a3.45,3.45,0,0,0,3.67.33,3.57,3.57,0,0,0,1.92-3.15V123.77a10.89,10.89,0,0,0-1.17-4.93,10.6,10.6,0,0,0,5.26,1.36h9.21a4,4,0,0,1,4.08,3.57,16.71,16.71,0,0,0,2.87,8.69,10,10,0,0,0,3.24,3.19,16.53,16.53,0,0,0,8.78,2.59,14.7,14.7,0,0,0,7.24-1.88,14.86,14.86,0,0,0,7.61-13,14.7,14.7,0,0,0-.33-3.19h15.78a10.85,10.85,0,0,0,4.13-.8Zm0-71.53a4.13,4.13,0,0,1-4.13,4.08H162.64a3.46,3.46,0,0,0-3.15,2,3.55,3.55,0,0,0,.28,3.66,7.57,7.57,0,0,1,1.55,4.6,7.84,7.84,0,0,1-4,6.81c-2.68,1.51-5.92,1.27-8.88-.56a3,3,0,0,1-1-1,9.55,9.55,0,0,1-1.74-5.07,11,11,0,0,0-11.13-10.43h-9.21a4.09,4.09,0,0,1-4.09-4.08V94a15.1,15.1,0,0,0,16.12-7.28c2.72-4.89,2.44-10.85-.71-16a10.49,10.49,0,0,0-3.19-3.24,16.22,16.22,0,0,0-8.69-2.82,4,4,0,0,1-3.53-4.09V52.18a4.14,4.14,0,0,1,4.09-4.13h58.48A4.17,4.17,0,0,1,188,52.18Z"/></g></svg>