<svg id="Interactive_Experiences_Icons" data-name="Interactive Experiences Icons" xmlns="http://www.w3.org/2000/svg" viewBox="0 0 200 200"><g id="Video_Contests" data-name="Video Contests"><path d="M174.45,104.34c-1.44-1.45-2.94-2.8-4.48-4.11l-2.09-1.68-1.4-1c-1-.74-2.06-1.39-3.13-2s-2-1.16-3-1.68c-1.26-.65-2.62-1.26-4-1.82a1.52,1.52,0,0,0-.42-.18c-1.21-.52-2.42-1-3.68-1.4-1.08-.37-2.19-.7-3.31-1h-.05c-1.12-.32-2.24-.6-3.41-.84h-.09a.88.88,0,0,1-.32,0h-.05a50.94,50.94,0,0,0-10.78-1.17,53.71,53.71,0,0,0-5.55.28,47,47,0,0,0,4-11.43v0l28.36-43.85a12.94,12.94,0,0,0-10.87-20h-14A12.63,12.63,0,0,0,132.61,4a12.87,12.87,0,0,0-9.37-4L87.37,0,49.22.05A12.75,12.75,0,0,0,36.3,12.27h-14A12.7,12.7,0,0,0,10.83,19a13,13,0,0,0,.47,13.29l28.36,43.8v0a48.16,48.16,0,0,0,33.86,36.61,11.55,11.55,0,0,1-.14,3.59c-1.26,9.84-9.42,17.31-11.71,19.12a3.11,3.11,0,0,1-.46.33,4.52,4.52,0,0,0-1.12.7A12.8,12.8,0,0,0,54.68,147V150a12.73,12.73,0,0,0,.93,4.85H46.37a13,13,0,0,0-13.06,13v2.94a13.06,13.06,0,0,0,13.06,13H95.12a56.12,56.12,0,0,0,79.33-79.38ZM135.88,20.48H150.2A4.6,4.6,0,0,1,154.4,23a4.49,4.49,0,0,1-.24,4.86l-20,31ZM18.2,27.85A4.69,4.69,0,0,1,18.06,23a4.6,4.6,0,0,1,4.2-2.51H36.53l1.73,38.34ZM47.54,74v0a2.19,2.19,0,0,0-.09-.56,1.58,1.58,0,0,0,.09.32,34.16,34.16,0,0,1-.61-3.82c-.14-1.45-.18-2.94-.18-4.38v-.66L44.37,13.25a4.56,4.56,0,0,1,1.4-3.5,4.32,4.32,0,0,1,3.45-1.49l35.87,0,38.15,0a4.44,4.44,0,0,1,3.45,1.49,4.52,4.52,0,0,1,1.35,3.5l-2.37,51.58c0,.1,0,.56,0,.61a35.57,35.57,0,0,1-.28,4.48A40.79,40.79,0,0,1,118,89.79a56,56,0,0,0-25.28,16.09,37.54,37.54,0,0,1-6.48.56C67.36,106.39,51.32,92.72,47.54,74Zm38.67,40.68A55.05,55.05,0,0,0,79.12,133c-.05.32-.1.65-.14,1H74.36a35.29,35.29,0,0,0,7.23-16.88,22,22,0,0,0,.28-2.66C83.36,114.6,84.71,114.65,86.21,114.65ZM62.89,147a4.79,4.79,0,0,1,2-3.87,3.26,3.26,0,0,1,.51-.32,4.34,4.34,0,0,1,2.29-.61H78.18c0,.47,0,.89,0,1.35a58.24,58.24,0,0,0,1.07,11.15.61.61,0,0,0,.28.09H67.69a4.83,4.83,0,0,1-4.8-4.85Zm-16.52,28.5a4.87,4.87,0,0,1-4.85-4.8v-2.94A4.8,4.8,0,0,1,46.37,163H81.73c.23.66.47,1.31.74,2,.1.28.24.61.33.89.28.65.56,1.26.89,1.91q.56,1.26,1.26,2.52c.28.51.56,1,.88,1.54a26.43,26.43,0,0,0,1.78,2.89,2,2,0,0,1,.14.23l.42.56Zm50.05.19a16,16,0,0,1-1.12-1.35c-.51-.66-1-1.36-1.54-2.06s-.84-1.21-1.21-1.81a21.32,21.32,0,0,1-1.12-1.82A28.59,28.59,0,0,1,90,166a7.15,7.15,0,0,1-.74-1.53,44.5,44.5,0,0,1-3.6-10.64,47.21,47.21,0,0,1-1.12-10.31c0-1.26.05-2.47.14-3.68a49.78,49.78,0,0,1,49.58-46,21.24,21.24,0,0,1,2.52.1,48,48,0,0,1,21.74,6.34,20,20,0,0,1,2.19,1.26c.79.47,1.54,1,2.29,1.49a20.88,20.88,0,0,1,2,1.54c.89.7,1.77,1.45,2.66,2.24a14.63,14.63,0,0,1,1.73,1.63,49.68,49.68,0,0,1-70.29,70.24C98.19,177.71,97.26,176.73,96.42,175.7Z"/><path d="M128.59,166.17A11.16,11.16,0,0,1,117.46,155v-23a11.13,11.13,0,0,1,17.19-9.34l17.71,11.5a11.13,11.13,0,0,1,0,18.67l-17.71,11.49A11.14,11.14,0,0,1,128.59,166.17Zm0-38.27a4.14,4.14,0,0,0-2,.51,4.08,4.08,0,0,0-2.16,3.64v23a4.14,4.14,0,0,0,6.38,3.47L148.56,147a4.14,4.14,0,0,0,0-6.94h0l-17.72-11.49A4.08,4.08,0,0,0,128.6,127.9Z"/><path d="M87.75,175c.14.19.23.38.37.56h0Zm-6-11.94h-.09a17.42,17.42,0,0,0,.83,2C82.2,164.32,82,163.67,81.73,163Zm-2.52-8.3c.05,0,.05,0,.05.09h.23A.61.61,0,0,1,79.21,154.71Z"/></g></svg>