<svg id="Interactive_Experiences_Icons" data-name="Interactive Experiences Icons" xmlns="http://www.w3.org/2000/svg" viewBox="0 0 200 200"><g id="Video_Quiz" data-name="Video Quiz"><path d="M94.46,125.66a10.08,10.08,0,0,1-4.95-1.29,10.46,10.46,0,0,1-5.42-9.3V94.33A10.6,10.6,0,0,1,89.51,85a10.17,10.17,0,0,1,10.6.42l15.65,10.37a10.7,10.7,0,0,1,0,17.76L100.11,124A10.2,10.2,0,0,1,94.46,125.66Zm0-35.27a3.88,3.88,0,0,0-3.86,3.94v20.74a3.89,3.89,0,0,0,2,3.46,3.73,3.73,0,0,0,3.94-.16L112.21,108a4,4,0,0,0,0-6.6h0L96.56,91A3.77,3.77,0,0,0,94.47,90.39Z"/><path d="M168.84,73a30.21,30.21,0,0,0-17.6,5.64A56.3,56.3,0,0,0,142.72,66l5.35-5.46a3.32,3.32,0,0,0,0-4.7,3.23,3.23,0,0,0-4.61,0l-5.3,5.41a56.18,56.18,0,0,0-34.64-14.77,1.75,1.75,0,0,0,0-.45V31.6a3.26,3.26,0,1,0-6.51,0V46a1.75,1.75,0,0,0,0,.45A56.12,56.12,0,0,0,62.41,60.93l-5-5.1a3.23,3.23,0,0,0-4.61,0,3.32,3.32,0,0,0,0,4.7l4.91,5v0a59.06,59.06,0,0,0-8.82,13.18A30.26,30.26,0,0,0,31.12,73C14,73,0,87.29,0,104.81s14,31.82,31.12,31.82a30.2,30.2,0,0,0,17.77-5.77,56.66,56.66,0,0,0,102.35.09,30.13,30.13,0,0,0,17.6,5.68c17.17,0,31.16-14.29,31.16-31.82S186,73,168.84,73ZM47.72,123.27c-.48.45-1,.89-1.48,1.29A23.72,23.72,0,0,1,31.12,130c-13.56,0-24.6-11.31-24.6-25.16s11-25.11,24.6-25.11A24,24,0,0,1,46.24,85a14.58,14.58,0,0,1,1.52,1.34,24.74,24.74,0,0,1,3.61,4.17,25.44,25.44,0,0,1,0,28.57A23.29,23.29,0,0,1,47.72,123.27Zm52.37,33.32A50.71,50.71,0,0,1,54,126.33a32,32,0,0,0,0-43A50.69,50.69,0,0,1,100.09,53c20.38,0,38,12.38,46,30.13a32.19,32.19,0,0,0,0,43.35A50.67,50.67,0,0,1,100.09,156.59ZM168.84,130a23.84,23.84,0,0,1-15-5.28,16.39,16.39,0,0,1-1.35-1.15,23.37,23.37,0,0,1-3.78-4.26,25.22,25.22,0,0,1-4.52-14.47,24.9,24.9,0,0,1,4.52-14.46A22.37,22.37,0,0,1,152.59,86c.43-.39.87-.75,1.3-1.1a23.82,23.82,0,0,1,15-5.24c13.56,0,24.64,11.27,24.64,25.11S182.4,130,168.84,130Z"/><path d="M43.85,100,30.68,113.42l-.91.93a3.47,3.47,0,0,1-1.7.94,1,1,0,0,1-.34,0,2.88,2.88,0,0,1-.61,0,3.31,3.31,0,0,1-1.7-.94l-.91-.88-6.08-6.22a3.44,3.44,0,0,1,0-4.74,3.22,3.22,0,0,1,4.6,0l4.57,4.66,11.64-11.9a3.25,3.25,0,0,1,4.61,0A3.41,3.41,0,0,1,43.85,100Z"/><path d="M178.18,109.65a3.3,3.3,0,0,1,0,4.7,3,3,0,0,1-2.3,1,3.16,3.16,0,0,1-2.3-1l-4.74-4.83-4.69,4.83a3.25,3.25,0,0,1-4.65,0,3.39,3.39,0,0,1,0-4.7l4.73-4.84L159.5,100a3.41,3.41,0,0,1,0-4.71,3.3,3.3,0,0,1,4.65,0l4.69,4.84,4.74-4.84a3.24,3.24,0,0,1,4.6,0,3.31,3.31,0,0,1,0,4.71l-4.73,4.83Z"/><ellipse cx="99.97" cy="180.3" rx="3.97" ry="4.05"/><path d="M94.87,20.88a1.61,1.61,0,0,0,1.6,1.64h1.87v1.91a1.63,1.63,0,1,0,3.26,0V22.52h1.87a1.62,1.62,0,0,0,1.61-1.64,1.66,1.66,0,0,0-1.61-1.68H101.6V17.33a1.63,1.63,0,1,0-3.26,0V19.2H96.47A1.65,1.65,0,0,0,94.87,20.88Z"/></g></svg>