<svg width="22" height="28" viewBox="0 0 22 28" fill="none" xmlns="http://www.w3.org/2000/svg">
<path fill-rule="evenodd" clip-rule="evenodd" d="M16.4172 7.48342C16.4172 8.01113 15.9889 8.43942 15.4612 8.43942C14.9335 8.43942 14.5052 8.01113 14.5052 7.48342V5.57141C14.5052 3.63518 12.9361 2.06606 10.9999 2.06606C9.06365 2.06606 7.49453 3.63518 7.49453 5.57141V7.48342C7.49453 8.01113 7.06624 8.43942 6.53852 8.43942C6.01081 8.43942 5.58252 8.01113 5.58252 7.48342V5.57141C5.58252 2.57975 8.00822 0.154053 10.9999 0.154053C13.9915 0.154053 16.4172 2.57975 16.4172 5.57141V7.48342Z" fill="#F9F9F9"/>
<path fill-rule="evenodd" clip-rule="evenodd" d="M20.3587 9.20391L21.3785 24.5C21.4307 25.2928 21.1529 26.0704 20.6111 26.6503C20.0681 27.2303 19.3097 27.5592 18.5168 27.5592H3.48336C2.69051 27.5592 1.93208 27.2303 1.38907 26.6503C0.847333 26.0704 0.569455 25.2928 0.621717 24.5L1.64145 9.20391C1.74215 7.69725 2.99388 6.5271 4.50309 6.5271H17.4971C19.0063 6.5271 20.258 7.69725 20.3587 9.20391ZM14.1689 12.1713C13.6055 13.3555 12.3984 14.1751 11.0001 14.1751C9.60178 14.1751 8.39467 13.3555 7.83126 12.1713C7.60564 11.6946 7.03459 11.4919 6.55786 11.7188C6.08114 11.9445 5.87846 12.5155 6.10408 12.9922C6.97341 14.8227 8.83953 16.0871 11.0001 16.0871C13.1607 16.0871 15.0268 14.8227 15.8961 12.9922C16.1217 12.5155 15.9191 11.9445 15.4423 11.7188C14.9656 11.4919 14.3945 11.6946 14.1689 12.1713Z" fill="#F9F9F9"/>
</svg>
