<svg width="19" height="20" viewBox="0 0 19 20" fill="none" xmlns="http://www.w3.org/2000/svg">
  <path d="M18.3337 17.6481L16.5501 5.15964C16.4786 4.66967 16.2336 4.22163 15.8598 3.89696C15.4859 3.57229 15.0079 3.39254 14.5128 3.39038H12.84L12.5041 2.38243C11.4436 -0.792634 6.91021 -0.795666 5.84877 2.38247L5.51279 3.39038H3.84003C3.34494 3.39279 2.86713 3.57263 2.49331 3.89725C2.1195 4.22188 1.87447 4.66978 1.8027 5.15964L0.0191439 17.6481C-0.0208033 17.9399 0.00192894 18.2368 0.0858239 18.5191C0.169719 18.8013 0.312847 19.0625 0.50566 19.2851C0.698472 19.5076 0.936534 19.6865 1.20396 19.8098C1.47139 19.9331 1.76203 19.9979 2.0565 20L16.2963 20C16.5908 19.9979 16.8815 19.9331 17.1489 19.8098C17.4163 19.6865 17.6544 19.5076 17.8472 19.2851C18.04 19.0625 18.1831 18.8013 18.267 18.5191C18.3509 18.2368 18.3736 17.9399 18.3337 17.6481ZM6.52788 2.60761C7.35282 0.083699 11.0005 0.0842455 11.8249 2.60765L12.0859 3.39038H6.26695L6.52788 2.60761ZM14.0017 12.226C14.0013 12.4392 13.9165 12.6435 13.7658 12.7943C13.615 12.945 13.4107 13.0299 13.1975 13.0302C13.1199 13.0428 12.8936 12.9884 12.8686 13.0909C12.8449 13.2365 12.6533 13.4338 12.7256 13.5592L12.9044 13.7379C13.0541 13.8891 13.138 14.0934 13.138 14.3062C13.138 14.519 13.0541 14.7232 12.9043 14.8745L12.2717 15.5072C12.1204 15.6568 11.9162 15.7408 11.7034 15.7408C11.4906 15.7408 11.2864 15.6568 11.1351 15.5071L10.9135 15.2855C10.7892 15.2141 10.6236 15.378 10.4846 15.3927C10.4676 15.3986 10.4529 15.4097 10.4426 15.4245C10.4323 15.4393 10.427 15.457 10.4274 15.475V15.8002C10.4271 16.0134 10.3423 16.2178 10.1915 16.3685C10.0408 16.5193 9.83639 16.6041 9.62319 16.6045H8.72963C8.51644 16.6041 8.31207 16.5193 8.16132 16.3685C8.01057 16.2178 7.92574 16.0134 7.92542 15.8002V15.3856C7.89737 15.2618 7.70912 15.2633 7.61806 15.1926C7.52166 15.1328 7.37421 15.37 7.21769 15.5071C7.06643 15.6568 6.86221 15.7408 6.6494 15.7408C6.43658 15.7408 6.23236 15.6568 6.0811 15.5071L5.44845 14.8745C5.29874 14.7232 5.21477 14.519 5.21477 14.3062C5.21478 14.0934 5.29876 13.8891 5.44847 13.7379L5.79159 13.3947C5.80382 13.3823 5.81206 13.3664 5.81524 13.3492C5.81842 13.332 5.8164 13.3143 5.80944 13.2983C5.74938 13.2146 5.76119 13.0466 5.64146 13.0302L5.15534 13.0302C4.94215 13.0299 4.73779 12.945 4.58704 12.7943C4.43629 12.6435 4.35146 12.4392 4.35113 12.226V11.3324C4.35146 11.1192 4.43629 10.9148 4.58704 10.7641C4.73779 10.6134 4.94216 10.5285 5.15535 10.5282H5.64143C5.65988 10.5284 5.6779 10.5226 5.69274 10.5116C5.70758 10.5006 5.71843 10.4851 5.72365 10.4674C5.74143 10.3711 5.86229 10.2563 5.79159 10.1636L5.44843 9.82048C5.29872 9.66922 5.21474 9.46499 5.21475 9.25217C5.21475 9.03935 5.29873 8.83512 5.44845 8.68386L6.08108 8.05123C6.23234 7.90152 6.43656 7.81755 6.64939 7.81755C6.86221 7.81755 7.06643 7.90152 7.21769 8.05123L7.51434 8.35146C7.52813 8.36408 7.54543 8.37221 7.56395 8.37476C7.58246 8.37732 7.60132 8.37418 7.61801 8.36577C7.70831 8.29317 7.89804 8.29827 7.92541 8.17277L7.92542 7.75814C7.92574 7.54495 8.01057 7.34058 8.16132 7.18983C8.31207 7.03908 8.51644 6.95425 8.72963 6.95393H9.6232C9.83639 6.95425 10.0408 7.03908 10.1915 7.18983C10.3423 7.34058 10.4271 7.54495 10.4274 7.75814V8.07981C10.4272 8.09972 10.4339 8.11907 10.4462 8.13468C10.4586 8.15028 10.4759 8.1612 10.4953 8.16561C10.6314 8.18123 10.7853 8.34526 10.9135 8.27288L11.1351 8.05123C11.2864 7.90152 11.4906 7.81755 11.7034 7.81755C11.9162 7.81755 12.1205 7.90152 12.2717 8.05123L12.9044 8.68386C13.0541 8.83513 13.1381 9.03936 13.1381 9.25218C13.138 9.465 13.0541 9.66922 12.9044 9.82048L12.7257 9.99919C12.7122 10.0125 12.7034 10.0298 12.7009 10.0486C12.6983 10.0673 12.702 10.0864 12.7114 10.1029C12.7976 10.2143 12.8152 10.5027 12.9508 10.5282L13.1975 10.5282C13.4107 10.5285 13.615 10.6134 13.7658 10.7641C13.9165 10.9149 14.0014 11.1192 14.0017 11.3324L14.0017 12.226Z" fill="#F27D43"/>
  <path d="M7.7467 11.7791C7.79385 13.6645 10.5587 13.6649 10.6061 11.7791C10.559 9.8938 7.79411 9.89342 7.7467 11.7791Z" fill="#F27D43"/>
</svg>
