<svg xmlns="http://www.w3.org/2000/svg" viewBox="0 0 250 22"><path d="M6.34,17.15H1.49C.66,17.15,0,16.65,0,16V10.51H1V16c0,.06.17.21.49.21H6.34Z"/><path d="M248.51,17.15h-4.62v-.94h4.62c.32,0,.49-.15.49-.21V1.42c0-.06-.17-.21-.49-.21H11.42V.27H248.51c.83,0,1.49.5,1.49,1.15V16C250,16.65,249.34,17.15,248.51,17.15Z"/><path d="M243.1,7V21.06H7V7H243.1m0-.94H7c-.55,0-1,.3-1,.68V21.32c0,.38.45.68,1,.68H243.1c.55,0,1-.3,1-.68V6.74c0-.38-.45-.68-1-.68Z"/><path d="M1,8.52H0V1.68A1.45,1.45,0,0,1,1.49.27H8.77v.94H1.49A.48.48,0,0,0,1,1.68Z"/></svg>