<svg xmlns="http://www.w3.org/2000/svg" viewBox="0 0 250 17"><path d="M57.56,1a.34.34,0,0,1,.07.22V15.78a.73.73,0,0,1-.05.22H1a.32.32,0,0,1-.08-.23V1.22A.73.73,0,0,1,1,1H57.56m0-1H1a1.15,1.15,0,0,0-1,1.22V15.78A1.15,1.15,0,0,0,1,17H57.58a1.15,1.15,0,0,0,1.05-1.22V1.22A1.15,1.15,0,0,0,57.58,0Z"/><path d="M121.33,1a.34.34,0,0,1,.07.22V15.78a.73.73,0,0,1-.05.22H64.79a.31.31,0,0,1-.09-.23V1.22c0-.14.07-.21,0-.22h56.58m0-1H64.75a1.15,1.15,0,0,0-1,1.22V15.78a1.15,1.15,0,0,0,1,1.22h56.6a1.15,1.15,0,0,0,1.05-1.22V1.22A1.15,1.15,0,0,0,121.35,0Z"/><path d="M185.09,1a.29.29,0,0,1,.08.22V15.78a.73.73,0,0,1,0,.22H128.56a.27.27,0,0,1-.09-.23V1.22a.73.73,0,0,1,.05-.22h56.57m0-1h-56.6a1.15,1.15,0,0,0-1.05,1.22V15.78A1.15,1.15,0,0,0,128.52,17h56.6a1.15,1.15,0,0,0,1-1.22V1.22a1.15,1.15,0,0,0-1-1.22Z"/><path d="M248.86,1a.29.29,0,0,1,.08.22V15.78a.73.73,0,0,1-.05.22H192.32a.32.32,0,0,1-.08-.23V1.22a.73.73,0,0,1,0-.22h56.57m0-1h-56.6a1.15,1.15,0,0,0-1,1.22V15.78a1.15,1.15,0,0,0,1,1.22h56.6a1.15,1.15,0,0,0,1.05-1.22V1.22A1.15,1.15,0,0,0,248.89,0Z"/></svg>