<svg xmlns="http://www.w3.org/2000/svg" viewBox="0 0 250 17"><path d="M248.86,1a.29.29,0,0,1,.08.22V15.78a.73.73,0,0,1-.05.22H171.07a.27.27,0,0,1-.09-.23V1.22A.73.73,0,0,1,171,1h77.83m0-1H171A1.15,1.15,0,0,0,170,1.22V15.78A1.15,1.15,0,0,0,171,17h77.86a1.15,1.15,0,0,0,1.05-1.22V1.22A1.15,1.15,0,0,0,248.89,0Z"/><path d="M163.84,1a.34.34,0,0,1,.07.22V15.78a.73.73,0,0,1,0,.22H1a.32.32,0,0,1-.08-.23V1.22A.73.73,0,0,1,1,1H163.84m0-1H1a1.15,1.15,0,0,0-1,1.22V15.78A1.15,1.15,0,0,0,1,17H163.86a1.15,1.15,0,0,0,1-1.22V1.22a1.15,1.15,0,0,0-1-1.22Z"/></svg>