<svg width="68" height="77" viewBox="0 0 68 77" fill="none" xmlns="http://www.w3.org/2000/svg">
<g clip-path="url(#clip0_4_395)">
<path d="M66.6945 19.8061L60.2763 13.3878V3.81409C60.2763 1.71098 58.5653 0 56.4622 0H3.76549C1.68919 0 0 1.68919 0 3.76549V66.9476C0 69.0239 1.68919 70.7131 3.76549 70.7131H5.89541V72.8112C5.89541 74.8875 7.5846 76.5766 9.6609 76.5766H56.3734C57.0672 76.5766 57.6302 76.0136 57.6302 75.3198C57.6302 74.626 57.0672 74.063 56.3734 74.063H9.66257C8.97215 74.063 8.41076 73.5016 8.41076 72.8112V30.6585C8.41076 29.9647 7.8477 29.4016 7.15392 29.4016C6.46015 29.4016 5.89709 29.9647 5.89709 30.6585V68.1994H3.76716C3.07674 68.1994 2.51535 67.638 2.51535 66.9476V3.76549C2.51535 3.07506 3.07674 2.51368 3.76716 2.51368H56.4622C57.1794 2.51368 57.7626 3.09685 57.7626 3.81409V10.8742L53.1207 6.23392C52.8844 5.99763 52.566 5.86525 52.2325 5.86525H9.66257C7.58628 5.86525 5.89709 7.55444 5.89709 9.63073V16.4294C5.89709 17.1232 6.46015 17.6862 7.15392 17.6862C7.8477 17.6862 8.41076 17.1232 8.41076 16.4294V9.63073C8.41076 8.94031 8.97215 8.37892 9.66257 8.37892H50.974V20.6926C50.974 21.3864 51.5371 21.9494 52.2308 21.9494H64.5479V72.8128C64.5479 73.5033 63.9865 74.0646 63.2961 74.0646H55.2238C54.53 74.0646 53.967 74.6277 53.967 75.3215C53.967 76.0153 54.53 76.5783 55.2238 76.5783H63.2961C65.3723 76.5783 67.0615 74.8891 67.0615 72.8128V20.6943C67.0615 20.3608 66.9292 20.0407 66.6929 19.8061H66.6945ZM53.4894 19.4357V10.1553L62.7715 19.4374H53.4894V19.4357Z" fill="#F57B37"/>
<path d="M7.12879 24.448C7.8331 24.448 8.40406 23.8771 8.40406 23.1727C8.40406 22.4684 7.8331 21.8975 7.12879 21.8975C6.42447 21.8975 5.85352 22.4684 5.85352 23.1727C5.85352 23.8771 6.42447 24.448 7.12879 24.448Z" fill="#F57B37"/>
<path d="M30.3518 47.3862C30.6116 47.6442 31.0305 47.6442 31.2886 47.3862C31.5483 47.1264 31.5483 46.7075 31.2886 46.4494C31.0305 46.1896 30.6099 46.1896 30.3518 46.4494C30.0937 46.7075 30.0937 47.1281 30.3518 47.3862Z" fill="#F57B37"/>
<path d="M33.1655 45.5109L39.5083 39.1648C39.7664 38.905 39.7664 38.4861 39.5083 38.228C39.2486 37.9699 38.8296 37.9699 38.5715 38.228L32.2287 44.5742C31.969 44.8339 31.9706 45.2529 32.2287 45.5109C32.4884 45.769 32.9074 45.769 33.1655 45.5109Z" fill="#F57B37"/>
<path d="M29.1905 42.9235L23.4811 48.6329C23.4174 48.6966 23.3655 48.7754 23.3303 48.8659C23.3303 48.8676 23.3286 48.8692 23.3269 48.8726C22.7991 50.2987 21.2004 54.6222 20.5719 56.3231C20.4831 56.5661 20.5418 56.8393 20.7261 57.0219C20.9071 57.2029 21.1803 57.2649 21.4249 57.1744C23.0739 56.5628 27.4376 54.9406 28.8671 54.411C28.9509 54.3809 29.038 54.3256 29.105 54.2585L34.8128 48.5508L44.9898 58.7865C45.1138 58.9122 45.2831 58.9826 45.4607 58.9826C45.6367 58.9826 45.8059 58.9122 45.9316 58.7865L52.4923 52.1638C52.7487 51.9041 52.7487 51.4868 52.4906 51.2287C51.9845 50.7226 42.7158 41.4522 42.3136 41.0517C44.0447 39.3206 48.2157 35.1496 49.8077 33.5576C51.3628 32.0041 51.3628 29.4871 49.8077 27.9337C48.2542 26.3785 45.7389 26.3785 44.1837 27.9337L36.6896 35.4278C36.3059 35.044 27.0874 25.8255 26.5092 25.2474C26.2512 24.9893 25.8339 24.9876 25.5742 25.2457L18.9464 31.8064C18.8207 31.9304 18.7504 32.0997 18.7504 32.2773C18.7504 32.4532 18.8207 32.6242 18.9464 32.7482L29.1922 42.9286L29.1905 42.9235ZM37.1589 36.8304L41.2913 32.6962L45.0401 36.445L40.9076 40.5774L28.6358 52.8492L24.8871 49.1005L37.1572 36.8304H37.1589ZM43.6358 30.3535L47.3845 34.1022L45.9785 35.5082L42.2298 31.7595L43.6358 30.3535ZM24.7044 54.5418L23.2012 53.0386L24.2134 50.302L27.4376 53.5262L24.7044 54.5418ZM22.6952 54.4077L23.337 55.0495L22.3164 55.4282L22.6935 54.4077H22.6952ZM42.9152 43.5235L40.0747 46.3623C39.815 46.6203 39.815 47.0409 40.0747 47.299C40.3328 47.5588 40.7534 47.5588 41.0115 47.299L43.8519 44.4602L45.8595 46.4678L43.9575 48.3698C43.6994 48.6296 43.6994 49.0485 43.9575 49.3066C44.2173 49.5664 44.6362 49.5647 44.8943 49.3066L46.7963 47.4046L48.8039 49.4122L45.9634 52.251C45.7037 52.509 45.7037 52.9297 45.9634 53.1877C46.2215 53.4475 46.6421 53.4475 46.9002 53.1877L49.7406 50.3489L51.0863 51.6946C45.4892 57.2867 45.459 57.3738 45.459 57.3738L35.7495 47.609L41.3751 41.9834L42.9118 43.5218L42.9152 43.5235ZM48.8709 28.8687C49.9066 29.9044 49.9082 31.5818 48.8709 32.6175L48.3229 33.1655L44.5742 29.4167L45.1239 28.8671C46.1595 27.8314 47.837 27.8298 48.8726 28.8671L48.8709 28.8687ZM27.5164 28.128L24.6776 30.9668C24.4195 31.2249 24.4195 31.6455 24.6776 31.9036C24.9374 32.1633 25.3563 32.1633 25.6144 31.9036L28.4532 29.0648L30.4607 31.0724L28.5587 32.9744C28.299 33.2342 28.299 33.6531 28.5587 33.9112C28.8185 34.1692 29.2374 34.1709 29.4955 33.9112L31.3975 32.0092L33.271 33.8827L30.4323 36.7215C30.1742 36.9812 30.1742 37.4002 30.4323 37.6582C30.692 37.9163 31.111 37.918 31.369 37.6582L34.2078 34.8194L35.7495 36.3612L30.1239 41.9868L20.3507 32.2739C20.3507 32.2739 20.4429 32.2438 26.035 26.6466L27.5147 28.1264L27.5164 28.128Z" fill="#F57B37"/>
</g>
<defs>
<clipPath id="clip0_4_395">
<rect width="67.0632" height="76.58" fill="white"/>
</clipPath>
</defs>
</svg>
