<svg width="70" height="77" viewBox="0 0 70 77" fill="none" xmlns="http://www.w3.org/2000/svg">
<g clip-path="url(#clip0_4_358)">
<path fill-rule="evenodd" clip-rule="evenodd" d="M13.1848 11.8664H3.95545C1.77007 11.8664 0 13.6364 0 15.8218V21.0958C0 21.8242 0.590022 22.4142 1.31848 22.4142C2.04695 22.4142 2.63697 21.8242 2.63697 21.0958V15.8218C2.63697 15.0934 3.22699 14.5033 3.95545 14.5033H38.2361C38.9645 14.5033 39.5545 15.0934 39.5545 15.8218V32.3029C39.5545 33.0313 38.9645 33.6214 38.2361 33.6214H3.95545C3.60606 33.6214 3.26984 33.4829 3.02263 33.2357C2.77541 32.9885 2.63697 32.6523 2.63697 32.3029V27.3586C2.63697 26.6301 2.04695 26.0401 1.31848 26.0401C0.590022 26.0401 0 26.6301 0 27.3586V32.3029C0 33.3527 0.416971 34.3581 1.15862 35.0997C1.90027 35.8414 2.90561 36.2583 3.95545 36.2583H13.1848V59.3318C13.1848 62.9725 16.1366 65.9242 19.7773 65.9242H40.2138C40.9422 65.9242 41.5323 65.3342 41.5323 64.6057C41.5323 63.8773 40.9422 63.2873 40.2138 63.2873H19.7773C17.5919 63.2873 15.8218 61.5172 15.8218 59.3318V36.2583H38.2361C40.4214 36.2583 42.1915 34.4883 42.1915 32.3029V15.8218C42.1915 13.6364 40.4214 11.8664 38.2361 11.8664H15.8218V5.77331C15.8218 4.04116 17.226 2.63697 18.9582 2.63697H48.7839V14.5033C48.7839 16.6887 50.554 18.4588 52.7394 18.4588H65.9242V27.853C65.9242 28.5815 66.5143 29.1715 67.2427 29.1715C67.9712 29.1715 68.5612 28.5815 68.5612 27.853V16.9129C68.5612 16.542 68.4063 16.191 68.1343 15.9405L51.121 0.346102C50.877 0.123608 50.5589 0 50.2293 0H18.9582C15.7707 0 13.1848 2.58588 13.1848 5.77331V11.8664ZM22.4142 47.4654H56.0356C56.7641 47.4654 57.3541 46.8754 57.3541 46.147C57.3541 45.4185 56.7641 44.8285 56.0356 44.8285H22.4142C21.6858 44.8285 21.0958 45.4185 21.0958 46.147C21.0958 46.8754 21.6858 47.4654 22.4142 47.4654ZM22.4142 42.1915H56.0356C56.7641 42.1915 57.3541 41.6015 57.3541 40.873C57.3541 40.1446 56.7641 39.5545 56.0356 39.5545H22.4142C21.6858 39.5545 21.0958 40.1446 21.0958 40.873C21.0958 41.6015 21.6858 42.1915 22.4142 42.1915ZM9.22939 25.7105H10.5479C12.7333 25.7105 14.5033 23.9404 14.5033 21.755C14.5033 19.5696 12.7333 17.7995 10.5479 17.7995H7.91091C7.18245 17.7995 6.59242 18.3896 6.59242 19.118V29.6659C6.59242 30.3944 7.18245 30.9844 7.91091 30.9844C8.63937 30.9844 9.22939 30.3944 9.22939 29.6659V25.7105ZM17.1403 29.6659V19.118C17.1403 17.7007 18.4901 17.7995 18.4967 17.7995C20.2354 17.7995 21.9017 18.4901 23.1312 19.7196C24.3607 20.9491 25.0512 22.617 25.0512 24.3541V24.4299C25.0512 26.167 24.3607 27.8349 23.1312 29.0643C21.9017 30.2938 20.2338 30.9844 18.4967 30.9844H18.4588C17.7303 30.9844 17.1403 30.3944 17.1403 29.6659ZM30.3252 25.7105H34.2806C35.0091 25.7105 35.5991 25.1204 35.5991 24.392C35.5991 23.6635 35.0091 23.0735 34.2806 23.0735H30.3252V20.4365H34.2806C35.0091 20.4365 35.5991 19.8465 35.5991 19.118C35.5991 18.3896 35.0091 17.7995 34.2806 17.7995H29.0067C28.2782 17.7995 27.6882 18.3896 27.6882 19.118V29.6659C27.6882 30.3944 28.2782 30.9844 29.0067 30.9844C29.7351 30.9844 30.3252 30.3944 30.3252 29.6659V25.7105ZM19.7773 20.6508C20.3327 20.8436 20.8436 21.16 21.2672 21.5836C22.0022 22.3187 22.4142 23.3141 22.4142 24.3541V24.4299C22.4142 25.4682 22.0022 26.4653 21.2672 27.2003C20.8436 27.6239 20.3327 27.9403 19.7773 28.1332V20.6524V20.6508ZM9.22939 23.0735H10.5479C11.2763 23.0735 11.8664 22.4835 11.8664 21.755C11.8664 21.0265 11.2763 20.4365 10.5479 20.4365H9.22939V23.0735ZM51.4209 4.19773V14.5033C51.4209 15.2318 52.0109 15.8218 52.7394 15.8218H64.1014L51.4209 4.19773Z" fill="#F57B37"/>
<path d="M61.0458 62.9626L58.3611 60.2778V70.0115C58.3611 70.5669 57.9095 71.0185 57.3541 71.0185C56.7987 71.0185 56.3471 70.5686 56.3471 70.0115V60.2778L53.6623 62.9626C53.2684 63.3565 52.6323 63.3565 52.2384 62.9626C51.8445 62.5687 51.8445 61.9325 52.2384 61.5386L56.6421 57.1349C56.8382 56.9388 57.097 56.8399 57.3541 56.8399C57.6112 56.8399 57.8699 56.9388 58.0661 57.1349L62.4698 61.5386C62.8637 61.9325 62.8637 62.5687 62.4698 62.9626C62.0759 63.3565 61.4397 63.3565 61.0458 62.9626Z" fill="#F57B37"/>
<path d="M57.3541 51.2841C50.3809 51.2841 44.7082 56.9569 44.7082 63.93C44.7082 70.9032 50.3809 76.5759 57.3541 76.5759C64.3272 76.5759 70 70.9032 70 63.93C70 56.9569 64.3272 51.2841 57.3541 51.2841ZM57.3541 74.562C51.4918 74.562 46.7221 69.7923 46.7221 63.93C46.7221 58.0677 51.4918 53.2981 57.3541 53.2981C63.2164 53.2981 67.986 58.0677 67.986 63.93C67.986 69.7923 63.2164 74.562 57.3541 74.562Z" fill="#F57B37"/>
<path d="M67.307 34.7849C67.9997 34.7849 68.5612 34.2234 68.5612 33.5307C68.5612 32.838 67.9997 32.2765 67.307 32.2765C66.6143 32.2765 66.0528 32.838 66.0528 33.5307C66.0528 34.2234 66.6143 34.7849 67.307 34.7849Z" fill="#F57B37"/>
<path d="M68.5612 50.0299V38.7338C68.5612 38.0411 67.9997 37.4796 67.307 37.4796C66.6143 37.4796 66.0528 38.0411 66.0528 38.7338V50.0299C66.0528 50.7226 66.6143 51.2841 67.307 51.2841C67.9997 51.2841 68.5612 50.7226 68.5612 50.0299Z" fill="#F57B37"/>
</g>
<defs>
<clipPath id="clip0_4_358">
<rect width="70" height="76.5759" fill="white"/>
</clipPath>
</defs>
</svg>
