<svg id="account" xmlns="http://www.w3.org/2000/svg" width="37.5" height="37.5" viewBox="0 0 37.5 37.5">
  <path id="Path_10" data-name="Path 10" d="M29.688,0H7.813A7.822,7.822,0,0,0,0,7.813V29.688A7.822,7.822,0,0,0,7.813,37.5H29.688A7.822,7.822,0,0,0,37.5,29.688V7.813A7.822,7.822,0,0,0,29.688,0ZM10.938,34.375V32.813a7.813,7.813,0,0,1,15.625,0v1.562Zm23.438-4.687a4.687,4.687,0,0,1-4.687,4.688V32.813a10.937,10.937,0,0,0-21.875,0v1.562a4.687,4.687,0,0,1-4.687-4.687V7.813A4.688,4.688,0,0,1,7.813,3.125H29.688a4.687,4.687,0,0,1,4.688,4.688Z"/>
  <path id="Path_11" data-name="Path 11" d="M14.25,4a6.25,6.25,0,1,0,6.25,6.25A6.25,6.25,0,0,0,14.25,4Zm0,9.375a3.125,3.125,0,1,1,3.125-3.125A3.125,3.125,0,0,1,14.25,13.375Z" transform="translate(4.5 2.25)"/>
</svg>
