<svg id="analytic" xmlns="http://www.w3.org/2000/svg" width="37.141" height="37.103" viewBox="0 0 37.141 37.103">
  <path id="Path_26" data-name="Path 26" d="M32.089,3.976H27.314a1.548,1.548,0,0,0-1.094,2.642L27.9,8.3h0l-5.549,5.548a1.585,1.585,0,0,1-2.19,0l-.263-.265a4.752,4.752,0,0,0-6.566,0L5.439,21.474a1.553,1.553,0,1,0,2.2,2.193l7.892-7.892a1.583,1.583,0,0,1,2.19,0l.263.265a4.756,4.756,0,0,0,6.566,0L30.1,10.49h0L31.78,12.17a1.548,1.548,0,0,0,2.631-1.1V6.3a2.321,2.321,0,0,0-2.321-2.321Z" transform="translate(2.73 2.177)"/>
  <path id="Path_27" data-name="Path 27" d="M35.593,34.008H7.738A4.643,4.643,0,0,1,3.1,29.366V1.548a1.548,1.548,0,1,0-3.1,0V29.366A7.747,7.747,0,0,0,7.738,37.1H35.593a1.548,1.548,0,0,0,0-3.1Z"/>
</svg>
