<svg xmlns="http://www.w3.org/2000/svg" width="37.5" height="37.75" viewBox="0 0 37.5 37.75">
  <g id="editor" transform="translate(0 0.25)">
    <path id="Path_13" data-name="Path 13" d="M35.937,14.03a1.563,1.563,0,0,0-1.562,1.562v7.845h-6.25a4.687,4.687,0,0,0-4.687,4.687v6.25H7.812a4.687,4.687,0,0,1-4.687-4.687V7.812A4.687,4.687,0,0,1,7.812,3.125H21.941a1.562,1.562,0,0,0,0-3.125H7.812A7.822,7.822,0,0,0,0,7.812V29.687A7.822,7.822,0,0,0,7.812,37.5H25.536a7.762,7.762,0,0,0,5.525-2.287l4.15-4.153A7.763,7.763,0,0,0,37.5,25.536V15.592A1.562,1.562,0,0,0,35.937,14.03ZM28.852,33a4.648,4.648,0,0,1-2.289,1.25V28.125a1.563,1.563,0,0,1,1.563-1.562h6.133a4.713,4.713,0,0,1-1.25,2.288Z"/>
    <path id="pencil" d="M26.925,1.337a4.272,4.272,0,0,0-6.037,0L1.726,20.5A5.853,5.853,0,0,0,0,24.664v2.419a1.178,1.178,0,0,0,1.178,1.178H3.6a5.851,5.851,0,0,0,4.165-1.725L26.925,7.373a4.272,4.272,0,0,0,0-6.036ZM6.1,24.87A3.56,3.56,0,0,1,3.6,25.9H2.356V24.664a3.511,3.511,0,0,1,1.036-2.5L17.934,7.623l2.71,2.71ZM25.258,5.707,22.305,8.66l-2.71-2.7L22.549,3a1.914,1.914,0,0,1,2.7,2.71Z" transform="translate(7.796 -0.088)"/>
    <path id="pencil_-_Outline" data-name="pencil - Outline" d="M23.907-.162a4.517,4.517,0,0,1,3.2,7.711L7.939,26.713a6.141,6.141,0,0,1-4.325,1.8H1.178A1.43,1.43,0,0,1-.25,27.083V24.664a6.142,6.142,0,0,1,1.8-4.342L20.711,1.16A4.493,4.493,0,0,1,23.907-.162ZM3.614,28.011A5.638,5.638,0,0,0,7.585,26.36L26.748,7.2a4.018,4.018,0,0,0-5.684-5.682L1.9,20.676A5.64,5.64,0,0,0,.25,24.663v2.419a.929.929,0,0,0,.928.928ZM23.9,2.194a2.164,2.164,0,0,1,1.529,3.7h0L22.306,9.014,19.242,5.957l3.131-3.131A2.15,2.15,0,0,1,23.9,2.194Zm1.181,3.337A1.664,1.664,0,0,0,22.726,3.18L19.949,5.956l2.356,2.351L25.081,5.53ZM17.934,7.269,21,10.332,6.273,25.047A3.788,3.788,0,0,1,3.6,26.154H2.106V24.664a3.785,3.785,0,0,1,1.109-2.676Zm2.356,3.063L17.934,7.976,3.569,22.342a3.282,3.282,0,0,0-.962,2.322v.991H3.6a3.291,3.291,0,0,0,2.323-.962Z" transform="translate(7.796 -0.088)"/>
  </g>
</svg>
