<svg xmlns="http://www.w3.org/2000/svg" width="35.873" height="35.872" viewBox="0 0 35.873 35.872">
  <path id="edit" d="M34.283,1.678a5.44,5.44,0,0,0-7.687,0L2.2,26.077A7.453,7.453,0,0,0,0,31.38v3.08a1.5,1.5,0,0,0,1.5,1.5H4.58a7.45,7.45,0,0,0,5.3-2.2l24.4-24.4a5.44,5.44,0,0,0,0-7.685ZM7.762,31.643A4.534,4.534,0,0,1,4.58,32.96H3V31.38A4.47,4.47,0,0,1,4.319,28.2L22.836,9.682l3.45,3.45Zm24.4-24.4L28.4,11,24.951,7.56,28.712,3.8a2.437,2.437,0,0,1,3.443,3.45Z" transform="translate(0 -0.088)"/>
</svg>
