<svg id="GO_LIVE" data-name="GO LIVE" xmlns="http://www.w3.org/2000/svg" width="37" height="37" viewBox="0 0 37 37">
  <path id="Line_32" data-name="Line 32" d="M0,22.191a1.5,1.5,0,0,1-1.5-1.5V0A1.5,1.5,0,0,1,0-1.5,1.5,1.5,0,0,1,1.5,0V20.691A1.5,1.5,0,0,1,0,22.191Z" transform="translate(18.846 1.5)"/>
  <path id="Path_3" data-name="Path 3" d="M530.9,3825.051a1.5,1.5,0,0,1-1.147-2.466l5.989-7.116a1.5,1.5,0,0,1,2.3,1.932l-5.989,7.116A1.5,1.5,0,0,1,530.9,3825.051Z" transform="translate(-518.183 -3814.935)"/>
  <path id="Path_4" data-name="Path 4" d="M536.889,3825.051a1.5,1.5,0,0,1-1.148-.534l-5.989-7.116a1.5,1.5,0,1,1,2.3-1.932l5.989,7.116a1.5,1.5,0,0,1-1.147,2.466Z" transform="translate(-511.913 -3814.935)"/>
  <path id="Subtraction_1" data-name="Subtraction 1" d="M33-3309H4a4,4,0,0,1-4-4v-15a4,4,0,0,1,4-4h6.5v3H4a1,1,0,0,0-1,1v15a1,1,0,0,0,1,1H33a1,1,0,0,0,1-1v-15a1,1,0,0,0-1-1H27.5v-3H33a4,4,0,0,1,4,4v15A4,4,0,0,1,33-3309Z" transform="translate(0 3346)"/>
</svg>
