<svg id="help" xmlns="http://www.w3.org/2000/svg" width="36.6" height="36.6" viewBox="0 0 36.6 36.6">
  <path id="Path_8" data-name="Path 8" d="M18.3,0A18.3,18.3,0,1,0,36.6,18.3,18.3,18.3,0,0,0,18.3,0Zm0,33.55A15.25,15.25,0,1,1,33.55,18.3,15.25,15.25,0,0,1,18.3,33.55Z"/>
  <path id="Path_9" data-name="Path 9" d="M15.193,5.1A6.1,6.1,0,0,0,8,11.1a1.525,1.525,0,1,0,3.05,0,3.05,3.05,0,0,1,3.616-3,3.087,3.087,0,0,1,2.44,2.432,3.05,3.05,0,0,1-1.525,3.241,6.03,6.03,0,0,0-3.006,5.344v1.133a1.525,1.525,0,0,0,3.05,0V19.118a3.023,3.023,0,0,1,1.418-2.672A6.1,6.1,0,0,0,15.193,5.1Z" transform="translate(4.2 2.624)"/>
  <rect id="Rectangle_10" data-name="Rectangle 10" width="3" height="3" rx="1" transform="translate(17 25.6)"/>
</svg>
