<svg xmlns="http://www.w3.org/2000/svg" width="35.703" height="35.711" viewBox="0 0 35.703 35.711">
  <g id="link" transform="translate(0)">
    <path id="Path_5" data-name="Path 5" d="M20.6,21.569l-4.853,4.853A7.48,7.48,0,1,1,5.165,15.845l4.854-4.857a1.488,1.488,0,1,0-2.105-2.1L3.062,13.742A10.457,10.457,0,1,0,17.853,28.526l4.853-4.853a1.488,1.488,0,1,0-2.1-2.1Z" transform="translate(0 4.121)"/>
    <path id="Path_6" data-name="Path 6" d="M28.528,3.066A10.383,10.383,0,0,0,21.135,0h0a10.389,10.389,0,0,0-7.391,3.06L8.883,7.915a1.488,1.488,0,1,0,2.1,2.105l4.858-4.853a7.429,7.429,0,0,1,5.288-2.192h0a7.481,7.481,0,0,1,5.288,12.77L21.566,20.6A1.489,1.489,0,0,0,23.672,22.7l4.853-4.85a10.47,10.47,0,0,0,0-14.787Z" transform="translate(4.12 0)"/>
    <path id="Path_7" data-name="Path 7" d="M17.363,8.436,8.436,17.363a1.488,1.488,0,1,0,2.1,2.1l8.927-8.927a1.488,1.488,0,1,0-2.1-2.1Z" transform="translate(3.902 3.902)"/>
  </g>
</svg>
