<svg xmlns="http://www.w3.org/2000/svg" width="31.25" height="37.5" viewBox="0 0 31.25 37.5">
  <g id="lock" transform="translate(-2)">
    <path id="Path_16" data-name="Path 16" d="M28.563,13.162V10.938a10.937,10.937,0,1,0-21.875,0v2.225A7.812,7.812,0,0,0,2,20.313v9.375A7.822,7.822,0,0,0,9.813,37.5H25.438a7.822,7.822,0,0,0,7.813-7.812V20.313A7.812,7.812,0,0,0,28.563,13.162ZM9.813,10.938a7.813,7.813,0,0,1,15.625,0V12.5H9.813Zm20.313,18.75a4.687,4.687,0,0,1-4.687,4.688H9.813a4.687,4.687,0,0,1-4.687-4.687V20.313a4.688,4.688,0,0,1,4.688-4.687H25.438a4.688,4.688,0,0,1,4.688,4.688Z"/>
    <path id="Path_17" data-name="Path 17" d="M12.563,14A1.563,1.563,0,0,0,11,15.563v3.125a1.563,1.563,0,0,0,3.125,0V15.563A1.563,1.563,0,0,0,12.563,14Z" transform="translate(5.063 7.875)"/>
  </g>
</svg>
