<svg xmlns="http://www.w3.org/2000/svg" width="37" height="37" viewBox="0 0 37 37">
  <g id="offline" transform="translate(-6450.777 2067)">
    <path id="globe" d="M14.4,0A14.4,14.4,0,1,0,28.8,14.4,14.4,14.4,0,0,0,14.4,0ZM24.776,8.4H20.911a23.611,23.611,0,0,0-3.385-5.573A12.037,12.037,0,0,1,24.776,8.4Zm-4.976,6a12.253,12.253,0,0,1-.571,3.6H9.571A12.253,12.253,0,0,1,9,14.4a12.253,12.253,0,0,1,.571-3.6h9.658a12.253,12.253,0,0,1,.571,3.6Zm-9.266,6h7.733A23.537,23.537,0,0,1,14.4,25.906,23.484,23.484,0,0,1,10.534,20.4Zm0-12A23.537,23.537,0,0,1,14.4,2.894,23.484,23.484,0,0,1,18.266,8.4Zm.746-5.573A23.611,23.611,0,0,0,7.889,8.4H4.024A12.037,12.037,0,0,1,11.28,2.827ZM2.953,10.8H7.08a14.419,14.419,0,0,0-.48,3.6A14.419,14.419,0,0,0,7.08,18H2.953a11.99,11.99,0,0,1,0-7.2Zm1.07,9.6H7.889a23.611,23.611,0,0,0,3.391,5.573A12.037,12.037,0,0,1,4.024,20.4Zm13.5,5.573A23.611,23.611,0,0,0,20.911,20.4h3.865a12.037,12.037,0,0,1-7.25,5.573ZM25.847,18H21.72a14.419,14.419,0,0,0,.48-3.6,14.419,14.419,0,0,0-.48-3.6h4.124a11.99,11.99,0,0,1,0,7.2Z" transform="translate(6456.659 -2062.15)"/>
    <path id="Line_185" data-name="Line 185" d="M0,35.5a1.5,1.5,0,0,1-1.061-.439,1.5,1.5,0,0,1,0-2.121l34-34a1.5,1.5,0,0,1,2.121,0,1.5,1.5,0,0,1,0,2.121l-34,34A1.5,1.5,0,0,1,0,35.5Z" transform="translate(6452.277 -2065.5)"/>
  </g>
</svg>
