<svg xmlns="http://www.w3.org/2000/svg" width="29.189" height="37.103" viewBox="0 0 29.189 37.103">
  <g id="overview" transform="translate(-4979.555 277.875)">
    <path id="Path_38" data-name="Path 38" d="M130.748,73.424a4.686,4.686,0,1,1,4.686-4.686,4.691,4.691,0,0,1-4.686,4.686m0-7.1a2.412,2.412,0,1,0,2.412,2.412,2.444,2.444,0,0,0-2.412-2.412" transform="translate(4853.493 -328.197)"/>
    <path id="Line_134" data-name="Line 134" d="M13.786,1.085H0V-1.5H13.786Z" transform="translate(4987.262 -259.251)"/>
    <path id="Subtraction_5" data-name="Subtraction 5" d="M8.616,31.017H5.6a5.607,5.607,0,0,1-5.6-5.6V5.6A5.607,5.607,0,0,1,5.6,0H8.616V2.585H5.6A3.019,3.019,0,0,0,2.585,5.6V25.416A3.019,3.019,0,0,0,5.6,28.432H8.616v2.584Z" transform="translate(4992.432 -274.967)"/>
    <path id="Path_35" data-name="Path 35" d="M130.748,73.424a4.686,4.686,0,1,1,4.686-4.686,4.691,4.691,0,0,1-4.686,4.686m0-7.1a2.412,2.412,0,1,0,2.412,2.412,2.444,2.444,0,0,0-2.412-2.412" transform="translate(4873.31 -341.928)"/>
    <path id="Path_36" data-name="Path 36" d="M130.748,73.424a4.686,4.686,0,1,1,4.686-4.686,4.691,4.691,0,0,1-4.686,4.686m0-7.1a2.412,2.412,0,1,0,2.412,2.412,2.444,2.444,0,0,0-2.412-2.412" transform="translate(4873.31 -328.197)"/>
    <path id="Path_37" data-name="Path 37" d="M130.748,73.424a4.686,4.686,0,1,1,4.686-4.686,4.691,4.691,0,0,1-4.686,4.686m0-7.1a2.412,2.412,0,1,0,2.412,2.412,2.444,2.444,0,0,0-2.412-2.412" transform="translate(4873.31 -314.196)"/>
  </g>
</svg>
