<svg xmlns="http://www.w3.org/2000/svg" width="36.548" height="37.154" viewBox="0 0 36.548 37.154"><g transform="translate(-1086.5 -404)"><g transform="translate(1086.5 404)"><path d="M1117.8,406.524a2.726,2.726,0,0,1,0,5.452H1091.75a2.726,2.726,0,0,1,0-5.452H1117.8m0-2.524H1091.75a5.214,5.214,0,0,0-5.25,5.25h0a5.214,5.214,0,0,0,5.25,5.25H1117.8a5.214,5.214,0,0,0,5.25-5.25h0a5.278,5.278,0,0,0-5.25-5.25Z" transform="translate(-1086.5 -404)"/></g><g transform="translate(1099.322 417.731)"><path d="M1117.676,420.124a2.726,2.726,0,0,1,0,5.452H1104.45a2.726,2.726,0,1,1,0-5.452h13.226m0-2.524H1104.45a5.25,5.25,0,1,0,0,10.5h13.226a5.214,5.214,0,0,0,5.25-5.25,5.278,5.278,0,0,0-5.25-5.25Z" transform="translate(-1099.2 -417.6)"/></g><g transform="translate(1099.322 430.654)"><path d="M1117.676,432.924a2.726,2.726,0,0,1,0,5.452H1104.45a2.726,2.726,0,1,1,0-5.452h13.226m0-2.524H1104.45a5.25,5.25,0,1,0,0,10.5h13.226a5.214,5.214,0,0,0,5.25-5.25,5.278,5.278,0,0,0-5.25-5.25Z" transform="translate(-1099.2 -430.4)"/></g><path d="M1100.29,437.17h-4.24a5.144,5.144,0,0,1-5.2-5.2V414.1h2.524v17.87a2.617,2.617,0,0,0,2.676,2.675h4.24Z" transform="translate(0.042 0.097)"/><path d="M7.673,1.274H0V-1.25H7.673Z" transform="translate(1092.457 422.969)"/></g></svg>