<svg xmlns="http://www.w3.org/2000/svg" width="37" height="38.193" viewBox="0 0 37 38.193">
  <g id="put_on_website" data-name="put on website" transform="translate(-6645.777 2067.001)">
    <path id="Subtraction_6" data-name="Subtraction 6" d="M13.5-3305H5a5.187,5.187,0,0,1-5-5.345v-20.31A5.187,5.187,0,0,1,5-3336H32a5.187,5.187,0,0,1,5,5.345v20.31A5.187,5.187,0,0,1,32-3305H24.5v-3.208H32a2.075,2.075,0,0,0,2-2.137v-20.31a2.075,2.075,0,0,0-2-2.138H5a2.075,2.075,0,0,0-2,2.138v20.31a2.075,2.075,0,0,0,2,2.137h8.5V-3305Z" transform="translate(6645.777 1269)"/>
    <path id="Line_40" data-name="Line 40" d="M34,1.5H0v-3H34Z" transform="translate(6647.248 -2056.5)"/>
    <circle id="Ellipse_21" data-name="Ellipse 21" cx="1.5" cy="1.5" r="1.5" transform="translate(6650.777 -2062)"/>
    <circle id="Ellipse_22" data-name="Ellipse 22" cx="1.5" cy="1.5" r="1.5" transform="translate(6655.777 -2062)"/>
    <path id="Line_32" data-name="Line 32" d="M0,22.191a1.5,1.5,0,0,1-1.5-1.5V0A1.5,1.5,0,0,1,0-1.5,1.5,1.5,0,0,1,1.5,0V20.691A1.5,1.5,0,0,1,0,22.191Z" transform="translate(6664.248 -2051)"/>
    <path id="Path_3" data-name="Path 3" d="M530.9,3825.051a1.5,1.5,0,0,1-1.147-2.466l5.989-7.116a1.5,1.5,0,0,1,2.3,1.932l-5.989,7.116A1.5,1.5,0,0,1,530.9,3825.051Z" transform="translate(6127.219 -5867.435)"/>
    <path id="Path_4" data-name="Path 4" d="M536.889,3825.051a1.5,1.5,0,0,1-1.148-.534l-5.989-7.116a1.5,1.5,0,1,1,2.3-1.932l5.989,7.116a1.5,1.5,0,0,1-1.147,2.466Z" transform="translate(6133.489 -5867.435)"/>
  </g>
</svg>
