<svg xmlns="http://www.w3.org/2000/svg" width="38.001" height="38" viewBox="0 0 38.001 38">
  <path id="quick_edit" data-name="quick edit" d="M28.547,14.4a4.843,4.843,0,0,0-1.43-3.437,4.986,4.986,0,0,0-6.884,0L1.384,29.813a4.867,4.867,0,0,0,6.878,6.879L27.117,17.84a4.84,4.84,0,0,0,1.43-3.442ZM6.016,34.45a1.727,1.727,0,0,1-2.383,0,1.687,1.687,0,0,1,0-2.383L15.974,19.725l2.391,2.391ZM24.874,15.592,20.6,19.863l-2.383-2.391,4.271-4.27a1.689,1.689,0,1,1,2.383,2.383ZM7.679,4.535l2.462-.7.7-2.462a1.892,1.892,0,0,1,3.638,0l.7,2.462,2.462.7a1.892,1.892,0,0,1,0,3.638l-2.462.7-.7,2.462a1.892,1.892,0,0,1-3.638,0l-.7-2.462-2.462-.7a1.892,1.892,0,0,1,0-3.638Zm29.027,22.7-2.462.7-.7,2.462a1.892,1.892,0,0,1-3.638,0l-.7-2.462-2.462-.7a1.892,1.892,0,0,1,0-3.638l2.462-.7.7-2.462a1.892,1.892,0,0,1,3.638,0l.7,2.462,2.462.7a1.892,1.892,0,0,1,0,3.638ZM28.157,3.971l2.154-.615L30.929,1.2a1.655,1.655,0,0,1,3.177,0l.615,2.154,2.154.615a1.655,1.655,0,0,1,0,3.177l-2.154.615-.615,2.159a1.655,1.655,0,0,1-3.177,0l-.615-2.152-2.157-.618a1.655,1.655,0,0,1,0-3.177Z" transform="translate(-0.077 0)"/>
</svg>
