<svg id="REDO" xmlns="http://www.w3.org/2000/svg" width="38.359" height="38" viewBox="0 0 38.359 38">
  <path id="redo-alt" d="M27.017,23.682a1.561,1.561,0,0,0,2.26,0l7.912-8.189a4.238,4.238,0,0,0,0-5.849L29.275,1.458a1.56,1.56,0,0,0-2.2.055,1.7,1.7,0,0,0-.055,2.28l6.874,7.113H7.993A8.136,8.136,0,0,0,0,19.178v11.58a8.146,8.146,0,0,0,7.993,8.271H30.374a1.655,1.655,0,0,0,0-3.309H7.993a4.881,4.881,0,0,1-4.8-4.963V19.178a4.881,4.881,0,0,1,4.8-4.963H33.91l-6.893,7.128A1.7,1.7,0,0,0,27.017,23.682Z" transform="translate(0 -1.029)"/>
</svg>
