<svg id="SAVE" xmlns="http://www.w3.org/2000/svg" width="37.5" height="37.5" viewBox="0 0 37.5 37.5">
  <path id="Path_1" data-name="Path 1" d="M14.25,10a6.25,6.25,0,1,0,6.25,6.25A6.25,6.25,0,0,0,14.25,10Zm0,9.375a3.125,3.125,0,1,1,3.125-3.125A3.125,3.125,0,0,1,14.25,19.375Z" transform="translate(4.5 5.625)"/>
  <path id="Path_2" data-name="Path 2" d="M35.212,6.441,31.059,2.288A7.759,7.759,0,0,0,25.536,0H7.812A7.822,7.822,0,0,0,0,7.813V29.688A7.822,7.822,0,0,0,7.812,37.5H29.687A7.822,7.822,0,0,0,37.5,29.688V11.964a7.759,7.759,0,0,0-2.288-5.523ZM26.562,3.25V4.688a4.687,4.687,0,0,1-4.687,4.687h-6.25a4.687,4.687,0,0,1-4.687-4.687V3.125h14.6a4.614,4.614,0,0,1,1.027.125Zm7.812,26.437a4.687,4.687,0,0,1-4.687,4.688H7.812a4.687,4.687,0,0,1-4.687-4.688V7.813A4.687,4.687,0,0,1,7.812,3.125V4.688A7.822,7.822,0,0,0,15.625,12.5h6.25a7.8,7.8,0,0,0,7.753-7.225L33,8.65a4.719,4.719,0,0,1,1.372,3.314Z" transform="translate(0 0)"/>
</svg>
