<svg id="SETTINGS" xmlns="http://www.w3.org/2000/svg" xmlns:xlink="http://www.w3.org/1999/xlink" width="37.996" height="38" viewBox="0 0 37.996 38">
  <defs>
    <clipPath id="clip-path">
      <path id="Path_94" data-name="Path 94" d="M6.317-25A6.317,6.317,0,0,0,0-18.683H0V6.683A6.318,6.318,0,0,0,6.317,13H31.678A6.318,6.318,0,0,0,38,6.683h0V-18.683A6.317,6.317,0,0,0,31.678-25H6.317Z" transform="translate(0 25)" fill="none"/>
    </clipPath>
  </defs>
  <g id="Group_162" data-name="Group 162" clip-path="url(#clip-path)">
    <g id="Group_159" data-name="Group 159" transform="translate(0.001 0)">
      <path id="Path_91" data-name="Path 91" d="M3.971,1.084A2.771,2.771,0,1,1,1.2,3.853,2.77,2.77,0,0,1,3.971,1.084M-6.055,5.437h4.332a5.9,5.9,0,0,0,11.389,0H28.775a1.583,1.583,0,1,0,0-3.166H9.667a5.9,5.9,0,0,0-11.389,0H-6.055A1.582,1.582,0,0,0-7.637,3.853,1.582,1.582,0,0,0-6.055,5.437" transform="translate(7.637 2.084)"/>
    </g>
    <g id="Group_160" data-name="Group 160" transform="translate(0 13.06)">
      <path id="Path_92" data-name="Path 92" d="M9.027,2.98A2.771,2.771,0,1,1,11.8.21,2.77,2.77,0,0,1,9.027,2.98M19.053-1.373H14.721a5.9,5.9,0,0,0-11.388,0H-15.776A1.583,1.583,0,0,0-17.36.21a1.583,1.583,0,0,0,1.584,1.582H3.333a5.9,5.9,0,0,0,11.388,0h4.332A1.582,1.582,0,0,0,20.635.21a1.582,1.582,0,0,0-1.582-1.584" transform="translate(17.36 5.731)"/>
    </g>
    <g id="Group_161" data-name="Group 161" transform="translate(0.001 26.122)">
      <path id="Path_93" data-name="Path 93" d="M3.971,2.98A2.771,2.771,0,1,1,6.741.21,2.773,2.773,0,0,1,3.971,2.98m24.8-4.353H9.667a5.9,5.9,0,0,0-11.389,0H-6.055A1.582,1.582,0,0,0-7.637.21,1.582,1.582,0,0,0-6.055,1.792h4.332A5.9,5.9,0,0,0,5.52,5.939,5.894,5.894,0,0,0,9.667,1.792H28.775a1.583,1.583,0,1,0,0-3.166" transform="translate(7.637 5.73)"/>
    </g>
  </g>
</svg>
