<svg id="TABS" xmlns="http://www.w3.org/2000/svg" width="37.284" height="29.367" viewBox="0 0 37.284 29.367">
  <path id="Line_6" data-name="Line 6" d="M34.084,1.6H0A1.6,1.6,0,0,1-1.6,0,1.6,1.6,0,0,1,0-1.6H34.084a1.6,1.6,0,0,1,1.6,1.6A1.6,1.6,0,0,1,34.084,1.6Z" transform="translate(1.6 1.6)"/>
  <path id="Line_7" data-name="Line 7" d="M34.084,1.6H0A1.6,1.6,0,0,1-1.6,0,1.6,1.6,0,0,1,0-1.6H34.084a1.6,1.6,0,0,1,1.6,1.6A1.6,1.6,0,0,1,34.084,1.6Z" transform="translate(1.6 14.684)"/>
  <path id="Line_8" data-name="Line 8" d="M34.084,1.6H0A1.6,1.6,0,0,1-1.6,0,1.6,1.6,0,0,1,0-1.6H34.084a1.6,1.6,0,0,1,1.6,1.6A1.6,1.6,0,0,1,34.084,1.6Z" transform="translate(1.6 27.767)"/>
</svg>
