<svg xmlns="http://www.w3.org/2000/svg" width="37.141" height="37.141" viewBox="0 0 37.141 37.141">
  <path id="text" d="M29.4,0H7.738A7.747,7.747,0,0,0,0,7.738V29.4a7.747,7.747,0,0,0,7.738,7.738H29.4A7.747,7.747,0,0,0,37.141,29.4V7.738A7.747,7.747,0,0,0,29.4,0Zm4.643,29.4A4.643,4.643,0,0,1,29.4,34.045H7.738A4.643,4.643,0,0,1,3.1,29.4V7.738A4.643,4.643,0,0,1,7.738,3.1H29.4a4.643,4.643,0,0,1,4.643,4.643Zm-6.19-15.475a1.548,1.548,0,1,1-3.1,0,1.548,1.548,0,0,0-1.548-1.548h-3.1V24.76h1.548a1.548,1.548,0,0,1,0,3.1h-6.19a1.548,1.548,0,1,1,0-3.1h1.548V12.38h-3.1a1.548,1.548,0,0,0-1.548,1.548,1.548,1.548,0,1,1-3.1,0,4.643,4.643,0,0,1,4.643-4.643h9.285A4.643,4.643,0,0,1,27.855,13.928Z"/>
</svg>
