<svg id="UNDO" xmlns="http://www.w3.org/2000/svg" width="38.5" height="38" viewBox="0 0 38.5 38">
  <path id="redo-alt" d="M11.384,23.682a1.571,1.571,0,0,1-2.269,0L1.175,15.494a4.227,4.227,0,0,1,0-5.849L9.117,1.458a1.57,1.57,0,0,1,2.212.055,1.692,1.692,0,0,1,.055,2.28l-6.9,7.113H30.478A8.15,8.15,0,0,1,38.5,19.178v11.58a8.159,8.159,0,0,1-8.022,8.271H8.015a1.655,1.655,0,0,1,0-3.308H30.478a4.89,4.89,0,0,0,4.813-4.963V19.178a4.89,4.89,0,0,0-4.813-4.963H4.466l6.918,7.128A1.691,1.691,0,0,1,11.384,23.682Z" transform="translate(0 -1.029)"/>
</svg>
