<svg xmlns="http://www.w3.org/2000/svg" width="31.246" height="37.5" viewBox="0 0 31.246 37.5">
  <g id="unlock" transform="translate(-2 0.003)">
    <path id="Path_14" data-name="Path 14" d="M25.435,12.5H9.812V10.938A7.812,7.812,0,0,1,24.458,7.154a1.563,1.563,0,0,0,2.732-1.517,10.936,10.936,0,0,0-20.5,5.3v2.225A7.812,7.812,0,0,0,2,20.312v9.374A7.821,7.821,0,0,0,9.812,37.5H25.435a7.821,7.821,0,0,0,7.812-7.812V20.312A7.821,7.821,0,0,0,25.435,12.5Zm4.687,17.185a4.687,4.687,0,0,1-4.687,4.687H9.812a4.687,4.687,0,0,1-4.687-4.687V20.312a4.687,4.687,0,0,1,4.687-4.687H25.435a4.687,4.687,0,0,1,4.687,4.687Z" transform="translate(0 0)"/>
    <path id="Path_15" data-name="Path 15" d="M12.562,14A1.562,1.562,0,0,0,11,15.562v3.125a1.562,1.562,0,1,0,3.125,0V15.562A1.562,1.562,0,0,0,12.562,14Z" transform="translate(5.061 7.874)"/>
  </g>
</svg>
