<svg xmlns="http://www.w3.org/2000/svg" width="28.084" height="37.446" viewBox="0 0 28.084 37.446">
  <g id="user" transform="translate(-3)">
    <path id="Path_24" data-name="Path 24" d="M15.361,18.723A9.361,9.361,0,1,0,6,9.361a9.361,9.361,0,0,0,9.361,9.361Zm0-15.6A6.241,6.241,0,1,1,9.12,9.361,6.241,6.241,0,0,1,15.361,3.12Z" transform="translate(1.681)"/>
    <path id="Path_25" data-name="Path 25" d="M17.042,14A14.058,14.058,0,0,0,3,28.042a1.56,1.56,0,1,0,3.12,0,10.922,10.922,0,0,1,21.843,0,1.56,1.56,0,0,0,3.12,0A14.058,14.058,0,0,0,17.042,14Z" transform="translate(0 7.843)"/>
  </g>
</svg>
