<svg xmlns="http://www.w3.org/2000/svg" width="121" height="103" viewBox="0 0 146 125" style="image-rendering:optimizeQuality;shape-rendering:geometricPrecision;text-rendering:geometricPrecision"><path d="M61 0c-34 0-61 8-61 19l0 11 45 46 0 37c0 5 7 8 16 8 8 0 15-3 15-8l0-37 45-46 0-11c0-11-27-19-60-19zm45 62l16 0 0 23 24 0 0 17-24 0 0 23-16 0 0-23-23 0 0-17 23 0 0-23zm-95-46c3-1 7-3 12-4 10-3 24-5 38-5 13 0 27 2 37 5 5 1 9 2 12 4 2 1 3 2 3 3 0 0-1 1-3 3-3 1-7 3-12 4-10 3-24 5-37 5-14 0-28-2-38-5-5-1-9-3-12-4-2-2-3-2-3-3 0 0 1-2 3-3z"/></svg>