<svg xmlns="http://www.w3.org/2000/svg" width="200" height="200" viewBox="0 0 2000 2000" style="image-rendering:optimizeQuality;shape-rendering:geometricPrecision;text-rendering:geometricPrecision"><path d="M196 367l384 0 0-111c0-141 108-255 242-255 134 0 242 114 242 255l0 111 384 0c108 0 196 88 196 196l0 378 100 0c141 0 256 109 256 243 0 133-115 242-256 242l-100 0 0 378c0 108-88 196-196 196l-370 0 0-155c0-142-115-256-256-256-141 0-256 114-256 256l0 155-370 0c-108 0-196-88-196-196l0-365 155 0c141 0 256-114 256-255 0-142-115-256-256-256l-155 0 0-365c0-108 88-196 196-196z"/></svg>