<svg xmlns="http://www.w3.org/2000/svg" version="1.1" x="0" y="0" viewBox="0 0 16 13" enable-background="new 0 0 16 13" xml:space="preserve"><g transform="translate(480 0)"><path d="M-475.25 7.5c0 1.8 1.45 3.25 3.25 3.25 1.8 0 3.25-1.45 3.25-3.25 0-1.79-1.45-3.25-3.25-3.25C-473.8 4.25-475.25 5.71-475.25 7.5zM-465 2h-3.5c-0.25-1-0.5-2-1.5-2h-4c-1 0-1.25 1-1.5 2h-3.5c-0.55 0-1 0.45-1 1v9c0 0.55 0.45 1 1 1h14c0.55 0 1-0.45 1-1V3C-464 2.45-464.45 2-465 2zM-472 11.94c-2.45 0-4.44-1.99-4.44-4.44 0-2.45 1.99-4.44 4.44-4.44 2.45 0 4.44 1.99 4.44 4.44C-467.56 9.95-469.55 11.94-472 11.94zM-465 5h-2V4h2V5z"/></g></svg>