<svg xmlns="http://www.w3.org/2000/svg" xml:space="preserve" width="32" height="30" version="1.1" shape-rendering="geometricPrecision" text-rendering="geometricPrecision" image-rendering="optimizeQuality" fill-rule="evenodd" clip-rule="evenodd" viewBox="0 0 3000 3000"><path d="M120 120l0 0c159-160 420-160 580 0l729 729c39 39 103 39 142 0l730-729c159-160 420-160 579 0l0 0c160 159 160 420 0 580l-729 729c-39 39-39 103 0 142l730 730c159 159 159 420-1 579l0 1c-159 159-420 159-579 0l-730-730c-39-39-103-39-142 0l-730 730c-159 159-420 159-579-1l-1 0c-159-159-159-420 0-579l730-730c39-39 39-103 0-142l-729-729c-160-160-160-421 0-580z"></path></svg>