<svg xmlns="http://www.w3.org/2000/svg" xml:space="preserve" width="32" height="27" version="1.1" shape-rendering="geometricPrecision" text-rendering="geometricPrecision" image-rendering="optimizeQuality" fill-rule="evenodd" clip-rule="evenodd" viewBox="0 0 3000 2669"><path d="M192 2141l1256 505c116 46 241 21 329-67l135-136c119-119 119-312 0-431l-880-880c-119-119-313-119-431 0l-511 511c-75 74-104 173-83 276 21 104 87 183 185 222zM2001 1827l-828-828c-132-132-132-348 0-480l0 0c132-132 347-132 479 0l86 86c49 49 129 49 178 0l505-506c132-132 348-132 480 0l0 0c132 132 132 348 0 479l-506 506c-49 49-49 129 0 178l86 86c132 131 132 347 0 479l0 0c-132 132-348 132-480 0z"/></svg>