<svg xmlns="http://www.w3.org/2000/svg" xml:space="preserve" width="21" height="30" version="1.1" shape-rendering="geometricPrecision" text-rendering="geometricPrecision" image-rendering="optimizeQuality" fill-rule="evenodd" clip-rule="evenodd" viewBox="0 0 2100 2982"><path d="M220 772l406-3 2 0 1249 3c59 0 110 25 149 75 39 50 48 110 48 176l3 1575c1 225-370 384-571 384l-35 0-845 0-36 0c-200 0-562-197-562-422l-5-1537c0-67 9-126 48-176 39-50 90-75 149-75zm296 280l0 0c70 0 128 57 128 128l0 1291c0 71-58 129-128 129l0 0c-71 0-129-58-129-129l0-1291c0-71 58-128 129-128zm534 0l0 0c71 0 129 57 129 128l0 1291c0 71-58 129-129 129l0 0c-71 0-129-58-129-129l0-1291c0-71 58-128 129-128zm551 0l0 0c71 0 129 57 129 128l0 1291c0 71-58 129-129 129l0 0c-71 0-129-58-129-129l0-1291c0-71 58-128 129-128zM1990 336c45 73 81 153 108 237 4 16 2 32-8 45-10 13-24 21-41 21l-1998 0c-17 0-31-8-41-21-10-13-12-29-7-45 26-84 62-164 107-237 47-79 126-123 217-123l1446 0c92 0 170 44 217 123z"/><rect transform="matrix(7.44921E-015 0.358036 -0.281266 9.48241E-015 1350.64 0.0517578)" width="405" height="2137" rx="203" ry="203"/></svg>