<svg xmlns="http://www.w3.org/2000/svg" xml:space="preserve" width="30" height="22" version="1.1" shape-rendering="geometricPrecision" text-rendering="geometricPrecision" image-rendering="optimizeQuality" fill-rule="evenodd" clip-rule="evenodd" viewBox="0 0 3000 2186"><path d="M1107 2090l231 0c33 0 59-26 59-58l0-87c0-33-26-59-59-59l-1161 0c-97 0-177-80-177-177l0-1532c0-97 80-177 177-177l2646 0c97 0 177 80 177 177l0 1532c0 97-80 177-177 177l-1161 0c-33 0-59 26-59 59l0 87c0 32 26 58 59 58l231 0c27 0 48 22 48 48l0 0c0 27-21 48-48 48l-786 0c-27 0-48-21-48-48l0 0c0-26 21-48 48-48zm1532-324c21 0 37 17 37 37 0 21-16 38-37 38-21 0-37-17-37-38 0-20 16-37 37-37zm-2296-1544l2320 0c79 0 143 63 143 140l0 1207c0 77-64 140-143 140l-2320 0c-79 0-144-63-144-140l0-1207c0-77 65-140 144-140z"/></svg>