<svg id="Layer_1" data-name="Layer 1" xmlns="http://www.w3.org/2000/svg" viewBox="0 0 250 250"><defs><style>.cls-1{fill:#595959}.cls-2{fill:´ !important}</style></defs><path class="cls-1" d="M237.47 183.61h-10.92a3.28 3.28 0 1 1 0-6.55h7.83a3.28 3.28 0 0 1 6.37 1.09v2.19a3.27 3.27 0 0 1-3.28 3.27zm-24 0h-10.96a3.28 3.28 0 1 1 0-6.55h10.93a3.28 3.28 0 0 1 0 6.55zm-24 0h-11a3.28 3.28 0 1 1 0-6.55h10.93a3.28 3.28 0 0 1 0 6.55zm-24 0h-11.04a3.28 3.28 0 1 1 0-6.55h10.93a3.28 3.28 0 1 1 0 6.55zm-24 0h-11.08a3.28 3.28 0 1 1 0-6.55h10.93a3.28 3.28 0 1 1 0 6.55zm-24 0h-11.12a3.28 3.28 0 1 1 0-6.55h10.93a3.28 3.28 0 1 1 0 6.55zm-24 0H82.31a3.28 3.28 0 0 1 0-6.55h10.93a3.28 3.28 0 1 1 0 6.55zm-18.58-5.46a3.27 3.27 0 0 1-3.27-3.28v-10.93a3.28 3.28 0 0 1 6.55 0v10.93a3.28 3.28 0 0 1-3.51 3.28zm162.81-9.83a3.27 3.27 0 0 1-3.5-3.32v-10.89a3.28 3.28 0 1 1 6.55 0V165a3.28 3.28 0 0 1-3.28 3.32zM74.66 154.11a3.27 3.27 0 0 1-3.27-3.28v-10.92a3.28 3.28 0 1 1 6.55 0v10.92a3.28 3.28 0 0 1-3.28 3.28zm162.81-9.83a3.27 3.27 0 0 1-3.27-3.28v-10.93a3.28 3.28 0 1 1 6.55 0V141a3.28 3.28 0 0 1-3.28 3.28zM74.66 130.07a3.27 3.27 0 0 1-3.27-3.28v-10.92a3.28 3.28 0 1 1 6.55 0v10.92a3.28 3.28 0 0 1-3.28 3.28zm162.81-9.83a3.27 3.27 0 0 1-3.27-3.24v-11a3.28 3.28 0 0 1 6.55 0v11a3.28 3.28 0 0 1-3.28 3.24zM74.66 106a3.27 3.27 0 0 1-3.27-3.28V91.83a3.28 3.28 0 1 1 6.55 0v10.92a3.27 3.27 0 0 1-3.28 3.25zm162.81-9.8a3.27 3.27 0 0 1-3.27-3.28V82a3.28 3.28 0 0 1 6.55 0v10.92a3.28 3.28 0 0 1-3.28 3.28zM74.66 82a3.26 3.26 0 0 1-3.27-3.27V67.79a3.28 3.28 0 1 1 6.55 0v10.93A3.27 3.27 0 0 1 74.66 82zm162.81-9.83a3.27 3.27 0 0 1-3.27-3.28V58a3.28 3.28 0 1 1 6.55 0v10.88a3.28 3.28 0 0 1-3.28 3.28zM74.66 58a3.26 3.26 0 0 1-3.27-3.27V43.75a3.28 3.28 0 1 1 6.55 0v10.93A3.27 3.27 0 0 1 74.66 58zm162.81-9.83a3.27 3.27 0 0 1-3.27-3.28V33.92a3.28 3.28 0 1 1 6.55 0v10.92a3.28 3.28 0 0 1-3.28 3.28zM74.66 33.92a3.27 3.27 0 0 1-3.27-3.28V19.71a3.28 3.28 0 1 1 6.55 0v10.93a3.28 3.28 0 0 1-3.28 3.28zm162.81-9.84a3.27 3.27 0 0 1-3.27-3.28h-4.37a3.28 3.28 0 1 1 0-6.55h7.64a3.27 3.27 0 0 1 3.28 3.28v3.27a3.28 3.28 0 0 1-3.28 3.28zm-20.76-3.28h-10.92a3.28 3.28 0 1 1 0-6.55h10.92a3.28 3.28 0 1 1 0 6.55zm-24 0h-10.96a3.28 3.28 0 1 1 0-6.55h10.93a3.28 3.28 0 0 1 0 6.55zm-24 0h-11a3.28 3.28 0 1 1 0-6.55h10.93a3.28 3.28 0 0 1 0 6.55zm-24 0h-11.04a3.28 3.28 0 1 1 0-6.55h10.93a3.28 3.28 0 0 1 0 6.55zm-24 0h-11.08a3.28 3.28 0 1 1 0-6.55h10.93a3.28 3.28 0 1 1 0 6.55zm-24 0H85.59a3.28 3.28 0 1 1 0-6.55h10.93a3.28 3.28 0 1 1 0 6.55z"/><rect class="cls-1" x="10.2" y="65.05" width="169.37" height="169.37" rx="3.28"/><path d="M99 210.91a45.73 45.73 0 0 1-32.55-13.48l-11.9-11.9a20.69 20.69 0 0 1-6.1-14.72v-9a20.71 20.71 0 0 1 6.1-14.72l5.8-5.79v-13.65a11.89 11.89 0 0 1 18.5-9.88 11.9 11.9 0 0 1 22.46 0 11.89 11.89 0 0 1 17.84 6 11.89 11.89 0 0 1 18.51 9.88v38.66A38.7 38.7 0 0 1 99 210.91zM60.37 149.7l-1.6 1.59a14.8 14.8 0 0 0-4.35 10.52v9a14.82 14.82 0 0 0 4.35 10.51l11.9 11.89A39.83 39.83 0 0 0 99 205a32.75 32.75 0 0 0 32.71-32.7v-38.7a5.95 5.95 0 1 0-11.89 0v3a3 3 0 1 1-6 0v-8.92a5.95 5.95 0 0 0-11.89 0v8.92a3 3 0 1 1-6 0v-14.89a5.95 5.95 0 1 0-11.89 0v14.86a3 3 0 1 1-6 0v-8.92a6 6 0 0 0-11.9 0v26.75a3 3 0 1 1-5.94 0z" class="cls-2" /></svg>