<svg id="Layer_1" data-name="Layer 1" xmlns="http://www.w3.org/2000/svg" viewBox="0 0 250 250"><defs><style>.cls-1{fill:#595959}.cls-2{fill:#fff !important}</style></defs><path class="cls-1" d="M176.28 234.41h-10.92a3.28 3.28 0 1 1 0-6.55h7.83a3.28 3.28 0 0 1 6.37 1.09v2.19a3.27 3.27 0 0 1-3.28 3.27zm-24 0h-10.96a3.28 3.28 0 1 1 0-6.55h10.93a3.28 3.28 0 0 1 0 6.55zm-24 0h-11a3.28 3.28 0 1 1 0-6.55h10.93a3.28 3.28 0 0 1 0 6.55zm-24 0H93.24a3.28 3.28 0 1 1 0-6.55h10.93a3.28 3.28 0 0 1 0 6.55zm-24 0H69.2a3.28 3.28 0 1 1 0-6.55h10.93a3.28 3.28 0 1 1 0 6.55zm-24 0H45.16a3.28 3.28 0 1 1 0-6.55h10.93a3.28 3.28 0 1 1 0 6.55zm-24 0H21.12a3.28 3.28 0 0 1 0-6.55h10.93a3.28 3.28 0 1 1 0 6.55zM13.47 229a3.27 3.27 0 0 1-3.27-3.28v-10.98a3.28 3.28 0 0 1 6.55 0v10.93a3.28 3.28 0 0 1-3.28 3.33zm162.81-9.83a3.27 3.27 0 0 1-3.27-3.28v-10.98a3.28 3.28 0 1 1 6.55 0v10.93a3.28 3.28 0 0 1-3.28 3.28zM13.47 204.91a3.27 3.27 0 0 1-3.27-3.28v-10.92a3.28 3.28 0 1 1 6.55 0v10.92a3.28 3.28 0 0 1-3.28 3.28zm162.81-9.83a3.27 3.27 0 0 1-3.28-3.28v-10.93a3.28 3.28 0 1 1 6.55 0v10.93a3.28 3.28 0 0 1-3.27 3.28zM13.47 180.87a3.27 3.27 0 0 1-3.27-3.28v-10.92a3.28 3.28 0 1 1 6.55 0v10.92a3.28 3.28 0 0 1-3.28 3.28zM176.28 171a3.27 3.27 0 0 1-3.27-3.28v-10.89a3.28 3.28 0 1 1 6.55 0v10.93a3.28 3.28 0 0 1-3.28 3.24zM13.47 156.83a3.27 3.27 0 0 1-3.27-3.28v-10.92a3.28 3.28 0 1 1 6.55 0v10.92a3.27 3.27 0 0 1-3.28 3.28zM176.28 147a3.27 3.27 0 0 1-3.27-3.28v-10.93a3.28 3.28 0 0 1 6.55 0v10.93a3.28 3.28 0 0 1-3.28 3.28zM13.47 132.79a3.26 3.26 0 0 1-3.27-3.27v-10.93a3.28 3.28 0 1 1 6.55 0v10.93a3.27 3.27 0 0 1-3.28 3.27zM176.28 123a3.27 3.27 0 0 1-3.27-3.28v-10.97a3.28 3.28 0 0 1 6.55 0v10.93a3.28 3.28 0 0 1-3.28 3.32zM13.47 108.75a3.26 3.26 0 0 1-3.27-3.27V94.55a3.28 3.28 0 1 1 6.55 0v10.93a3.27 3.27 0 0 1-3.28 3.27zm162.81-9.83a3.27 3.27 0 0 1-3.28-3.28V84.72a3.28 3.28 0 1 1 6.55 0v10.92a3.28 3.28 0 0 1-3.27 3.28zM13.47 84.72a3.27 3.27 0 0 1-3.27-3.28V70.51a3.28 3.28 0 1 1 6.55 0v10.93a3.28 3.28 0 0 1-3.28 3.28zm162.81-9.84A3.27 3.27 0 0 1 173 71.6h-4.37a3.28 3.28 0 1 1 0-6.55h7.64a3.28 3.28 0 0 1 3.28 3.28v3.27a3.28 3.28 0 0 1-3.27 3.28zm-20.76-3.28H144.6a3.28 3.28 0 1 1 0-6.55h10.92a3.28 3.28 0 1 1 0 6.55zm-24 0h-10.96a3.28 3.28 0 1 1 0-6.55h10.92a3.28 3.28 0 1 1 0 6.55zm-24 0h-11a3.28 3.28 0 1 1 0-6.55h10.93a3.28 3.28 0 0 1 0 6.55zm-24 0H72.48a3.28 3.28 0 1 1 0-6.55h10.93a3.28 3.28 0 0 1 0 6.55zm-24 0H48.44a3.28 3.28 0 1 1 0-6.55h10.93a3.28 3.28 0 0 1 0 6.55zm-24 0H24.4a3.28 3.28 0 1 1 0-6.55h10.93a3.28 3.28 0 1 1 0 6.55z"/><rect class="cls-1" x="71.39" y="14.25" width="169.37" height="169.37" rx="3.28"/><path class="cls-2" d="M128.15 67.37a3 3 0 0 1-2.58-1.52 23.26 23.26 0 0 1-3-11.4 23.58 23.58 0 0 1 47.15 0 23.11 23.11 0 0 1-.91 6.18 2.92 2.92 0 0 1-3.62 2.07 3 3 0 0 1-2.07-3.62 17.37 17.37 0 0 0 .7-4.63 17.68 17.68 0 1 0-35.35 0 17.41 17.41 0 0 0 2.3 8.54 2.94 2.94 0 0 1-1.14 4 3 3 0 0 1-1.48.38z"/><path class="cls-2" d="M178.51 160.53H164.7a26.37 26.37 0 0 1-18.76-7.77l-42-42a8.84 8.84 0 0 1 0-12.5 15.46 15.46 0 0 1 20.09-1.43l10.24 7.68V54.45a11.79 11.79 0 0 1 23.57 0v19.27a11.67 11.67 0 0 1 5.89-1.59A11.81 11.81 0 0 1 174.9 80a11.77 11.77 0 0 1 17.68 5.89 11.79 11.79 0 0 1 18.34 9.79v32.41a32.46 32.46 0 0 1-32.41 32.44zM114.86 99.7a9.48 9.48 0 0 0-6.72 2.76 3 3 0 0 0 0 4.16l42 42a20.46 20.46 0 0 0 14.59 6h13.81A26.55 26.55 0 0 0 205 128.11V95.7a5.9 5.9 0 0 0-11.79 0v3a2.95 2.95 0 1 1-5.89 0v-8.89a5.9 5.9 0 0 0-11.79 0v8.84a2.95 2.95 0 1 1-5.89 0V83.92a5.9 5.9 0 1 0-11.79 0v14.73a2.95 2.95 0 1 1-5.89 0v-44.2a5.9 5.9 0 0 0-11.79 0v56a2.94 2.94 0 0 1-4.71 2.36l-15-11.21a9.47 9.47 0 0 0-5.6-1.9z"/></svg>