<svg xmlns="http://www.w3.org/2000/svg" width="100" height="50" viewBox="0 0 100 50" style="clip-rule:evenodd;fill-rule:evenodd;image-rendering:optimizeQuality;shape-rendering:geometricPrecision;text-rendering:geometricPrecision;version:1"><path d="M0 19l41 0 0 31-41 0 0-31zm12 9l18 0 0 13-18 0 0-13z"/><rect x="45" y="37" width="10" height="4.4"/><polygon points="18 15 18 0 82 0 82 15 78 15 78 4 22 4 22 15 "/><rect x="16" y="32" width="10" height="4.4"/><rect x="74" y="32" width="10" height="4.4"/><path d="M59 19l41 0 0 31-41 0 0-31zm11 9l18 0 0 13-18 0 0-13z"/></svg>