<svg xmlns="http://www.w3.org/2000/svg" width="99" height="97" viewBox="0 0 99 96" style="image-rendering:optimizeQuality;shape-rendering:geometricPrecision;text-rendering:geometricPrecision"><path d="M54 3l10 30 30 0c3 0 5 2 5 5 0 1-1 3-2 4l0 0-25 18 10 30c0 3-1 5-3 6-2 1-4 0-5-1l-24-18-25 18c-2 2-5 1-7-1-1-1-1-3-1-4l10-30-25-18c-2-2-3-5-1-7 1-1 2-2 4-2l30 0 10-30c1-2 3-4 6-3 1 1 3 2 3 3zm1 36l-5-18-6 18 0 0c-1 2-3 4-5 4l-20 0 16 12c2 1 3 3 2 5l-6 19 16-12c1-1 4-1 5 0l16 12-6-19c-1-2 0-4 2-5l16-12-20 0c-2 0-4-1-5-4z"/></svg>