<svg xmlns="http://www.w3.org/2000/svg" viewBox="0 0 250 250"><g id="Layer_2" data-name="Layer 2"><path d="M103.63,39.33a11.69,11.69,0,0,1,8.28,3.42l95.34,95.34a11.7,11.7,0,0,1,0,16.55l-52.61,52.61a11.72,11.72,0,0,1-16.55,0L42.75,111.91a11.7,11.7,0,0,1,0-16.55L95.36,42.75a11.67,11.67,0,0,1,8.27-3.42m0-14.27a25.79,25.79,0,0,0-18.36,7.61l-52.6,52.6a26,26,0,0,0,0,36.72L128,217.33a26,26,0,0,0,36.72,0l52.6-52.6a26,26,0,0,0,0-36.72L122,32.67a25.76,25.76,0,0,0-18.36-7.61Z"/><path d="M83.2,225.91l-.7-.29A109.11,109.11,0,0,1,15.8,125H2.11A122.8,122.8,0,0,0,125,247.89l-35.18-38Z"/><path d="M172,11.41l-.17-.06A121.75,121.75,0,0,0,125,2.11h0l35.18,38,6.61-16,.71.27A109.11,109.11,0,0,1,234.2,125h13.69A123,123,0,0,0,172,11.41Z"/></g></svg>