<svg xmlns="http://www.w3.org/2000/svg" xml:space="preserve" width="20" height="30" version="1.1" shape-rendering="geometricPrecision" text-rendering="geometricPrecision" image-rendering="optimizeQuality" fill-rule="evenodd" clip-rule="evenodd" viewBox="0 0 1900 2964"><path fill-rule="nonzero" stroke-width="0" d="M928 2915c-73 0-137-24-192-71-54-48-81-114-81-200 0-75 26-139 79-190 53-52 118-78 194-78 76 0 140 26 192 78 51 51 77 115 77 190 0 85-27 151-81 199-54 48-116 72-188 72zM49 802c0-113 37-229 111-347 73-116 180-214 320-291 141-77 305-115 492-115 174 0 328 32 461 97 133 64 236 151 309 262 72 110 109 231 109 360 0 102-21 192-63 269-41 77-90 143-147 198-57 56-159 150-307 283-41 37-73 69-98 98-25 28-43 54-55 77-12 23-21 47-28 70-6 23-17 65-29 124-23 125-95 187-215 187-62 0-115-20-158-61-43-41-64-102-64-182 0-101 16-188 47-262 31-74 73-139 124-195 52-56 122-122 210-199 76-67 132-118 166-152 35-34 64-73 87-114 23-42 35-88 35-137 0-96-36-178-107-243-72-66-164-100-277-100-132 0-229 34-292 101-62 66-115 165-158 295-41 135-119 202-233 202-67 0-124-23-170-71-46-47-70-98-70-154z"/></svg>