<svg xmlns="http://www.w3.org/2000/svg" width="108" height="135" viewBox="0 0 107 134" style="clip-rule:evenodd;fill-rule:evenodd;image-rendering:optimizeQuality;shape-rendering:geometricPrecision;text-rendering:geometricPrecision;version:1"><path d="M53 0c29 0 53 24 53 53 0 13-5 25-13 35-7-6-15-12-23-18 1 12 1 25 1 33-6 2-12 3-18 3-29 0-53-24-53-53 0-29 24-53 53-53zm-25 78c0 0 0 0 1 1 0 0 1 1 2 1 1 0 2 0 2 0 1 0 2 0 5-3 3-3 9-8 11-11 3-3 3-3 3-3 1 0 1 0 1 1 0 2 0 4 0 6 0 1 0 1-2 4-3 2-7 7-10 9-3 2-4 2-5 3-1 0-2 0-4-1-1 0-3 0-4-1-1-1-2-2-4-3-1-1-2-2-2-3-1-1-2-3-2-4 0-2 0-3 0-5 0-1 0-2 3-5 2-2 7-7 9-9 2-2 2-2 4-2 1 0 4 0 5 0 2 0 2 0 1 0 0 0 0 1-2 3-3 3-9 8-11 11-3 4-4 4-4 5 0 1 0 2 1 3 0 1 0 1 1 2 0 0 0 1 1 1zm36-36l0 0c1 1 1 3 0 4l-18 18c-1 1-3 1-4 0l0 0c-1-1-1-3 0-4l18-18c1-1 3-1 4 0zm14-14c0 0 1 0 1 1 0 0 1 1 1 2 0 1 0 1 0 2 0 1 0 2-3 5-3 3-8 8-11 11-3 3-3 3-3 3 0 0 0 1 1 1 2 0 5 0 6 0 1 0 1 0 4-2 2-3 7-7 9-10 2-3 3-4 3-5 0-1 0-3 0-4-1-2-1-3-2-4-1-1-1-3-3-4-1-1-2-2-3-2-1-1-3-2-4-2-2 0-3 0-4 0-2 0-3 0-5 3-3 2-8 6-10 9-2 2-2 2-2 4 0 1 0 4 0 5 0 1 0 1 0 1 1 0 1 0 3-3 3-2 8-8 12-11 3-2 3-3 4-3 1 0 2 0 3 1 1 0 1 0 2 1 0 0 1 0 1 1z"/><path d="M97 134c-3-8-7-16-10-24-4 3-7 6-10 9 0-13-1-26-1-38 10 7 19 14 29 22-4 1-8 3-13 4 5 7 10 14 15 21-3 2-7 4-10 6z"/></svg>