<svg xmlns="http://www.w3.org/2000/svg" xml:space="preserve" width="30" height="21" version="1.1" shape-rendering="geometricPrecision" text-rendering="geometricPrecision" image-rendering="optimizeQuality" fill-rule="evenodd" clip-rule="evenodd" viewBox="0 0 3000 2150"><path d="M439 0l2107 0c140 0 254 114 254 254l0 1262c0 139-114 253-254 253l-2107 0c-140 0-254-114-254-253l0-1262c0-140 114-254 254-254zm2011 1582c28 0 50 22 50 50 0 27-22 50-50 50-28 0-50-23-50-50 0-28 22-50 50-50zm-1798-1345l1677 0c101 0 183 83 183 183l0 913c0 101-82 184-183 184l-1677 0c-101 0-184-83-184-184l0-913c0-100 83-183 184-183zM67 1913l1151 0c13 0 25 8 28 21 10 31 41 66 79 66l350 0c38 0 69-35 80-67 4-12 15-20 28-20l1150 0c37 0 67 22 67 49l0 139c0 27-30 49-67 49l-2866 0c-37 0-67-22-67-49l0-139c0-27 30-49 67-49z"/></svg>