<svg xmlns="http://www.w3.org/2000/svg" version="1.1" x="0" y="0" viewBox="0 0 95.46 74.43" enable-background="new 0 0 95.459 74.429" xml:space="preserve"><path d="M95.46 7.89c0 1.9-1.56 3.46-3.46 3.46H3.46C1.56 11.35 0 9.79 0 7.89V3.46C0 1.56 1.56 0 3.46 0h88.54c1.9 0 3.46 1.56 3.46 3.46V7.89zM95.46 70.97c0 1.9-1.56 3.46-3.46 3.46H53.89c-1.9 0-3.46-1.56-3.46-3.46v-4.42c0-1.9 1.56-3.46 3.46-3.46h38.11c1.9 0 3.46 1.56 3.46 3.46V70.97zM45.03 70.97c0 1.9-1.56 3.46-3.46 3.46H3.46C1.56 74.43 0 72.87 0 70.97v-4.42c0-1.9 1.56-3.46 3.46-3.46h38.11c1.9 0 3.46 1.56 3.46 3.46V70.97zM19.81 49.94c0 1.9-1.56 3.46-3.46 3.46H3.46C1.56 53.4 0 51.85 0 49.94v-4.43c0-1.9 1.56-3.46 3.46-3.46h12.89c1.9 0 3.46 1.56 3.46 3.46V49.94zM48.49 42.06c-1.9 0-5.02 0-6.92 0H28.68c-1.9 0-3.46 1.56-3.46 3.46v4.43c0 1.9 1.56 3.46 3.46 3.46h12.89c1.9 0 5.02 0 6.92 0h18.29c1.9 0 3.46-1.56 3.46-3.46v-4.43c0-1.9-1.56-3.46-3.46-3.46H48.49zM95.46 49.94c0 1.9-1.56 3.46-3.46 3.46H79.11c-1.9 0-3.46-1.56-3.46-3.46v-4.43c0-1.9 1.56-3.46 3.46-3.46h12.89c1.9 0 3.46 1.56 3.46 3.46V49.94zM19.81 28.92c0 1.9-1.56 3.46-3.46 3.46H3.46C1.56 32.38 0 30.82 0 28.92v-4.43c0-1.9 1.56-3.46 3.46-3.46h12.89c1.9 0 3.46 1.56 3.46 3.46V28.92zM45.03 28.92c0 1.9-1.56 3.46-3.46 3.46H28.68c-1.9 0-3.46-1.56-3.46-3.46v-4.43c0-1.9 1.56-3.46 3.46-3.46h12.89c1.9 0 3.46 1.56 3.46 3.46V28.92zM70.24 28.92c0 1.9-1.56 3.46-3.46 3.46H53.89c-1.9 0-3.46-1.56-3.46-3.46v-4.43c0-1.9 1.56-3.46 3.46-3.46h12.89c1.9 0 3.46 1.56 3.46 3.46V28.92zM95.46 28.92c0 1.9-1.56 3.46-3.46 3.46H79.11c-1.9 0-3.46-1.56-3.46-3.46v-4.43c0-1.9 1.56-3.46 3.46-3.46h12.89c1.9 0 3.46 1.56 3.46 3.46V28.92z"/></svg>