<svg xmlns="http://www.w3.org/2000/svg" id="Layer_1" viewBox="0 0 400 400"><style type="text/css">
	.st0{fill:#FFFFFF !important ;stroke:#606161;stroke-width:7;stroke-miterlimit:10; }
	.st1{fill:#606161;}
</style><path class="st0" d="M367.2 377.2H138.3c-3.3 0-6-2.7-6-6V142.3c0-3.3 2.7-6 6-6h228.9c3.3 0 6 2.7 6 6v228.9C373.2 374.5 370.5 377.2 367.2 377.2z"/><path class="st1" d="M261.7 263.7H32.8c-3.3 0-6-2.7-6-6V28.8c0-3.3 2.7-6 6-6h228.9c3.3 0 6 2.7 6 6v228.9C267.7 261.1 265.1 263.7 261.7 263.7z"/></svg>
