<svg width="12" height="12" viewBox="0 0 12 12" fill="none" xmlns="http://www.w3.org/2000/svg">
<path d="M6.46055 8.29533L4.62405 10.1319C4.62405 10.1319 4.62405 10.1319 4.62401 10.1319C4.62401 10.1319 4.62401 10.132 4.62396 10.132C3.86451 10.8915 2.62872 10.8915 1.86919 10.132C1.50124 9.76402 1.29865 9.27482 1.29865 8.75454C1.29865 8.2343 1.50124 7.74518 1.86906 7.37723C1.8691 7.37719 1.86914 7.37715 1.86919 7.3771L3.70569 5.54056C3.95923 5.28697 3.95923 4.87582 3.70565 4.62228C3.45211 4.36874 3.04096 4.36874 2.78737 4.62228L0.95087 6.45883C0.95074 6.45896 0.95061 6.45913 0.95048 6.45926C0.337562 7.0724 0 7.88756 0 8.75454C0 9.62173 0.337692 10.437 0.950913 11.0502C1.58387 11.6832 2.41522 11.9996 3.24662 11.9996C4.07801 11.9996 4.90941 11.6832 5.54228 11.0502C5.54232 11.0502 5.54232 11.0502 5.54232 11.0502L7.37883 9.21361C7.63237 8.96007 7.63237 8.54892 7.37878 8.29533C7.12529 8.0418 6.71418 8.0418 6.46055 8.29533Z" fill="#F57B37"/>
<path d="M12.0029 3.24507C12.0029 2.37787 11.6651 1.56258 11.0519 0.94936C9.78603 -0.316475 7.72633 -0.316432 6.46054 0.94936C6.46049 0.949446 6.46041 0.94949 6.46036 0.949576L4.6239 2.78599C4.37032 3.03953 4.37032 3.45073 4.6239 3.70427C4.75074 3.8311 4.91688 3.89448 5.08306 3.89448C5.2492 3.89448 5.41543 3.83106 5.54218 3.70427L7.37864 1.86785C7.37868 1.86776 7.37877 1.86772 7.37885 1.86763C8.1383 1.10818 9.37409 1.10814 10.1336 1.86763C10.5015 2.23558 10.7042 2.72478 10.7042 3.24507C10.7042 3.7653 10.5016 4.25442 10.1338 4.62237L10.1336 4.6225L8.29713 6.45904C8.04359 6.71258 8.04359 7.12373 8.29717 7.37732C8.42396 7.50411 8.59014 7.56753 8.75628 7.56753C8.92247 7.56753 9.08865 7.50411 9.21544 7.37732L11.0519 5.54077C11.0521 5.54064 11.0522 5.54047 11.0523 5.54034C11.6653 4.9272 12.0029 4.11204 12.0029 3.24507Z" fill="#F57B37"/>
<path d="M3.70575 8.29568C3.83254 8.42247 3.99873 8.48589 4.16487 8.48589C4.33105 8.48589 4.49723 8.42247 4.62402 8.29568L8.29712 4.62259C8.5507 4.36905 8.5507 3.9579 8.29712 3.70431C8.04358 3.45078 7.63243 3.45078 7.37884 3.70431L3.70575 7.37737C3.45217 7.63099 3.45217 8.04214 3.70575 8.29568Z" fill="#F57B37"/>
</svg>
