<svg xmlns="http://www.w3.org/2000/svg" width="500" height="500" viewBox="0 0 5000 5000" style="clip-rule:evenodd;fill-rule:evenodd;image-rendering:optimizeQuality;shape-rendering:geometricPrecision;text-rendering:geometricPrecision;version:1"><path d="M781 2264l126 0c-1-25-1-58-2-101-1-156-1-446 7-636 8-190 25-281 51-370 26-89 61-177 124-287 63-110 154-243 249-347 96-104 198-178 293-238 96-60 187-105 276-144 89-38 176-70 262-93 87-22 171-35 233-42 73-8 128-8 200 0 62 7 146 20 233 42 86 23 173 55 262 93 89 39 180 84 276 144 95 60 197 134 293 238 95 104 186 237 249 347 63 110 98 198 124 287 26 89 43 180 51 370 8 190 8 480 7 636-1 43-1 76-2 101l126 0c183 0 333 150 333 333l0 2070c0 183-150 333-333 333l-3438 0c-183 0-333-150-333-333l0-2070c0-183 150-333 333-333zm823 0l1792 0 0-364c1-15 1-34 2-61 0-84 0-240-4-342-5-102-15-150-30-198-15-48-35-95-72-154-36-60-89-131-144-187-56-55-114-95-170-127-55-32-108-57-159-77-52-21-102-38-152-50-50-12-108-24-162-25-62 0-113 10-172 25-50 12-100 29-152 50-51 20-104 45-159 77-56 32-114 72-170 127-55 56-108 127-144 187-37 59-57 106-72 154-15 48-25 96-30 198-4 102-4 258-4 342 1 27 1 46 2 61l0 364zm894 435c254 0 460 203 460 454 0 170-95 318-235 396l35 115 208 740c0 71-58 128-128 128l-340 0-336 0c-70 0-128-57-128-128l205-740 34-115c-140-78-235-226-235-396 0-251 206-454 460-454z"/></svg>