<svg xmlns="http://www.w3.org/2000/svg" xml:space="preserve" width="2550" height="3300" version="1.1" viewBox="0 0 2550 3300" style="image-rendering:optimizeQuality;shape-rendering:geometricPrecision;text-rendering:geometricPrecision"><path d="M968 2266c0-52 43-95 95-95l424 0c52 0 95 43 95 95l0 403c0 51-43 94-95 94l-424 0c-52 0-95-43-95-94l0-403zM968 1449c0-52 43-95 95-95l424 0c52 0 95 43 95 95l0 402c0 52-43 95-95 95l-424 0c-52 0-95-43-95-95l0-402zM968 631c0-51 43-94 95-94l424 0c52 0 95 43 95 94l0 403c0 52-43 95-95 95l-424 0c-52 0-95-43-95-95l0-403z"/></svg>