<svg xmlns="http://www.w3.org/2000/svg" width="2550" height="706" viewBox="0 0 25500 7058" style="image-rendering:optimizeQuality;shape-rendering:geometricPrecision;text-rendering:geometricPrecision"><path d="M24183 843l-3528 0 0 2363 1190 0 0 646-1190 0 0 2372 3528 0c722-9 1317-595 1317-1326l0-2737c0-723-595-1318-1317-1318zm-19338 0l-3528 0c-722 0-1317 595-1317 1318l0 2745c0 723 595 1318 1317 1318l3528 0 0-2372-1190 0 0-646 1190 0 0-2363z"/><path d="M8773 6962l-1297 0 0-3973 13-652 20-715c-215 242-365 399-449 474l-705 635-626-873 1978-1762 1066 0 0 6866zm5991 0l-4292 0 0-1009 1542-1743c457-522 755-884 894-1086 141-202 241-388 303-561 61-172 93-350 93-534 0-276-69-481-204-615-136-135-318-202-544-202-238 0-469 61-692 182-225 122-459 297-702 521l-705-934c302-287 551-491 750-611 200-118 416-210 651-274 236-64 499-96 790-96 384 0 722 79 1017 234 294 157 522 377 684 659 163 280 243 604 243 966 0 316-49 612-149 890-99 277-254 561-461 852-210 290-576 706-1104 1244l-789 830 0 66 2675 0 0 1221zm4669-5329c0 428-116 794-349 1093-232 302-557 507-977 621l0 27c495 69 870 237 1125 505 255 269 381 630 381 1083 0 662-213 1176-642 1544-428 368-1040 552-1835 552-667 0-1257-123-1772-371l0-1238c238 135 499 244 786 329 285 85 567 126 848 126 428 0 745-81 949-243 205-164 306-425 306-784 0-322-117-550-352-684-235-135-611-202-1127-202l-465 0 0-1116 474 0c477 0 824-69 1045-208 219-139 329-378 329-715 0-519-291-779-874-779-202 0-407 37-615 112-209 76-441 206-695 390l-601-999c560-450 1228-676 2003-676 636 0 1138 144 1506 431 368 289 552 689 552 1202z"/></svg>