<svg xmlns="http://www.w3.org/2000/svg" version="1.1" x="0" y="0" width="100" height="100" viewBox="0 0 100 100" enable-background="new 0 0 100 100" xml:space="preserve"><path d="M84.7 81c-0.2-4-6.2-15.9-6-20.5 0.2-5.2 3.3-11.7 9.9 0.9 4 7.6 10 2.9 10.8-0.8 2.2-11.1-1.1-24.5-11.6-37.5C69.6 0.4 37.6-5.8 16.4 9.1 -4.8 24.1-5.3 57.8 14.1 77.3c17.6 17.7 41.8 25.4 62 16.9C78.2 93.3 85.1 90.6 84.7 81zM27.9 15.4c3.8-2.7 9.1-1.8 11.8 2.1 2.7 3.8 1.8 9.1-2.1 11.8 -3.8 2.7-9.1 1.8-11.8-2.1C23.1 23.4 24 18.1 27.9 15.4zM11.3 49.9c-2.7-3.8-1.8-9.1 2.1-11.8 3.8-2.7 9.1-1.8 11.8 2 2.7 3.8 1.8 9.1-2.1 11.8C19.3 54.6 14 53.7 11.3 49.9zM52.5 27.8c-2.7-3.8-1.8-9.1 2.1-11.8 3.8-2.7 9.1-1.8 11.8 2.1 2.7 3.8 1.8 9.1-2.1 11.8C60.5 32.6 55.2 31.6 52.5 27.8zM23.8 71.5c-2.7-3.8-1.8-9.1 2.1-11.8 3.8-2.7 9.1-1.8 11.8 2.1 2.7 3.8 1.8 9.1-2.1 11.8C31.8 76.3 26.5 75.4 23.8 71.5z"/></svg>