<svg xmlns="http://www.w3.org/2000/svg" xml:space="preserve" width="31" height="30" version="1.1" shape-rendering="geometricPrecision" text-rendering="geometricPrecision" image-rendering="optimizeQuality" fill-rule="evenodd" clip-rule="evenodd" viewBox="0 0 3000 3000"><path d="M1500 0l0 0c173 0 315 142 315 315l0 792c0 43 35 78 78 78l792 0c173 0 315 142 315 315l0 0c0 173-142 315-315 315l-792 0c-43 0-78 35-78 78l0 792c0 173-142 315-315 315l0 0c-173 0-315-142-315-315l0-792c0-43-35-78-78-78l-792 0c-173 0-315-142-315-315l0 0c0-173 142-315 315-315l792 0c43 0 78-35 78-78l0-792c0-173 142-315 315-315z"/></svg>