<svg xmlns="http://www.w3.org/2000/svg" width="26px" height="28px" version="1.1" style="fill-rule:evenodd"
viewBox="0 0 26 28"><path d="M21 17c0,0 0,1 0,1 0,0 -10,10 -20,0 -1,0 -1,-1 0,-2 0,0 10,-10 20,1zm-6 0c0,-1 -1,-2 -2,-3 2,0 4,1 6,3 -1,1 -3,3 -5,3 0,0 1,-1 1,-3zm-7 -3c-1,1 -2,2 -2,3 0,2 1,3 2,3 -2,0 -4,-1 -6,-3 1,-1 3,-2 6,-3l0 0zm2 2c0,-1 0,-1 -1,-1 -1,0 -1,0 -1,1 0,0 0,1 1,1 1,0 1,-1 1,-1z"/><polygon points="26,10 26,6 20,6 20,0 16,0 16,10 "/><polygon points="2,28 26,28 26,6 20,0 2,0 2,11 6,11 6,3 18,3 23,8 23,25 6,25 6,23 2,23 "/></svg>