<svg xmlns="http://www.w3.org/2000/svg" version="1.1" x="0" y="0" viewBox="0 0 49.466 43.974" enable-background="new 0 0 49.466 43.974" xml:space="preserve"><path fill-rule="evenodd" clip-rule="evenodd" d="M31.707 15.363c-1.032-0.649-2.23-0.982-3.578-0.982 -0.949 0-1.848 0.183-2.646 0.533 -0.816 0.366-1.514 0.882-2.097 1.565 -0.583 0.682-1.049 1.564-1.382 2.63 -0.333 1.065-0.516 2.264-0.516 3.612 0 2.713 0.632 4.81 1.898 6.275 1.265 1.465 2.863 2.197 4.81 2.197 0.799 0 1.614-0.166 2.446-0.499 -0.499-0.383-1.132-0.749-1.897-1.132 -0.766-0.383-1.281-0.666-1.548-0.866 -0.283-0.2-0.416-0.499-0.416-0.865 0-0.316 0.133-0.599 0.399-0.849 0.266-0.25 0.566-0.366 0.882-0.366 0.982 0 2.613 0.816 4.927 2.446 0.666-0.766 1.165-1.664 1.481-2.713 0.316-1.048 0.483-2.247 0.483-3.628 0-1.731-0.283-3.229-0.832-4.494C33.538 16.977 32.739 16.012 31.707 15.363L31.707 15.363zM21.005 0c1.598 0 2.946 0.2 2.929 0.2 0.733 0.2 1.298 0.499 1.664 0.716C17.227 1.498 9.903 6.625 6.791 14.131c-3.562 8.605-0.999 18.857 6.458 25.132 -1.132-0.35-7.423-2.397-10.702-8.072 -2.197-3.795-2.48-8.256-2.513-8.772 0 0-0.033-0.749-0.033-1.431C0 9.387 9.404 0 21.005 0L21.005 0zM28.495 1.997c11.584 0 20.971 9.404 20.971 20.988 0 11.584-9.404 20.988-20.988 20.988 -11.584 0-20.988-9.387-20.988-20.988C7.49 11.384 16.894 1.997 28.495 1.997L28.495 1.997zM40.595 36.284c-0.316 0.349-0.699 0.516-1.148 0.516 -0.366 0-0.816-0.117-1.332-0.349 -0.516-0.233-1.132-0.583-1.831-1.032 -0.699-0.45-1.481-0.982-2.314-1.581 -1.565 0.799-3.478 1.198-5.742 1.198 -1.831 0-3.479-0.3-4.943-0.882 -1.465-0.583-2.68-1.431-3.662-2.53 -0.982-1.099-1.731-2.413-2.23-3.928 -0.5-1.514-0.749-3.163-0.749-4.943 0-1.814 0.266-3.479 0.782-4.993 0.516-1.515 1.282-2.813 2.264-3.878 0.982-1.065 2.197-1.881 3.612-2.447 1.415-0.566 3.029-0.849 4.844-0.849 2.447 0 4.56 0.5 6.308 1.498 1.764 0.999 3.096 2.413 3.995 4.244s1.348 3.978 1.348 6.458c0 3.745-1.015 6.724-3.046 8.921 0.699 0.466 1.465 0.932 2.297 1.382 0.832 0.449 1.381 0.799 1.647 1.065 0.266 0.266 0.4 0.633 0.4 1.115C41.077 35.602 40.911 35.935 40.595 36.284z"/></svg>