<svg xmlns="http://www.w3.org/2000/svg" viewBox="0 0 400 400"><path d="M234.4 370.3h-14.8c-3.3 0-6-2.7-6-6V35.7c0-3.3 2.7-6 6-6h14.8c3.3 0 6 2.7 6 6v328.6C240.4 367.6 237.7 370.3 234.4 370.3z"/><path d="M370.7 193.4l-39-39c-1-0.8-1.9-1.2-2.9-1.2 -1.1 0-2.1 0.4-2.8 1.1 -0.7 0.7-1.1 1.7-1.1 2.8v23.5h-87.6v31.3h87.6v23.5c0 1.1 0.4 2 1.2 2.7 0.8 0.8 1.7 1.2 2.8 1.2 1.1 0 2.1-0.4 2.8-1.1l39.1-39.1c0.7-0.7 1.1-1.7 1.1-2.8C371.8 195.1 371.4 194.2 370.7 193.4z"/><path d="M165.6 370.3h14.8c3.3 0 6-2.7 6-6V35.7c0-3.3-2.7-6-6-6h-14.8c-3.3 0-6 2.7-6 6v328.6C159.6 367.6 162.3 370.3 165.6 370.3z"/><path d="M29.4 193.4l39-39c1-0.8 2-1.2 2.9-1.2 1.1 0 2.1 0.4 2.8 1.1 0.7 0.7 1.1 1.7 1.1 2.8v23.5h87.6v31.3H75.1v23.5c0 1.1-0.4 2-1.2 2.7 -0.8 0.8-1.7 1.2-2.7 1.2 -1.1 0-2.1-0.4-2.8-1.1l-39.1-39.1c-0.7-0.7-1.1-1.7-1.1-2.8C28.2 195.1 28.6 194.2 29.4 193.4z"/></svg>
