<svg xmlns="http://www.w3.org/2000/svg" version="1.1" x="0px" y="0px" width="100%" height="100%" viewBox="0 0 30 30" enable-background="new 0 0 30 30" xml:space="preserve"><path fill="#" d="M1.7 28.7c1 0 1.7-0.7 1.7-1.5v-25c0-0.8-0.8-1.5-1.7-1.5C0.8 0.7 0 1.4 0 2.2v25C0 28 0.8 28.7 1.7 28.7zM29.5 13.5l-8.8-8.8c-0.7-0.7-1.8-0.7-2.5 0s-0.7 1.8 0 2.5l5.8 5.8H7c-1 0-1.8 0.8-1.8 1.8 0 1 0.8 1.8 1.8 1.8H24l-5.8 5.8c-0.3 0.3-0.5 0.8-0.5 1.3 0 0.5 0.2 0.9 0.5 1.3 0.7 0.7 1.8 0.7 2.5 0l8.8-8.8C30.2 15.3 30.2 14.1 29.5 13.5z"/></svg>