<svg xmlns="http://www.w3.org/2000/svg" viewBox="0 0 30 30"><path d="M17.65 1.672c-2.5.6-3.5 2.6-3.7 4.4.8-1.4 2-2.1 3.9-2.3l.1 1.5 2.4-2.8-2.8-2.4.1 1.6zm-15.5 17.5l-1.5-.1 2.5 2.7 2.7-2.5-1.5-.1c.1-1.9.7-3.1 2.1-4-1.9.4-3.8 1.4-4.3 4zm24.6-5.3l-.1-.2c-.5-.9-1.6-1.3-2.5-.8-.9.5-1.3 1.6-.8 2.5l-1-1.8c-.5-.9-1.6-1.3-2.5-.8-.9.5-1.3 1.6-.8 2.5l-.9-1.6c-.5-.9-1.7-1.2-2.6-.7-.9.5-1.3 1.7-.8 2.6l-2.9-5.4c-.5-.9-1.6-1.3-2.5-.8-.9.5-1.3 1.6-.8 2.6l5.7 10.8s-4.4-4.2-6.2-1.7c-.6.9-.4 2.1.4 2.7l6.4 4.6s3.9 2.7 7.2 1l4.4-2.4c3.1-1.6 4.2-5.4 2.6-8.5l-2.3-4.6z" class="st0"/><path d="M10.747 12.764c-1.5.8-3.4.2-4.2-1.3-.8-1.5-.2-3.4 1.3-4.2 1.5-.8 3.4-.2 4.2 1.3.8 1.5.2 3.4-1.3 4.2zm-2.3-4.4c-.9.5-1.2 1.6-.8 2.5.5.9 1.6 1.2 2.5.8s1.2-1.6.8-2.5c-.5-.9-1.6-1.3-2.5-.8z" class="st0"/></svg>
