<svg xmlns="http://www.w3.org/2000/svg" xml:space="preserve" width="8.4" height="8.2" version="1.1" viewBox="0 0 8412 8257" style="image-rendering:optimizeQuality;shape-rendering:geometricPrecision;text-rendering:geometricPrecision"><circle cx="1421" cy="6835" r="1421"/><circle cx="4206" cy="1387" r="1387"/><circle cx="6990" cy="6835" r="1421"/><path class="fil1" d="M6990 3619c82 0 148 66 148 147l0 1246c0 81-66 147-148 147-81 0-147-66-147-147l0-1099-5274 0 0 1064c0 82-66 148-148 148-81 0-147-66-147-148l0-1211c0-81 66-147 147-147l2638 0 0-898 295 0 0 898 2636 0z"/><polygon points="1814 4708 1421 5387 1029 4708 "/><polygon points="7383 4708 6990 5387 6598 4708 "/></svg>