<svg xmlns="http://www.w3.org/2000/svg" xml:space="preserve" width="31" height="30" version="1.1" shape-rendering="geometricPrecision" text-rendering="geometricPrecision" image-rendering="optimizeQuality" fill-rule="evenodd" clip-rule="evenodd" viewBox="0 0 3001 2991"><path d="M341 341c455-455 1192-455 1646 0 360 360 435 898 225 1332-45 92-27 197 45 269l680 680 2 2c26 25 45 56 55 92 30 115-45 234-168 267-95 25-191-8-244-77l-646-646c-72-72-176-90-268-46-433 207-968 132-1327-227-455-454-455-1191 0-1646zm821 95c395 0 715 321 715 715 0 395-320 715-715 715-395 0-715-320-715-715 0-394 320-715 715-715z"/></svg>