<svg xmlns="http://www.w3.org/2000/svg" width="135" height="68" viewBox="0 0 136 68" style="image-rendering:optimizeQuality;shape-rendering:geometricPrecision;text-rendering:geometricPrecision"><path d="M0 31c2-4 5-7 7-9 3-3 6-6 8-8 3-2 6-4 9-5 3-2 7-4 10-5 3-1 6-2 9-2 3-1 7-2 10-2 3 0 6 0 10 0 3 0 8 1 13 2 5 1 10 3 14 5 5 2 8 4 11 6 4 3 7 6 10 8 3 3 5 5 6 8 2 2 4 5 6 7 0 0 0 0 2-1 2-1 6-4 11-6 0 0 0 0-1 6-1 7-3 20-5 33-12-5-24-11-36-17 4-2 8-5 12-7-1-2-2-4-4-7-2-2-4-6-6-8-3-3-5-5-8-7-3-3-7-5-11-7-4-2-9-4-13-5-4 0-8-1-12-1-3 0-7 0-12 0-4 1-9 2-14 4-4 2-9 4-12 7-4 2-7 5-9 6-2 2-4 3-5 5z"/><path d="M13 37c2 0 4 1 5 3 2 2 2 5 2 9 0 4 0 7-2 9-1 2-3 4-6 4-2 0-4-2-5-4-2-2-2-5-2-9 0-4 0-7 2-9 1-2 3-3 6-3zm0 3l-1 0c-1 0-2 1-3 2-1 2-1 4-1 7 0 3 0 5 1 7 1 2 2 2 3 2 2 0 3 0 4-2 0-2 1-4 1-7 0-3-1-5-1-7-1-1-2-2-3-2z"/><path d="M30 37c3 0 5 1 6 3 1 2 2 5 2 9 0 4-1 7-2 9-1 2-3 4-6 4-2 0-4-2-5-4-2-2-3-5-3-9 0-4 1-7 3-9 1-2 3-3 5-3zm1 3l-1 0c-1 0-2 1-3 2-1 2-1 4-1 7 0 3 0 5 1 7 1 2 2 2 3 2 2 0 3 0 4-2 0-2 1-4 1-7 0-3-1-5-1-7-1-1-2-2-3-2z"/><path d="M43 57c1 0 1 1 2 1 0 0 0 1 0 2 0 0 0 1 0 1-1 0-1 1-2 1-1 0-1-1-1-1-1 0-1-1-1-1 0-1 0-2 1-2 0 0 0-1 1-1zm0-12c1 0 1 0 2 1 0 0 0 0 0 1 0 1 0 1 0 2-1 0-1 0-2 0 0 0-1 0-1 0-1-1-1-1-1-2 0-1 0-1 1-1 0-1 1-1 1-1z"/><path d="M56 37c2 0 4 1 6 3 1 2 2 5 2 9 0 4-1 7-2 9-2 2-4 4-6 4-2 0-4-2-6-4-1-2-2-5-2-9 0-4 1-7 2-9 2-2 4-3 6-3zm0 3l0 0c-1 0-2 1-3 2-1 2-1 4-1 7 0 3 0 5 1 7 1 2 2 2 3 2 1 0 2 0 3-2 1-2 1-4 1-7 0-3 0-5-1-7 0-1-1-2-3-2z"/><path d="M74 37c2 0 4 1 6 3 1 2 2 5 2 9 0 4-1 7-2 9-2 2-4 4-6 4-2 0-4-2-6-4-1-2-2-5-2-9 0-4 1-7 2-9 2-2 4-3 6-3zm0 3l0 0c-1 0-2 1-3 2-1 2-1 4-1 7 0 3 0 5 1 7 1 2 2 2 3 2 1 0 2 0 3-2 1-2 1-4 1-7 0-3 0-5-1-7-1-1-2-2-3-2z"/></svg>