<svg xmlns="http://www.w3.org/2000/svg" width="54" height="68" viewBox="0 0 53 67" style="clip-rule:evenodd;fill-rule:evenodd;image-rendering:optimizeQuality;shape-rendering:geometricPrecision;text-rendering:geometricPrecision;version:1.1"><path d="M26 0c15 0 27 12 27 26 0 7-3 13-7 18-3-3-7-6-11-9 0 6 0 12 0 16-3 1-6 2-9 2-14 0-26-12-26-27 0-14 12-26 26-26zm2 15l9 9 0 0 2 3-11 11-2-3 8-8-8-9 2-3zm-12 0l9 9 0 0 2 3-11 11-2-3 8-8-8-9 2-3z"/><path d="M48 67c-1-4-3-8-5-12-2 1-3 3-5 4 0-6 0-13 0-19 5 4 9 7 14 11-2 1-4 2-6 2 2 4 5 7 7 11-1 1-3 2-5 3z"/></svg>