<svg xmlns="http://www.w3.org/2000/svg" width="123" height="95" viewBox="0 0 123 95" style="clip-rule:evenodd;fill-rule:evenodd;image-rendering:optimizeQuality;shape-rendering:geometricPrecision;text-rendering:geometricPrecision;version:1.1"><path class="fil0" d="M0 0l123 0 0 95-123 0 0-95zm22 25l26 0 0 12-26 0 0-12zm52 0l26 0 0 12-26 0 0-12zm-52 35l26 0 0 13-26 0 0-13zm52 0l26 0 0 13-26 0 0-13zm-59-6l39 0 0 25-39 0 0-25zm0-36l39 0 0 26-39 0 0-26zm52 0l40 0 0 26-40 0 0-26zm0 36l40 0 0 25-40 0 0-25z"/></svg>