<svg xmlns="http://www.w3.org/2000/svg" xml:space="preserve" width="26" height="30" version="1.1" shape-rendering="geometricPrecision" text-rendering="geometricPrecision" image-rendering="optimizeQuality" fill-rule="evenodd" clip-rule="evenodd" viewBox="0 0 2200 2944"><path d="M222 0l1756 0c122 0 222 99 222 222l0 2501c0 122-100 221-222 221l-1756 0c-122 0-222-99-222-221l0-2501c0-123 100-222 222-222zm207 335l1342 0c93 0 169 76 169 169l0 1766c0 93-76 169-169 169l-1342 0c-93 0-169-76-169-169l0-1766c0-93 76-169 169-169z"/><circle cx="1100" cy="2687" r="135"/></svg>