<svg xmlns="http://www.w3.org/2000/svg" version="1.1" x="0" y="0" viewBox="0 0 19.63 23.39" enable-background="new 0 0 19.626 23.387" xml:space="preserve"><path d="M14.69 1.47c0.97 0 1.74 0.16 2.34 0.48s1.07 0.81 1.42 1.48c0.22 0.41 0.39 1.1 0.52 2.07h0.66L19.37 0H0.28L0 5.48h0.66c0.08-1.06 0.33-1.9 0.76-2.52s0.94-1.04 1.54-1.26c0.46-0.16 1.24-0.24 2.33-0.24h2.81v17.87c0 1.31-0.13 2.15-0.38 2.52 -0.41 0.6-1.12 0.9-2.1 0.9H4.78v0.64h9.92v-0.64h-0.81c-0.91 0-1.58-0.24-2.02-0.72 -0.31-0.36-0.46-1.25-0.46-2.69V1.47H14.69z"/></svg>