<svg width="12" height="12" viewBox="2 3 12 12" fill="none" xmlns="http://www.w3.org/2000/svg">
<path d="M10.2918 7.44183C10.1072 7.25727 9.80662 7.25551 9.6203 7.44183L8.82581 8.23633L10.1687 8.23633L10.2918 8.11329C10.4763 7.92872 10.4781 7.62815 10.2918 7.44183Z" fill="#F27D43"></path>
<path d="M10.7945 4.72468C11.4062 4.72468 11.9282 4.94088 12.3606 5.37329C12.7332 5.73538 12.953 6.22931 12.9758 6.74784C13.0057 7.28395 12.8668 7.78139 12.5627 8.23664L13.6596 8.23664C13.9109 7.64429 13.99 6.99216 13.8828 6.35762C13.7844 5.72835 13.4873 5.15005 13.0338 4.70359C12.4151 4.08486 11.6698 3.7755 10.7962 3.77374C9.92262 3.77199 9.1791 4.08311 8.55862 4.70359L6.82373 6.43848L7.49519 7.10993L9.23008 5.37504C9.66072 4.94088 10.1828 4.72468 10.7945 4.72468Z" fill="#F27D43"></path>
<path d="M0.680466 10.1491L3.35575 10.1491C3.14306 10.6325 3.06748 11.151 3.12548 11.7012C3.20282 12.4429 3.51218 13.0827 4.04829 13.6189C4.66702 14.2376 5.4123 14.5469 6.2859 14.5487C7.15773 14.5487 7.90302 14.2393 8.5235 13.6189L10.4254 11.717L9.75392 11.0455L7.8661 12.9333C7.446 13.3569 6.87825 13.5942 6.28414 13.5978C5.66541 13.5978 5.13985 13.3745 4.70569 12.9333C4.29789 12.5185 4.06939 11.9595 4.07114 11.3777C4.0729 10.919 4.19419 10.5094 4.44203 10.1526L6.84662 10.1526L6.79037 10.2088C6.6058 10.3934 6.60405 10.694 6.79037 10.8803C6.97493 11.0649 7.2755 11.0666 7.46182 10.8803L8.18953 10.1526L16.523 10.1508C16.7884 10.1491 17.0028 9.93463 17.0046 9.66921C17.0028 9.40379 16.7884 9.18935 16.523 9.18759L0.680466 9.18935C0.41329 9.18935 0.198845 9.40379 0.198845 9.67097C0.200603 9.93639 0.415047 10.1508 0.680466 10.1491Z" fill="#F27D43"></path>
</svg>