<svg xmlns="http://www.w3.org/2000/svg" viewBox="0 0 400 400"><path d="M323.8 127.1l-48.6-48.6c-7.3-7.3-19.2-7.3-26.5 0 -3.5 3.5-5.5 8.3-5.5 13.2 0 3.6 1.1 7.2 3 10.2l-65 55.9c-6.7-3.1-14-4.8-21.5-4.8 -13.6 0-26.6 5.4-36.3 15 -7 7-7 18.4 0 25.4l29.2 29.2 -69 96 96-69 29.2 29.2c7 7 18.4 7 25.4 0 9.6-9.6 15-22.7 15-36.3 0-7.5-1.7-14.8-4.8-21.5l55.9-65c3 2 6.5 3 10.2 3 5 0 9.7-2 13.3-5.5C331.1 146.3 331.1 134.4 323.8 127.1L323.8 127.1z"/><path d="M203.3 393c-106.4 0-193-86.6-193-193 0-106.4 86.6-193 193-193s193 86.6 193 193C396.3 306.4 309.7 393 203.3 393zM203.3 24c-97 0-176 79-176 176s79 176 176 176c97.1 0 176-78.9 176-176S300.4 24 203.3 24z"/><rect x="194.8" y="10.4" transform="matrix(0.7071 -0.7071 0.7071 0.7071 -81.3392 202.1261)" width="17" height="377.8"/></svg>
