<svg xmlns="http://www.w3.org/2000/svg" width="1024" height="1024" viewBox="0 0 941 941" style="clip-rule:evenodd;fill-rule:evenodd;image-rendering:optimizeQuality;shape-rendering:geometricPrecision;text-rendering:geometricPrecision;version:1"><path d="M471 0c259 0 470 211 470 471 0 259-211 470-470 470-260 0-471-211-471-470 0-260 211-471 471-471zm-2 158c71 0 129 57 129 128 0 71-58 129-129 129-71 0-128-58-128-129 0-71 57-128 128-128zm76 291c86 0 155 74 155 164l0 0c0 21 0 42 0 64 0 21 0 43 0 64-40 11-79 21-119 27-33 4-67 6-100 7l0 1c-3 0-7 0-10 0-3 0-7 0-10 0l0-1c-33-1-67-3-100-7-40-6-79-16-119-27 0-21 0-43 0-64 0-22 0-43 0-64l0 0c0-90 69-164 155-164l148 0z"/></svg>