<svg xmlns="http://www.w3.org/2000/svg" viewBox="0 0 400 400"><path d="M340.5 105.3l-42.5-42.5L166.2 194.7l43 42L340.5 105.3zM340.5 105.3"/><path d="M334.6 26.3l-21.8 21.8 42.6 42.5 21.8-21.8c11.7-11.7 11.8-30.8 0-42.5C365.4 14.6 346.3 14.6 334.6 26.3L334.6 26.3zM334.6 26.3"/><path d="M123 280.4l72.6-30.6 -42.3-41.3L123 280.4zM123 280.4"/><path d="M324.4 159.7c5.6 14.9 8.7 30.9 8.7 47.7 0 74.6-60.7 135.3-135.3 135.3S62.6 282.1 62.6 207.5 123.2 72.2 197.8 72.2c15.5 0 30.4 2.7 44.3 7.5l31.2-31.2c-22.9-10.9-48.5-17-75.5-17 -97.1 0-176 79-176 176 0 97.1 79 176 176 176s176-79 176-176c0-28.2-6.7-54.9-18.6-78.6L324.4 159.7z"/></svg>
