<svg xmlns="http://www.w3.org/2000/svg" viewBox="0 0 301 200.5">
  <rect width="301" height="200.5" rx="15" ry="15" style="fill: #f2f2f2;"/>
  <rect x="70" y="55" width="160" height="85" rx="5" ry="5" style="fill: #fff;"/>
  <path d="M150.5,81.2h-60v-7h60v7Zm0,8h-60v7h60v-7Zm0,15h-60v7h60v-7Zm0,15h-60v7h60v-7Zm62.5-45.5h-51.9v51.9h51.9v-51.9Z" style="fill: #bbbbbc;"/>
  <path d="M181.6,111.2c.4-.7,.7-1.1,.9-1.5,2.5-4.3,5-8.6,7.4-12.9,1.1-2,2.3-2,3.5,0,3.3,5.8,6.7,11.6,10,17.4,1.1,2,.6,3-1.7,3-10.2,0-20.4,0-30.6,0-2.2,0-2.8-1-1.7-3,1.7-3,3.4-6,5.2-9,1.2-2,2.3-2,3.5,0,1.1,1.9,2.2,3.8,3.4,5.9Zm-3.5-21.8c-2.3,0-4.3,1.8-4.3,4.2,0,2.3,1.8,4.2,4.1,4.2,2.3,0,4.2-1.7,4.3-4,0-2.4-1.7-4.3-4.1-4.4Z" style="fill: #f2f2f2;"/>
  <path d="M220.2,20.8H80.8v-7H220.2v7Zm0,8H80.8v7H220.2v-7Zm0,135.8H80.8v7H220.2v-7Zm0,15H80.8v7H220.2v-7Z" style="fill: #e2e2e2;"/>
</svg>