<?xml version="1.0" encoding="utf-8"?>
<!-- Generator: Adobe Illustrator 26.3.1, SVG Export Plug-In . SVG Version: 6.00 Build 0)  -->
<svg version="1.1" id="Layer_1" xmlns:svgjs="http://svgjs.com/svgjs"
	 xmlns="http://www.w3.org/2000/svg" xmlns:xlink="http://www.w3.org/1999/xlink" x="0px" y="0px" viewBox="0 0 512 512"
	 style="enable-background:new 0 0 512 512;" xml:space="preserve">
<g>
	<path d="M397.8,13H114.2C58.4,13.1,13.1,58.4,13,114.2v283.5c0.1,55.9,45.4,101.2,101.2,101.2h283.5
		c55.9-0.1,101.2-45.4,101.2-101.2V114.2C498.9,58.4,453.6,13.1,397.8,13z M154.8,458.5v-20.2c0-55.9,45.3-101.2,101.2-101.2
		s101.2,45.3,101.2,101.2v20.2H154.8z M458.5,397.8c0,33.6-27.2,60.8-60.8,60.8v-20.2c0-78.3-63.5-141.8-141.8-141.8
		S114.2,360,114.2,438.2v20.2c-33.6,0-60.8-27.2-60.8-60.8V114.2c0-33.6,27.2-60.8,60.8-60.8h283.5c33.6,0,60.8,27.2,60.8,60.8
		V397.8z"/>
	<path d="M256,94c-44.7,0-81,36.3-81,81s36.3,81,81,81s81-36.3,81-81S300.7,94,256,94z M256,215.5c-22.4,0-40.5-18.1-40.5-40.5
		s18.1-40.5,40.5-40.5s40.5,18.1,40.5,40.5S278.4,215.5,256,215.5z"/>
</g>
</svg>
