<?xml version="1.0" encoding="utf-8"?>
<!-- Generator: Adobe Illustrator 26.3.1, SVG Export Plug-In . SVG Version: 6.00 Build 0)  -->
<svg version="1.1" id="Layer_1" xmlns:svgjs="http://svgjs.com/svgjs"
	 xmlns="http://www.w3.org/2000/svg" xmlns:xlink="http://www.w3.org/1999/xlink" x="0px" y="0px" viewBox="0 0 512 512"
	 style="enable-background:new 0 0 512 512;" xml:space="preserve">
<g>
	<path d="M404.3,226.3H285.7V107.7c0-16.4-13.3-29.7-29.7-29.7l0,0c-16.4,0-29.7,13.3-29.7,29.7v118.7H107.7
		C91.3,226.3,78,239.6,78,256l0,0c0,16.4,13.3,29.7,29.7,29.7h118.7v118.7c0,16.4,13.3,29.7,29.7,29.7l0,0
		c16.4,0,29.7-13.3,29.7-29.7V285.7h118.7c16.4,0,29.7-13.3,29.7-29.7l0,0C434,239.6,420.7,226.3,404.3,226.3z"/>
</g>
</svg>
