<?xml version="1.0" encoding="utf-8"?>
<!-- Generator: Adobe Illustrator 26.3.1, SVG Export Plug-In . SVG Version: 6.00 Build 0)  -->
<svg version="1.1" id="Layer_1" xmlns:svgjs="http://svgjs.com/svgjs"
	 xmlns="http://www.w3.org/2000/svg" xmlns:xlink="http://www.w3.org/1999/xlink" x="0px" y="0px" viewBox="0 0 512 512"
	 style="enable-background:new 0 0 512 512;" xml:space="preserve">
<g>
	<path d="M42.7,234.7h234.7c23.6,0,42.7-19.1,42.7-42.7V42.7C320,19.1,300.9,0,277.3,0H42.7C19.1,0,0,19.1,0,42.7V192
		C0,215.6,19.1,234.7,42.7,234.7z M42.7,42.7h234.7V192H42.7V42.7z"/>
	<path d="M469.3,0h-64c-23.6,0-42.7,19.1-42.7,42.7V192c0,23.6,19.1,42.7,42.7,42.7h64c23.6,0,42.7-19.1,42.7-42.7V42.7
		C512,19.1,492.9,0,469.3,0z M469.3,192h-64V42.7h64V192z"/>
	<path d="M106.7,277.3h-64C19.1,277.3,0,296.4,0,320v149.3C0,492.9,19.1,512,42.7,512h64c23.6,0,42.7-19.1,42.7-42.7V320
		C149.3,296.4,130.2,277.3,106.7,277.3z M106.7,469.3h-64V320h64V469.3z"/>
	<path d="M469.3,277.3H234.7c-23.6,0-42.7,19.1-42.7,42.7v149.3c0,23.6,19.1,42.7,42.7,42.7h234.7c23.6,0,42.7-19.1,42.7-42.7V320
		C512,296.4,492.9,277.3,469.3,277.3z M469.3,469.3H234.7V320h234.7V469.3z"/>
</g>
</svg>
