<?xml version="1.0" encoding="utf-8"?>
<!-- Generator: Adobe Illustrator 26.3.1, SVG Export Plug-In . SVG Version: 6.00 Build 0)  -->
<svg version="1.1" id="Layer_1" xmlns:svgjs="http://svgjs.com/svgjs"
	 xmlns="http://www.w3.org/2000/svg" xmlns:xlink="http://www.w3.org/1999/xlink" x="0px" y="0px" viewBox="0 0 512 512"
	 style="enable-background:new 0 0 512 512;" xml:space="preserve">
<g>
	<path d="M480,84.8h-65.8c-11.8,0-21.3,9.6-21.3,21.3c0,5.7,2.2,11.1,6.2,15.1l23.2,23.2l0,0l-76.5,76.5c-8.4,8.1-21.7,8.1-30.2,0
		l-3.6-3.6c-25.3-24.2-65.2-24.2-90.5,0L112.6,326c-8.3,8.4-8.3,21.9,0,30.3c8.4,8.3,21.9,8.3,30.3,0l108.8-108.8
		c8.4-8.1,21.7-8.1,30.2,0l3.6,3.6c25.3,24.2,65.2,24.2,90.5,0l76.5-76.5l0,0l23.2,23.2c8.4,8.2,21.9,8.1,30.2-0.3
		c3.9-4,6.1-9.3,6.1-14.8v-65.8C512,99.1,497.7,84.8,480,84.8z"/>
	<path d="M490.7,468.8h-384c-35.3,0-64-28.7-64-64V21.3C42.7,9.6,33.1,0,21.3,0S0,9.6,0,21.3v383.5c0.1,58.9,47.8,106.6,106.7,106.7
		h384c11.8,0,21.3-9.6,21.3-21.3C512,478.4,502.4,468.8,490.7,468.8z"/>
</g>
</svg>
