<?xml version="1.0" encoding="utf-8"?>
<!-- Generator: Adobe Illustrator 26.3.1, SVG Export Plug-In . SVG Version: 6.00 Build 0)  -->
<svg version="1.1" id="Layer_1" xmlns:svgjs="http://svgjs.com/svgjs"
	 xmlns="http://www.w3.org/2000/svg" xmlns:xlink="http://www.w3.org/1999/xlink" x="0px" y="0px" viewBox="0 0 512 512"
	 style="enable-background:new 0 0 512 512;" xml:space="preserve">
<g>
	<path d="M239.8,512c-7,0-13.9-1.6-20.2-4.5c-21.4-9.5-32.4-33.5-25.6-55.9l33.3-110.2h-78.5c-35.3,0-64-28.6-64.1-63.9
		c0-6.3,0.9-12.6,2.7-18.6L152,45.5c8.1-27.1,33.1-45.6,61.4-45.5h78.8c30.6,0,55.4,24.9,55.4,55.5c0,6.6-1.2,13.2-3.5,19.4
		l-35.9,95.8h54.5c35.3,0,64,28.6,64,64c0,12.8-3.8,25.3-11,35.9L279.1,490.3C270.5,503.8,255.7,511.9,239.8,512z M213.3,42.7
		c-9.4,0-17.7,6.1-20.4,15.1l-64.5,213.3c-3.4,11.3,3,23.2,14.2,26.6c2,0.6,4.1,0.9,6.2,0.9H256c11.8,0,21.3,9.6,21.3,21.3
		c0,2.1-0.3,4.2-0.9,6.2l-41.5,137.4c-0.8,2,0.2,4.3,2.3,5c0.1,0,0.2,0.1,0.3,0.1c1.9,1.2,4.3,0.7,5.5-1.2c0.1-0.1,0.1-0.2,0.2-0.3
		l136.5-219.7c4.9-6.6,5.5-15.4,1.7-22.7c-3.6-7.1-10.8-11.5-18.7-11.5h-85.3c-11.8,0-21.3-9.5-21.3-21.3c0-2.6,0.5-5.1,1.4-7.5
		l46.7-124.6c2.5-6.6-0.9-14-7.5-16.5c-1.4-0.5-2.9-0.8-4.4-0.8H213.3z"/>
</g>
</svg>
