<?xml version="1.0" encoding="utf-8"?>
<!-- Generator: Adobe Illustrator 26.3.1, SVG Export Plug-In . SVG Version: 6.00 Build 0)  -->
<svg version="1.1" id="Layer_1" xmlns:svgjs="http://svgjs.com/svgjs"
	 xmlns="http://www.w3.org/2000/svg" xmlns:xlink="http://www.w3.org/1999/xlink" x="0px" y="0px" viewBox="0 0 512 512"
	 style="enable-background:new 0 0 512 512;" xml:space="preserve">
<g>
	<path d="M399.1,285.5l-97.9-97.9c-25-25-65.5-25-90.5,0l-97.9,97.9c-8.3,8.3-8.3,21.8,0,30.1c0,0,0.1,0.1,0.1,0.1
		c8.4,8.3,21.9,8.2,30.2-0.1l97.7-97.7c0,0,0.1-0.1,0.1-0.1c8.4-8.3,21.9-8.2,30.2,0.1l97.7,97.7c0,0,0.1,0.1,0.1,0.1
		c8.4,8.3,21.9,8.2,30.2-0.1C407.4,307.2,407.4,293.8,399.1,285.5z"/>
</g>
</svg>
