<?xml version="1.0" encoding="utf-8"?>
<svg version="1.1" id="Layer_1"
	xmlns:svgjs="http://svgjs.com/svgjs"
	xmlns="http://www.w3.org/2000/svg"
	xmlns:xlink="http://www.w3.org/1999/xlink" x="0px" y="0px" viewBox="0 0 512 512" xml:space="preserve">
	<g>
		<path d="M215.9,399.1l97.9-97.9c25-25,25-65.5,0-90.5l-97.9-97.9c-8.3-8.3-21.8-8.3-30.1,0c0,0-0.1,0.1-0.1,0.1
		c-8.3,8.4-8.2,21.9,0.1,30.2l97.7,97.7c0,0,0.1,0.1,0.1,0.1c8.3,8.4,8.2,21.9-0.1,30.2l-97.7,97.7c0,0-0.1,0.1-0.1,0.1
		c-8.3,8.4-8.2,21.9,0.1,30.2C194.1,407.4,207.6,407.4,215.9,399.1z"/>
	</g>
</svg>
