<?xml version="1.0" encoding="utf-8"?>
<!-- Generator: Adobe Illustrator 26.3.1, SVG Export Plug-In . SVG Version: 6.00 Build 0)  -->
<svg version="1.1" id="Layer_1" xmlns:svgjs="http://svgjs.com/svgjs"
	 xmlns="http://www.w3.org/2000/svg" xmlns:xlink="http://www.w3.org/1999/xlink" x="0px" y="0px" viewBox="0 0 512 512"
	 style="enable-background:new 0 0 512 512;" xml:space="preserve">
<g>
	<path d="M326.2,399.1c8.4-8.3,8.4-21.8,0.1-30.2c0,0-0.1-0.1-0.1-0.1l-97.7-97.7c-8.4-8.3-8.4-21.8-0.1-30.2c0,0,0.1-0.1,0.1-0.1
		l97.7-97.7c8.4-8.3,8.4-21.8,0.1-30.2c0,0-0.1-0.1-0.1-0.1c-8.3-8.3-21.8-8.3-30.1,0l-97.9,97.9c-25,25-25,65.5,0,90.5l97.9,97.9
		C304.4,407.4,317.9,407.4,326.2,399.1z"/>
</g>
</svg>
