<?xml version="1.0" encoding="utf-8"?>
<!-- Generator: Adobe Illustrator 26.3.1, SVG Export Plug-In . SVG Version: 6.00 Build 0)  -->
<svg version="1.1" id="Layer_1" xmlns:svgjs="http://svgjs.com/svgjs"
	 xmlns="http://www.w3.org/2000/svg" xmlns:xlink="http://www.w3.org/1999/xlink" x="0px" y="0px" viewBox="0 0 512 512"
	 style="enable-background:new 0 0 512 512;" xml:space="preserve">
<g>
	<path d="M399.1,175.1c-8.3-8.4-21.8-8.4-30.2-0.1c0,0-0.1,0.1-0.1,0.1l-97.7,97.7c-8.3,8.4-21.8,8.4-30.2,0.1c0,0-0.1-0.1-0.1-0.1
		l-97.7-97.7c-8.3-8.4-21.8-8.4-30.2-0.1c0,0-0.1,0.1-0.1,0.1c-8.3,8.3-8.3,21.8,0,30.1l97.9,97.9c25,25,65.5,25,90.5,0l97.9-97.9
		C407.4,196.9,407.4,183.5,399.1,175.1z"/>
</g>
</svg>
