<?xml version="1.0" encoding="utf-8"?>
<!-- Generator: Adobe Illustrator 26.3.1, SVG Export Plug-In . SVG Version: 6.00 Build 0)  -->
<svg version="1.1" id="Layer_1" xmlns:svgjs="http://svgjs.com/svgjs"
	 xmlns="http://www.w3.org/2000/svg" xmlns:xlink="http://www.w3.org/1999/xlink" x="0px" y="0px" viewBox="0 0 512 512"
	 style="enable-background:new 0 0 512 512;" xml:space="preserve">
<g>
	<g>
		<path d="M487.8,443.3c12.3,12.3,12.3,32.2,0,44.5c-6.1,6.1-14.2,9.2-22.2,9.2c-8,0-16.1-3.1-22.2-9.2L256.5,301L69.7,487.8
			c-6.1,6.1-14.2,9.2-22.2,9.2c-8,0-16.1-3.1-22.2-9.2c-12.3-12.3-12.3-32.2,0-44.5L212,256.5L25.2,69.7C13,57.4,13,37.5,25.2,25.2
			C37.5,13,57.4,13,69.7,25.2L256.5,212L443.3,25.2c12.3-12.3,32.2-12.3,44.5,0c12.3,12.3,12.3,32.2,0,44.5L301,256.5L487.8,443.3z"
			/>
	</g>
</g>
</svg>
