<?xml version="1.0" encoding="utf-8"?>
<!-- Generator: Adobe Illustrator 26.3.1, SVG Export Plug-In . SVG Version: 6.00 Build 0)  -->
<svg version="1.1" id="Layer_1" xmlns="http://www.w3.org/2000/svg" xmlns:xlink="http://www.w3.org/1999/xlink" x="0px" y="0px"
	 viewBox="0 0 512 512" style="enable-background:new 0 0 512 512;" xml:space="preserve">
<g id="Arrow_Outline">
	<path d="M43,122.1c-3.7,4.7-3.7,11.3,0,16l57.7,72.1c5.1,6.3,12.7,10,20.9,10h0.1c4.9,0,9.7-1.5,13.8-4.2
		c11.2-7.6,14.1-22.9,6.5-34.1l-18.8-27.9h324.6c0,0,0,0,0,0c13.3,0,24-10.8,24-24c0-13.3-10.8-24-24-24H123.2l18.8-27.9
		c2.8-4.1,4.2-8.9,4.2-13.8c0-13.5-11-24.5-24.5-24.5h0c-8.1,0-15.8,3.7-20.9,10L43,122.1L43,122.1z"/>
	<path d="M40,287.5c0-13.3,10.7-24,24-24h384c13.3,0,24,10.7,24,24s-10.7,24-24,24H64C50.7,311.5,40,300.7,40,287.5z"/>
	<path d="M40.8,428.9c0-13.3,10.7-24,24-24h382.5c13.3,0,24,10.7,24,24s-10.7,24-24,24H64.8C51.5,452.9,40.8,442.1,40.8,428.9z"/>
</g>
</svg>
