<svg xmlns="http://www.w3.org/2000/svg" xml:space="preserve" width="512" height="512" style="enable-background:new 0 0 512 512" viewBox="0 0 24 24"><g fill="#0d0d0d" data-name="Layer 2"><path d="M19 19.38h-.16a.75.75 0 0 1-.57-.9l1.49-6.73a.24.24 0 0 0-.09-.25.23.23 0 0 0-.28 0l-2.13 1.27a1.75 1.75 0 0 1-1.34.2 1.8 1.8 0 0 1-1.08-.83l-2.62-4.62c-.13-.22-.31-.22-.44 0l-2.62 4.59a1.8 1.8 0 0 1-1.08.83 1.75 1.75 0 0 1-1.34-.2l-2.13-1.27a.23.23 0 0 0-.28 0 .24.24 0 0 0-.09.25l1.49 6.73a.75.75 0 1 1-1.46.33l-1.5-6.73a1.74 1.74 0 0 1 .69-1.8 1.7 1.7 0 0 1 1.92-.08l2.13 1.28a.27.27 0 0 0 .19 0 .24.24 0 0 0 .16-.11l2.62-4.6a1.75 1.75 0 0 1 3 0l2.62 4.6a.24.24 0 0 0 .16.11.27.27 0 0 0 .19 0l2.13-1.28a1.71 1.71 0 0 1 1.92.08 1.74 1.74 0 0 1 .69 1.8l-1.5 6.73a.76.76 0 0 1-.69.6z" data-original="#232323"/><circle cx="12" cy="3.63" r="1.25" data-original="#7fbde7"/><circle cx="2.5" cy="8.63" r="1.25" data-original="#7fbde7"/><circle cx="21.5" cy="8.63" r="1.25" data-original="#7fbde7"/><path d="M17.65 22.38H6.35a1.75 1.75 0 0 1-1.73-1.47l-.36-2.16a.75.75 0 0 1 .17-.61.73.73 0 0 1 .57-.26h10a.75.75 0 0 1 0 1.5H5.88l.22 1.29a.25.25 0 0 0 .25.21h11.3a.25.25 0 0 0 .25-.21l.36-2.17a.75.75 0 0 1 1.48.25l-.36 2.16a1.75 1.75 0 0 1-1.73 1.47z" data-original="#232323"/></g></svg>