<?xml version="1.0" encoding="utf-8"?>
<!-- Generator: Adobe Illustrator 26.3.1, SVG Export Plug-In . SVG Version: 6.00 Build 0)  -->
<svg version="1.1" id="Layer_1" xmlns:svgjs="http://svgjs.com/svgjs"
	 xmlns="http://www.w3.org/2000/svg" xmlns:xlink="http://www.w3.org/1999/xlink" x="0px" y="0px" viewBox="0 0 512 512"
	 style="enable-background:new 0 0 512 512;" xml:space="preserve">
<g>
	<g>
		<path d="M186,510.8c-0.5-0.1-1-0.3-1.6-0.6C185,510.4,185.5,510.6,186,510.8z"/>
	</g>
	<g>
		<path d="M451.2,0.5H60.8c-9.3,0-16.9,7.6-16.9,16.9v347.1c0,0.6,0,1.2,0.1,1.9c0.1,0.8,0.2,1.5,0.4,2.2c0.1,0.3,0.1,0.5,0.2,0.8
			c0,0,0,0.1,0,0.1c0.2,0.5,0.3,1,0.5,1.4c0.1,0.2,0.2,0.5,0.3,0.7c0.8,1.7,1.9,3.3,3.3,4.7L179,506.6c0.4,0.4,0.8,0.8,1.3,1.2
			c0.4,0.3,0.8,0.6,1.2,0.9c0.7,0.5,1.5,0.9,2.2,1.3c0.2,0.1,0.5,0.2,0.7,0.3c0.5,0.2,1,0.4,1.6,0.6c0.3,0.1,0.5,0.1,0.8,0.2
			c0.5,0.1,1,0.2,1.5,0.3c0.8,0.1,1.7,0.2,2.6,0.2h260.3c9.3,0,16.9-7.6,16.9-16.9V17.4C468.1,8.1,460.6,0.5,451.2,0.5z
			 M174.1,453.9l-72.6-72.6h72.6V453.9z M434.4,477.8H207.8V364.5c0-9.3-7.6-16.9-16.9-16.9H77.6V34.2h356.7V477.8z"/>
	</g>
	<g>
		<path d="M234.3,207.8h-86.8c-9.3,0-16.9-7.6-16.9-16.9s7.6-16.9,16.9-16.9h86.8c9.3,0,16.9,7.6,16.9,16.9S243.6,207.8,234.3,207.8
			z"/>
	</g>
	<g>
		<path d="M364.5,207.8h-43.4c-9.3,0-16.9-7.6-16.9-16.9s7.6-16.9,16.9-16.9h43.4c9.3,0,16.9,7.6,16.9,16.9S373.8,207.8,364.5,207.8
			z"/>
	</g>
	<g>
		<path d="M364.5,294.6H147.5c-9.3,0-16.9-7.6-16.9-16.9s7.6-16.9,16.9-16.9h216.9c9.3,0,16.9,7.6,16.9,16.9
			S373.8,294.6,364.5,294.6z"/>
	</g>
	<g>
		<path d="M364.5,121H147.5c-9.3,0-16.9-7.6-16.9-16.9s7.6-16.9,16.9-16.9h216.9c9.3,0,16.9,7.6,16.9,16.9S373.8,121,364.5,121z"/>
	</g>
</g>
</svg>
