<?xml version="1.0" encoding="utf-8"?>
<!-- Generator: Adobe Illustrator 26.3.1, SVG Export Plug-In . SVG Version: 6.00 Build 0)  -->
<svg version="1.1" id="Layer_1" xmlns:svgjs="http://svgjs.com/svgjs"
	 xmlns="http://www.w3.org/2000/svg" xmlns:xlink="http://www.w3.org/1999/xlink" x="0px" y="0px" viewBox="0 0 512 512"
	 style="enable-background:new 0 0 512 512;" xml:space="preserve">
<g>
	<path d="M451.3,69.8l-48.7-50.3C390.5,7.1,373.9,0,356.6,0H256c-50.7,0.1-94.3,35.7-104.5,85.3h-2.1C90.5,85.4,42.7,133.1,42.7,192
		v213.3c0.1,58.9,47.8,106.6,106.7,106.7h128c58.9-0.1,106.6-47.8,106.7-106.7v-2.1c49.6-10.2,85.3-53.9,85.3-104.5V114.3
		C469.4,97.7,462.9,81.7,451.3,69.8z M277.3,469.3h-128c-35.3,0-64-28.7-64-64V192c0-35.3,28.7-64,64-64v170.7
		c0.1,58.9,47.8,106.6,106.7,106.7h85.3C341.3,440.7,312.7,469.3,277.3,469.3z M362.7,362.7H256c-35.3,0-64-28.7-64-64v-192
		c0-35.3,28.7-64,64-64h85.3v42.7c0,23.6,19.1,42.7,42.7,42.7h42.7v170.7C426.7,334,398,362.7,362.7,362.7z"/>
</g>
</svg>
