<?xml version="1.0" encoding="utf-8"?>
<!-- Generator: Adobe Illustrator 26.3.1, SVG Export Plug-In . SVG Version: 6.00 Build 0)  -->
<svg version="1.1" id="Layer_1" xmlns:svgjs="http://svgjs.com/svgjs"
	 xmlns="http://www.w3.org/2000/svg" xmlns:xlink="http://www.w3.org/1999/xlink" x="0px" y="0px" viewBox="0 0 512 512"
	 style="enable-background:new 0 0 512 512;" xml:space="preserve">
<g>
	<path d="M85.3,277.3h64V320h-64V277.3z M192,320h64v-42.7h-64V320z M85.3,405.3h64v-42.7h-64V405.3z M192,405.3h64v-42.7h-64V405.3
		z M85.3,149.3h64v-42.7h-64V149.3z M192,149.3h64v-42.7h-64V149.3z M85.3,234.7h64V192h-64V234.7z M192,234.7h64V192h-64V234.7z
		 M512,170.7V512H0V64C0,28.7,28.7,0,64,0h213.3c35.3,0,64,28.7,64,64v42.7H448C483.3,106.7,512,135.3,512,170.7z M298.7,64
		c0-11.8-9.6-21.3-21.3-21.3H64c-11.8,0-21.3,9.6-21.3,21.3v405.3h256V64z M469.3,170.7c0-11.8-9.6-21.3-21.3-21.3H341.3v320h128
		V170.7z M384,320h42.7v-42.7H384V320z M384,405.3h42.7v-42.7H384V405.3z M384,234.7h42.7V192H384V234.7z"/>
</g>
</svg>
