<?xml version="1.0" encoding="utf-8"?>
<!-- Generator: Adobe Illustrator 26.3.1, SVG Export Plug-In . SVG Version: 6.00 Build 0)  -->
<svg version="1.1" id="Layer_1" xmlns:svgjs="http://svgjs.com/svgjs"
	 xmlns="http://www.w3.org/2000/svg" xmlns:xlink="http://www.w3.org/1999/xlink" x="0px" y="0px" viewBox="0 0 512 512"
	 style="enable-background:new 0 0 512 512;" xml:space="preserve">
<g>
	<path d="M256,0C114.6,0,0,114.6,0,256s114.6,256,256,256s256-114.6,256-256C511.8,114.7,397.3,0.2,256,0z M256,469.3
		c-117.8,0-213.3-95.5-213.3-213.3S138.2,42.7,256,42.7S469.3,138.2,469.3,256C469.2,373.8,373.8,469.2,256,469.3z"/>
	<path d="M256,106.7c-11.8,0-21.3,9.6-21.3,21.3v170.7c0,11.8,9.6,21.3,21.3,21.3c11.8,0,21.3-9.6,21.3-21.3V128
		C277.3,116.2,267.8,106.7,256,106.7z"/>
	<path d="M256,362.7L256,362.7c11.8,0,21.3,9.6,21.3,21.3l0,0c0,11.8-9.6,21.3-21.3,21.3l0,0c-11.8,0-21.3-9.6-21.3-21.3l0,0
		C234.7,372.2,244.2,362.7,256,362.7z"/>
</g>
</svg>
