<?xml version="1.0" encoding="utf-8"?>
<!-- Generator: Adobe Illustrator 26.3.1, SVG Export Plug-In . SVG Version: 6.00 Build 0)  -->
<svg version="1.1" id="Layer_1" xmlns:svgjs="http://svgjs.com/svgjs"
	 xmlns="http://www.w3.org/2000/svg" xmlns:xlink="http://www.w3.org/1999/xlink" x="0px" y="0px" viewBox="0 0 512 512"
	 style="enable-background:new 0 0 512 512;" xml:space="preserve">
<g>
	<path d="M405.3,64H266.1c-3.3,0-6.6-0.7-9.5-2.1l-67.3-33.8c-8.9-4.4-18.7-6.7-28.6-6.7h-53.9C47.8,21.4,0.1,69.1,0,128v256
		c0.1,58.9,47.8,106.6,106.7,106.7h298.7c58.9-0.1,106.6-47.8,106.7-106.7V170.7C511.9,111.8,464.2,64.1,405.3,64z M106.7,64h53.9
		c3.3,0,6.6,0.7,9.5,2.1l67.3,33.7c8.9,4.5,18.7,6.8,28.6,6.8h139.3c26.1,0,49.6,15.9,59.3,40.1l-422,2.4V128
		C42.7,92.7,71.3,64,106.7,64z M405.3,448H106.7c-35.3,0-64-28.7-64-64V191.9l426.7-2.4V384C469.3,419.3,440.7,448,405.3,448z"/>
</g>
</svg>
