<?xml version="1.0" encoding="utf-8"?>
<!-- Generator: Adobe Illustrator 26.3.1, SVG Export Plug-In . SVG Version: 6.00 Build 0)  -->
<svg version="1.1" id="Layer_1" xmlns:svgjs="http://svgjs.com/svgjs"
	 xmlns="http://www.w3.org/2000/svg" xmlns:xlink="http://www.w3.org/1999/xlink" x="0px" y="0px" viewBox="0 0 512 512"
	 style="enable-background:new 0 0 512 512;" xml:space="preserve">
<g>
	<path d="M256,0C114.6,0,0,114.6,0,256s114.6,256,256,256s256-114.6,256-256C511.8,114.7,397.3,0.2,256,0z M256,469.3
		c-117.8,0-213.3-95.5-213.3-213.3S138.2,42.7,256,42.7S469.3,138.2,469.3,256C469.2,373.8,373.8,469.2,256,469.3z"/>
	<path d="M271.3,108c-46.4-8.4-90.8,22.3-99.2,68.7c-0.9,5.1-1.4,10.2-1.4,15.3c0,11.8,9.6,21.3,21.3,21.3s21.3-9.6,21.3-21.3
		c0-23.6,19.1-42.7,42.6-42.7c2.7,0,5.3,0.2,8,0.7c17.2,3.3,30.7,16.8,34.1,34c3.4,18.1-5.2,36.4-21.3,45.3
		c-26.6,15.4-42.7,44-42,74.8V320c0,11.8,9.6,21.3,21.3,21.3c11.8,0,21.3-9.6,21.3-21.3v-15.9c-0.5-15.1,7-29.4,19.8-37.4
		c41.3-22.7,56.4-74.6,33.7-115.9C318.5,128.4,296.6,112.6,271.3,108z"/>
	<path d="M256,362.7L256,362.7c11.8,0,21.3,9.6,21.3,21.3l0,0c0,11.8-9.6,21.3-21.3,21.3l0,0c-11.8,0-21.3-9.6-21.3-21.3l0,0
		C234.7,372.2,244.2,362.7,256,362.7z"/>
</g>
</svg>
