<?xml version="1.0" encoding="utf-8"?>
<!-- Generator: Adobe Illustrator 26.3.1, SVG Export Plug-In . SVG Version: 6.00 Build 0)  -->
<svg version="1.1" id="Layer_1" xmlns="http://www.w3.org/2000/svg" xmlns:xlink="http://www.w3.org/1999/xlink" x="0px" y="0px"
	 viewBox="0 0 512 512" style="enable-background:new 0 0 512 512;" xml:space="preserve">
<g id="b85db83d-9203-44f9-8716-5a4a8d73faeb">
	<path d="M177,381.1c-4.5,0-8.8-1.7-12.1-4.8c-66.4-63-69.1-167.9-6.1-234.2c2-2.1,4-4.1,6.1-6.1c7.7-6.2,18.9-5,25.1,2.6
		c5.6,6.9,5.3,16.9-0.8,23.4c-52,49.8-53.7,132.3-3.9,184.3c1.3,1.3,2.6,2.6,3.9,3.9c7.2,6.7,7.6,18,0.8,25.2
		C186.6,379,181.9,381.1,177,381.1L177,381.1z M105.5,428.9c6.9-7,6.9-18.2,0-25.2C24,326,21,196.8,98.8,115.2
		c2.2-2.3,4.5-4.6,6.8-6.8c7.2-7,7.4-18.4,0.4-25.6c-7-7.2-18.4-7.4-25.6-0.4c-95.9,91.4-99.6,243.3-8.2,339.3
		c2.7,2.8,5.4,5.5,8.2,8.2c7.2,6.8,18.5,6.4,25.2-0.8c0,0,0.1-0.1,0.1-0.1H105.5z M347.1,376.3c66.4-63,69.1-167.9,6.1-234.2
		c-2-2.1-4-4.1-6.1-6.1c-7.2-6.8-18.5-6.4-25.3,0.8c-6.8,7.2-6.4,18.5,0.8,25.3c52,49.4,54.1,131.5,4.7,183.5
		c-1.5,1.6-3.1,3.2-4.7,4.7c-7.2,6.7-7.6,18-0.9,25.2c3.4,3.7,8.2,5.7,13.2,5.7C339.5,381.1,343.8,379.4,347.1,376.3z M431.4,429.8
		c95.9-91,100-242.5,9-338.5c-2.9-3.1-5.9-6.1-9-9c-7.7-6.2-18.9-5-25.1,2.6c-5.6,6.9-5.3,16.9,0.8,23.4
		c81.5,77.8,84.6,207,6.8,288.5c-2.2,2.3-4.5,4.6-6.8,6.8c-7.2,6.7-7.6,18-0.9,25.2c3.4,3.6,8.1,5.7,13,5.7
		C423.8,434.6,428.1,432.9,431.4,429.8z M291.8,256.1c0-19.7-16-35.7-35.7-35.7c-19.7,0-35.7,16-35.7,35.7c0,19.7,16,35.7,35.7,35.7
		C275.8,291.8,291.8,275.8,291.8,256.1z"/>
</g>
</svg>
