<?xml version="1.0" encoding="utf-8"?>
<!-- Generator: Adobe Illustrator 26.3.1, SVG Export Plug-In . SVG Version: 6.00 Build 0)  -->
<svg version="1.1" id="Layer_1" xmlns:svgjs="http://svgjs.com/svgjs"
	 xmlns="http://www.w3.org/2000/svg" xmlns:xlink="http://www.w3.org/1999/xlink" x="0px" y="0px" viewBox="0 0 512 512"
	 style="enable-background:new 0 0 512 512;" xml:space="preserve">
<g>
	<path d="M485.6,218.3L380,112.7l-30.1,30.3l91.7,91.7H141.2v42.7h300.4l-91.7,91.7l30.2,30.2l105.6-105.6
		C506.5,272.8,506.5,239,485.6,218.3C485.6,218.2,485.6,218.2,485.6,218.3L485.6,218.3z"/>
	<path d="M223.5,448c0,11.8-9.6,21.3-21.3,21.3H64c-11.8,0-21.3-9.6-21.3-21.3V64c0-11.8,9.6-21.3,21.3-21.3h138.2
		c11.8,0,21.3,9.6,21.3,21.3v113.8h42.7V64c0-35.3-28.7-64-64-64H64C28.7,0,0,28.7,0,64v384c0,35.3,28.7,64,64,64h138.2
		c35.3,0,64-28.7,64-64V334.2h-42.7V448z"/>
</g>
</svg>
