<?xml version="1.0" encoding="utf-8"?>
<!-- Generator: Adobe Illustrator 26.4.1, SVG Export Plug-In . SVG Version: 6.00 Build 0)  -->
<svg version="1.1" id="Layer_1" xmlns="http://www.w3.org/2000/svg" xmlns:xlink="http://www.w3.org/1999/xlink" x="0px" y="0px"
	 viewBox="0 0 912 912" style="enable-background:new 0 0 912 912;" xml:space="preserve">
<style type="text/css">
	.st0{fill-rule:evenodd;clip-rule:evenodd;}
</style>
<g>
	<path class="st0" d="M369.1,200c-15.6,0.7-29.4,10.8-34.6,25.7L188.2,643.9c-3.5,10.1-13.1,16.9-23.8,16.9
		c-14.1,0-25.6,11.5-25.6,25.6c0,14.1,11.5,25.6,25.6,25.6h102.4c14.1,0,25.6-11.5,25.6-25.6c0-14.1-11.5-25.6-25.6-25.6
		c-16.3,0-27.7-16.1-22.3-31.4l22.3-71H446l22.3,71c5.4,15.4-6,31.4-22.3,31.4c-14.1,0-25.6,11.5-25.6,25.6
		c0,14.1,11.5,25.6,25.6,25.6h179.2c14.1,0,25.6-11.5,25.6-25.6c0-14.1-11.5-25.6-25.6-25.6c-10.7,0-20.3-6.8-23.8-16.9L454.9,225.7
		c-5.4-15.4-19.9-25.7-36.2-25.7L369.1,200L369.1,200z M356.3,309.7l-69.1,197.5h138.2L356.3,309.7z"/>
	<g>
		<g>
			<path d="M773.2,315.5c0,9.7-7.8,17.5-17.5,17.5h-80.5v80.5c0,9.7-7.8,17.5-17.5,17.5s-17.5-7.8-17.5-17.5V333h-80.5
				c-9.7,0-17.5-7.8-17.5-17.5c0-9.7,7.8-17.5,17.5-17.5h80.5v-80.5c0-9.7,7.8-17.5,17.5-17.5s17.5,7.8,17.5,17.5V298h80.5
				C765.4,298,773.2,305.8,773.2,315.5z"/>
		</g>
	</g>
</g>
</svg>
