<?xml version="1.0" encoding="utf-8"?>
<!-- Generator: Adobe Illustrator 26.3.1, SVG Export Plug-In . SVG Version: 6.00 Build 0)  -->
<svg version="1.1" id="Layer_1" xmlns:svgjs="http://svgjs.com/svgjs"
	 xmlns="http://www.w3.org/2000/svg" xmlns:xlink="http://www.w3.org/1999/xlink" x="0px" y="0px" viewBox="0 0 512 512"
	 style="enable-background:new 0 0 512 512;" xml:space="preserve">
<g>
	<path d="M313,0H80C35.9,0,0,35.9,0,80v233c0,44.1,35.9,80,80,80h233c44.1,0,80-35.9,80-80V80C393,35.9,357.1,0,313,0z M353,313
		c0,22.1-17.9,40-40,40H80c-22.1,0-40-17.9-40-40V80c0-22.1,17.9-40,40-40h233c22.1,0,40,17.9,40,40V313z M312,193v60
		c0,33.1-26.9,60-60,60h-60c-11,0-20-9-20-20s9-20,20-20h51.7l-71.4-71.4c-7.8-7.8-7.8-20.5,0-28.3c7.8-7.8,20.5-7.8,28.3,0
		l71.4,71.4V193c0-11,9-20,20-20S312,182,312,193z M512,293c0,11-9,20-20,20s-20-9-20-20s9-20,20-20S512,282,512,293z M432,173
		c0-11,9-20,20-20c33.1,0,60,26.9,60,60c0,11-9,20-20,20s-20-9-20-20c0-11-9-20-20-20C441,193,432,184,432,173z M311,492
		c0,11-9,20-20,20s-20-9-20-20s9-20,20-20S311,481,311,492z M229,492c0,11-9,20-20,20c-33.1,0-60-26.9-60-60c0-11,9-20,20-20
		s20,9,20,20c0,11,9,20,20,20C220,472,229,480.9,229,492z M512,370c0,11-9,20-20,20s-20-9-20-20s9-20,20-20S512,359,512,370z
		 M392,492c0,11-9,20-20,20s-20-9-20-20s9-20,20-20S392,481,392,492z M512,452c0,33.1-26.9,60-60,60c-11,0-20-9-20-20s9-20,20-20
		c11,0,20-9,20-20c0-11,9-20,20-20S512,441,512,452z"/>
</g>
</svg>
