<?xml version="1.0" encoding="utf-8"?>
<!-- Generator: Adobe Illustrator 26.3.1, SVG Export Plug-In . SVG Version: 6.00 Build 0)  -->
<svg version="1.1" id="Layer_1" xmlns="http://www.w3.org/2000/svg" xmlns:xlink="http://www.w3.org/1999/xlink" x="0px" y="0px"
	 viewBox="0 0 512 512" style="enable-background:new 0 0 512 512;" xml:space="preserve">
<g id="Arrow_Outline">
	<path d="M469,122.1L411.3,50c-5.1-6.3-12.7-10-20.9-10h0c-13.5,0-24.5,11-24.5,24.5c0,4.9,1.5,9.7,4.2,13.8l18.8,27.9H64.2
		c-13.3,0-24,10.7-24,24c0,13.3,10.7,24,24,24c0,0,0,0,0,0h324.6L370.1,182c-7.6,11.2-4.7,26.5,6.5,34.1c4.1,2.8,8.9,4.2,13.8,4.2
		h0.1c8.1,0,15.8-3.7,20.9-10l57.7-72.1C472.7,133.4,472.7,126.8,469,122.1L469,122.1z"/>
	<path d="M448,311.5H64c-13.3,0-24-10.7-24-24s10.7-24,24-24h384c13.3,0,24,10.7,24,24S461.3,311.5,448,311.5z"/>
	<path d="M447.2,452.9H64.8c-13.3,0-24-10.7-24-24s10.7-24,24-24h382.5c13.3,0,24,10.7,24,24S460.5,452.9,447.2,452.9z"/>
</g>
</svg>
