<?xml version="1.0" encoding="utf-8"?>
<!-- Generator: Adobe Illustrator 26.3.1, SVG Export Plug-In . SVG Version: 6.00 Build 0)  -->
<svg version="1.1" id="Layer_1" xmlns:svgjs="http://svgjs.com/svgjs"
	 xmlns="http://www.w3.org/2000/svg" xmlns:xlink="http://www.w3.org/1999/xlink" x="0px" y="0px" viewBox="0 0 512 512"
	 style="enable-background:new 0 0 512 512;" xml:space="preserve">
<g>
	<path d="M479.7,234.1L256,368.4L32.3,234.1c-10.1-6.1-23.2-2.8-29.3,7.3s-2.8,23.2,7.3,29.3c0,0,0,0,0,0L245,411.5
		c6.8,4.1,15.2,4.1,22,0l234.7-140.8c10.1-6.1,13.4-19.2,7.3-29.3C502.9,231.3,489.8,228.1,479.7,234.1L479.7,234.1z"/>
	<path d="M479.7,331.6L256,465.8L32.3,331.6c-10.1-6.1-23.2-2.8-29.3,7.3s-2.8,23.2,7.3,29.3L245,509c6.8,4.1,15.2,4.1,22,0
		l234.7-140.8c10.1-6.1,13.4-19.2,7.3-29.3C502.9,328.8,489.8,325.5,479.7,331.6L479.7,331.6z"/>
	<path d="M256,315.2c-11.5,0-22.8-3.1-32.7-9.1l-213-127.8C0.2,172.2-3,159.1,3.1,149c1.8-3,4.3-5.5,7.3-7.3l213-127.8
		c20.1-12.1,45.2-12.1,65.3,0l213,127.8c10.1,6.1,13.4,19.2,7.3,29.3c-1.8,3-4.3,5.5-7.3,7.3l-213,127.8
		C278.8,312,267.5,315.2,256,315.2z M62.8,160l182.5,109.5c6.6,3.9,14.8,3.9,21.3,0L449.2,160L266.7,50.5c-6.6-3.9-14.8-3.9-21.3,0
		l0,0L62.8,160z"/>
</g>
</svg>
