<?xml version="1.0" encoding="utf-8"?>
<!-- Generator: Adobe Illustrator 26.3.1, SVG Export Plug-In . SVG Version: 6.00 Build 0)  -->
<svg version="1.1" id="Layer_1" xmlns:svgjs="http://svgjs.com/svgjs"
	 xmlns="http://www.w3.org/2000/svg" xmlns:xlink="http://www.w3.org/1999/xlink" x="0px" y="0px" viewBox="0 0 512 512"
	 style="enable-background:new 0 0 512 512;" xml:space="preserve">
<g>
	<path d="M490.7,64H277.3c-11.8,0-21.3,9.6-21.3,21.3v69.8l-51.2-88.7c-11.7-20.4-37.8-27.5-58.2-15.8c-6.6,3.8-12,9.2-15.8,15.8
		l0,0L2.8,288c-3.8,6.6-3.8,14.7,0,21.3C6.6,316,13.7,320,21.3,320h91.5c-4.1,13.8-6.2,28.2-6.2,42.7c0,82.5,66.9,149.3,149.3,149.3
		s149.3-66.9,149.3-149.3c0-14.4-2-28.8-6.2-42.7h91.5c11.8,0,21.3-9.6,21.3-21.3V85.3C512,73.6,502.4,64,490.7,64z M58.2,277.3
		L167.7,87.7l73.2,125.7c-43.2,4.8-82.1,28.2-106.7,64H58.2z M256,469.3c-58.9,0-106.7-47.8-106.7-106.7
		c0-58.9,47.8-106.7,106.7-106.7s106.7,47.8,106.7,106.7C362.7,421.6,314.9,469.3,256,469.3z M469.3,277.3h-90.9
		c-19.4-27.7-47.5-48-79.8-57.8V106.7h170.7V277.3z"/>
</g>
</svg>
