<?xml version="1.0" encoding="utf-8"?>
<!-- Generator: Adobe Illustrator 26.3.1, SVG Export Plug-In . SVG Version: 6.00 Build 0)  -->
<svg version="1.1" id="Layer_1" xmlns="http://www.w3.org/2000/svg" xmlns:xlink="http://www.w3.org/1999/xlink" x="0px" y="0px"
	 viewBox="0 0 512 512" style="enable-background:new 0 0 512 512;" xml:space="preserve">
<g>
	<g>
		<path d="M505.2,475.2L378.4,348.4c30-36.6,48-83.5,48-134.4C426.5,96.8,331.1,1.5,214,1.5S1.5,96.8,1.5,214S96.8,426.5,214,426.5
			c51,0,97.8-18,134.4-48l126.8,126.8c4.2,4.1,9.6,6.2,15,6.2c5.4,0,10.9-2.1,15-6.2C513.5,497,513.5,483.5,505.2,475.2z M44,214
			c0-93.7,76.3-170,170-170s170,76.3,170,170c0,46.6-18.8,88.8-49.2,119.5c-0.4,0.4-0.8,0.8-1.2,1.2c-30.7,30.4-73,49.2-119.5,49.2
			C120.2,384,44,307.7,44,214z"/>
		<path d="M334.7,333.5c-0.4,0.4-0.8,0.8-1.2,1.2c0.2-0.2,0.4-0.4,0.6-0.6C334.3,333.9,334.5,333.7,334.7,333.5z"/>
	</g>
</g>
</svg>
