<?xml version="1.0" encoding="utf-8"?>
<!-- Generator: Adobe Illustrator 26.3.1, SVG Export Plug-In . SVG Version: 6.00 Build 0)  -->
<svg version="1.1" id="Layer_1" xmlns:svgjs="http://svgjs.com/svgjs"
	 xmlns="http://www.w3.org/2000/svg" xmlns:xlink="http://www.w3.org/1999/xlink" x="0px" y="0px" viewBox="0 0 512 512"
	 style="enable-background:new 0 0 512 512;" xml:space="preserve">
<g>
	<path d="M391.7,54L263,11.1c-4.2-1.4-8.8-1.4-13,0L121.3,54c-42,13.9-70.3,53.2-70.2,97.4v105.1c0,155.4,189,241.2,197.1,244.7
		c5.3,2.4,11.4,2.4,16.7,0c8.1-3.6,197.1-89.4,197.1-244.7V151.4C462,107.2,433.6,67.9,391.7,54z M420.8,256.5
		c0,112.1-129.8,185.5-164.3,203.1c-34.6-17.5-164.3-90.8-164.3-203.1V151.4c0-26.5,17-50.1,42.2-58.5l122.2-40.7l122.2,40.7
		c25.2,8.4,42.1,31.9,42.2,58.5V256.5z"/>
	<path d="M324.3,180.5l-86,86.3l-46.1-48.1c-7.7-8.4-20.6-9-29-1.3c-8.4,7.7-9,20.6-1.3,29c0.2,0.3,0.5,0.5,0.7,0.7l47.4,49.3
		c7.1,7.7,17.1,12.2,27.6,12.3h0.7c10.3,0,20.2-4.1,27.4-11.4l87.8-87.8c8.1-8,8.1-21.1,0-29.2C345.4,172.5,332.3,172.5,324.3,180.5
		L324.3,180.5z"/>
</g>
</svg>
