<?xml version="1.0" encoding="utf-8"?>
<!-- Generator: Adobe Illustrator 26.3.1, SVG Export Plug-In . SVG Version: 6.00 Build 0)  -->
<svg version="1.1" id="Layer_1" xmlns:svgjs="http://svgjs.com/svgjs"
	 xmlns="http://www.w3.org/2000/svg" xmlns:xlink="http://www.w3.org/1999/xlink" x="0px" y="0px" viewBox="0 0 512 512"
	 style="enable-background:new 0 0 512 512;" xml:space="preserve">
<g>
	<path d="M21.4,101.3h58.4c11.5,42.4,55.2,67.4,97.6,55.9c27.2-7.4,48.5-28.7,55.9-55.9h257.4c11.8,0,21.3-9.6,21.3-21.3
		s-9.6-21.3-21.3-21.3H233.2C221.7,16.3,178-8.7,135.6,2.8c-27.2,7.4-48.5,28.7-55.9,55.9H21.4C9.6,58.7,0,68.2,0,80
		S9.6,101.3,21.4,101.3z M156.4,42.7c20.6,0,37.3,16.7,37.3,37.3s-16.7,37.3-37.3,37.3s-37.3-16.7-37.3-37.3
		C119.1,59.4,135.8,42.7,156.4,42.7z"/>
	<path d="M490.6,234.7h-58.4c-11.5-42.4-55.2-67.4-97.5-55.9c-27.2,7.4-48.5,28.7-55.9,55.9H21.4C9.6,234.7,0,244.2,0,256
		c0,11.8,9.6,21.3,21.3,21.3h257.5c11.5,42.4,55.2,67.4,97.5,55.9c27.2-7.4,48.5-28.7,55.9-55.9h58.4c11.8,0,21.3-9.6,21.3-21.3
		C512,244.2,502.4,234.7,490.6,234.7z M355.6,293.3c-20.6,0-37.3-16.7-37.3-37.3s16.7-37.3,37.3-37.3s37.3,16.7,37.3,37.3
		C392.9,276.6,376.2,293.3,355.6,293.3z"/>
	<path d="M490.6,410.7H233.2c-11.5-42.4-55.2-67.4-97.6-55.9c-27.2,7.4-48.5,28.7-55.9,55.9H21.4C9.6,410.7,0,420.2,0,432
		c0,11.8,9.6,21.3,21.3,21.3h58.4c11.5,42.4,55.2,67.4,97.6,55.9c27.2-7.4,48.5-28.7,55.9-55.9h257.4c11.8,0,21.3-9.6,21.3-21.3
		C512,420.2,502.4,410.7,490.6,410.7z M156.4,469.3c-20.6,0-37.3-16.7-37.3-37.3c0-20.6,16.7-37.3,37.3-37.3s37.3,16.7,37.3,37.3
		C193.7,452.6,177,469.3,156.4,469.3z"/>
</g>
</svg>
