<?xml version="1.0" encoding="utf-8"?>
<!-- Generator: Adobe Illustrator 26.3.1, SVG Export Plug-In . SVG Version: 6.00 Build 0)  -->
<svg version="1.1" id="Capa_1" xmlns="http://www.w3.org/2000/svg" xmlns:xlink="http://www.w3.org/1999/xlink" x="0px" y="0px"
	 viewBox="0 0 512 512" style="enable-background:new 0 0 512 512;" xml:space="preserve">
<g>
	<g>
		<path d="M188.1,500.5H47.3c-24.2,0-43.9-19.7-43.9-43.9V55.4c0-24.2,19.7-43.9,43.9-43.9h140.7c24.2,0,43.9,19.7,43.9,43.9v401.1
			C232,480.8,212.3,500.5,188.1,500.5z M47.3,44.5c-6.1,0-11,4.9-11,11v401.1c0,6.1,4.9,11,11,11h140.7c6.1,0,11-4.9,11-11V55.4
			c0-6.1-4.9-11-11-11H47.3z"/>
	</g>
	<g>
		<path d="M464.7,236.7h-153c-24.2,0-43.9-19.7-43.9-43.9V55.4c0-24.2,19.7-43.9,43.9-43.9h153c24.2,0,43.9,19.7,43.9,43.9v137.3
			C508.6,217,488.9,236.7,464.7,236.7z M311.7,44.5c-6.1,0-11,4.9-11,11v137.3c0,6.1,4.9,11,11,11h153c6.1,0,11-4.9,11-11V55.4
			c0-6.1-4.9-11-11-11H311.7z"/>
	</g>
	<g>
		<path d="M464.7,500.5h-153c-24.2,0-43.9-19.7-43.9-43.9V319.2c0-24.2,19.7-43.9,43.9-43.9h153c24.2,0,43.9,19.7,43.9,43.9v137.3
			C508.6,480.8,488.9,500.5,464.7,500.5z M311.7,308.2c-6.1,0-11,4.9-11,11v137.3c0,6.1,4.9,11,11,11h153c6.1,0,11-4.9,11-11V319.2
			c0-6.1-4.9-11-11-11H311.7z"/>
	</g>
</g>
</svg>
