<?xml version="1.0" encoding="utf-8"?>
<!-- Generator: Adobe Illustrator 26.3.1, SVG Export Plug-In . SVG Version: 6.00 Build 0)  -->
<svg version="1.1" id="Layer_1" xmlns="http://www.w3.org/2000/svg" xmlns:xlink="http://www.w3.org/1999/xlink" x="0px" y="0px"
	 viewBox="0 0 512 512" style="enable-background:new 0 0 512 512;" xml:space="preserve">
<g id="icon_x2F_navigation_x2F_more_x5F_vert_x5F_24px_00000127028615890897337160000008465856636689638591_">
	<path id="_Color_00000069375727060392429130000015312119114120257208_" d="M256,511c-35.2,0-63.8-28.5-63.8-63.8
		s28.5-63.8,63.8-63.8s63.8,28.5,63.8,63.8S291.2,511,256,511z M256,319.8c-35.2,0-63.8-28.5-63.8-63.8s28.5-63.8,63.8-63.8
		s63.8,28.5,63.8,63.8S291.2,319.8,256,319.8z M256,128.5c-35.2,0-63.8-28.5-63.8-63.8S220.8,1,256,1s63.8,28.5,63.8,63.8
		S291.2,128.5,256,128.5z"/>
</g>
</svg>
