<?xml version="1.0" encoding="utf-8"?>
<!-- Generator: Adobe Illustrator 26.3.1, SVG Export Plug-In . SVG Version: 6.00 Build 0)  -->
<svg version="1.1" id="Layer_1" xmlns:svgjs="http://svgjs.com/svgjs"
	 xmlns="http://www.w3.org/2000/svg" xmlns:xlink="http://www.w3.org/1999/xlink" x="0px" y="0px" viewBox="0 0 512 512"
	 style="enable-background:new 0 0 512 512;" xml:space="preserve">
<g>
	<path d="M315.3,219.7c-0.5,0.1-1,0.4-1.4,0.9l-59.7,67.1c-3.2,3.6-5,8.3-5,13.2v139.1l-39.7-29.8V300.9c0-4.9-1.8-9.6-5-13.2
		l-28-31.5c-0.7-0.8-1.8-1.1-2.8-0.9l-37.3,9.4c-2,0.5-2.8,3-1.4,4.6l34.7,39.1V420c0,6.3,2.9,12.1,7.9,15.9l79.1,59.3
		c3.3,2.5,7.2,4,11.3,4.2c11.4,0.5,20.8-8.6,20.8-19.8V308.4l87.9-99c1.8-2.1-0.1-5.2-2.8-4.6L315.3,219.7z"/>
	<g>
		<path d="M508.7,118.4c-2.5-10-12.6-16-22.6-13.5l-42.7,10.8c2.9-8.2,4.4-16.8,4.4-25.6c0-42.8-34.6-77.5-77.4-77.6H88.3
			c-18.9,0-37.2,7-51.3,19.5C5,60.4,2,109.3,30.4,141.4l56.9,64l-70.5,17.8c-10,2.5-16,12.6-13.5,22.6c2.1,8.5,9.7,14.1,18,14.1
			c1.5,0,3-0.2,4.6-0.6L495.2,141C505.2,138.5,511.2,128.4,508.7,118.4z M398.7,115L385,130.4l-254.2,64.1L60.1,115
			c-6.1-6.9-9.4-15.7-9.5-24.9c0-20.8,16.8-37.8,37.7-37.8h282.1c9.2,0,18.1,3.4,25,9.5C411,75.5,412.5,99.4,398.7,115z"/>
	</g>
</g>
</svg>
