<?xml version="1.0" encoding="utf-8"?>
<!-- Generator: Adobe Illustrator 26.3.1, SVG Export Plug-In . SVG Version: 6.00 Build 0)  -->
<svg version="1.1" id="Layer_1" xmlns:svgjs="http://svgjs.com/svgjs"
	 xmlns="http://www.w3.org/2000/svg" xmlns:xlink="http://www.w3.org/1999/xlink" x="0px" y="0px" viewBox="0 0 512 512"
	 style="enable-background:new 0 0 512 512;" xml:space="preserve">
<g>
	<path d="M256,8.5C119.3,8.5,8.5,119.3,8.5,256S119.3,503.5,256,503.5S503.5,392.7,503.5,256C503.4,119.4,392.6,8.6,256,8.5z
		 M256,462.2c-113.9,0-206.2-92.3-206.2-206.2S142.1,49.8,256,49.8S462.2,142.1,462.2,256C462.1,369.9,369.9,462.1,256,462.2z"/>
	<path d="M256,214.8h-20.6c-11.4,0-20.6,9.2-20.6,20.6S224,256,235.4,256H256v123.8c0,11.4,9.2,20.6,20.6,20.6s20.6-9.2,20.6-20.6
		V256C297.2,233.2,278.8,214.8,256,214.8z"/>
	<circle cx="256" cy="142.6" r="30.9"/>
</g>
</svg>
