<?xml version="1.0" encoding="utf-8"?>
<!-- Generator: Adobe Illustrator 26.3.1, SVG Export Plug-In . SVG Version: 6.00 Build 0)  -->
<svg version="1.1" id="Layer_1" xmlns:svgjs="http://svgjs.com/svgjs"
	 xmlns="http://www.w3.org/2000/svg" xmlns:xlink="http://www.w3.org/1999/xlink" x="0px" y="0px" viewBox="0 0 512 512"
	 style="enable-background:new 0 0 512 512;" xml:space="preserve">
<g>
	<g id="_01_align_center">
		<path d="M508.2,238.5L508.2,238.5C489.5,197.6,416,64,256,64S22.5,197.6,3.8,238.5c-5.1,11.1-5.1,23.9,0,35
			C22.5,314.4,96,448,256,448s233.5-133.6,252.2-174.5C513.3,262.4,513.3,249.6,508.2,238.5z M256,405.3
			c-134.5,0-197.3-114.5-213.3-149.1c16-35.1,78.8-149.6,213.3-149.6c134.2,0,197,114,213.3,149.3C453,291.3,390.2,405.3,256,405.3z
			"/>
		<path d="M256,149.3c-58.9,0-106.7,47.8-106.7,106.7S197.1,362.7,256,362.7S362.7,314.9,362.7,256
			C362.6,197.1,314.9,149.4,256,149.3z M256,320c-35.3,0-64-28.7-64-64s28.7-64,64-64s64,28.7,64,64S291.3,320,256,320z"/>
	</g>
</g>
</svg>
