<svg width="16" height="16" viewBox="0 0 16 16" fill="none" xmlns="http://www.w3.org/2000/svg">
<g clip-path="url(#clip0_2_2)">
<path d="M6.3 11.3V9C6.8 9 7.3 9.1 7.8 9.2C7.8 9.1 8 9 8.1 8.9C8.1 8.9 7.1 8.6 6.4 8.6C6.3 8.6 6.3 8.6 6.3 8.6V6.2H8.6C8.6 6.4 8.6 6.6 8.6 6.9C8.7 6.7 8.8 6.5 9 6.3C9.2 6.1 9.3 6 9.5 5.9H9C9 5 8.8 4.2 8.5 3.4C9 3.2 9.5 2.9 10 2.5C10.6 3.2 11.1 4.1 11.2 5.1C11.3 5.1 11.5 5.1 11.6 5.1C11.7 5.1 11.9 5.1 12 5.1C11.6 2.2 9.1 0 6.1 0C2.7 0 0 2.7 0 6C0 9.3 2.7 12 6 12C6.2 12 6.5 12 6.7 12V11.2C6.7 11 6.7 10.9 6.7 10.7C6.7 11 6.5 11.1 6.3 11.3ZM5.2 0.9C4.6 1.5 4.1 2.2 3.8 3C3.3 2.8 2.8 2.6 2.4 2.3C3.2 1.5 4.1 1 5.2 0.9ZM2.1 2.5C2.5 2.8 3 3.1 3.6 3.4C3.3 4.2 3.2 5 3.2 5.9H0.8C0.9 4.6 1.4 3.4 2.1 2.5ZM0.8 6.2H3.1C3.1 7.2 3.3 8.1 3.7 9C3.2 9.2 2.7 9.4 2.3 9.8C1.4 8.9 0.9 7.6 0.8 6.2ZM2.7 10C3 9.8 3.5 9.6 3.9 9.4C4.2 10.1 4.7 10.7 5.2 11.3C4.2 11.1 3.4 10.7 2.7 10ZM5.9 11.3C5.2 10.8 4.7 10.1 4.3 9.2C4.8 9.1 5.3 9 5.9 9V11.3ZM5.9 8.6C5.3 8.6 4.7 8.7 4.1 8.9C3.8 8.1 3.6 7.2 3.5 6.2H5.8V8.6H5.9ZM5.9 5.9H3.5C3.6 5 3.7 4.3 4 3.5C4.6 3.7 5.2 3.8 5.9 3.9V5.9ZM5.9 3.5C5.3 3.5 4.7 3.4 4.1 3.2C4.5 2.2 5.1 1.4 5.8 0.8V3.5H5.9ZM8.6 5.8H6.3V3.9C7 3.9 7.6 3.8 8.2 3.6C8.4 4.2 8.6 5 8.6 5.8ZM9.7 2.3C9.3 2.6 8.9 2.8 8.4 3C8 2.2 7.5 1.5 6.9 0.9C8 1 9 1.5 9.7 2.3ZM6.3 0.8C7 1.4 7.6 2.2 8 3.2C7.5 3.4 6.9 3.5 6.3 3.5V0.8Z" fill="black"/>
<path d="M14.7 9.20001V8.60001C14.7 6.90001 13.3 5.60001 11.7 5.60001C10.1 5.60001 8.70002 7.00001 8.70002 8.60001V9.20001C7.90002 9.50001 7.40002 10.3 7.40002 11.2V13.8C7.40002 15 8.40002 16 9.60002 16H13.9C15.1 16 16.1 15 16.1 13.8V11.2C16 10.4 15.5 9.60001 14.7 9.20001ZM12.5 13.3C12.5 13.7 12.1 14 11.7 14C11.3 14 10.9 13.7 10.9 13.3V11.8C10.9 11.4 11.2 11 11.7 11C12.1 11 12.5 11.3 12.5 11.8V13.3ZM13.8 9.10001H9.50002V8.60001C9.50002 7.40001 10.5 6.40001 11.7 6.50001C12.9 6.50001 13.8 7.50001 13.8 8.60001V9.10001Z" fill="black"/>
</g>
<defs>
<clipPath id="clip0_2_2">
<rect width="16" height="16" fill="white"/>
</clipPath>
</defs>
</svg>
